G04 #@! TF.GenerationSoftware,KiCad,Pcbnew,(5.1.4)-1*
G04 #@! TF.CreationDate,2021-03-14T16:47:26+01:00*
G04 #@! TF.ProjectId,zepto_receiver_elrs,7a657074-6f5f-4726-9563-65697665725f,rev?*
G04 #@! TF.SameCoordinates,Original*
G04 #@! TF.FileFunction,Copper,L3,Inr*
G04 #@! TF.FilePolarity,Positive*
%FSLAX46Y46*%
G04 Gerber Fmt 4.6, Leading zero omitted, Abs format (unit mm)*
G04 Created by KiCad (PCBNEW (5.1.4)-1) date 2021-03-14 16:47:26*
%MOMM*%
%LPD*%
G04 APERTURE LIST*
%ADD10C,0.400000*%
%ADD11C,1.000000*%
%ADD12C,0.100000*%
G04 APERTURE END LIST*
D10*
X128370000Y-51710000D03*
X127870000Y-51710000D03*
X127370000Y-51710000D03*
X127870000Y-52210000D03*
X128870000Y-51710000D03*
X127370000Y-52210000D03*
X128370000Y-52210000D03*
X128870000Y-52210000D03*
X124150000Y-51600000D03*
X124150000Y-51600000D03*
X122250000Y-51650000D03*
X124920000Y-57930000D03*
X125400000Y-55400000D03*
X125530000Y-52970000D03*
D11*
X120150000Y-57520000D03*
D10*
X122399986Y-54900000D03*
X123375000Y-53700000D03*
X124900000Y-54500000D03*
X128150000Y-54425000D03*
X123947607Y-56920000D03*
X121890000Y-57990000D03*
X127350000Y-53650000D03*
X126250000Y-56300000D03*
X126400000Y-53500000D03*
X126650000Y-54500000D03*
X127175000Y-55775000D03*
X128625000Y-55875000D03*
X129200000Y-57075000D03*
X123100000Y-52500000D03*
X124925000Y-55550000D03*
X126975000Y-57325000D03*
X128775000Y-53150000D03*
X129311249Y-53998146D03*
X127375000Y-54375000D03*
X127770000Y-57450000D03*
X128500000Y-57380000D03*
X122400000Y-57900000D03*
X124350000Y-54950000D03*
D11*
X120160000Y-55870000D03*
D10*
X126100000Y-51675000D03*
X125400000Y-54400000D03*
X125380000Y-55930000D03*
X128464986Y-55240000D03*
X121975000Y-54575000D03*
X123925000Y-54175000D03*
X123650000Y-52800000D03*
X122127847Y-55950010D03*
X123880000Y-57420000D03*
X121902000Y-57447000D03*
X127175000Y-56625000D03*
X122394000Y-57355000D03*
X126280000Y-57650000D03*
X123400000Y-54400000D03*
X126850000Y-52925000D03*
D11*
X120150000Y-52625000D03*
D10*
X121000000Y-52450000D03*
D11*
X120150000Y-54220000D03*
D10*
X121947901Y-55450010D03*
X121475000Y-54700000D03*
X123425000Y-55375000D03*
X129200000Y-57900000D03*
X124349595Y-55950408D03*
X122450000Y-54350000D03*
X120900000Y-51600000D03*
D12*
G36*
X124047909Y-51263450D02*
G01*
X123984213Y-51289834D01*
X123926888Y-51328137D01*
X123878137Y-51376888D01*
X123839834Y-51434213D01*
X123813450Y-51497909D01*
X123800000Y-51565528D01*
X123800000Y-51634472D01*
X123813450Y-51702091D01*
X123839834Y-51765787D01*
X123878137Y-51823112D01*
X123926888Y-51871863D01*
X123984213Y-51910166D01*
X124047909Y-51936550D01*
X124115528Y-51950000D01*
X124184472Y-51950000D01*
X124252091Y-51936550D01*
X124315787Y-51910166D01*
X124373112Y-51871863D01*
X124421863Y-51823112D01*
X124460166Y-51765787D01*
X124486550Y-51702091D01*
X124491833Y-51675528D01*
X127520000Y-51675528D01*
X127520000Y-51744472D01*
X127533450Y-51812091D01*
X127559834Y-51875787D01*
X127598137Y-51933112D01*
X127646888Y-51981863D01*
X127704213Y-52020166D01*
X127767909Y-52046550D01*
X127835528Y-52060000D01*
X127904472Y-52060000D01*
X127972091Y-52046550D01*
X128035787Y-52020166D01*
X128093112Y-51981863D01*
X128141863Y-51933112D01*
X128180166Y-51875787D01*
X128206550Y-51812091D01*
X128220000Y-51744472D01*
X128220000Y-51675528D01*
X128520000Y-51675528D01*
X128520000Y-51744472D01*
X128533450Y-51812091D01*
X128559834Y-51875787D01*
X128598137Y-51933112D01*
X128646888Y-51981863D01*
X128704213Y-52020166D01*
X128767909Y-52046550D01*
X128835528Y-52060000D01*
X128904472Y-52060000D01*
X128972091Y-52046550D01*
X129035787Y-52020166D01*
X129093112Y-51981863D01*
X129141863Y-51933112D01*
X129180166Y-51875787D01*
X129206550Y-51812091D01*
X129220000Y-51744472D01*
X129220000Y-51675528D01*
X129206550Y-51607909D01*
X129180166Y-51544213D01*
X129141863Y-51486888D01*
X129093112Y-51438137D01*
X129035787Y-51399834D01*
X128972091Y-51373450D01*
X128904472Y-51360000D01*
X128835528Y-51360000D01*
X128767909Y-51373450D01*
X128704213Y-51399834D01*
X128646888Y-51438137D01*
X128598137Y-51486888D01*
X128559834Y-51544213D01*
X128533450Y-51607909D01*
X128520000Y-51675528D01*
X128220000Y-51675528D01*
X128206550Y-51607909D01*
X128180166Y-51544213D01*
X128141863Y-51486888D01*
X128093112Y-51438137D01*
X128035787Y-51399834D01*
X127972091Y-51373450D01*
X127904472Y-51360000D01*
X127835528Y-51360000D01*
X127767909Y-51373450D01*
X127704213Y-51399834D01*
X127646888Y-51438137D01*
X127598137Y-51486888D01*
X127559834Y-51544213D01*
X127533450Y-51607909D01*
X127520000Y-51675528D01*
X124491833Y-51675528D01*
X124500000Y-51634472D01*
X124500000Y-51565528D01*
X124486550Y-51497909D01*
X124460166Y-51434213D01*
X124421863Y-51376888D01*
X124373112Y-51328137D01*
X124315787Y-51289834D01*
X124252091Y-51263450D01*
X124184472Y-51250000D01*
X124390870Y-51250000D01*
X124502962Y-51322059D01*
X124513408Y-51327167D01*
X124522929Y-51329497D01*
X124662929Y-51349497D01*
X124670000Y-51350000D01*
X126990000Y-51350000D01*
X127001452Y-51348671D01*
X127171452Y-51308671D01*
X127184508Y-51303582D01*
X127192540Y-51297963D01*
X127248497Y-51250000D01*
X129550000Y-51250000D01*
X129550000Y-53741922D01*
X129534361Y-53726283D01*
X129477036Y-53687980D01*
X129413340Y-53661596D01*
X129345721Y-53648146D01*
X129276777Y-53648146D01*
X129209158Y-53661596D01*
X129145462Y-53687980D01*
X129088137Y-53726283D01*
X129039386Y-53775034D01*
X129001083Y-53832359D01*
X128974699Y-53896055D01*
X128961249Y-53963674D01*
X128961249Y-54032618D01*
X128974699Y-54100237D01*
X129001083Y-54163933D01*
X129039386Y-54221258D01*
X129088137Y-54270009D01*
X129145462Y-54308312D01*
X129209158Y-54334696D01*
X129276777Y-54348146D01*
X129345721Y-54348146D01*
X129413340Y-54334696D01*
X129477036Y-54308312D01*
X129534361Y-54270009D01*
X129550000Y-54254370D01*
X129550001Y-58250000D01*
X129234472Y-58250000D01*
X129302091Y-58236550D01*
X129365787Y-58210166D01*
X129423112Y-58171863D01*
X129471863Y-58123112D01*
X129510166Y-58065787D01*
X129536550Y-58002091D01*
X129550000Y-57934472D01*
X129550000Y-57865528D01*
X129536550Y-57797909D01*
X129510166Y-57734213D01*
X129471863Y-57676888D01*
X129423112Y-57628137D01*
X129365787Y-57589834D01*
X129302091Y-57563450D01*
X129234472Y-57550000D01*
X129165528Y-57550000D01*
X129097909Y-57563450D01*
X129034213Y-57589834D01*
X128976888Y-57628137D01*
X128928137Y-57676888D01*
X128889834Y-57734213D01*
X128863450Y-57797909D01*
X128850000Y-57865528D01*
X128850000Y-57934472D01*
X128863450Y-58002091D01*
X128889834Y-58065787D01*
X128928137Y-58123112D01*
X128976888Y-58171863D01*
X129034213Y-58210166D01*
X129097909Y-58236550D01*
X129165528Y-58250000D01*
X126509129Y-58250000D01*
X126397038Y-58177942D01*
X126386592Y-58172834D01*
X126377072Y-58170504D01*
X126237072Y-58150502D01*
X126230000Y-58149999D01*
X125193943Y-58149999D01*
X125230166Y-58095787D01*
X125256550Y-58032091D01*
X125270000Y-57964472D01*
X125270000Y-57895528D01*
X125256550Y-57827909D01*
X125230166Y-57764213D01*
X125191863Y-57706888D01*
X125143112Y-57658137D01*
X125085787Y-57619834D01*
X125075392Y-57615528D01*
X125930000Y-57615528D01*
X125930000Y-57684472D01*
X125943450Y-57752091D01*
X125969834Y-57815787D01*
X126008137Y-57873112D01*
X126056888Y-57921863D01*
X126114213Y-57960166D01*
X126177909Y-57986550D01*
X126245528Y-58000000D01*
X126314472Y-58000000D01*
X126382091Y-57986550D01*
X126445787Y-57960166D01*
X126503112Y-57921863D01*
X126551863Y-57873112D01*
X126590166Y-57815787D01*
X126616550Y-57752091D01*
X126630000Y-57684472D01*
X126630000Y-57615528D01*
X126616550Y-57547909D01*
X126590166Y-57484213D01*
X126551863Y-57426888D01*
X126503112Y-57378137D01*
X126445787Y-57339834D01*
X126382091Y-57313450D01*
X126314472Y-57300000D01*
X126245528Y-57300000D01*
X126177909Y-57313450D01*
X126114213Y-57339834D01*
X126056888Y-57378137D01*
X126008137Y-57426888D01*
X125969834Y-57484213D01*
X125943450Y-57547909D01*
X125930000Y-57615528D01*
X125075392Y-57615528D01*
X125022091Y-57593450D01*
X124954472Y-57580000D01*
X124885528Y-57580000D01*
X124817909Y-57593450D01*
X124754213Y-57619834D01*
X124696888Y-57658137D01*
X124648137Y-57706888D01*
X124609834Y-57764213D01*
X124583450Y-57827909D01*
X124570000Y-57895528D01*
X124570000Y-57964472D01*
X124583450Y-58032091D01*
X124609834Y-58095787D01*
X124646057Y-58150000D01*
X123910000Y-58150000D01*
X123898548Y-58151329D01*
X123728548Y-58191329D01*
X123715492Y-58196418D01*
X123707460Y-58202037D01*
X123651503Y-58250000D01*
X122434472Y-58250000D01*
X122502091Y-58236550D01*
X122565787Y-58210166D01*
X122623112Y-58171863D01*
X122671863Y-58123112D01*
X122710166Y-58065787D01*
X122736550Y-58002091D01*
X122750000Y-57934472D01*
X122750000Y-57865528D01*
X122736550Y-57797909D01*
X122710166Y-57734213D01*
X122671863Y-57676888D01*
X122623112Y-57628137D01*
X122618752Y-57625223D01*
X122665863Y-57578112D01*
X122704166Y-57520787D01*
X122730550Y-57457091D01*
X122744000Y-57389472D01*
X122744000Y-57320528D01*
X122738033Y-57290528D01*
X126625000Y-57290528D01*
X126625000Y-57359472D01*
X126638450Y-57427091D01*
X126664834Y-57490787D01*
X126703137Y-57548112D01*
X126751888Y-57596863D01*
X126809213Y-57635166D01*
X126872909Y-57661550D01*
X126940528Y-57675000D01*
X127009472Y-57675000D01*
X127077091Y-57661550D01*
X127140787Y-57635166D01*
X127198112Y-57596863D01*
X127246863Y-57548112D01*
X127285166Y-57490787D01*
X127311550Y-57427091D01*
X127313849Y-57415528D01*
X127420000Y-57415528D01*
X127420000Y-57484472D01*
X127433450Y-57552091D01*
X127459834Y-57615787D01*
X127498137Y-57673112D01*
X127546888Y-57721863D01*
X127604213Y-57760166D01*
X127667909Y-57786550D01*
X127735528Y-57800000D01*
X127804472Y-57800000D01*
X127872091Y-57786550D01*
X127935787Y-57760166D01*
X127993112Y-57721863D01*
X128041863Y-57673112D01*
X128080166Y-57615787D01*
X128106550Y-57552091D01*
X128120000Y-57484472D01*
X128120000Y-57415528D01*
X128106550Y-57347909D01*
X128105564Y-57345528D01*
X128150000Y-57345528D01*
X128150000Y-57414472D01*
X128163450Y-57482091D01*
X128189834Y-57545787D01*
X128228137Y-57603112D01*
X128276888Y-57651863D01*
X128334213Y-57690166D01*
X128397909Y-57716550D01*
X128465528Y-57730000D01*
X128534472Y-57730000D01*
X128602091Y-57716550D01*
X128665787Y-57690166D01*
X128723112Y-57651863D01*
X128771863Y-57603112D01*
X128810166Y-57545787D01*
X128836550Y-57482091D01*
X128850000Y-57414472D01*
X128850000Y-57345528D01*
X128836550Y-57277909D01*
X128810166Y-57214213D01*
X128771863Y-57156888D01*
X128723112Y-57108137D01*
X128665787Y-57069834D01*
X128602091Y-57043450D01*
X128587401Y-57040528D01*
X128850000Y-57040528D01*
X128850000Y-57109472D01*
X128863450Y-57177091D01*
X128889834Y-57240787D01*
X128928137Y-57298112D01*
X128976888Y-57346863D01*
X129034213Y-57385166D01*
X129097909Y-57411550D01*
X129165528Y-57425000D01*
X129234472Y-57425000D01*
X129302091Y-57411550D01*
X129365787Y-57385166D01*
X129423112Y-57346863D01*
X129471863Y-57298112D01*
X129510166Y-57240787D01*
X129536550Y-57177091D01*
X129550000Y-57109472D01*
X129550000Y-57040528D01*
X129536550Y-56972909D01*
X129510166Y-56909213D01*
X129471863Y-56851888D01*
X129423112Y-56803137D01*
X129365787Y-56764834D01*
X129302091Y-56738450D01*
X129234472Y-56725000D01*
X129165528Y-56725000D01*
X129097909Y-56738450D01*
X129034213Y-56764834D01*
X128976888Y-56803137D01*
X128928137Y-56851888D01*
X128889834Y-56909213D01*
X128863450Y-56972909D01*
X128850000Y-57040528D01*
X128587401Y-57040528D01*
X128534472Y-57030000D01*
X128465528Y-57030000D01*
X128397909Y-57043450D01*
X128334213Y-57069834D01*
X128276888Y-57108137D01*
X128228137Y-57156888D01*
X128189834Y-57214213D01*
X128163450Y-57277909D01*
X128150000Y-57345528D01*
X128105564Y-57345528D01*
X128080166Y-57284213D01*
X128041863Y-57226888D01*
X127993112Y-57178137D01*
X127935787Y-57139834D01*
X127872091Y-57113450D01*
X127804472Y-57100000D01*
X127735528Y-57100000D01*
X127667909Y-57113450D01*
X127604213Y-57139834D01*
X127546888Y-57178137D01*
X127498137Y-57226888D01*
X127459834Y-57284213D01*
X127433450Y-57347909D01*
X127420000Y-57415528D01*
X127313849Y-57415528D01*
X127325000Y-57359472D01*
X127325000Y-57290528D01*
X127311550Y-57222909D01*
X127285166Y-57159213D01*
X127246863Y-57101888D01*
X127198112Y-57053137D01*
X127140787Y-57014834D01*
X127077091Y-56988450D01*
X127009472Y-56975000D01*
X126940528Y-56975000D01*
X126872909Y-56988450D01*
X126809213Y-57014834D01*
X126751888Y-57053137D01*
X126703137Y-57101888D01*
X126664834Y-57159213D01*
X126638450Y-57222909D01*
X126625000Y-57290528D01*
X122738033Y-57290528D01*
X122730550Y-57252909D01*
X122704166Y-57189213D01*
X122665863Y-57131888D01*
X122617112Y-57083137D01*
X122559787Y-57044834D01*
X122496091Y-57018450D01*
X122428472Y-57005000D01*
X122359528Y-57005000D01*
X122291909Y-57018450D01*
X122228213Y-57044834D01*
X122170888Y-57083137D01*
X122122137Y-57131888D01*
X122083834Y-57189213D01*
X122057450Y-57252909D01*
X122044000Y-57320528D01*
X122044000Y-57389472D01*
X122057450Y-57457091D01*
X122083834Y-57520787D01*
X122122137Y-57578112D01*
X122170888Y-57626863D01*
X122175248Y-57629777D01*
X122128137Y-57676888D01*
X122104445Y-57712346D01*
X122055787Y-57679834D01*
X121992091Y-57653450D01*
X121924472Y-57640000D01*
X121855528Y-57640000D01*
X121787909Y-57653450D01*
X121724213Y-57679834D01*
X121666888Y-57718137D01*
X121618137Y-57766888D01*
X121579834Y-57824213D01*
X121553450Y-57887909D01*
X121540000Y-57955528D01*
X121540000Y-58024472D01*
X121553450Y-58092091D01*
X121579834Y-58155787D01*
X121618137Y-58213112D01*
X121655025Y-58250000D01*
X120550000Y-58250000D01*
X120550000Y-58034477D01*
X120564351Y-58024888D01*
X120654888Y-57934351D01*
X120726022Y-57827890D01*
X120775021Y-57709598D01*
X120800000Y-57584019D01*
X120800000Y-57455981D01*
X120775021Y-57330402D01*
X120726022Y-57212110D01*
X120654888Y-57105649D01*
X120564351Y-57015112D01*
X120550000Y-57005523D01*
X120550000Y-56885528D01*
X123597607Y-56885528D01*
X123597607Y-56954472D01*
X123611057Y-57022091D01*
X123637441Y-57085787D01*
X123675744Y-57143112D01*
X123724495Y-57191863D01*
X123781820Y-57230166D01*
X123845516Y-57256550D01*
X123913135Y-57270000D01*
X123982079Y-57270000D01*
X124049698Y-57256550D01*
X124113394Y-57230166D01*
X124170719Y-57191863D01*
X124219470Y-57143112D01*
X124257773Y-57085787D01*
X124284157Y-57022091D01*
X124297607Y-56954472D01*
X124297607Y-56885528D01*
X124284157Y-56817909D01*
X124257773Y-56754213D01*
X124219470Y-56696888D01*
X124170719Y-56648137D01*
X124113394Y-56609834D01*
X124049698Y-56583450D01*
X123982079Y-56570000D01*
X123913135Y-56570000D01*
X123845516Y-56583450D01*
X123781820Y-56609834D01*
X123724495Y-56648137D01*
X123675744Y-56696888D01*
X123637441Y-56754213D01*
X123611057Y-56817909D01*
X123597607Y-56885528D01*
X120550000Y-56885528D01*
X120550000Y-56391159D01*
X120574351Y-56374888D01*
X120664888Y-56284351D01*
X120736022Y-56177890D01*
X120785021Y-56059598D01*
X120810000Y-55934019D01*
X120810000Y-55915936D01*
X123999595Y-55915936D01*
X123999595Y-55984880D01*
X124013045Y-56052499D01*
X124039429Y-56116195D01*
X124077732Y-56173520D01*
X124126483Y-56222271D01*
X124183808Y-56260574D01*
X124247504Y-56286958D01*
X124315123Y-56300408D01*
X124384067Y-56300408D01*
X124451686Y-56286958D01*
X124503422Y-56265528D01*
X125900000Y-56265528D01*
X125900000Y-56334472D01*
X125913450Y-56402091D01*
X125939834Y-56465787D01*
X125978137Y-56523112D01*
X126026888Y-56571863D01*
X126084213Y-56610166D01*
X126147909Y-56636550D01*
X126215528Y-56650000D01*
X126284472Y-56650000D01*
X126352091Y-56636550D01*
X126415787Y-56610166D01*
X126445177Y-56590528D01*
X126825000Y-56590528D01*
X126825000Y-56659472D01*
X126838450Y-56727091D01*
X126864834Y-56790787D01*
X126903137Y-56848112D01*
X126951888Y-56896863D01*
X127009213Y-56935166D01*
X127072909Y-56961550D01*
X127140528Y-56975000D01*
X127209472Y-56975000D01*
X127277091Y-56961550D01*
X127340787Y-56935166D01*
X127398112Y-56896863D01*
X127446863Y-56848112D01*
X127485166Y-56790787D01*
X127511550Y-56727091D01*
X127525000Y-56659472D01*
X127525000Y-56590528D01*
X127511550Y-56522909D01*
X127485166Y-56459213D01*
X127446863Y-56401888D01*
X127398112Y-56353137D01*
X127340787Y-56314834D01*
X127277091Y-56288450D01*
X127209472Y-56275000D01*
X127140528Y-56275000D01*
X127072909Y-56288450D01*
X127009213Y-56314834D01*
X126951888Y-56353137D01*
X126903137Y-56401888D01*
X126864834Y-56459213D01*
X126838450Y-56522909D01*
X126825000Y-56590528D01*
X126445177Y-56590528D01*
X126473112Y-56571863D01*
X126521863Y-56523112D01*
X126560166Y-56465787D01*
X126586550Y-56402091D01*
X126600000Y-56334472D01*
X126600000Y-56265528D01*
X126586550Y-56197909D01*
X126560166Y-56134213D01*
X126521863Y-56076888D01*
X126473112Y-56028137D01*
X126415787Y-55989834D01*
X126352091Y-55963450D01*
X126284472Y-55950000D01*
X126215528Y-55950000D01*
X126147909Y-55963450D01*
X126084213Y-55989834D01*
X126026888Y-56028137D01*
X125978137Y-56076888D01*
X125939834Y-56134213D01*
X125913450Y-56197909D01*
X125900000Y-56265528D01*
X124503422Y-56265528D01*
X124515382Y-56260574D01*
X124572707Y-56222271D01*
X124621458Y-56173520D01*
X124659761Y-56116195D01*
X124686145Y-56052499D01*
X124699595Y-55984880D01*
X124699595Y-55915936D01*
X124686145Y-55848317D01*
X124659761Y-55784621D01*
X124621458Y-55727296D01*
X124572707Y-55678545D01*
X124515382Y-55640242D01*
X124451686Y-55613858D01*
X124384067Y-55600408D01*
X124315123Y-55600408D01*
X124247504Y-55613858D01*
X124183808Y-55640242D01*
X124126483Y-55678545D01*
X124077732Y-55727296D01*
X124039429Y-55784621D01*
X124013045Y-55848317D01*
X123999595Y-55915936D01*
X120810000Y-55915936D01*
X120810000Y-55805981D01*
X120785021Y-55680402D01*
X120736022Y-55562110D01*
X120664888Y-55455649D01*
X120624777Y-55415538D01*
X121597901Y-55415538D01*
X121597901Y-55484482D01*
X121611351Y-55552101D01*
X121637735Y-55615797D01*
X121676038Y-55673122D01*
X121724789Y-55721873D01*
X121782114Y-55760176D01*
X121845810Y-55786560D01*
X121913429Y-55800010D01*
X121982373Y-55800010D01*
X122049992Y-55786560D01*
X122113688Y-55760176D01*
X122171013Y-55721873D01*
X122219764Y-55673122D01*
X122258067Y-55615797D01*
X122284451Y-55552101D01*
X122297901Y-55484482D01*
X122297901Y-55415538D01*
X122284451Y-55347919D01*
X122281390Y-55340528D01*
X123075000Y-55340528D01*
X123075000Y-55409472D01*
X123088450Y-55477091D01*
X123114834Y-55540787D01*
X123153137Y-55598112D01*
X123201888Y-55646863D01*
X123259213Y-55685166D01*
X123322909Y-55711550D01*
X123390528Y-55725000D01*
X123459472Y-55725000D01*
X123527091Y-55711550D01*
X123590787Y-55685166D01*
X123648112Y-55646863D01*
X123696863Y-55598112D01*
X123735166Y-55540787D01*
X123745628Y-55515528D01*
X124575000Y-55515528D01*
X124575000Y-55584472D01*
X124588450Y-55652091D01*
X124614834Y-55715787D01*
X124653137Y-55773112D01*
X124701888Y-55821863D01*
X124759213Y-55860166D01*
X124822909Y-55886550D01*
X124890528Y-55900000D01*
X124959472Y-55900000D01*
X125027091Y-55886550D01*
X125090787Y-55860166D01*
X125148112Y-55821863D01*
X125196863Y-55773112D01*
X125235166Y-55715787D01*
X125237014Y-55711326D01*
X125297909Y-55736550D01*
X125365528Y-55750000D01*
X125434472Y-55750000D01*
X125482091Y-55740528D01*
X126825000Y-55740528D01*
X126825000Y-55809472D01*
X126838450Y-55877091D01*
X126864834Y-55940787D01*
X126903137Y-55998112D01*
X126951888Y-56046863D01*
X127009213Y-56085166D01*
X127072909Y-56111550D01*
X127140528Y-56125000D01*
X127209472Y-56125000D01*
X127277091Y-56111550D01*
X127340787Y-56085166D01*
X127398112Y-56046863D01*
X127446863Y-55998112D01*
X127485166Y-55940787D01*
X127511550Y-55877091D01*
X127518822Y-55840528D01*
X128275000Y-55840528D01*
X128275000Y-55909472D01*
X128288450Y-55977091D01*
X128314834Y-56040787D01*
X128353137Y-56098112D01*
X128401888Y-56146863D01*
X128459213Y-56185166D01*
X128522909Y-56211550D01*
X128590528Y-56225000D01*
X128659472Y-56225000D01*
X128727091Y-56211550D01*
X128790787Y-56185166D01*
X128848112Y-56146863D01*
X128896863Y-56098112D01*
X128935166Y-56040787D01*
X128961550Y-55977091D01*
X128975000Y-55909472D01*
X128975000Y-55840528D01*
X128961550Y-55772909D01*
X128935166Y-55709213D01*
X128896863Y-55651888D01*
X128848112Y-55603137D01*
X128790787Y-55564834D01*
X128727091Y-55538450D01*
X128659472Y-55525000D01*
X128590528Y-55525000D01*
X128522909Y-55538450D01*
X128459213Y-55564834D01*
X128401888Y-55603137D01*
X128353137Y-55651888D01*
X128314834Y-55709213D01*
X128288450Y-55772909D01*
X128275000Y-55840528D01*
X127518822Y-55840528D01*
X127525000Y-55809472D01*
X127525000Y-55740528D01*
X127511550Y-55672909D01*
X127485166Y-55609213D01*
X127446863Y-55551888D01*
X127398112Y-55503137D01*
X127340787Y-55464834D01*
X127277091Y-55438450D01*
X127209472Y-55425000D01*
X127140528Y-55425000D01*
X127072909Y-55438450D01*
X127009213Y-55464834D01*
X126951888Y-55503137D01*
X126903137Y-55551888D01*
X126864834Y-55609213D01*
X126838450Y-55672909D01*
X126825000Y-55740528D01*
X125482091Y-55740528D01*
X125502091Y-55736550D01*
X125565787Y-55710166D01*
X125623112Y-55671863D01*
X125671863Y-55623112D01*
X125710166Y-55565787D01*
X125736550Y-55502091D01*
X125750000Y-55434472D01*
X125750000Y-55365528D01*
X125736550Y-55297909D01*
X125710166Y-55234213D01*
X125671863Y-55176888D01*
X125623112Y-55128137D01*
X125565787Y-55089834D01*
X125502091Y-55063450D01*
X125434472Y-55050000D01*
X125365528Y-55050000D01*
X125297909Y-55063450D01*
X125234213Y-55089834D01*
X125176888Y-55128137D01*
X125128137Y-55176888D01*
X125089834Y-55234213D01*
X125087986Y-55238674D01*
X125027091Y-55213450D01*
X124959472Y-55200000D01*
X124890528Y-55200000D01*
X124822909Y-55213450D01*
X124759213Y-55239834D01*
X124701888Y-55278137D01*
X124653137Y-55326888D01*
X124614834Y-55384213D01*
X124588450Y-55447909D01*
X124575000Y-55515528D01*
X123745628Y-55515528D01*
X123761550Y-55477091D01*
X123775000Y-55409472D01*
X123775000Y-55340528D01*
X123761550Y-55272909D01*
X123735166Y-55209213D01*
X123696863Y-55151888D01*
X123648112Y-55103137D01*
X123590787Y-55064834D01*
X123527091Y-55038450D01*
X123459472Y-55025000D01*
X123390528Y-55025000D01*
X123322909Y-55038450D01*
X123259213Y-55064834D01*
X123201888Y-55103137D01*
X123153137Y-55151888D01*
X123114834Y-55209213D01*
X123088450Y-55272909D01*
X123075000Y-55340528D01*
X122281390Y-55340528D01*
X122258067Y-55284223D01*
X122219764Y-55226898D01*
X122171013Y-55178147D01*
X122113688Y-55139844D01*
X122049992Y-55113460D01*
X121982373Y-55100010D01*
X121913429Y-55100010D01*
X121845810Y-55113460D01*
X121782114Y-55139844D01*
X121724789Y-55178147D01*
X121676038Y-55226898D01*
X121637735Y-55284223D01*
X121611351Y-55347919D01*
X121597901Y-55415538D01*
X120624777Y-55415538D01*
X120574351Y-55365112D01*
X120550000Y-55348841D01*
X120550000Y-54734477D01*
X120564351Y-54724888D01*
X120623711Y-54665528D01*
X121125000Y-54665528D01*
X121125000Y-54734472D01*
X121138450Y-54802091D01*
X121164834Y-54865787D01*
X121203137Y-54923112D01*
X121251888Y-54971863D01*
X121309213Y-55010166D01*
X121372909Y-55036550D01*
X121440528Y-55050000D01*
X121509472Y-55050000D01*
X121577091Y-55036550D01*
X121640787Y-55010166D01*
X121698112Y-54971863D01*
X121746863Y-54923112D01*
X121785166Y-54865787D01*
X121785273Y-54865528D01*
X122049986Y-54865528D01*
X122049986Y-54934472D01*
X122063436Y-55002091D01*
X122089820Y-55065787D01*
X122128123Y-55123112D01*
X122176874Y-55171863D01*
X122234199Y-55210166D01*
X122297895Y-55236550D01*
X122365514Y-55250000D01*
X122434458Y-55250000D01*
X122502077Y-55236550D01*
X122565773Y-55210166D01*
X122623098Y-55171863D01*
X122671849Y-55123112D01*
X122710152Y-55065787D01*
X122736536Y-55002091D01*
X122749986Y-54934472D01*
X122749986Y-54915528D01*
X124000000Y-54915528D01*
X124000000Y-54984472D01*
X124013450Y-55052091D01*
X124039834Y-55115787D01*
X124078137Y-55173112D01*
X124126888Y-55221863D01*
X124184213Y-55260166D01*
X124247909Y-55286550D01*
X124315528Y-55300000D01*
X124384472Y-55300000D01*
X124452091Y-55286550D01*
X124515787Y-55260166D01*
X124573112Y-55221863D01*
X124621863Y-55173112D01*
X124660166Y-55115787D01*
X124686550Y-55052091D01*
X124700000Y-54984472D01*
X124700000Y-54915528D01*
X124686550Y-54847909D01*
X124660166Y-54784213D01*
X124621863Y-54726888D01*
X124573112Y-54678137D01*
X124515787Y-54639834D01*
X124452091Y-54613450D01*
X124384472Y-54600000D01*
X124315528Y-54600000D01*
X124247909Y-54613450D01*
X124184213Y-54639834D01*
X124126888Y-54678137D01*
X124078137Y-54726888D01*
X124039834Y-54784213D01*
X124013450Y-54847909D01*
X124000000Y-54915528D01*
X122749986Y-54915528D01*
X122749986Y-54865528D01*
X122736536Y-54797909D01*
X122710152Y-54734213D01*
X122671849Y-54676888D01*
X122639370Y-54644409D01*
X122673112Y-54621863D01*
X122721863Y-54573112D01*
X122760166Y-54515787D01*
X122786550Y-54452091D01*
X122800000Y-54384472D01*
X122800000Y-54315528D01*
X122786550Y-54247909D01*
X122760166Y-54184213D01*
X122721863Y-54126888D01*
X122673112Y-54078137D01*
X122615787Y-54039834D01*
X122552091Y-54013450D01*
X122484472Y-54000000D01*
X122415528Y-54000000D01*
X122347909Y-54013450D01*
X122284213Y-54039834D01*
X122226888Y-54078137D01*
X122178137Y-54126888D01*
X122139834Y-54184213D01*
X122113450Y-54247909D01*
X122100000Y-54315528D01*
X122100000Y-54384472D01*
X122113450Y-54452091D01*
X122139834Y-54515787D01*
X122178137Y-54573112D01*
X122210616Y-54605591D01*
X122176874Y-54628137D01*
X122128123Y-54676888D01*
X122089820Y-54734213D01*
X122063436Y-54797909D01*
X122049986Y-54865528D01*
X121785273Y-54865528D01*
X121811550Y-54802091D01*
X121825000Y-54734472D01*
X121825000Y-54665528D01*
X121811550Y-54597909D01*
X121785166Y-54534213D01*
X121746863Y-54476888D01*
X121698112Y-54428137D01*
X121640787Y-54389834D01*
X121577091Y-54363450D01*
X121509472Y-54350000D01*
X121440528Y-54350000D01*
X121372909Y-54363450D01*
X121309213Y-54389834D01*
X121251888Y-54428137D01*
X121203137Y-54476888D01*
X121164834Y-54534213D01*
X121138450Y-54597909D01*
X121125000Y-54665528D01*
X120623711Y-54665528D01*
X120654888Y-54634351D01*
X120726022Y-54527890D01*
X120775021Y-54409598D01*
X120800000Y-54284019D01*
X120800000Y-54155981D01*
X120775021Y-54030402D01*
X120726022Y-53912110D01*
X120654888Y-53805649D01*
X120564351Y-53715112D01*
X120550000Y-53705523D01*
X120550000Y-53665528D01*
X123025000Y-53665528D01*
X123025000Y-53734472D01*
X123038450Y-53802091D01*
X123064834Y-53865787D01*
X123103137Y-53923112D01*
X123151888Y-53971863D01*
X123209213Y-54010166D01*
X123272909Y-54036550D01*
X123340528Y-54050000D01*
X123365528Y-54050000D01*
X123297909Y-54063450D01*
X123234213Y-54089834D01*
X123176888Y-54128137D01*
X123128137Y-54176888D01*
X123089834Y-54234213D01*
X123063450Y-54297909D01*
X123050000Y-54365528D01*
X123050000Y-54434472D01*
X123063450Y-54502091D01*
X123089834Y-54565787D01*
X123128137Y-54623112D01*
X123176888Y-54671863D01*
X123234213Y-54710166D01*
X123297909Y-54736550D01*
X123365528Y-54750000D01*
X123434472Y-54750000D01*
X123502091Y-54736550D01*
X123565787Y-54710166D01*
X123623112Y-54671863D01*
X123671863Y-54623112D01*
X123710166Y-54565787D01*
X123736550Y-54502091D01*
X123743822Y-54465528D01*
X124550000Y-54465528D01*
X124550000Y-54534472D01*
X124563450Y-54602091D01*
X124589834Y-54665787D01*
X124628137Y-54723112D01*
X124676888Y-54771863D01*
X124734213Y-54810166D01*
X124797909Y-54836550D01*
X124865528Y-54850000D01*
X124934472Y-54850000D01*
X125002091Y-54836550D01*
X125065787Y-54810166D01*
X125123112Y-54771863D01*
X125171863Y-54723112D01*
X125210166Y-54665787D01*
X125236550Y-54602091D01*
X125250000Y-54534472D01*
X125250000Y-54465528D01*
X126300000Y-54465528D01*
X126300000Y-54534472D01*
X126313450Y-54602091D01*
X126339834Y-54665787D01*
X126378137Y-54723112D01*
X126426888Y-54771863D01*
X126484213Y-54810166D01*
X126547909Y-54836550D01*
X126615528Y-54850000D01*
X126684472Y-54850000D01*
X126752091Y-54836550D01*
X126815787Y-54810166D01*
X126873112Y-54771863D01*
X126921863Y-54723112D01*
X126960166Y-54665787D01*
X126986550Y-54602091D01*
X127000000Y-54534472D01*
X127000000Y-54465528D01*
X126986550Y-54397909D01*
X126962782Y-54340528D01*
X127025000Y-54340528D01*
X127025000Y-54409472D01*
X127038450Y-54477091D01*
X127064834Y-54540787D01*
X127103137Y-54598112D01*
X127151888Y-54646863D01*
X127209213Y-54685166D01*
X127272909Y-54711550D01*
X127340528Y-54725000D01*
X127409472Y-54725000D01*
X127477091Y-54711550D01*
X127540787Y-54685166D01*
X127598112Y-54646863D01*
X127646863Y-54598112D01*
X127685166Y-54540787D01*
X127711550Y-54477091D01*
X127725000Y-54409472D01*
X127725000Y-54390528D01*
X127800000Y-54390528D01*
X127800000Y-54459472D01*
X127813450Y-54527091D01*
X127839834Y-54590787D01*
X127878137Y-54648112D01*
X127926888Y-54696863D01*
X127984213Y-54735166D01*
X128047909Y-54761550D01*
X128115528Y-54775000D01*
X128184472Y-54775000D01*
X128252091Y-54761550D01*
X128315787Y-54735166D01*
X128373112Y-54696863D01*
X128421863Y-54648112D01*
X128460166Y-54590787D01*
X128486550Y-54527091D01*
X128500000Y-54459472D01*
X128500000Y-54390528D01*
X128486550Y-54322909D01*
X128460166Y-54259213D01*
X128421863Y-54201888D01*
X128373112Y-54153137D01*
X128315787Y-54114834D01*
X128252091Y-54088450D01*
X128184472Y-54075000D01*
X128115528Y-54075000D01*
X128047909Y-54088450D01*
X127984213Y-54114834D01*
X127926888Y-54153137D01*
X127878137Y-54201888D01*
X127839834Y-54259213D01*
X127813450Y-54322909D01*
X127800000Y-54390528D01*
X127725000Y-54390528D01*
X127725000Y-54340528D01*
X127711550Y-54272909D01*
X127685166Y-54209213D01*
X127646863Y-54151888D01*
X127598112Y-54103137D01*
X127540787Y-54064834D01*
X127477091Y-54038450D01*
X127409472Y-54025000D01*
X127340528Y-54025000D01*
X127272909Y-54038450D01*
X127209213Y-54064834D01*
X127151888Y-54103137D01*
X127103137Y-54151888D01*
X127064834Y-54209213D01*
X127038450Y-54272909D01*
X127025000Y-54340528D01*
X126962782Y-54340528D01*
X126960166Y-54334213D01*
X126921863Y-54276888D01*
X126873112Y-54228137D01*
X126815787Y-54189834D01*
X126752091Y-54163450D01*
X126684472Y-54150000D01*
X126615528Y-54150000D01*
X126547909Y-54163450D01*
X126484213Y-54189834D01*
X126426888Y-54228137D01*
X126378137Y-54276888D01*
X126339834Y-54334213D01*
X126313450Y-54397909D01*
X126300000Y-54465528D01*
X125250000Y-54465528D01*
X125236550Y-54397909D01*
X125210166Y-54334213D01*
X125171863Y-54276888D01*
X125123112Y-54228137D01*
X125065787Y-54189834D01*
X125002091Y-54163450D01*
X124934472Y-54150000D01*
X124865528Y-54150000D01*
X124797909Y-54163450D01*
X124734213Y-54189834D01*
X124676888Y-54228137D01*
X124628137Y-54276888D01*
X124589834Y-54334213D01*
X124563450Y-54397909D01*
X124550000Y-54465528D01*
X123743822Y-54465528D01*
X123750000Y-54434472D01*
X123750000Y-54365528D01*
X123736550Y-54297909D01*
X123710166Y-54234213D01*
X123671863Y-54176888D01*
X123623112Y-54128137D01*
X123565787Y-54089834D01*
X123502091Y-54063450D01*
X123434472Y-54050000D01*
X123409472Y-54050000D01*
X123477091Y-54036550D01*
X123540787Y-54010166D01*
X123598112Y-53971863D01*
X123646863Y-53923112D01*
X123685166Y-53865787D01*
X123711550Y-53802091D01*
X123725000Y-53734472D01*
X123725000Y-53665528D01*
X123711550Y-53597909D01*
X123685166Y-53534213D01*
X123646863Y-53476888D01*
X123635503Y-53465528D01*
X126050000Y-53465528D01*
X126050000Y-53534472D01*
X126063450Y-53602091D01*
X126089834Y-53665787D01*
X126128137Y-53723112D01*
X126176888Y-53771863D01*
X126234213Y-53810166D01*
X126297909Y-53836550D01*
X126365528Y-53850000D01*
X126434472Y-53850000D01*
X126502091Y-53836550D01*
X126565787Y-53810166D01*
X126623112Y-53771863D01*
X126671863Y-53723112D01*
X126710166Y-53665787D01*
X126730984Y-53615528D01*
X127000000Y-53615528D01*
X127000000Y-53684472D01*
X127013450Y-53752091D01*
X127039834Y-53815787D01*
X127078137Y-53873112D01*
X127126888Y-53921863D01*
X127184213Y-53960166D01*
X127247909Y-53986550D01*
X127315528Y-54000000D01*
X127384472Y-54000000D01*
X127452091Y-53986550D01*
X127515787Y-53960166D01*
X127573112Y-53921863D01*
X127621863Y-53873112D01*
X127660166Y-53815787D01*
X127686550Y-53752091D01*
X127700000Y-53684472D01*
X127700000Y-53615528D01*
X127686550Y-53547909D01*
X127660166Y-53484213D01*
X127621863Y-53426888D01*
X127573112Y-53378137D01*
X127515787Y-53339834D01*
X127452091Y-53313450D01*
X127384472Y-53300000D01*
X127315528Y-53300000D01*
X127247909Y-53313450D01*
X127184213Y-53339834D01*
X127126888Y-53378137D01*
X127078137Y-53426888D01*
X127039834Y-53484213D01*
X127013450Y-53547909D01*
X127000000Y-53615528D01*
X126730984Y-53615528D01*
X126736550Y-53602091D01*
X126750000Y-53534472D01*
X126750000Y-53465528D01*
X126736550Y-53397909D01*
X126710166Y-53334213D01*
X126671863Y-53276888D01*
X126623112Y-53228137D01*
X126565787Y-53189834D01*
X126502091Y-53163450D01*
X126434472Y-53150000D01*
X126365528Y-53150000D01*
X126297909Y-53163450D01*
X126234213Y-53189834D01*
X126176888Y-53228137D01*
X126128137Y-53276888D01*
X126089834Y-53334213D01*
X126063450Y-53397909D01*
X126050000Y-53465528D01*
X123635503Y-53465528D01*
X123598112Y-53428137D01*
X123540787Y-53389834D01*
X123477091Y-53363450D01*
X123409472Y-53350000D01*
X123340528Y-53350000D01*
X123272909Y-53363450D01*
X123209213Y-53389834D01*
X123151888Y-53428137D01*
X123103137Y-53476888D01*
X123064834Y-53534213D01*
X123038450Y-53597909D01*
X123025000Y-53665528D01*
X120550000Y-53665528D01*
X120550000Y-53139477D01*
X120564351Y-53129888D01*
X120654888Y-53039351D01*
X120724259Y-52935528D01*
X125180000Y-52935528D01*
X125180000Y-53004472D01*
X125193450Y-53072091D01*
X125219834Y-53135787D01*
X125258137Y-53193112D01*
X125306888Y-53241863D01*
X125364213Y-53280166D01*
X125427909Y-53306550D01*
X125495528Y-53320000D01*
X125564472Y-53320000D01*
X125632091Y-53306550D01*
X125695787Y-53280166D01*
X125753112Y-53241863D01*
X125801863Y-53193112D01*
X125840166Y-53135787D01*
X125866550Y-53072091D01*
X125880000Y-53004472D01*
X125880000Y-52935528D01*
X125871050Y-52890528D01*
X126500000Y-52890528D01*
X126500000Y-52959472D01*
X126513450Y-53027091D01*
X126539834Y-53090787D01*
X126578137Y-53148112D01*
X126626888Y-53196863D01*
X126684213Y-53235166D01*
X126747909Y-53261550D01*
X126815528Y-53275000D01*
X126884472Y-53275000D01*
X126952091Y-53261550D01*
X127015787Y-53235166D01*
X127073112Y-53196863D01*
X127121863Y-53148112D01*
X127143634Y-53115528D01*
X128425000Y-53115528D01*
X128425000Y-53184472D01*
X128438450Y-53252091D01*
X128464834Y-53315787D01*
X128503137Y-53373112D01*
X128551888Y-53421863D01*
X128609213Y-53460166D01*
X128672909Y-53486550D01*
X128740528Y-53500000D01*
X128809472Y-53500000D01*
X128877091Y-53486550D01*
X128940787Y-53460166D01*
X128998112Y-53421863D01*
X129046863Y-53373112D01*
X129085166Y-53315787D01*
X129111550Y-53252091D01*
X129125000Y-53184472D01*
X129125000Y-53115528D01*
X129111550Y-53047909D01*
X129085166Y-52984213D01*
X129046863Y-52926888D01*
X128998112Y-52878137D01*
X128940787Y-52839834D01*
X128877091Y-52813450D01*
X128809472Y-52800000D01*
X128740528Y-52800000D01*
X128672909Y-52813450D01*
X128609213Y-52839834D01*
X128551888Y-52878137D01*
X128503137Y-52926888D01*
X128464834Y-52984213D01*
X128438450Y-53047909D01*
X128425000Y-53115528D01*
X127143634Y-53115528D01*
X127160166Y-53090787D01*
X127186550Y-53027091D01*
X127200000Y-52959472D01*
X127200000Y-52890528D01*
X127186550Y-52822909D01*
X127160166Y-52759213D01*
X127121863Y-52701888D01*
X127073112Y-52653137D01*
X127015787Y-52614834D01*
X126952091Y-52588450D01*
X126884472Y-52575000D01*
X126815528Y-52575000D01*
X126747909Y-52588450D01*
X126684213Y-52614834D01*
X126626888Y-52653137D01*
X126578137Y-52701888D01*
X126539834Y-52759213D01*
X126513450Y-52822909D01*
X126500000Y-52890528D01*
X125871050Y-52890528D01*
X125866550Y-52867909D01*
X125840166Y-52804213D01*
X125801863Y-52746888D01*
X125753112Y-52698137D01*
X125695787Y-52659834D01*
X125632091Y-52633450D01*
X125564472Y-52620000D01*
X125495528Y-52620000D01*
X125427909Y-52633450D01*
X125364213Y-52659834D01*
X125306888Y-52698137D01*
X125258137Y-52746888D01*
X125219834Y-52804213D01*
X125193450Y-52867909D01*
X125180000Y-52935528D01*
X120724259Y-52935528D01*
X120726022Y-52932890D01*
X120775021Y-52814598D01*
X120791522Y-52731641D01*
X120834213Y-52760166D01*
X120897909Y-52786550D01*
X120965528Y-52800000D01*
X121034472Y-52800000D01*
X121102091Y-52786550D01*
X121165787Y-52760166D01*
X121223112Y-52721863D01*
X121271863Y-52673112D01*
X121310166Y-52615787D01*
X121336550Y-52552091D01*
X121350000Y-52484472D01*
X121350000Y-52465528D01*
X122750000Y-52465528D01*
X122750000Y-52534472D01*
X122763450Y-52602091D01*
X122789834Y-52665787D01*
X122828137Y-52723112D01*
X122876888Y-52771863D01*
X122934213Y-52810166D01*
X122997909Y-52836550D01*
X123065528Y-52850000D01*
X123134472Y-52850000D01*
X123202091Y-52836550D01*
X123265787Y-52810166D01*
X123323112Y-52771863D01*
X123371863Y-52723112D01*
X123410166Y-52665787D01*
X123436550Y-52602091D01*
X123450000Y-52534472D01*
X123450000Y-52465528D01*
X123436550Y-52397909D01*
X123410166Y-52334213D01*
X123371863Y-52276888D01*
X123323112Y-52228137D01*
X123265787Y-52189834D01*
X123231250Y-52175528D01*
X127020000Y-52175528D01*
X127020000Y-52244472D01*
X127033450Y-52312091D01*
X127059834Y-52375787D01*
X127098137Y-52433112D01*
X127146888Y-52481863D01*
X127204213Y-52520166D01*
X127267909Y-52546550D01*
X127335528Y-52560000D01*
X127404472Y-52560000D01*
X127472091Y-52546550D01*
X127535787Y-52520166D01*
X127593112Y-52481863D01*
X127641863Y-52433112D01*
X127680166Y-52375787D01*
X127706550Y-52312091D01*
X127720000Y-52244472D01*
X127720000Y-52175528D01*
X128020000Y-52175528D01*
X128020000Y-52244472D01*
X128033450Y-52312091D01*
X128059834Y-52375787D01*
X128098137Y-52433112D01*
X128146888Y-52481863D01*
X128204213Y-52520166D01*
X128267909Y-52546550D01*
X128335528Y-52560000D01*
X128404472Y-52560000D01*
X128472091Y-52546550D01*
X128535787Y-52520166D01*
X128593112Y-52481863D01*
X128641863Y-52433112D01*
X128680166Y-52375787D01*
X128706550Y-52312091D01*
X128720000Y-52244472D01*
X128720000Y-52175528D01*
X128706550Y-52107909D01*
X128680166Y-52044213D01*
X128641863Y-51986888D01*
X128593112Y-51938137D01*
X128535787Y-51899834D01*
X128472091Y-51873450D01*
X128404472Y-51860000D01*
X128335528Y-51860000D01*
X128267909Y-51873450D01*
X128204213Y-51899834D01*
X128146888Y-51938137D01*
X128098137Y-51986888D01*
X128059834Y-52044213D01*
X128033450Y-52107909D01*
X128020000Y-52175528D01*
X127720000Y-52175528D01*
X127706550Y-52107909D01*
X127680166Y-52044213D01*
X127641863Y-51986888D01*
X127593112Y-51938137D01*
X127535787Y-51899834D01*
X127472091Y-51873450D01*
X127404472Y-51860000D01*
X127335528Y-51860000D01*
X127267909Y-51873450D01*
X127204213Y-51899834D01*
X127146888Y-51938137D01*
X127098137Y-51986888D01*
X127059834Y-52044213D01*
X127033450Y-52107909D01*
X127020000Y-52175528D01*
X123231250Y-52175528D01*
X123202091Y-52163450D01*
X123134472Y-52150000D01*
X123065528Y-52150000D01*
X122997909Y-52163450D01*
X122934213Y-52189834D01*
X122876888Y-52228137D01*
X122828137Y-52276888D01*
X122789834Y-52334213D01*
X122763450Y-52397909D01*
X122750000Y-52465528D01*
X121350000Y-52465528D01*
X121350000Y-52415528D01*
X121336550Y-52347909D01*
X121310166Y-52284213D01*
X121271863Y-52226888D01*
X121223112Y-52178137D01*
X121165787Y-52139834D01*
X121102091Y-52113450D01*
X121034472Y-52100000D01*
X120965528Y-52100000D01*
X120897909Y-52113450D01*
X120834213Y-52139834D01*
X120776888Y-52178137D01*
X120728137Y-52226888D01*
X120696938Y-52273582D01*
X120654888Y-52210649D01*
X120564351Y-52120112D01*
X120550000Y-52110523D01*
X120550000Y-51634472D01*
X120563450Y-51702091D01*
X120589834Y-51765787D01*
X120628137Y-51823112D01*
X120676888Y-51871863D01*
X120734213Y-51910166D01*
X120797909Y-51936550D01*
X120865528Y-51950000D01*
X120934472Y-51950000D01*
X121002091Y-51936550D01*
X121065787Y-51910166D01*
X121123112Y-51871863D01*
X121171863Y-51823112D01*
X121210166Y-51765787D01*
X121236550Y-51702091D01*
X121250000Y-51634472D01*
X121250000Y-51615528D01*
X121900000Y-51615528D01*
X121900000Y-51684472D01*
X121913450Y-51752091D01*
X121939834Y-51815787D01*
X121978137Y-51873112D01*
X122026888Y-51921863D01*
X122084213Y-51960166D01*
X122147909Y-51986550D01*
X122215528Y-52000000D01*
X122284472Y-52000000D01*
X122352091Y-51986550D01*
X122415787Y-51960166D01*
X122473112Y-51921863D01*
X122521863Y-51873112D01*
X122560166Y-51815787D01*
X122586550Y-51752091D01*
X122600000Y-51684472D01*
X122600000Y-51615528D01*
X122586550Y-51547909D01*
X122560166Y-51484213D01*
X122521863Y-51426888D01*
X122473112Y-51378137D01*
X122415787Y-51339834D01*
X122352091Y-51313450D01*
X122284472Y-51300000D01*
X122215528Y-51300000D01*
X122147909Y-51313450D01*
X122084213Y-51339834D01*
X122026888Y-51378137D01*
X121978137Y-51426888D01*
X121939834Y-51484213D01*
X121913450Y-51547909D01*
X121900000Y-51615528D01*
X121250000Y-51615528D01*
X121250000Y-51565528D01*
X121236550Y-51497909D01*
X121210166Y-51434213D01*
X121171863Y-51376888D01*
X121123112Y-51328137D01*
X121065787Y-51289834D01*
X121002091Y-51263450D01*
X120934472Y-51250000D01*
X124115528Y-51250000D01*
X124047909Y-51263450D01*
X124047909Y-51263450D01*
G37*
X124047909Y-51263450D02*
X123984213Y-51289834D01*
X123926888Y-51328137D01*
X123878137Y-51376888D01*
X123839834Y-51434213D01*
X123813450Y-51497909D01*
X123800000Y-51565528D01*
X123800000Y-51634472D01*
X123813450Y-51702091D01*
X123839834Y-51765787D01*
X123878137Y-51823112D01*
X123926888Y-51871863D01*
X123984213Y-51910166D01*
X124047909Y-51936550D01*
X124115528Y-51950000D01*
X124184472Y-51950000D01*
X124252091Y-51936550D01*
X124315787Y-51910166D01*
X124373112Y-51871863D01*
X124421863Y-51823112D01*
X124460166Y-51765787D01*
X124486550Y-51702091D01*
X124491833Y-51675528D01*
X127520000Y-51675528D01*
X127520000Y-51744472D01*
X127533450Y-51812091D01*
X127559834Y-51875787D01*
X127598137Y-51933112D01*
X127646888Y-51981863D01*
X127704213Y-52020166D01*
X127767909Y-52046550D01*
X127835528Y-52060000D01*
X127904472Y-52060000D01*
X127972091Y-52046550D01*
X128035787Y-52020166D01*
X128093112Y-51981863D01*
X128141863Y-51933112D01*
X128180166Y-51875787D01*
X128206550Y-51812091D01*
X128220000Y-51744472D01*
X128220000Y-51675528D01*
X128520000Y-51675528D01*
X128520000Y-51744472D01*
X128533450Y-51812091D01*
X128559834Y-51875787D01*
X128598137Y-51933112D01*
X128646888Y-51981863D01*
X128704213Y-52020166D01*
X128767909Y-52046550D01*
X128835528Y-52060000D01*
X128904472Y-52060000D01*
X128972091Y-52046550D01*
X129035787Y-52020166D01*
X129093112Y-51981863D01*
X129141863Y-51933112D01*
X129180166Y-51875787D01*
X129206550Y-51812091D01*
X129220000Y-51744472D01*
X129220000Y-51675528D01*
X129206550Y-51607909D01*
X129180166Y-51544213D01*
X129141863Y-51486888D01*
X129093112Y-51438137D01*
X129035787Y-51399834D01*
X128972091Y-51373450D01*
X128904472Y-51360000D01*
X128835528Y-51360000D01*
X128767909Y-51373450D01*
X128704213Y-51399834D01*
X128646888Y-51438137D01*
X128598137Y-51486888D01*
X128559834Y-51544213D01*
X128533450Y-51607909D01*
X128520000Y-51675528D01*
X128220000Y-51675528D01*
X128206550Y-51607909D01*
X128180166Y-51544213D01*
X128141863Y-51486888D01*
X128093112Y-51438137D01*
X128035787Y-51399834D01*
X127972091Y-51373450D01*
X127904472Y-51360000D01*
X127835528Y-51360000D01*
X127767909Y-51373450D01*
X127704213Y-51399834D01*
X127646888Y-51438137D01*
X127598137Y-51486888D01*
X127559834Y-51544213D01*
X127533450Y-51607909D01*
X127520000Y-51675528D01*
X124491833Y-51675528D01*
X124500000Y-51634472D01*
X124500000Y-51565528D01*
X124486550Y-51497909D01*
X124460166Y-51434213D01*
X124421863Y-51376888D01*
X124373112Y-51328137D01*
X124315787Y-51289834D01*
X124252091Y-51263450D01*
X124184472Y-51250000D01*
X124390870Y-51250000D01*
X124502962Y-51322059D01*
X124513408Y-51327167D01*
X124522929Y-51329497D01*
X124662929Y-51349497D01*
X124670000Y-51350000D01*
X126990000Y-51350000D01*
X127001452Y-51348671D01*
X127171452Y-51308671D01*
X127184508Y-51303582D01*
X127192540Y-51297963D01*
X127248497Y-51250000D01*
X129550000Y-51250000D01*
X129550000Y-53741922D01*
X129534361Y-53726283D01*
X129477036Y-53687980D01*
X129413340Y-53661596D01*
X129345721Y-53648146D01*
X129276777Y-53648146D01*
X129209158Y-53661596D01*
X129145462Y-53687980D01*
X129088137Y-53726283D01*
X129039386Y-53775034D01*
X129001083Y-53832359D01*
X128974699Y-53896055D01*
X128961249Y-53963674D01*
X128961249Y-54032618D01*
X128974699Y-54100237D01*
X129001083Y-54163933D01*
X129039386Y-54221258D01*
X129088137Y-54270009D01*
X129145462Y-54308312D01*
X129209158Y-54334696D01*
X129276777Y-54348146D01*
X129345721Y-54348146D01*
X129413340Y-54334696D01*
X129477036Y-54308312D01*
X129534361Y-54270009D01*
X129550000Y-54254370D01*
X129550001Y-58250000D01*
X129234472Y-58250000D01*
X129302091Y-58236550D01*
X129365787Y-58210166D01*
X129423112Y-58171863D01*
X129471863Y-58123112D01*
X129510166Y-58065787D01*
X129536550Y-58002091D01*
X129550000Y-57934472D01*
X129550000Y-57865528D01*
X129536550Y-57797909D01*
X129510166Y-57734213D01*
X129471863Y-57676888D01*
X129423112Y-57628137D01*
X129365787Y-57589834D01*
X129302091Y-57563450D01*
X129234472Y-57550000D01*
X129165528Y-57550000D01*
X129097909Y-57563450D01*
X129034213Y-57589834D01*
X128976888Y-57628137D01*
X128928137Y-57676888D01*
X128889834Y-57734213D01*
X128863450Y-57797909D01*
X128850000Y-57865528D01*
X128850000Y-57934472D01*
X128863450Y-58002091D01*
X128889834Y-58065787D01*
X128928137Y-58123112D01*
X128976888Y-58171863D01*
X129034213Y-58210166D01*
X129097909Y-58236550D01*
X129165528Y-58250000D01*
X126509129Y-58250000D01*
X126397038Y-58177942D01*
X126386592Y-58172834D01*
X126377072Y-58170504D01*
X126237072Y-58150502D01*
X126230000Y-58149999D01*
X125193943Y-58149999D01*
X125230166Y-58095787D01*
X125256550Y-58032091D01*
X125270000Y-57964472D01*
X125270000Y-57895528D01*
X125256550Y-57827909D01*
X125230166Y-57764213D01*
X125191863Y-57706888D01*
X125143112Y-57658137D01*
X125085787Y-57619834D01*
X125075392Y-57615528D01*
X125930000Y-57615528D01*
X125930000Y-57684472D01*
X125943450Y-57752091D01*
X125969834Y-57815787D01*
X126008137Y-57873112D01*
X126056888Y-57921863D01*
X126114213Y-57960166D01*
X126177909Y-57986550D01*
X126245528Y-58000000D01*
X126314472Y-58000000D01*
X126382091Y-57986550D01*
X126445787Y-57960166D01*
X126503112Y-57921863D01*
X126551863Y-57873112D01*
X126590166Y-57815787D01*
X126616550Y-57752091D01*
X126630000Y-57684472D01*
X126630000Y-57615528D01*
X126616550Y-57547909D01*
X126590166Y-57484213D01*
X126551863Y-57426888D01*
X126503112Y-57378137D01*
X126445787Y-57339834D01*
X126382091Y-57313450D01*
X126314472Y-57300000D01*
X126245528Y-57300000D01*
X126177909Y-57313450D01*
X126114213Y-57339834D01*
X126056888Y-57378137D01*
X126008137Y-57426888D01*
X125969834Y-57484213D01*
X125943450Y-57547909D01*
X125930000Y-57615528D01*
X125075392Y-57615528D01*
X125022091Y-57593450D01*
X124954472Y-57580000D01*
X124885528Y-57580000D01*
X124817909Y-57593450D01*
X124754213Y-57619834D01*
X124696888Y-57658137D01*
X124648137Y-57706888D01*
X124609834Y-57764213D01*
X124583450Y-57827909D01*
X124570000Y-57895528D01*
X124570000Y-57964472D01*
X124583450Y-58032091D01*
X124609834Y-58095787D01*
X124646057Y-58150000D01*
X123910000Y-58150000D01*
X123898548Y-58151329D01*
X123728548Y-58191329D01*
X123715492Y-58196418D01*
X123707460Y-58202037D01*
X123651503Y-58250000D01*
X122434472Y-58250000D01*
X122502091Y-58236550D01*
X122565787Y-58210166D01*
X122623112Y-58171863D01*
X122671863Y-58123112D01*
X122710166Y-58065787D01*
X122736550Y-58002091D01*
X122750000Y-57934472D01*
X122750000Y-57865528D01*
X122736550Y-57797909D01*
X122710166Y-57734213D01*
X122671863Y-57676888D01*
X122623112Y-57628137D01*
X122618752Y-57625223D01*
X122665863Y-57578112D01*
X122704166Y-57520787D01*
X122730550Y-57457091D01*
X122744000Y-57389472D01*
X122744000Y-57320528D01*
X122738033Y-57290528D01*
X126625000Y-57290528D01*
X126625000Y-57359472D01*
X126638450Y-57427091D01*
X126664834Y-57490787D01*
X126703137Y-57548112D01*
X126751888Y-57596863D01*
X126809213Y-57635166D01*
X126872909Y-57661550D01*
X126940528Y-57675000D01*
X127009472Y-57675000D01*
X127077091Y-57661550D01*
X127140787Y-57635166D01*
X127198112Y-57596863D01*
X127246863Y-57548112D01*
X127285166Y-57490787D01*
X127311550Y-57427091D01*
X127313849Y-57415528D01*
X127420000Y-57415528D01*
X127420000Y-57484472D01*
X127433450Y-57552091D01*
X127459834Y-57615787D01*
X127498137Y-57673112D01*
X127546888Y-57721863D01*
X127604213Y-57760166D01*
X127667909Y-57786550D01*
X127735528Y-57800000D01*
X127804472Y-57800000D01*
X127872091Y-57786550D01*
X127935787Y-57760166D01*
X127993112Y-57721863D01*
X128041863Y-57673112D01*
X128080166Y-57615787D01*
X128106550Y-57552091D01*
X128120000Y-57484472D01*
X128120000Y-57415528D01*
X128106550Y-57347909D01*
X128105564Y-57345528D01*
X128150000Y-57345528D01*
X128150000Y-57414472D01*
X128163450Y-57482091D01*
X128189834Y-57545787D01*
X128228137Y-57603112D01*
X128276888Y-57651863D01*
X128334213Y-57690166D01*
X128397909Y-57716550D01*
X128465528Y-57730000D01*
X128534472Y-57730000D01*
X128602091Y-57716550D01*
X128665787Y-57690166D01*
X128723112Y-57651863D01*
X128771863Y-57603112D01*
X128810166Y-57545787D01*
X128836550Y-57482091D01*
X128850000Y-57414472D01*
X128850000Y-57345528D01*
X128836550Y-57277909D01*
X128810166Y-57214213D01*
X128771863Y-57156888D01*
X128723112Y-57108137D01*
X128665787Y-57069834D01*
X128602091Y-57043450D01*
X128587401Y-57040528D01*
X128850000Y-57040528D01*
X128850000Y-57109472D01*
X128863450Y-57177091D01*
X128889834Y-57240787D01*
X128928137Y-57298112D01*
X128976888Y-57346863D01*
X129034213Y-57385166D01*
X129097909Y-57411550D01*
X129165528Y-57425000D01*
X129234472Y-57425000D01*
X129302091Y-57411550D01*
X129365787Y-57385166D01*
X129423112Y-57346863D01*
X129471863Y-57298112D01*
X129510166Y-57240787D01*
X129536550Y-57177091D01*
X129550000Y-57109472D01*
X129550000Y-57040528D01*
X129536550Y-56972909D01*
X129510166Y-56909213D01*
X129471863Y-56851888D01*
X129423112Y-56803137D01*
X129365787Y-56764834D01*
X129302091Y-56738450D01*
X129234472Y-56725000D01*
X129165528Y-56725000D01*
X129097909Y-56738450D01*
X129034213Y-56764834D01*
X128976888Y-56803137D01*
X128928137Y-56851888D01*
X128889834Y-56909213D01*
X128863450Y-56972909D01*
X128850000Y-57040528D01*
X128587401Y-57040528D01*
X128534472Y-57030000D01*
X128465528Y-57030000D01*
X128397909Y-57043450D01*
X128334213Y-57069834D01*
X128276888Y-57108137D01*
X128228137Y-57156888D01*
X128189834Y-57214213D01*
X128163450Y-57277909D01*
X128150000Y-57345528D01*
X128105564Y-57345528D01*
X128080166Y-57284213D01*
X128041863Y-57226888D01*
X127993112Y-57178137D01*
X127935787Y-57139834D01*
X127872091Y-57113450D01*
X127804472Y-57100000D01*
X127735528Y-57100000D01*
X127667909Y-57113450D01*
X127604213Y-57139834D01*
X127546888Y-57178137D01*
X127498137Y-57226888D01*
X127459834Y-57284213D01*
X127433450Y-57347909D01*
X127420000Y-57415528D01*
X127313849Y-57415528D01*
X127325000Y-57359472D01*
X127325000Y-57290528D01*
X127311550Y-57222909D01*
X127285166Y-57159213D01*
X127246863Y-57101888D01*
X127198112Y-57053137D01*
X127140787Y-57014834D01*
X127077091Y-56988450D01*
X127009472Y-56975000D01*
X126940528Y-56975000D01*
X126872909Y-56988450D01*
X126809213Y-57014834D01*
X126751888Y-57053137D01*
X126703137Y-57101888D01*
X126664834Y-57159213D01*
X126638450Y-57222909D01*
X126625000Y-57290528D01*
X122738033Y-57290528D01*
X122730550Y-57252909D01*
X122704166Y-57189213D01*
X122665863Y-57131888D01*
X122617112Y-57083137D01*
X122559787Y-57044834D01*
X122496091Y-57018450D01*
X122428472Y-57005000D01*
X122359528Y-57005000D01*
X122291909Y-57018450D01*
X122228213Y-57044834D01*
X122170888Y-57083137D01*
X122122137Y-57131888D01*
X122083834Y-57189213D01*
X122057450Y-57252909D01*
X122044000Y-57320528D01*
X122044000Y-57389472D01*
X122057450Y-57457091D01*
X122083834Y-57520787D01*
X122122137Y-57578112D01*
X122170888Y-57626863D01*
X122175248Y-57629777D01*
X122128137Y-57676888D01*
X122104445Y-57712346D01*
X122055787Y-57679834D01*
X121992091Y-57653450D01*
X121924472Y-57640000D01*
X121855528Y-57640000D01*
X121787909Y-57653450D01*
X121724213Y-57679834D01*
X121666888Y-57718137D01*
X121618137Y-57766888D01*
X121579834Y-57824213D01*
X121553450Y-57887909D01*
X121540000Y-57955528D01*
X121540000Y-58024472D01*
X121553450Y-58092091D01*
X121579834Y-58155787D01*
X121618137Y-58213112D01*
X121655025Y-58250000D01*
X120550000Y-58250000D01*
X120550000Y-58034477D01*
X120564351Y-58024888D01*
X120654888Y-57934351D01*
X120726022Y-57827890D01*
X120775021Y-57709598D01*
X120800000Y-57584019D01*
X120800000Y-57455981D01*
X120775021Y-57330402D01*
X120726022Y-57212110D01*
X120654888Y-57105649D01*
X120564351Y-57015112D01*
X120550000Y-57005523D01*
X120550000Y-56885528D01*
X123597607Y-56885528D01*
X123597607Y-56954472D01*
X123611057Y-57022091D01*
X123637441Y-57085787D01*
X123675744Y-57143112D01*
X123724495Y-57191863D01*
X123781820Y-57230166D01*
X123845516Y-57256550D01*
X123913135Y-57270000D01*
X123982079Y-57270000D01*
X124049698Y-57256550D01*
X124113394Y-57230166D01*
X124170719Y-57191863D01*
X124219470Y-57143112D01*
X124257773Y-57085787D01*
X124284157Y-57022091D01*
X124297607Y-56954472D01*
X124297607Y-56885528D01*
X124284157Y-56817909D01*
X124257773Y-56754213D01*
X124219470Y-56696888D01*
X124170719Y-56648137D01*
X124113394Y-56609834D01*
X124049698Y-56583450D01*
X123982079Y-56570000D01*
X123913135Y-56570000D01*
X123845516Y-56583450D01*
X123781820Y-56609834D01*
X123724495Y-56648137D01*
X123675744Y-56696888D01*
X123637441Y-56754213D01*
X123611057Y-56817909D01*
X123597607Y-56885528D01*
X120550000Y-56885528D01*
X120550000Y-56391159D01*
X120574351Y-56374888D01*
X120664888Y-56284351D01*
X120736022Y-56177890D01*
X120785021Y-56059598D01*
X120810000Y-55934019D01*
X120810000Y-55915936D01*
X123999595Y-55915936D01*
X123999595Y-55984880D01*
X124013045Y-56052499D01*
X124039429Y-56116195D01*
X124077732Y-56173520D01*
X124126483Y-56222271D01*
X124183808Y-56260574D01*
X124247504Y-56286958D01*
X124315123Y-56300408D01*
X124384067Y-56300408D01*
X124451686Y-56286958D01*
X124503422Y-56265528D01*
X125900000Y-56265528D01*
X125900000Y-56334472D01*
X125913450Y-56402091D01*
X125939834Y-56465787D01*
X125978137Y-56523112D01*
X126026888Y-56571863D01*
X126084213Y-56610166D01*
X126147909Y-56636550D01*
X126215528Y-56650000D01*
X126284472Y-56650000D01*
X126352091Y-56636550D01*
X126415787Y-56610166D01*
X126445177Y-56590528D01*
X126825000Y-56590528D01*
X126825000Y-56659472D01*
X126838450Y-56727091D01*
X126864834Y-56790787D01*
X126903137Y-56848112D01*
X126951888Y-56896863D01*
X127009213Y-56935166D01*
X127072909Y-56961550D01*
X127140528Y-56975000D01*
X127209472Y-56975000D01*
X127277091Y-56961550D01*
X127340787Y-56935166D01*
X127398112Y-56896863D01*
X127446863Y-56848112D01*
X127485166Y-56790787D01*
X127511550Y-56727091D01*
X127525000Y-56659472D01*
X127525000Y-56590528D01*
X127511550Y-56522909D01*
X127485166Y-56459213D01*
X127446863Y-56401888D01*
X127398112Y-56353137D01*
X127340787Y-56314834D01*
X127277091Y-56288450D01*
X127209472Y-56275000D01*
X127140528Y-56275000D01*
X127072909Y-56288450D01*
X127009213Y-56314834D01*
X126951888Y-56353137D01*
X126903137Y-56401888D01*
X126864834Y-56459213D01*
X126838450Y-56522909D01*
X126825000Y-56590528D01*
X126445177Y-56590528D01*
X126473112Y-56571863D01*
X126521863Y-56523112D01*
X126560166Y-56465787D01*
X126586550Y-56402091D01*
X126600000Y-56334472D01*
X126600000Y-56265528D01*
X126586550Y-56197909D01*
X126560166Y-56134213D01*
X126521863Y-56076888D01*
X126473112Y-56028137D01*
X126415787Y-55989834D01*
X126352091Y-55963450D01*
X126284472Y-55950000D01*
X126215528Y-55950000D01*
X126147909Y-55963450D01*
X126084213Y-55989834D01*
X126026888Y-56028137D01*
X125978137Y-56076888D01*
X125939834Y-56134213D01*
X125913450Y-56197909D01*
X125900000Y-56265528D01*
X124503422Y-56265528D01*
X124515382Y-56260574D01*
X124572707Y-56222271D01*
X124621458Y-56173520D01*
X124659761Y-56116195D01*
X124686145Y-56052499D01*
X124699595Y-55984880D01*
X124699595Y-55915936D01*
X124686145Y-55848317D01*
X124659761Y-55784621D01*
X124621458Y-55727296D01*
X124572707Y-55678545D01*
X124515382Y-55640242D01*
X124451686Y-55613858D01*
X124384067Y-55600408D01*
X124315123Y-55600408D01*
X124247504Y-55613858D01*
X124183808Y-55640242D01*
X124126483Y-55678545D01*
X124077732Y-55727296D01*
X124039429Y-55784621D01*
X124013045Y-55848317D01*
X123999595Y-55915936D01*
X120810000Y-55915936D01*
X120810000Y-55805981D01*
X120785021Y-55680402D01*
X120736022Y-55562110D01*
X120664888Y-55455649D01*
X120624777Y-55415538D01*
X121597901Y-55415538D01*
X121597901Y-55484482D01*
X121611351Y-55552101D01*
X121637735Y-55615797D01*
X121676038Y-55673122D01*
X121724789Y-55721873D01*
X121782114Y-55760176D01*
X121845810Y-55786560D01*
X121913429Y-55800010D01*
X121982373Y-55800010D01*
X122049992Y-55786560D01*
X122113688Y-55760176D01*
X122171013Y-55721873D01*
X122219764Y-55673122D01*
X122258067Y-55615797D01*
X122284451Y-55552101D01*
X122297901Y-55484482D01*
X122297901Y-55415538D01*
X122284451Y-55347919D01*
X122281390Y-55340528D01*
X123075000Y-55340528D01*
X123075000Y-55409472D01*
X123088450Y-55477091D01*
X123114834Y-55540787D01*
X123153137Y-55598112D01*
X123201888Y-55646863D01*
X123259213Y-55685166D01*
X123322909Y-55711550D01*
X123390528Y-55725000D01*
X123459472Y-55725000D01*
X123527091Y-55711550D01*
X123590787Y-55685166D01*
X123648112Y-55646863D01*
X123696863Y-55598112D01*
X123735166Y-55540787D01*
X123745628Y-55515528D01*
X124575000Y-55515528D01*
X124575000Y-55584472D01*
X124588450Y-55652091D01*
X124614834Y-55715787D01*
X124653137Y-55773112D01*
X124701888Y-55821863D01*
X124759213Y-55860166D01*
X124822909Y-55886550D01*
X124890528Y-55900000D01*
X124959472Y-55900000D01*
X125027091Y-55886550D01*
X125090787Y-55860166D01*
X125148112Y-55821863D01*
X125196863Y-55773112D01*
X125235166Y-55715787D01*
X125237014Y-55711326D01*
X125297909Y-55736550D01*
X125365528Y-55750000D01*
X125434472Y-55750000D01*
X125482091Y-55740528D01*
X126825000Y-55740528D01*
X126825000Y-55809472D01*
X126838450Y-55877091D01*
X126864834Y-55940787D01*
X126903137Y-55998112D01*
X126951888Y-56046863D01*
X127009213Y-56085166D01*
X127072909Y-56111550D01*
X127140528Y-56125000D01*
X127209472Y-56125000D01*
X127277091Y-56111550D01*
X127340787Y-56085166D01*
X127398112Y-56046863D01*
X127446863Y-55998112D01*
X127485166Y-55940787D01*
X127511550Y-55877091D01*
X127518822Y-55840528D01*
X128275000Y-55840528D01*
X128275000Y-55909472D01*
X128288450Y-55977091D01*
X128314834Y-56040787D01*
X128353137Y-56098112D01*
X128401888Y-56146863D01*
X128459213Y-56185166D01*
X128522909Y-56211550D01*
X128590528Y-56225000D01*
X128659472Y-56225000D01*
X128727091Y-56211550D01*
X128790787Y-56185166D01*
X128848112Y-56146863D01*
X128896863Y-56098112D01*
X128935166Y-56040787D01*
X128961550Y-55977091D01*
X128975000Y-55909472D01*
X128975000Y-55840528D01*
X128961550Y-55772909D01*
X128935166Y-55709213D01*
X128896863Y-55651888D01*
X128848112Y-55603137D01*
X128790787Y-55564834D01*
X128727091Y-55538450D01*
X128659472Y-55525000D01*
X128590528Y-55525000D01*
X128522909Y-55538450D01*
X128459213Y-55564834D01*
X128401888Y-55603137D01*
X128353137Y-55651888D01*
X128314834Y-55709213D01*
X128288450Y-55772909D01*
X128275000Y-55840528D01*
X127518822Y-55840528D01*
X127525000Y-55809472D01*
X127525000Y-55740528D01*
X127511550Y-55672909D01*
X127485166Y-55609213D01*
X127446863Y-55551888D01*
X127398112Y-55503137D01*
X127340787Y-55464834D01*
X127277091Y-55438450D01*
X127209472Y-55425000D01*
X127140528Y-55425000D01*
X127072909Y-55438450D01*
X127009213Y-55464834D01*
X126951888Y-55503137D01*
X126903137Y-55551888D01*
X126864834Y-55609213D01*
X126838450Y-55672909D01*
X126825000Y-55740528D01*
X125482091Y-55740528D01*
X125502091Y-55736550D01*
X125565787Y-55710166D01*
X125623112Y-55671863D01*
X125671863Y-55623112D01*
X125710166Y-55565787D01*
X125736550Y-55502091D01*
X125750000Y-55434472D01*
X125750000Y-55365528D01*
X125736550Y-55297909D01*
X125710166Y-55234213D01*
X125671863Y-55176888D01*
X125623112Y-55128137D01*
X125565787Y-55089834D01*
X125502091Y-55063450D01*
X125434472Y-55050000D01*
X125365528Y-55050000D01*
X125297909Y-55063450D01*
X125234213Y-55089834D01*
X125176888Y-55128137D01*
X125128137Y-55176888D01*
X125089834Y-55234213D01*
X125087986Y-55238674D01*
X125027091Y-55213450D01*
X124959472Y-55200000D01*
X124890528Y-55200000D01*
X124822909Y-55213450D01*
X124759213Y-55239834D01*
X124701888Y-55278137D01*
X124653137Y-55326888D01*
X124614834Y-55384213D01*
X124588450Y-55447909D01*
X124575000Y-55515528D01*
X123745628Y-55515528D01*
X123761550Y-55477091D01*
X123775000Y-55409472D01*
X123775000Y-55340528D01*
X123761550Y-55272909D01*
X123735166Y-55209213D01*
X123696863Y-55151888D01*
X123648112Y-55103137D01*
X123590787Y-55064834D01*
X123527091Y-55038450D01*
X123459472Y-55025000D01*
X123390528Y-55025000D01*
X123322909Y-55038450D01*
X123259213Y-55064834D01*
X123201888Y-55103137D01*
X123153137Y-55151888D01*
X123114834Y-55209213D01*
X123088450Y-55272909D01*
X123075000Y-55340528D01*
X122281390Y-55340528D01*
X122258067Y-55284223D01*
X122219764Y-55226898D01*
X122171013Y-55178147D01*
X122113688Y-55139844D01*
X122049992Y-55113460D01*
X121982373Y-55100010D01*
X121913429Y-55100010D01*
X121845810Y-55113460D01*
X121782114Y-55139844D01*
X121724789Y-55178147D01*
X121676038Y-55226898D01*
X121637735Y-55284223D01*
X121611351Y-55347919D01*
X121597901Y-55415538D01*
X120624777Y-55415538D01*
X120574351Y-55365112D01*
X120550000Y-55348841D01*
X120550000Y-54734477D01*
X120564351Y-54724888D01*
X120623711Y-54665528D01*
X121125000Y-54665528D01*
X121125000Y-54734472D01*
X121138450Y-54802091D01*
X121164834Y-54865787D01*
X121203137Y-54923112D01*
X121251888Y-54971863D01*
X121309213Y-55010166D01*
X121372909Y-55036550D01*
X121440528Y-55050000D01*
X121509472Y-55050000D01*
X121577091Y-55036550D01*
X121640787Y-55010166D01*
X121698112Y-54971863D01*
X121746863Y-54923112D01*
X121785166Y-54865787D01*
X121785273Y-54865528D01*
X122049986Y-54865528D01*
X122049986Y-54934472D01*
X122063436Y-55002091D01*
X122089820Y-55065787D01*
X122128123Y-55123112D01*
X122176874Y-55171863D01*
X122234199Y-55210166D01*
X122297895Y-55236550D01*
X122365514Y-55250000D01*
X122434458Y-55250000D01*
X122502077Y-55236550D01*
X122565773Y-55210166D01*
X122623098Y-55171863D01*
X122671849Y-55123112D01*
X122710152Y-55065787D01*
X122736536Y-55002091D01*
X122749986Y-54934472D01*
X122749986Y-54915528D01*
X124000000Y-54915528D01*
X124000000Y-54984472D01*
X124013450Y-55052091D01*
X124039834Y-55115787D01*
X124078137Y-55173112D01*
X124126888Y-55221863D01*
X124184213Y-55260166D01*
X124247909Y-55286550D01*
X124315528Y-55300000D01*
X124384472Y-55300000D01*
X124452091Y-55286550D01*
X124515787Y-55260166D01*
X124573112Y-55221863D01*
X124621863Y-55173112D01*
X124660166Y-55115787D01*
X124686550Y-55052091D01*
X124700000Y-54984472D01*
X124700000Y-54915528D01*
X124686550Y-54847909D01*
X124660166Y-54784213D01*
X124621863Y-54726888D01*
X124573112Y-54678137D01*
X124515787Y-54639834D01*
X124452091Y-54613450D01*
X124384472Y-54600000D01*
X124315528Y-54600000D01*
X124247909Y-54613450D01*
X124184213Y-54639834D01*
X124126888Y-54678137D01*
X124078137Y-54726888D01*
X124039834Y-54784213D01*
X124013450Y-54847909D01*
X124000000Y-54915528D01*
X122749986Y-54915528D01*
X122749986Y-54865528D01*
X122736536Y-54797909D01*
X122710152Y-54734213D01*
X122671849Y-54676888D01*
X122639370Y-54644409D01*
X122673112Y-54621863D01*
X122721863Y-54573112D01*
X122760166Y-54515787D01*
X122786550Y-54452091D01*
X122800000Y-54384472D01*
X122800000Y-54315528D01*
X122786550Y-54247909D01*
X122760166Y-54184213D01*
X122721863Y-54126888D01*
X122673112Y-54078137D01*
X122615787Y-54039834D01*
X122552091Y-54013450D01*
X122484472Y-54000000D01*
X122415528Y-54000000D01*
X122347909Y-54013450D01*
X122284213Y-54039834D01*
X122226888Y-54078137D01*
X122178137Y-54126888D01*
X122139834Y-54184213D01*
X122113450Y-54247909D01*
X122100000Y-54315528D01*
X122100000Y-54384472D01*
X122113450Y-54452091D01*
X122139834Y-54515787D01*
X122178137Y-54573112D01*
X122210616Y-54605591D01*
X122176874Y-54628137D01*
X122128123Y-54676888D01*
X122089820Y-54734213D01*
X122063436Y-54797909D01*
X122049986Y-54865528D01*
X121785273Y-54865528D01*
X121811550Y-54802091D01*
X121825000Y-54734472D01*
X121825000Y-54665528D01*
X121811550Y-54597909D01*
X121785166Y-54534213D01*
X121746863Y-54476888D01*
X121698112Y-54428137D01*
X121640787Y-54389834D01*
X121577091Y-54363450D01*
X121509472Y-54350000D01*
X121440528Y-54350000D01*
X121372909Y-54363450D01*
X121309213Y-54389834D01*
X121251888Y-54428137D01*
X121203137Y-54476888D01*
X121164834Y-54534213D01*
X121138450Y-54597909D01*
X121125000Y-54665528D01*
X120623711Y-54665528D01*
X120654888Y-54634351D01*
X120726022Y-54527890D01*
X120775021Y-54409598D01*
X120800000Y-54284019D01*
X120800000Y-54155981D01*
X120775021Y-54030402D01*
X120726022Y-53912110D01*
X120654888Y-53805649D01*
X120564351Y-53715112D01*
X120550000Y-53705523D01*
X120550000Y-53665528D01*
X123025000Y-53665528D01*
X123025000Y-53734472D01*
X123038450Y-53802091D01*
X123064834Y-53865787D01*
X123103137Y-53923112D01*
X123151888Y-53971863D01*
X123209213Y-54010166D01*
X123272909Y-54036550D01*
X123340528Y-54050000D01*
X123365528Y-54050000D01*
X123297909Y-54063450D01*
X123234213Y-54089834D01*
X123176888Y-54128137D01*
X123128137Y-54176888D01*
X123089834Y-54234213D01*
X123063450Y-54297909D01*
X123050000Y-54365528D01*
X123050000Y-54434472D01*
X123063450Y-54502091D01*
X123089834Y-54565787D01*
X123128137Y-54623112D01*
X123176888Y-54671863D01*
X123234213Y-54710166D01*
X123297909Y-54736550D01*
X123365528Y-54750000D01*
X123434472Y-54750000D01*
X123502091Y-54736550D01*
X123565787Y-54710166D01*
X123623112Y-54671863D01*
X123671863Y-54623112D01*
X123710166Y-54565787D01*
X123736550Y-54502091D01*
X123743822Y-54465528D01*
X124550000Y-54465528D01*
X124550000Y-54534472D01*
X124563450Y-54602091D01*
X124589834Y-54665787D01*
X124628137Y-54723112D01*
X124676888Y-54771863D01*
X124734213Y-54810166D01*
X124797909Y-54836550D01*
X124865528Y-54850000D01*
X124934472Y-54850000D01*
X125002091Y-54836550D01*
X125065787Y-54810166D01*
X125123112Y-54771863D01*
X125171863Y-54723112D01*
X125210166Y-54665787D01*
X125236550Y-54602091D01*
X125250000Y-54534472D01*
X125250000Y-54465528D01*
X126300000Y-54465528D01*
X126300000Y-54534472D01*
X126313450Y-54602091D01*
X126339834Y-54665787D01*
X126378137Y-54723112D01*
X126426888Y-54771863D01*
X126484213Y-54810166D01*
X126547909Y-54836550D01*
X126615528Y-54850000D01*
X126684472Y-54850000D01*
X126752091Y-54836550D01*
X126815787Y-54810166D01*
X126873112Y-54771863D01*
X126921863Y-54723112D01*
X126960166Y-54665787D01*
X126986550Y-54602091D01*
X127000000Y-54534472D01*
X127000000Y-54465528D01*
X126986550Y-54397909D01*
X126962782Y-54340528D01*
X127025000Y-54340528D01*
X127025000Y-54409472D01*
X127038450Y-54477091D01*
X127064834Y-54540787D01*
X127103137Y-54598112D01*
X127151888Y-54646863D01*
X127209213Y-54685166D01*
X127272909Y-54711550D01*
X127340528Y-54725000D01*
X127409472Y-54725000D01*
X127477091Y-54711550D01*
X127540787Y-54685166D01*
X127598112Y-54646863D01*
X127646863Y-54598112D01*
X127685166Y-54540787D01*
X127711550Y-54477091D01*
X127725000Y-54409472D01*
X127725000Y-54390528D01*
X127800000Y-54390528D01*
X127800000Y-54459472D01*
X127813450Y-54527091D01*
X127839834Y-54590787D01*
X127878137Y-54648112D01*
X127926888Y-54696863D01*
X127984213Y-54735166D01*
X128047909Y-54761550D01*
X128115528Y-54775000D01*
X128184472Y-54775000D01*
X128252091Y-54761550D01*
X128315787Y-54735166D01*
X128373112Y-54696863D01*
X128421863Y-54648112D01*
X128460166Y-54590787D01*
X128486550Y-54527091D01*
X128500000Y-54459472D01*
X128500000Y-54390528D01*
X128486550Y-54322909D01*
X128460166Y-54259213D01*
X128421863Y-54201888D01*
X128373112Y-54153137D01*
X128315787Y-54114834D01*
X128252091Y-54088450D01*
X128184472Y-54075000D01*
X128115528Y-54075000D01*
X128047909Y-54088450D01*
X127984213Y-54114834D01*
X127926888Y-54153137D01*
X127878137Y-54201888D01*
X127839834Y-54259213D01*
X127813450Y-54322909D01*
X127800000Y-54390528D01*
X127725000Y-54390528D01*
X127725000Y-54340528D01*
X127711550Y-54272909D01*
X127685166Y-54209213D01*
X127646863Y-54151888D01*
X127598112Y-54103137D01*
X127540787Y-54064834D01*
X127477091Y-54038450D01*
X127409472Y-54025000D01*
X127340528Y-54025000D01*
X127272909Y-54038450D01*
X127209213Y-54064834D01*
X127151888Y-54103137D01*
X127103137Y-54151888D01*
X127064834Y-54209213D01*
X127038450Y-54272909D01*
X127025000Y-54340528D01*
X126962782Y-54340528D01*
X126960166Y-54334213D01*
X126921863Y-54276888D01*
X126873112Y-54228137D01*
X126815787Y-54189834D01*
X126752091Y-54163450D01*
X126684472Y-54150000D01*
X126615528Y-54150000D01*
X126547909Y-54163450D01*
X126484213Y-54189834D01*
X126426888Y-54228137D01*
X126378137Y-54276888D01*
X126339834Y-54334213D01*
X126313450Y-54397909D01*
X126300000Y-54465528D01*
X125250000Y-54465528D01*
X125236550Y-54397909D01*
X125210166Y-54334213D01*
X125171863Y-54276888D01*
X125123112Y-54228137D01*
X125065787Y-54189834D01*
X125002091Y-54163450D01*
X124934472Y-54150000D01*
X124865528Y-54150000D01*
X124797909Y-54163450D01*
X124734213Y-54189834D01*
X124676888Y-54228137D01*
X124628137Y-54276888D01*
X124589834Y-54334213D01*
X124563450Y-54397909D01*
X124550000Y-54465528D01*
X123743822Y-54465528D01*
X123750000Y-54434472D01*
X123750000Y-54365528D01*
X123736550Y-54297909D01*
X123710166Y-54234213D01*
X123671863Y-54176888D01*
X123623112Y-54128137D01*
X123565787Y-54089834D01*
X123502091Y-54063450D01*
X123434472Y-54050000D01*
X123409472Y-54050000D01*
X123477091Y-54036550D01*
X123540787Y-54010166D01*
X123598112Y-53971863D01*
X123646863Y-53923112D01*
X123685166Y-53865787D01*
X123711550Y-53802091D01*
X123725000Y-53734472D01*
X123725000Y-53665528D01*
X123711550Y-53597909D01*
X123685166Y-53534213D01*
X123646863Y-53476888D01*
X123635503Y-53465528D01*
X126050000Y-53465528D01*
X126050000Y-53534472D01*
X126063450Y-53602091D01*
X126089834Y-53665787D01*
X126128137Y-53723112D01*
X126176888Y-53771863D01*
X126234213Y-53810166D01*
X126297909Y-53836550D01*
X126365528Y-53850000D01*
X126434472Y-53850000D01*
X126502091Y-53836550D01*
X126565787Y-53810166D01*
X126623112Y-53771863D01*
X126671863Y-53723112D01*
X126710166Y-53665787D01*
X126730984Y-53615528D01*
X127000000Y-53615528D01*
X127000000Y-53684472D01*
X127013450Y-53752091D01*
X127039834Y-53815787D01*
X127078137Y-53873112D01*
X127126888Y-53921863D01*
X127184213Y-53960166D01*
X127247909Y-53986550D01*
X127315528Y-54000000D01*
X127384472Y-54000000D01*
X127452091Y-53986550D01*
X127515787Y-53960166D01*
X127573112Y-53921863D01*
X127621863Y-53873112D01*
X127660166Y-53815787D01*
X127686550Y-53752091D01*
X127700000Y-53684472D01*
X127700000Y-53615528D01*
X127686550Y-53547909D01*
X127660166Y-53484213D01*
X127621863Y-53426888D01*
X127573112Y-53378137D01*
X127515787Y-53339834D01*
X127452091Y-53313450D01*
X127384472Y-53300000D01*
X127315528Y-53300000D01*
X127247909Y-53313450D01*
X127184213Y-53339834D01*
X127126888Y-53378137D01*
X127078137Y-53426888D01*
X127039834Y-53484213D01*
X127013450Y-53547909D01*
X127000000Y-53615528D01*
X126730984Y-53615528D01*
X126736550Y-53602091D01*
X126750000Y-53534472D01*
X126750000Y-53465528D01*
X126736550Y-53397909D01*
X126710166Y-53334213D01*
X126671863Y-53276888D01*
X126623112Y-53228137D01*
X126565787Y-53189834D01*
X126502091Y-53163450D01*
X126434472Y-53150000D01*
X126365528Y-53150000D01*
X126297909Y-53163450D01*
X126234213Y-53189834D01*
X126176888Y-53228137D01*
X126128137Y-53276888D01*
X126089834Y-53334213D01*
X126063450Y-53397909D01*
X126050000Y-53465528D01*
X123635503Y-53465528D01*
X123598112Y-53428137D01*
X123540787Y-53389834D01*
X123477091Y-53363450D01*
X123409472Y-53350000D01*
X123340528Y-53350000D01*
X123272909Y-53363450D01*
X123209213Y-53389834D01*
X123151888Y-53428137D01*
X123103137Y-53476888D01*
X123064834Y-53534213D01*
X123038450Y-53597909D01*
X123025000Y-53665528D01*
X120550000Y-53665528D01*
X120550000Y-53139477D01*
X120564351Y-53129888D01*
X120654888Y-53039351D01*
X120724259Y-52935528D01*
X125180000Y-52935528D01*
X125180000Y-53004472D01*
X125193450Y-53072091D01*
X125219834Y-53135787D01*
X125258137Y-53193112D01*
X125306888Y-53241863D01*
X125364213Y-53280166D01*
X125427909Y-53306550D01*
X125495528Y-53320000D01*
X125564472Y-53320000D01*
X125632091Y-53306550D01*
X125695787Y-53280166D01*
X125753112Y-53241863D01*
X125801863Y-53193112D01*
X125840166Y-53135787D01*
X125866550Y-53072091D01*
X125880000Y-53004472D01*
X125880000Y-52935528D01*
X125871050Y-52890528D01*
X126500000Y-52890528D01*
X126500000Y-52959472D01*
X126513450Y-53027091D01*
X126539834Y-53090787D01*
X126578137Y-53148112D01*
X126626888Y-53196863D01*
X126684213Y-53235166D01*
X126747909Y-53261550D01*
X126815528Y-53275000D01*
X126884472Y-53275000D01*
X126952091Y-53261550D01*
X127015787Y-53235166D01*
X127073112Y-53196863D01*
X127121863Y-53148112D01*
X127143634Y-53115528D01*
X128425000Y-53115528D01*
X128425000Y-53184472D01*
X128438450Y-53252091D01*
X128464834Y-53315787D01*
X128503137Y-53373112D01*
X128551888Y-53421863D01*
X128609213Y-53460166D01*
X128672909Y-53486550D01*
X128740528Y-53500000D01*
X128809472Y-53500000D01*
X128877091Y-53486550D01*
X128940787Y-53460166D01*
X128998112Y-53421863D01*
X129046863Y-53373112D01*
X129085166Y-53315787D01*
X129111550Y-53252091D01*
X129125000Y-53184472D01*
X129125000Y-53115528D01*
X129111550Y-53047909D01*
X129085166Y-52984213D01*
X129046863Y-52926888D01*
X128998112Y-52878137D01*
X128940787Y-52839834D01*
X128877091Y-52813450D01*
X128809472Y-52800000D01*
X128740528Y-52800000D01*
X128672909Y-52813450D01*
X128609213Y-52839834D01*
X128551888Y-52878137D01*
X128503137Y-52926888D01*
X128464834Y-52984213D01*
X128438450Y-53047909D01*
X128425000Y-53115528D01*
X127143634Y-53115528D01*
X127160166Y-53090787D01*
X127186550Y-53027091D01*
X127200000Y-52959472D01*
X127200000Y-52890528D01*
X127186550Y-52822909D01*
X127160166Y-52759213D01*
X127121863Y-52701888D01*
X127073112Y-52653137D01*
X127015787Y-52614834D01*
X126952091Y-52588450D01*
X126884472Y-52575000D01*
X126815528Y-52575000D01*
X126747909Y-52588450D01*
X126684213Y-52614834D01*
X126626888Y-52653137D01*
X126578137Y-52701888D01*
X126539834Y-52759213D01*
X126513450Y-52822909D01*
X126500000Y-52890528D01*
X125871050Y-52890528D01*
X125866550Y-52867909D01*
X125840166Y-52804213D01*
X125801863Y-52746888D01*
X125753112Y-52698137D01*
X125695787Y-52659834D01*
X125632091Y-52633450D01*
X125564472Y-52620000D01*
X125495528Y-52620000D01*
X125427909Y-52633450D01*
X125364213Y-52659834D01*
X125306888Y-52698137D01*
X125258137Y-52746888D01*
X125219834Y-52804213D01*
X125193450Y-52867909D01*
X125180000Y-52935528D01*
X120724259Y-52935528D01*
X120726022Y-52932890D01*
X120775021Y-52814598D01*
X120791522Y-52731641D01*
X120834213Y-52760166D01*
X120897909Y-52786550D01*
X120965528Y-52800000D01*
X121034472Y-52800000D01*
X121102091Y-52786550D01*
X121165787Y-52760166D01*
X121223112Y-52721863D01*
X121271863Y-52673112D01*
X121310166Y-52615787D01*
X121336550Y-52552091D01*
X121350000Y-52484472D01*
X121350000Y-52465528D01*
X122750000Y-52465528D01*
X122750000Y-52534472D01*
X122763450Y-52602091D01*
X122789834Y-52665787D01*
X122828137Y-52723112D01*
X122876888Y-52771863D01*
X122934213Y-52810166D01*
X122997909Y-52836550D01*
X123065528Y-52850000D01*
X123134472Y-52850000D01*
X123202091Y-52836550D01*
X123265787Y-52810166D01*
X123323112Y-52771863D01*
X123371863Y-52723112D01*
X123410166Y-52665787D01*
X123436550Y-52602091D01*
X123450000Y-52534472D01*
X123450000Y-52465528D01*
X123436550Y-52397909D01*
X123410166Y-52334213D01*
X123371863Y-52276888D01*
X123323112Y-52228137D01*
X123265787Y-52189834D01*
X123231250Y-52175528D01*
X127020000Y-52175528D01*
X127020000Y-52244472D01*
X127033450Y-52312091D01*
X127059834Y-52375787D01*
X127098137Y-52433112D01*
X127146888Y-52481863D01*
X127204213Y-52520166D01*
X127267909Y-52546550D01*
X127335528Y-52560000D01*
X127404472Y-52560000D01*
X127472091Y-52546550D01*
X127535787Y-52520166D01*
X127593112Y-52481863D01*
X127641863Y-52433112D01*
X127680166Y-52375787D01*
X127706550Y-52312091D01*
X127720000Y-52244472D01*
X127720000Y-52175528D01*
X128020000Y-52175528D01*
X128020000Y-52244472D01*
X128033450Y-52312091D01*
X128059834Y-52375787D01*
X128098137Y-52433112D01*
X128146888Y-52481863D01*
X128204213Y-52520166D01*
X128267909Y-52546550D01*
X128335528Y-52560000D01*
X128404472Y-52560000D01*
X128472091Y-52546550D01*
X128535787Y-52520166D01*
X128593112Y-52481863D01*
X128641863Y-52433112D01*
X128680166Y-52375787D01*
X128706550Y-52312091D01*
X128720000Y-52244472D01*
X128720000Y-52175528D01*
X128706550Y-52107909D01*
X128680166Y-52044213D01*
X128641863Y-51986888D01*
X128593112Y-51938137D01*
X128535787Y-51899834D01*
X128472091Y-51873450D01*
X128404472Y-51860000D01*
X128335528Y-51860000D01*
X128267909Y-51873450D01*
X128204213Y-51899834D01*
X128146888Y-51938137D01*
X128098137Y-51986888D01*
X128059834Y-52044213D01*
X128033450Y-52107909D01*
X128020000Y-52175528D01*
X127720000Y-52175528D01*
X127706550Y-52107909D01*
X127680166Y-52044213D01*
X127641863Y-51986888D01*
X127593112Y-51938137D01*
X127535787Y-51899834D01*
X127472091Y-51873450D01*
X127404472Y-51860000D01*
X127335528Y-51860000D01*
X127267909Y-51873450D01*
X127204213Y-51899834D01*
X127146888Y-51938137D01*
X127098137Y-51986888D01*
X127059834Y-52044213D01*
X127033450Y-52107909D01*
X127020000Y-52175528D01*
X123231250Y-52175528D01*
X123202091Y-52163450D01*
X123134472Y-52150000D01*
X123065528Y-52150000D01*
X122997909Y-52163450D01*
X122934213Y-52189834D01*
X122876888Y-52228137D01*
X122828137Y-52276888D01*
X122789834Y-52334213D01*
X122763450Y-52397909D01*
X122750000Y-52465528D01*
X121350000Y-52465528D01*
X121350000Y-52415528D01*
X121336550Y-52347909D01*
X121310166Y-52284213D01*
X121271863Y-52226888D01*
X121223112Y-52178137D01*
X121165787Y-52139834D01*
X121102091Y-52113450D01*
X121034472Y-52100000D01*
X120965528Y-52100000D01*
X120897909Y-52113450D01*
X120834213Y-52139834D01*
X120776888Y-52178137D01*
X120728137Y-52226888D01*
X120696938Y-52273582D01*
X120654888Y-52210649D01*
X120564351Y-52120112D01*
X120550000Y-52110523D01*
X120550000Y-51634472D01*
X120563450Y-51702091D01*
X120589834Y-51765787D01*
X120628137Y-51823112D01*
X120676888Y-51871863D01*
X120734213Y-51910166D01*
X120797909Y-51936550D01*
X120865528Y-51950000D01*
X120934472Y-51950000D01*
X121002091Y-51936550D01*
X121065787Y-51910166D01*
X121123112Y-51871863D01*
X121171863Y-51823112D01*
X121210166Y-51765787D01*
X121236550Y-51702091D01*
X121250000Y-51634472D01*
X121250000Y-51615528D01*
X121900000Y-51615528D01*
X121900000Y-51684472D01*
X121913450Y-51752091D01*
X121939834Y-51815787D01*
X121978137Y-51873112D01*
X122026888Y-51921863D01*
X122084213Y-51960166D01*
X122147909Y-51986550D01*
X122215528Y-52000000D01*
X122284472Y-52000000D01*
X122352091Y-51986550D01*
X122415787Y-51960166D01*
X122473112Y-51921863D01*
X122521863Y-51873112D01*
X122560166Y-51815787D01*
X122586550Y-51752091D01*
X122600000Y-51684472D01*
X122600000Y-51615528D01*
X122586550Y-51547909D01*
X122560166Y-51484213D01*
X122521863Y-51426888D01*
X122473112Y-51378137D01*
X122415787Y-51339834D01*
X122352091Y-51313450D01*
X122284472Y-51300000D01*
X122215528Y-51300000D01*
X122147909Y-51313450D01*
X122084213Y-51339834D01*
X122026888Y-51378137D01*
X121978137Y-51426888D01*
X121939834Y-51484213D01*
X121913450Y-51547909D01*
X121900000Y-51615528D01*
X121250000Y-51615528D01*
X121250000Y-51565528D01*
X121236550Y-51497909D01*
X121210166Y-51434213D01*
X121171863Y-51376888D01*
X121123112Y-51328137D01*
X121065787Y-51289834D01*
X121002091Y-51263450D01*
X120934472Y-51250000D01*
X124115528Y-51250000D01*
X124047909Y-51263450D01*
M02*
