G04 #@! TF.GenerationSoftware,KiCad,Pcbnew,(5.1.4)-1*
G04 #@! TF.CreationDate,2021-03-14T16:47:26+01:00*
G04 #@! TF.ProjectId,zepto_receiver_elrs,7a657074-6f5f-4726-9563-65697665725f,rev?*
G04 #@! TF.SameCoordinates,Original*
G04 #@! TF.FileFunction,Paste,Bot*
G04 #@! TF.FilePolarity,Positive*
%FSLAX46Y46*%
G04 Gerber Fmt 4.6, Leading zero omitted, Abs format (unit mm)*
G04 Created by KiCad (PCBNEW (5.1.4)-1) date 2021-03-14 16:47:26*
%MOMM*%
%LPD*%
G04 APERTURE LIST*
%ADD10R,1.000000X1.000000*%
%ADD11C,0.250000*%
%ADD12C,1.000000*%
%ADD13C,1.050000*%
%ADD14C,0.318000*%
%ADD15C,0.590000*%
%ADD16C,0.240000*%
%ADD17R,0.070000X0.190000*%
%ADD18C,0.141424*%
%ADD19C,0.127282*%
%ADD20R,0.250000X0.220000*%
%ADD21C,0.127314*%
%ADD22C,0.875000*%
%ADD23C,0.700000*%
%ADD24C,0.300000*%
G04 APERTURE END LIST*
D10*
X127815000Y-56630000D03*
D11*
G36*
X128089504Y-53131204D02*
G01*
X128113773Y-53134804D01*
X128137571Y-53140765D01*
X128160671Y-53149030D01*
X128182849Y-53159520D01*
X128203893Y-53172133D01*
X128223598Y-53186747D01*
X128241777Y-53203223D01*
X128258253Y-53221402D01*
X128272867Y-53241107D01*
X128285480Y-53262151D01*
X128295970Y-53284329D01*
X128304235Y-53307429D01*
X128310196Y-53331227D01*
X128313796Y-53355496D01*
X128315000Y-53380000D01*
X128315000Y-53880000D01*
X128313796Y-53904504D01*
X128310196Y-53928773D01*
X128304235Y-53952571D01*
X128295970Y-53975671D01*
X128285480Y-53997849D01*
X128272867Y-54018893D01*
X128258253Y-54038598D01*
X128241777Y-54056777D01*
X128223598Y-54073253D01*
X128203893Y-54087867D01*
X128182849Y-54100480D01*
X128160671Y-54110970D01*
X128137571Y-54119235D01*
X128113773Y-54125196D01*
X128089504Y-54128796D01*
X128065000Y-54130000D01*
X127565000Y-54130000D01*
X127540496Y-54128796D01*
X127516227Y-54125196D01*
X127492429Y-54119235D01*
X127469329Y-54110970D01*
X127447151Y-54100480D01*
X127426107Y-54087867D01*
X127406402Y-54073253D01*
X127388223Y-54056777D01*
X127371747Y-54038598D01*
X127357133Y-54018893D01*
X127344520Y-53997849D01*
X127334030Y-53975671D01*
X127325765Y-53952571D01*
X127319804Y-53928773D01*
X127316204Y-53904504D01*
X127315000Y-53880000D01*
X127315000Y-53380000D01*
X127316204Y-53355496D01*
X127319804Y-53331227D01*
X127325765Y-53307429D01*
X127334030Y-53284329D01*
X127344520Y-53262151D01*
X127357133Y-53241107D01*
X127371747Y-53221402D01*
X127388223Y-53203223D01*
X127406402Y-53186747D01*
X127426107Y-53172133D01*
X127447151Y-53159520D01*
X127469329Y-53149030D01*
X127492429Y-53140765D01*
X127516227Y-53134804D01*
X127540496Y-53131204D01*
X127565000Y-53130000D01*
X128065000Y-53130000D01*
X128089504Y-53131204D01*
X128089504Y-53131204D01*
G37*
D12*
X127815000Y-53630000D03*
D11*
G36*
X126628229Y-54031264D02*
G01*
X126653711Y-54035044D01*
X126678700Y-54041303D01*
X126702954Y-54049982D01*
X126726242Y-54060996D01*
X126748337Y-54074239D01*
X126769028Y-54089585D01*
X126788116Y-54106884D01*
X126805415Y-54125972D01*
X126820761Y-54146663D01*
X126834004Y-54168758D01*
X126845018Y-54192046D01*
X126853697Y-54216300D01*
X126859956Y-54241289D01*
X126863736Y-54266771D01*
X126865000Y-54292500D01*
X126865000Y-55967500D01*
X126863736Y-55993229D01*
X126859956Y-56018711D01*
X126853697Y-56043700D01*
X126845018Y-56067954D01*
X126834004Y-56091242D01*
X126820761Y-56113337D01*
X126805415Y-56134028D01*
X126788116Y-56153116D01*
X126769028Y-56170415D01*
X126748337Y-56185761D01*
X126726242Y-56199004D01*
X126702954Y-56210018D01*
X126678700Y-56218697D01*
X126653711Y-56224956D01*
X126628229Y-56228736D01*
X126602500Y-56230000D01*
X126077500Y-56230000D01*
X126051771Y-56228736D01*
X126026289Y-56224956D01*
X126001300Y-56218697D01*
X125977046Y-56210018D01*
X125953758Y-56199004D01*
X125931663Y-56185761D01*
X125910972Y-56170415D01*
X125891884Y-56153116D01*
X125874585Y-56134028D01*
X125859239Y-56113337D01*
X125845996Y-56091242D01*
X125834982Y-56067954D01*
X125826303Y-56043700D01*
X125820044Y-56018711D01*
X125816264Y-55993229D01*
X125815000Y-55967500D01*
X125815000Y-54292500D01*
X125816264Y-54266771D01*
X125820044Y-54241289D01*
X125826303Y-54216300D01*
X125834982Y-54192046D01*
X125845996Y-54168758D01*
X125859239Y-54146663D01*
X125874585Y-54125972D01*
X125891884Y-54106884D01*
X125910972Y-54089585D01*
X125931663Y-54074239D01*
X125953758Y-54060996D01*
X125977046Y-54049982D01*
X126001300Y-54041303D01*
X126026289Y-54035044D01*
X126051771Y-54031264D01*
X126077500Y-54030000D01*
X126602500Y-54030000D01*
X126628229Y-54031264D01*
X126628229Y-54031264D01*
G37*
D13*
X126340000Y-55130000D03*
D11*
G36*
X129578229Y-54031264D02*
G01*
X129603711Y-54035044D01*
X129628700Y-54041303D01*
X129652954Y-54049982D01*
X129676242Y-54060996D01*
X129698337Y-54074239D01*
X129719028Y-54089585D01*
X129738116Y-54106884D01*
X129755415Y-54125972D01*
X129770761Y-54146663D01*
X129784004Y-54168758D01*
X129795018Y-54192046D01*
X129803697Y-54216300D01*
X129809956Y-54241289D01*
X129813736Y-54266771D01*
X129815000Y-54292500D01*
X129815000Y-55967500D01*
X129813736Y-55993229D01*
X129809956Y-56018711D01*
X129803697Y-56043700D01*
X129795018Y-56067954D01*
X129784004Y-56091242D01*
X129770761Y-56113337D01*
X129755415Y-56134028D01*
X129738116Y-56153116D01*
X129719028Y-56170415D01*
X129698337Y-56185761D01*
X129676242Y-56199004D01*
X129652954Y-56210018D01*
X129628700Y-56218697D01*
X129603711Y-56224956D01*
X129578229Y-56228736D01*
X129552500Y-56230000D01*
X129027500Y-56230000D01*
X129001771Y-56228736D01*
X128976289Y-56224956D01*
X128951300Y-56218697D01*
X128927046Y-56210018D01*
X128903758Y-56199004D01*
X128881663Y-56185761D01*
X128860972Y-56170415D01*
X128841884Y-56153116D01*
X128824585Y-56134028D01*
X128809239Y-56113337D01*
X128795996Y-56091242D01*
X128784982Y-56067954D01*
X128776303Y-56043700D01*
X128770044Y-56018711D01*
X128766264Y-55993229D01*
X128765000Y-55967500D01*
X128765000Y-54292500D01*
X128766264Y-54266771D01*
X128770044Y-54241289D01*
X128776303Y-54216300D01*
X128784982Y-54192046D01*
X128795996Y-54168758D01*
X128809239Y-54146663D01*
X128824585Y-54125972D01*
X128841884Y-54106884D01*
X128860972Y-54089585D01*
X128881663Y-54074239D01*
X128903758Y-54060996D01*
X128927046Y-54049982D01*
X128951300Y-54041303D01*
X128976289Y-54035044D01*
X129001771Y-54031264D01*
X129027500Y-54030000D01*
X129552500Y-54030000D01*
X129578229Y-54031264D01*
X129578229Y-54031264D01*
G37*
D13*
X129290000Y-55130000D03*
D11*
G36*
X125008292Y-57161383D02*
G01*
X125016010Y-57162528D01*
X125023578Y-57164423D01*
X125030923Y-57167052D01*
X125037976Y-57170387D01*
X125044668Y-57174398D01*
X125050934Y-57179046D01*
X125056715Y-57184285D01*
X125061954Y-57190066D01*
X125066602Y-57196332D01*
X125070613Y-57203024D01*
X125073948Y-57210077D01*
X125076577Y-57217422D01*
X125078472Y-57224990D01*
X125079617Y-57232708D01*
X125080000Y-57240500D01*
X125080000Y-57399500D01*
X125079617Y-57407292D01*
X125078472Y-57415010D01*
X125076577Y-57422578D01*
X125073948Y-57429923D01*
X125070613Y-57436976D01*
X125066602Y-57443668D01*
X125061954Y-57449934D01*
X125056715Y-57455715D01*
X125050934Y-57460954D01*
X125044668Y-57465602D01*
X125037976Y-57469613D01*
X125030923Y-57472948D01*
X125023578Y-57475577D01*
X125016010Y-57477472D01*
X125008292Y-57478617D01*
X125000500Y-57479000D01*
X124799500Y-57479000D01*
X124791708Y-57478617D01*
X124783990Y-57477472D01*
X124776422Y-57475577D01*
X124769077Y-57472948D01*
X124762024Y-57469613D01*
X124755332Y-57465602D01*
X124749066Y-57460954D01*
X124743285Y-57455715D01*
X124738046Y-57449934D01*
X124733398Y-57443668D01*
X124729387Y-57436976D01*
X124726052Y-57429923D01*
X124723423Y-57422578D01*
X124721528Y-57415010D01*
X124720383Y-57407292D01*
X124720000Y-57399500D01*
X124720000Y-57240500D01*
X124720383Y-57232708D01*
X124721528Y-57224990D01*
X124723423Y-57217422D01*
X124726052Y-57210077D01*
X124729387Y-57203024D01*
X124733398Y-57196332D01*
X124738046Y-57190066D01*
X124743285Y-57184285D01*
X124749066Y-57179046D01*
X124755332Y-57174398D01*
X124762024Y-57170387D01*
X124769077Y-57167052D01*
X124776422Y-57164423D01*
X124783990Y-57162528D01*
X124791708Y-57161383D01*
X124799500Y-57161000D01*
X125000500Y-57161000D01*
X125008292Y-57161383D01*
X125008292Y-57161383D01*
G37*
D14*
X124900000Y-57320000D03*
D11*
G36*
X125008292Y-56471383D02*
G01*
X125016010Y-56472528D01*
X125023578Y-56474423D01*
X125030923Y-56477052D01*
X125037976Y-56480387D01*
X125044668Y-56484398D01*
X125050934Y-56489046D01*
X125056715Y-56494285D01*
X125061954Y-56500066D01*
X125066602Y-56506332D01*
X125070613Y-56513024D01*
X125073948Y-56520077D01*
X125076577Y-56527422D01*
X125078472Y-56534990D01*
X125079617Y-56542708D01*
X125080000Y-56550500D01*
X125080000Y-56709500D01*
X125079617Y-56717292D01*
X125078472Y-56725010D01*
X125076577Y-56732578D01*
X125073948Y-56739923D01*
X125070613Y-56746976D01*
X125066602Y-56753668D01*
X125061954Y-56759934D01*
X125056715Y-56765715D01*
X125050934Y-56770954D01*
X125044668Y-56775602D01*
X125037976Y-56779613D01*
X125030923Y-56782948D01*
X125023578Y-56785577D01*
X125016010Y-56787472D01*
X125008292Y-56788617D01*
X125000500Y-56789000D01*
X124799500Y-56789000D01*
X124791708Y-56788617D01*
X124783990Y-56787472D01*
X124776422Y-56785577D01*
X124769077Y-56782948D01*
X124762024Y-56779613D01*
X124755332Y-56775602D01*
X124749066Y-56770954D01*
X124743285Y-56765715D01*
X124738046Y-56759934D01*
X124733398Y-56753668D01*
X124729387Y-56746976D01*
X124726052Y-56739923D01*
X124723423Y-56732578D01*
X124721528Y-56725010D01*
X124720383Y-56717292D01*
X124720000Y-56709500D01*
X124720000Y-56550500D01*
X124720383Y-56542708D01*
X124721528Y-56534990D01*
X124723423Y-56527422D01*
X124726052Y-56520077D01*
X124729387Y-56513024D01*
X124733398Y-56506332D01*
X124738046Y-56500066D01*
X124743285Y-56494285D01*
X124749066Y-56489046D01*
X124755332Y-56484398D01*
X124762024Y-56480387D01*
X124769077Y-56477052D01*
X124776422Y-56474423D01*
X124783990Y-56472528D01*
X124791708Y-56471383D01*
X124799500Y-56471000D01*
X125000500Y-56471000D01*
X125008292Y-56471383D01*
X125008292Y-56471383D01*
G37*
D14*
X124900000Y-56630000D03*
D11*
G36*
X125461958Y-52660710D02*
G01*
X125476276Y-52662834D01*
X125490317Y-52666351D01*
X125503946Y-52671228D01*
X125517031Y-52677417D01*
X125529447Y-52684858D01*
X125541073Y-52693481D01*
X125551798Y-52703202D01*
X125561519Y-52713927D01*
X125570142Y-52725553D01*
X125577583Y-52737969D01*
X125583772Y-52751054D01*
X125588649Y-52764683D01*
X125592166Y-52778724D01*
X125594290Y-52793042D01*
X125595000Y-52807500D01*
X125595000Y-53152500D01*
X125594290Y-53166958D01*
X125592166Y-53181276D01*
X125588649Y-53195317D01*
X125583772Y-53208946D01*
X125577583Y-53222031D01*
X125570142Y-53234447D01*
X125561519Y-53246073D01*
X125551798Y-53256798D01*
X125541073Y-53266519D01*
X125529447Y-53275142D01*
X125517031Y-53282583D01*
X125503946Y-53288772D01*
X125490317Y-53293649D01*
X125476276Y-53297166D01*
X125461958Y-53299290D01*
X125447500Y-53300000D01*
X125152500Y-53300000D01*
X125138042Y-53299290D01*
X125123724Y-53297166D01*
X125109683Y-53293649D01*
X125096054Y-53288772D01*
X125082969Y-53282583D01*
X125070553Y-53275142D01*
X125058927Y-53266519D01*
X125048202Y-53256798D01*
X125038481Y-53246073D01*
X125029858Y-53234447D01*
X125022417Y-53222031D01*
X125016228Y-53208946D01*
X125011351Y-53195317D01*
X125007834Y-53181276D01*
X125005710Y-53166958D01*
X125005000Y-53152500D01*
X125005000Y-52807500D01*
X125005710Y-52793042D01*
X125007834Y-52778724D01*
X125011351Y-52764683D01*
X125016228Y-52751054D01*
X125022417Y-52737969D01*
X125029858Y-52725553D01*
X125038481Y-52713927D01*
X125048202Y-52703202D01*
X125058927Y-52693481D01*
X125070553Y-52684858D01*
X125082969Y-52677417D01*
X125096054Y-52671228D01*
X125109683Y-52666351D01*
X125123724Y-52662834D01*
X125138042Y-52660710D01*
X125152500Y-52660000D01*
X125447500Y-52660000D01*
X125461958Y-52660710D01*
X125461958Y-52660710D01*
G37*
D15*
X125300000Y-52980000D03*
D11*
G36*
X124491958Y-52660710D02*
G01*
X124506276Y-52662834D01*
X124520317Y-52666351D01*
X124533946Y-52671228D01*
X124547031Y-52677417D01*
X124559447Y-52684858D01*
X124571073Y-52693481D01*
X124581798Y-52703202D01*
X124591519Y-52713927D01*
X124600142Y-52725553D01*
X124607583Y-52737969D01*
X124613772Y-52751054D01*
X124618649Y-52764683D01*
X124622166Y-52778724D01*
X124624290Y-52793042D01*
X124625000Y-52807500D01*
X124625000Y-53152500D01*
X124624290Y-53166958D01*
X124622166Y-53181276D01*
X124618649Y-53195317D01*
X124613772Y-53208946D01*
X124607583Y-53222031D01*
X124600142Y-53234447D01*
X124591519Y-53246073D01*
X124581798Y-53256798D01*
X124571073Y-53266519D01*
X124559447Y-53275142D01*
X124547031Y-53282583D01*
X124533946Y-53288772D01*
X124520317Y-53293649D01*
X124506276Y-53297166D01*
X124491958Y-53299290D01*
X124477500Y-53300000D01*
X124182500Y-53300000D01*
X124168042Y-53299290D01*
X124153724Y-53297166D01*
X124139683Y-53293649D01*
X124126054Y-53288772D01*
X124112969Y-53282583D01*
X124100553Y-53275142D01*
X124088927Y-53266519D01*
X124078202Y-53256798D01*
X124068481Y-53246073D01*
X124059858Y-53234447D01*
X124052417Y-53222031D01*
X124046228Y-53208946D01*
X124041351Y-53195317D01*
X124037834Y-53181276D01*
X124035710Y-53166958D01*
X124035000Y-53152500D01*
X124035000Y-52807500D01*
X124035710Y-52793042D01*
X124037834Y-52778724D01*
X124041351Y-52764683D01*
X124046228Y-52751054D01*
X124052417Y-52737969D01*
X124059858Y-52725553D01*
X124068481Y-52713927D01*
X124078202Y-52703202D01*
X124088927Y-52693481D01*
X124100553Y-52684858D01*
X124112969Y-52677417D01*
X124126054Y-52671228D01*
X124139683Y-52666351D01*
X124153724Y-52662834D01*
X124168042Y-52660710D01*
X124182500Y-52660000D01*
X124477500Y-52660000D01*
X124491958Y-52660710D01*
X124491958Y-52660710D01*
G37*
D15*
X124330000Y-52980000D03*
D11*
G36*
X122486958Y-51435710D02*
G01*
X122501276Y-51437834D01*
X122515317Y-51441351D01*
X122528946Y-51446228D01*
X122542031Y-51452417D01*
X122554447Y-51459858D01*
X122566073Y-51468481D01*
X122576798Y-51478202D01*
X122586519Y-51488927D01*
X122595142Y-51500553D01*
X122602583Y-51512969D01*
X122608772Y-51526054D01*
X122613649Y-51539683D01*
X122617166Y-51553724D01*
X122619290Y-51568042D01*
X122620000Y-51582500D01*
X122620000Y-51877500D01*
X122619290Y-51891958D01*
X122617166Y-51906276D01*
X122613649Y-51920317D01*
X122608772Y-51933946D01*
X122602583Y-51947031D01*
X122595142Y-51959447D01*
X122586519Y-51971073D01*
X122576798Y-51981798D01*
X122566073Y-51991519D01*
X122554447Y-52000142D01*
X122542031Y-52007583D01*
X122528946Y-52013772D01*
X122515317Y-52018649D01*
X122501276Y-52022166D01*
X122486958Y-52024290D01*
X122472500Y-52025000D01*
X122127500Y-52025000D01*
X122113042Y-52024290D01*
X122098724Y-52022166D01*
X122084683Y-52018649D01*
X122071054Y-52013772D01*
X122057969Y-52007583D01*
X122045553Y-52000142D01*
X122033927Y-51991519D01*
X122023202Y-51981798D01*
X122013481Y-51971073D01*
X122004858Y-51959447D01*
X121997417Y-51947031D01*
X121991228Y-51933946D01*
X121986351Y-51920317D01*
X121982834Y-51906276D01*
X121980710Y-51891958D01*
X121980000Y-51877500D01*
X121980000Y-51582500D01*
X121980710Y-51568042D01*
X121982834Y-51553724D01*
X121986351Y-51539683D01*
X121991228Y-51526054D01*
X121997417Y-51512969D01*
X122004858Y-51500553D01*
X122013481Y-51488927D01*
X122023202Y-51478202D01*
X122033927Y-51468481D01*
X122045553Y-51459858D01*
X122057969Y-51452417D01*
X122071054Y-51446228D01*
X122084683Y-51441351D01*
X122098724Y-51437834D01*
X122113042Y-51435710D01*
X122127500Y-51435000D01*
X122472500Y-51435000D01*
X122486958Y-51435710D01*
X122486958Y-51435710D01*
G37*
D15*
X122300000Y-51730000D03*
D11*
G36*
X122486958Y-52405710D02*
G01*
X122501276Y-52407834D01*
X122515317Y-52411351D01*
X122528946Y-52416228D01*
X122542031Y-52422417D01*
X122554447Y-52429858D01*
X122566073Y-52438481D01*
X122576798Y-52448202D01*
X122586519Y-52458927D01*
X122595142Y-52470553D01*
X122602583Y-52482969D01*
X122608772Y-52496054D01*
X122613649Y-52509683D01*
X122617166Y-52523724D01*
X122619290Y-52538042D01*
X122620000Y-52552500D01*
X122620000Y-52847500D01*
X122619290Y-52861958D01*
X122617166Y-52876276D01*
X122613649Y-52890317D01*
X122608772Y-52903946D01*
X122602583Y-52917031D01*
X122595142Y-52929447D01*
X122586519Y-52941073D01*
X122576798Y-52951798D01*
X122566073Y-52961519D01*
X122554447Y-52970142D01*
X122542031Y-52977583D01*
X122528946Y-52983772D01*
X122515317Y-52988649D01*
X122501276Y-52992166D01*
X122486958Y-52994290D01*
X122472500Y-52995000D01*
X122127500Y-52995000D01*
X122113042Y-52994290D01*
X122098724Y-52992166D01*
X122084683Y-52988649D01*
X122071054Y-52983772D01*
X122057969Y-52977583D01*
X122045553Y-52970142D01*
X122033927Y-52961519D01*
X122023202Y-52951798D01*
X122013481Y-52941073D01*
X122004858Y-52929447D01*
X121997417Y-52917031D01*
X121991228Y-52903946D01*
X121986351Y-52890317D01*
X121982834Y-52876276D01*
X121980710Y-52861958D01*
X121980000Y-52847500D01*
X121980000Y-52552500D01*
X121980710Y-52538042D01*
X121982834Y-52523724D01*
X121986351Y-52509683D01*
X121991228Y-52496054D01*
X121997417Y-52482969D01*
X122004858Y-52470553D01*
X122013481Y-52458927D01*
X122023202Y-52448202D01*
X122033927Y-52438481D01*
X122045553Y-52429858D01*
X122057969Y-52422417D01*
X122071054Y-52416228D01*
X122084683Y-52411351D01*
X122098724Y-52407834D01*
X122113042Y-52405710D01*
X122127500Y-52405000D01*
X122472500Y-52405000D01*
X122486958Y-52405710D01*
X122486958Y-52405710D01*
G37*
D15*
X122300000Y-52700000D03*
D16*
X123470000Y-52320000D03*
D11*
G36*
X123639706Y-52320000D02*
G01*
X123470000Y-52489706D01*
X123300294Y-52320000D01*
X123470000Y-52150294D01*
X123639706Y-52320000D01*
X123639706Y-52320000D01*
G37*
D16*
X123300000Y-52490000D03*
D11*
G36*
X123469706Y-52490000D02*
G01*
X123300000Y-52659706D01*
X123130294Y-52490000D01*
X123300000Y-52320294D01*
X123469706Y-52490000D01*
X123469706Y-52490000D01*
G37*
D16*
X123300000Y-52150000D03*
D11*
G36*
X123469706Y-52150000D02*
G01*
X123300000Y-52319706D01*
X123130294Y-52150000D01*
X123300000Y-51980294D01*
X123469706Y-52150000D01*
X123469706Y-52150000D01*
G37*
D17*
X122885000Y-51975000D03*
D18*
X123650000Y-52700000D03*
D11*
G36*
X123550000Y-52699995D02*
G01*
X123750000Y-52500005D01*
X123750000Y-52899995D01*
X123550000Y-52700005D01*
X123550000Y-52699995D01*
X123550000Y-52699995D01*
G37*
D19*
X123010000Y-51890000D03*
D11*
G36*
X123100000Y-51890005D02*
G01*
X122920000Y-52069995D01*
X122920000Y-51710005D01*
X123100000Y-51889995D01*
X123100000Y-51890005D01*
X123100000Y-51890005D01*
G37*
D20*
X122975000Y-51780000D03*
D17*
X123715000Y-51980000D03*
D21*
X123590000Y-51895000D03*
D11*
G36*
X123680000Y-51715050D02*
G01*
X123680000Y-52074950D01*
X123500000Y-51895050D01*
X123500000Y-51894950D01*
X123680000Y-51715050D01*
X123680000Y-51715050D01*
G37*
D20*
X123625000Y-51780000D03*
X123625000Y-52860000D03*
D16*
X123130000Y-52320000D03*
D11*
G36*
X123299706Y-52320000D02*
G01*
X123130000Y-52489706D01*
X122960294Y-52320000D01*
X123130000Y-52150294D01*
X123299706Y-52320000D01*
X123299706Y-52320000D01*
G37*
D20*
X122975000Y-52860000D03*
D18*
X123600000Y-52750000D03*
D11*
G36*
X123500000Y-52749995D02*
G01*
X123700000Y-52550005D01*
X123700000Y-52949995D01*
X123500000Y-52750005D01*
X123500000Y-52749995D01*
X123500000Y-52749995D01*
G37*
D21*
X123010000Y-52750000D03*
D11*
G36*
X122920000Y-52929950D02*
G01*
X122920000Y-52570050D01*
X123100000Y-52749950D01*
X123100000Y-52750050D01*
X122920000Y-52929950D01*
X122920000Y-52929950D01*
G37*
D17*
X122885000Y-52665000D03*
D11*
G36*
X126252292Y-56580383D02*
G01*
X126260010Y-56581528D01*
X126267578Y-56583423D01*
X126274923Y-56586052D01*
X126281976Y-56589387D01*
X126288668Y-56593398D01*
X126294934Y-56598046D01*
X126300715Y-56603285D01*
X126305954Y-56609066D01*
X126310602Y-56615332D01*
X126314613Y-56622024D01*
X126317948Y-56629077D01*
X126320577Y-56636422D01*
X126322472Y-56643990D01*
X126323617Y-56651708D01*
X126324000Y-56659500D01*
X126324000Y-56860500D01*
X126323617Y-56868292D01*
X126322472Y-56876010D01*
X126320577Y-56883578D01*
X126317948Y-56890923D01*
X126314613Y-56897976D01*
X126310602Y-56904668D01*
X126305954Y-56910934D01*
X126300715Y-56916715D01*
X126294934Y-56921954D01*
X126288668Y-56926602D01*
X126281976Y-56930613D01*
X126274923Y-56933948D01*
X126267578Y-56936577D01*
X126260010Y-56938472D01*
X126252292Y-56939617D01*
X126244500Y-56940000D01*
X126085500Y-56940000D01*
X126077708Y-56939617D01*
X126069990Y-56938472D01*
X126062422Y-56936577D01*
X126055077Y-56933948D01*
X126048024Y-56930613D01*
X126041332Y-56926602D01*
X126035066Y-56921954D01*
X126029285Y-56916715D01*
X126024046Y-56910934D01*
X126019398Y-56904668D01*
X126015387Y-56897976D01*
X126012052Y-56890923D01*
X126009423Y-56883578D01*
X126007528Y-56876010D01*
X126006383Y-56868292D01*
X126006000Y-56860500D01*
X126006000Y-56659500D01*
X126006383Y-56651708D01*
X126007528Y-56643990D01*
X126009423Y-56636422D01*
X126012052Y-56629077D01*
X126015387Y-56622024D01*
X126019398Y-56615332D01*
X126024046Y-56609066D01*
X126029285Y-56603285D01*
X126035066Y-56598046D01*
X126041332Y-56593398D01*
X126048024Y-56589387D01*
X126055077Y-56586052D01*
X126062422Y-56583423D01*
X126069990Y-56581528D01*
X126077708Y-56580383D01*
X126085500Y-56580000D01*
X126244500Y-56580000D01*
X126252292Y-56580383D01*
X126252292Y-56580383D01*
G37*
D14*
X126165000Y-56760000D03*
D11*
G36*
X126942292Y-56580383D02*
G01*
X126950010Y-56581528D01*
X126957578Y-56583423D01*
X126964923Y-56586052D01*
X126971976Y-56589387D01*
X126978668Y-56593398D01*
X126984934Y-56598046D01*
X126990715Y-56603285D01*
X126995954Y-56609066D01*
X127000602Y-56615332D01*
X127004613Y-56622024D01*
X127007948Y-56629077D01*
X127010577Y-56636422D01*
X127012472Y-56643990D01*
X127013617Y-56651708D01*
X127014000Y-56659500D01*
X127014000Y-56860500D01*
X127013617Y-56868292D01*
X127012472Y-56876010D01*
X127010577Y-56883578D01*
X127007948Y-56890923D01*
X127004613Y-56897976D01*
X127000602Y-56904668D01*
X126995954Y-56910934D01*
X126990715Y-56916715D01*
X126984934Y-56921954D01*
X126978668Y-56926602D01*
X126971976Y-56930613D01*
X126964923Y-56933948D01*
X126957578Y-56936577D01*
X126950010Y-56938472D01*
X126942292Y-56939617D01*
X126934500Y-56940000D01*
X126775500Y-56940000D01*
X126767708Y-56939617D01*
X126759990Y-56938472D01*
X126752422Y-56936577D01*
X126745077Y-56933948D01*
X126738024Y-56930613D01*
X126731332Y-56926602D01*
X126725066Y-56921954D01*
X126719285Y-56916715D01*
X126714046Y-56910934D01*
X126709398Y-56904668D01*
X126705387Y-56897976D01*
X126702052Y-56890923D01*
X126699423Y-56883578D01*
X126697528Y-56876010D01*
X126696383Y-56868292D01*
X126696000Y-56860500D01*
X126696000Y-56659500D01*
X126696383Y-56651708D01*
X126697528Y-56643990D01*
X126699423Y-56636422D01*
X126702052Y-56629077D01*
X126705387Y-56622024D01*
X126709398Y-56615332D01*
X126714046Y-56609066D01*
X126719285Y-56603285D01*
X126725066Y-56598046D01*
X126731332Y-56593398D01*
X126738024Y-56589387D01*
X126745077Y-56586052D01*
X126752422Y-56583423D01*
X126759990Y-56581528D01*
X126767708Y-56580383D01*
X126775500Y-56580000D01*
X126934500Y-56580000D01*
X126942292Y-56580383D01*
X126942292Y-56580383D01*
G37*
D14*
X126855000Y-56760000D03*
D11*
G36*
X124408292Y-56761383D02*
G01*
X124416010Y-56762528D01*
X124423578Y-56764423D01*
X124430923Y-56767052D01*
X124437976Y-56770387D01*
X124444668Y-56774398D01*
X124450934Y-56779046D01*
X124456715Y-56784285D01*
X124461954Y-56790066D01*
X124466602Y-56796332D01*
X124470613Y-56803024D01*
X124473948Y-56810077D01*
X124476577Y-56817422D01*
X124478472Y-56824990D01*
X124479617Y-56832708D01*
X124480000Y-56840500D01*
X124480000Y-56999500D01*
X124479617Y-57007292D01*
X124478472Y-57015010D01*
X124476577Y-57022578D01*
X124473948Y-57029923D01*
X124470613Y-57036976D01*
X124466602Y-57043668D01*
X124461954Y-57049934D01*
X124456715Y-57055715D01*
X124450934Y-57060954D01*
X124444668Y-57065602D01*
X124437976Y-57069613D01*
X124430923Y-57072948D01*
X124423578Y-57075577D01*
X124416010Y-57077472D01*
X124408292Y-57078617D01*
X124400500Y-57079000D01*
X124199500Y-57079000D01*
X124191708Y-57078617D01*
X124183990Y-57077472D01*
X124176422Y-57075577D01*
X124169077Y-57072948D01*
X124162024Y-57069613D01*
X124155332Y-57065602D01*
X124149066Y-57060954D01*
X124143285Y-57055715D01*
X124138046Y-57049934D01*
X124133398Y-57043668D01*
X124129387Y-57036976D01*
X124126052Y-57029923D01*
X124123423Y-57022578D01*
X124121528Y-57015010D01*
X124120383Y-57007292D01*
X124120000Y-56999500D01*
X124120000Y-56840500D01*
X124120383Y-56832708D01*
X124121528Y-56824990D01*
X124123423Y-56817422D01*
X124126052Y-56810077D01*
X124129387Y-56803024D01*
X124133398Y-56796332D01*
X124138046Y-56790066D01*
X124143285Y-56784285D01*
X124149066Y-56779046D01*
X124155332Y-56774398D01*
X124162024Y-56770387D01*
X124169077Y-56767052D01*
X124176422Y-56764423D01*
X124183990Y-56762528D01*
X124191708Y-56761383D01*
X124199500Y-56761000D01*
X124400500Y-56761000D01*
X124408292Y-56761383D01*
X124408292Y-56761383D01*
G37*
D14*
X124300000Y-56920000D03*
D11*
G36*
X124408292Y-56071383D02*
G01*
X124416010Y-56072528D01*
X124423578Y-56074423D01*
X124430923Y-56077052D01*
X124437976Y-56080387D01*
X124444668Y-56084398D01*
X124450934Y-56089046D01*
X124456715Y-56094285D01*
X124461954Y-56100066D01*
X124466602Y-56106332D01*
X124470613Y-56113024D01*
X124473948Y-56120077D01*
X124476577Y-56127422D01*
X124478472Y-56134990D01*
X124479617Y-56142708D01*
X124480000Y-56150500D01*
X124480000Y-56309500D01*
X124479617Y-56317292D01*
X124478472Y-56325010D01*
X124476577Y-56332578D01*
X124473948Y-56339923D01*
X124470613Y-56346976D01*
X124466602Y-56353668D01*
X124461954Y-56359934D01*
X124456715Y-56365715D01*
X124450934Y-56370954D01*
X124444668Y-56375602D01*
X124437976Y-56379613D01*
X124430923Y-56382948D01*
X124423578Y-56385577D01*
X124416010Y-56387472D01*
X124408292Y-56388617D01*
X124400500Y-56389000D01*
X124199500Y-56389000D01*
X124191708Y-56388617D01*
X124183990Y-56387472D01*
X124176422Y-56385577D01*
X124169077Y-56382948D01*
X124162024Y-56379613D01*
X124155332Y-56375602D01*
X124149066Y-56370954D01*
X124143285Y-56365715D01*
X124138046Y-56359934D01*
X124133398Y-56353668D01*
X124129387Y-56346976D01*
X124126052Y-56339923D01*
X124123423Y-56332578D01*
X124121528Y-56325010D01*
X124120383Y-56317292D01*
X124120000Y-56309500D01*
X124120000Y-56150500D01*
X124120383Y-56142708D01*
X124121528Y-56134990D01*
X124123423Y-56127422D01*
X124126052Y-56120077D01*
X124129387Y-56113024D01*
X124133398Y-56106332D01*
X124138046Y-56100066D01*
X124143285Y-56094285D01*
X124149066Y-56089046D01*
X124155332Y-56084398D01*
X124162024Y-56080387D01*
X124169077Y-56077052D01*
X124176422Y-56074423D01*
X124183990Y-56072528D01*
X124191708Y-56071383D01*
X124199500Y-56071000D01*
X124400500Y-56071000D01*
X124408292Y-56071383D01*
X124408292Y-56071383D01*
G37*
D14*
X124300000Y-56230000D03*
D11*
G36*
X124747292Y-57750383D02*
G01*
X124755010Y-57751528D01*
X124762578Y-57753423D01*
X124769923Y-57756052D01*
X124776976Y-57759387D01*
X124783668Y-57763398D01*
X124789934Y-57768046D01*
X124795715Y-57773285D01*
X124800954Y-57779066D01*
X124805602Y-57785332D01*
X124809613Y-57792024D01*
X124812948Y-57799077D01*
X124815577Y-57806422D01*
X124817472Y-57813990D01*
X124818617Y-57821708D01*
X124819000Y-57829500D01*
X124819000Y-58030500D01*
X124818617Y-58038292D01*
X124817472Y-58046010D01*
X124815577Y-58053578D01*
X124812948Y-58060923D01*
X124809613Y-58067976D01*
X124805602Y-58074668D01*
X124800954Y-58080934D01*
X124795715Y-58086715D01*
X124789934Y-58091954D01*
X124783668Y-58096602D01*
X124776976Y-58100613D01*
X124769923Y-58103948D01*
X124762578Y-58106577D01*
X124755010Y-58108472D01*
X124747292Y-58109617D01*
X124739500Y-58110000D01*
X124580500Y-58110000D01*
X124572708Y-58109617D01*
X124564990Y-58108472D01*
X124557422Y-58106577D01*
X124550077Y-58103948D01*
X124543024Y-58100613D01*
X124536332Y-58096602D01*
X124530066Y-58091954D01*
X124524285Y-58086715D01*
X124519046Y-58080934D01*
X124514398Y-58074668D01*
X124510387Y-58067976D01*
X124507052Y-58060923D01*
X124504423Y-58053578D01*
X124502528Y-58046010D01*
X124501383Y-58038292D01*
X124501000Y-58030500D01*
X124501000Y-57829500D01*
X124501383Y-57821708D01*
X124502528Y-57813990D01*
X124504423Y-57806422D01*
X124507052Y-57799077D01*
X124510387Y-57792024D01*
X124514398Y-57785332D01*
X124519046Y-57779066D01*
X124524285Y-57773285D01*
X124530066Y-57768046D01*
X124536332Y-57763398D01*
X124543024Y-57759387D01*
X124550077Y-57756052D01*
X124557422Y-57753423D01*
X124564990Y-57751528D01*
X124572708Y-57750383D01*
X124580500Y-57750000D01*
X124739500Y-57750000D01*
X124747292Y-57750383D01*
X124747292Y-57750383D01*
G37*
D14*
X124660000Y-57930000D03*
D11*
G36*
X124057292Y-57750383D02*
G01*
X124065010Y-57751528D01*
X124072578Y-57753423D01*
X124079923Y-57756052D01*
X124086976Y-57759387D01*
X124093668Y-57763398D01*
X124099934Y-57768046D01*
X124105715Y-57773285D01*
X124110954Y-57779066D01*
X124115602Y-57785332D01*
X124119613Y-57792024D01*
X124122948Y-57799077D01*
X124125577Y-57806422D01*
X124127472Y-57813990D01*
X124128617Y-57821708D01*
X124129000Y-57829500D01*
X124129000Y-58030500D01*
X124128617Y-58038292D01*
X124127472Y-58046010D01*
X124125577Y-58053578D01*
X124122948Y-58060923D01*
X124119613Y-58067976D01*
X124115602Y-58074668D01*
X124110954Y-58080934D01*
X124105715Y-58086715D01*
X124099934Y-58091954D01*
X124093668Y-58096602D01*
X124086976Y-58100613D01*
X124079923Y-58103948D01*
X124072578Y-58106577D01*
X124065010Y-58108472D01*
X124057292Y-58109617D01*
X124049500Y-58110000D01*
X123890500Y-58110000D01*
X123882708Y-58109617D01*
X123874990Y-58108472D01*
X123867422Y-58106577D01*
X123860077Y-58103948D01*
X123853024Y-58100613D01*
X123846332Y-58096602D01*
X123840066Y-58091954D01*
X123834285Y-58086715D01*
X123829046Y-58080934D01*
X123824398Y-58074668D01*
X123820387Y-58067976D01*
X123817052Y-58060923D01*
X123814423Y-58053578D01*
X123812528Y-58046010D01*
X123811383Y-58038292D01*
X123811000Y-58030500D01*
X123811000Y-57829500D01*
X123811383Y-57821708D01*
X123812528Y-57813990D01*
X123814423Y-57806422D01*
X123817052Y-57799077D01*
X123820387Y-57792024D01*
X123824398Y-57785332D01*
X123829046Y-57779066D01*
X123834285Y-57773285D01*
X123840066Y-57768046D01*
X123846332Y-57763398D01*
X123853024Y-57759387D01*
X123860077Y-57756052D01*
X123867422Y-57753423D01*
X123874990Y-57751528D01*
X123882708Y-57750383D01*
X123890500Y-57750000D01*
X124049500Y-57750000D01*
X124057292Y-57750383D01*
X124057292Y-57750383D01*
G37*
D14*
X123970000Y-57930000D03*
D11*
G36*
X125212292Y-54720383D02*
G01*
X125220010Y-54721528D01*
X125227578Y-54723423D01*
X125234923Y-54726052D01*
X125241976Y-54729387D01*
X125248668Y-54733398D01*
X125254934Y-54738046D01*
X125260715Y-54743285D01*
X125265954Y-54749066D01*
X125270602Y-54755332D01*
X125274613Y-54762024D01*
X125277948Y-54769077D01*
X125280577Y-54776422D01*
X125282472Y-54783990D01*
X125283617Y-54791708D01*
X125284000Y-54799500D01*
X125284000Y-55000500D01*
X125283617Y-55008292D01*
X125282472Y-55016010D01*
X125280577Y-55023578D01*
X125277948Y-55030923D01*
X125274613Y-55037976D01*
X125270602Y-55044668D01*
X125265954Y-55050934D01*
X125260715Y-55056715D01*
X125254934Y-55061954D01*
X125248668Y-55066602D01*
X125241976Y-55070613D01*
X125234923Y-55073948D01*
X125227578Y-55076577D01*
X125220010Y-55078472D01*
X125212292Y-55079617D01*
X125204500Y-55080000D01*
X125045500Y-55080000D01*
X125037708Y-55079617D01*
X125029990Y-55078472D01*
X125022422Y-55076577D01*
X125015077Y-55073948D01*
X125008024Y-55070613D01*
X125001332Y-55066602D01*
X124995066Y-55061954D01*
X124989285Y-55056715D01*
X124984046Y-55050934D01*
X124979398Y-55044668D01*
X124975387Y-55037976D01*
X124972052Y-55030923D01*
X124969423Y-55023578D01*
X124967528Y-55016010D01*
X124966383Y-55008292D01*
X124966000Y-55000500D01*
X124966000Y-54799500D01*
X124966383Y-54791708D01*
X124967528Y-54783990D01*
X124969423Y-54776422D01*
X124972052Y-54769077D01*
X124975387Y-54762024D01*
X124979398Y-54755332D01*
X124984046Y-54749066D01*
X124989285Y-54743285D01*
X124995066Y-54738046D01*
X125001332Y-54733398D01*
X125008024Y-54729387D01*
X125015077Y-54726052D01*
X125022422Y-54723423D01*
X125029990Y-54721528D01*
X125037708Y-54720383D01*
X125045500Y-54720000D01*
X125204500Y-54720000D01*
X125212292Y-54720383D01*
X125212292Y-54720383D01*
G37*
D14*
X125125000Y-54900000D03*
D11*
G36*
X124522292Y-54720383D02*
G01*
X124530010Y-54721528D01*
X124537578Y-54723423D01*
X124544923Y-54726052D01*
X124551976Y-54729387D01*
X124558668Y-54733398D01*
X124564934Y-54738046D01*
X124570715Y-54743285D01*
X124575954Y-54749066D01*
X124580602Y-54755332D01*
X124584613Y-54762024D01*
X124587948Y-54769077D01*
X124590577Y-54776422D01*
X124592472Y-54783990D01*
X124593617Y-54791708D01*
X124594000Y-54799500D01*
X124594000Y-55000500D01*
X124593617Y-55008292D01*
X124592472Y-55016010D01*
X124590577Y-55023578D01*
X124587948Y-55030923D01*
X124584613Y-55037976D01*
X124580602Y-55044668D01*
X124575954Y-55050934D01*
X124570715Y-55056715D01*
X124564934Y-55061954D01*
X124558668Y-55066602D01*
X124551976Y-55070613D01*
X124544923Y-55073948D01*
X124537578Y-55076577D01*
X124530010Y-55078472D01*
X124522292Y-55079617D01*
X124514500Y-55080000D01*
X124355500Y-55080000D01*
X124347708Y-55079617D01*
X124339990Y-55078472D01*
X124332422Y-55076577D01*
X124325077Y-55073948D01*
X124318024Y-55070613D01*
X124311332Y-55066602D01*
X124305066Y-55061954D01*
X124299285Y-55056715D01*
X124294046Y-55050934D01*
X124289398Y-55044668D01*
X124285387Y-55037976D01*
X124282052Y-55030923D01*
X124279423Y-55023578D01*
X124277528Y-55016010D01*
X124276383Y-55008292D01*
X124276000Y-55000500D01*
X124276000Y-54799500D01*
X124276383Y-54791708D01*
X124277528Y-54783990D01*
X124279423Y-54776422D01*
X124282052Y-54769077D01*
X124285387Y-54762024D01*
X124289398Y-54755332D01*
X124294046Y-54749066D01*
X124299285Y-54743285D01*
X124305066Y-54738046D01*
X124311332Y-54733398D01*
X124318024Y-54729387D01*
X124325077Y-54726052D01*
X124332422Y-54723423D01*
X124339990Y-54721528D01*
X124347708Y-54720383D01*
X124355500Y-54720000D01*
X124514500Y-54720000D01*
X124522292Y-54720383D01*
X124522292Y-54720383D01*
G37*
D14*
X124435000Y-54900000D03*
D11*
G36*
X123365691Y-55847053D02*
G01*
X123386926Y-55850203D01*
X123407750Y-55855419D01*
X123427962Y-55862651D01*
X123447368Y-55871830D01*
X123465781Y-55882866D01*
X123483024Y-55895654D01*
X123498930Y-55910070D01*
X123513346Y-55925976D01*
X123526134Y-55943219D01*
X123537170Y-55961632D01*
X123546349Y-55981038D01*
X123553581Y-56001250D01*
X123558797Y-56022074D01*
X123561947Y-56043309D01*
X123563000Y-56064750D01*
X123563000Y-56502250D01*
X123561947Y-56523691D01*
X123558797Y-56544926D01*
X123553581Y-56565750D01*
X123546349Y-56585962D01*
X123537170Y-56605368D01*
X123526134Y-56623781D01*
X123513346Y-56641024D01*
X123498930Y-56656930D01*
X123483024Y-56671346D01*
X123465781Y-56684134D01*
X123447368Y-56695170D01*
X123427962Y-56704349D01*
X123407750Y-56711581D01*
X123386926Y-56716797D01*
X123365691Y-56719947D01*
X123344250Y-56721000D01*
X122831750Y-56721000D01*
X122810309Y-56719947D01*
X122789074Y-56716797D01*
X122768250Y-56711581D01*
X122748038Y-56704349D01*
X122728632Y-56695170D01*
X122710219Y-56684134D01*
X122692976Y-56671346D01*
X122677070Y-56656930D01*
X122662654Y-56641024D01*
X122649866Y-56623781D01*
X122638830Y-56605368D01*
X122629651Y-56585962D01*
X122622419Y-56565750D01*
X122617203Y-56544926D01*
X122614053Y-56523691D01*
X122613000Y-56502250D01*
X122613000Y-56064750D01*
X122614053Y-56043309D01*
X122617203Y-56022074D01*
X122622419Y-56001250D01*
X122629651Y-55981038D01*
X122638830Y-55961632D01*
X122649866Y-55943219D01*
X122662654Y-55925976D01*
X122677070Y-55910070D01*
X122692976Y-55895654D01*
X122710219Y-55882866D01*
X122728632Y-55871830D01*
X122748038Y-55862651D01*
X122768250Y-55855419D01*
X122789074Y-55850203D01*
X122810309Y-55847053D01*
X122831750Y-55846000D01*
X123344250Y-55846000D01*
X123365691Y-55847053D01*
X123365691Y-55847053D01*
G37*
D22*
X123088000Y-56283500D03*
D11*
G36*
X123365691Y-57422053D02*
G01*
X123386926Y-57425203D01*
X123407750Y-57430419D01*
X123427962Y-57437651D01*
X123447368Y-57446830D01*
X123465781Y-57457866D01*
X123483024Y-57470654D01*
X123498930Y-57485070D01*
X123513346Y-57500976D01*
X123526134Y-57518219D01*
X123537170Y-57536632D01*
X123546349Y-57556038D01*
X123553581Y-57576250D01*
X123558797Y-57597074D01*
X123561947Y-57618309D01*
X123563000Y-57639750D01*
X123563000Y-58077250D01*
X123561947Y-58098691D01*
X123558797Y-58119926D01*
X123553581Y-58140750D01*
X123546349Y-58160962D01*
X123537170Y-58180368D01*
X123526134Y-58198781D01*
X123513346Y-58216024D01*
X123498930Y-58231930D01*
X123483024Y-58246346D01*
X123465781Y-58259134D01*
X123447368Y-58270170D01*
X123427962Y-58279349D01*
X123407750Y-58286581D01*
X123386926Y-58291797D01*
X123365691Y-58294947D01*
X123344250Y-58296000D01*
X122831750Y-58296000D01*
X122810309Y-58294947D01*
X122789074Y-58291797D01*
X122768250Y-58286581D01*
X122748038Y-58279349D01*
X122728632Y-58270170D01*
X122710219Y-58259134D01*
X122692976Y-58246346D01*
X122677070Y-58231930D01*
X122662654Y-58216024D01*
X122649866Y-58198781D01*
X122638830Y-58180368D01*
X122629651Y-58160962D01*
X122622419Y-58140750D01*
X122617203Y-58119926D01*
X122614053Y-58098691D01*
X122613000Y-58077250D01*
X122613000Y-57639750D01*
X122614053Y-57618309D01*
X122617203Y-57597074D01*
X122622419Y-57576250D01*
X122629651Y-57556038D01*
X122638830Y-57536632D01*
X122649866Y-57518219D01*
X122662654Y-57500976D01*
X122677070Y-57485070D01*
X122692976Y-57470654D01*
X122710219Y-57457866D01*
X122728632Y-57446830D01*
X122748038Y-57437651D01*
X122768250Y-57430419D01*
X122789074Y-57425203D01*
X122810309Y-57422053D01*
X122831750Y-57421000D01*
X123344250Y-57421000D01*
X123365691Y-57422053D01*
X123365691Y-57422053D01*
G37*
D22*
X123088000Y-57858500D03*
D11*
G36*
X124626861Y-51380337D02*
G01*
X124633656Y-51381345D01*
X124640320Y-51383014D01*
X124646788Y-51385328D01*
X124652998Y-51388266D01*
X124658890Y-51391797D01*
X124664408Y-51395889D01*
X124669497Y-51400503D01*
X124674111Y-51405592D01*
X124678203Y-51411110D01*
X124681734Y-51417002D01*
X124684672Y-51423212D01*
X124686986Y-51429680D01*
X124688655Y-51436344D01*
X124689663Y-51443139D01*
X124690000Y-51450000D01*
X124690000Y-52310000D01*
X124689663Y-52316861D01*
X124688655Y-52323656D01*
X124686986Y-52330320D01*
X124684672Y-52336788D01*
X124681734Y-52342998D01*
X124678203Y-52348890D01*
X124674111Y-52354408D01*
X124669497Y-52359497D01*
X124664408Y-52364111D01*
X124658890Y-52368203D01*
X124652998Y-52371734D01*
X124646788Y-52374672D01*
X124640320Y-52376986D01*
X124633656Y-52378655D01*
X124626861Y-52379663D01*
X124620000Y-52380000D01*
X124060000Y-52380000D01*
X124053139Y-52379663D01*
X124046344Y-52378655D01*
X124039680Y-52376986D01*
X124033212Y-52374672D01*
X124027002Y-52371734D01*
X124021110Y-52368203D01*
X124015592Y-52364111D01*
X124010503Y-52359497D01*
X124005889Y-52354408D01*
X124001797Y-52348890D01*
X123998266Y-52342998D01*
X123995328Y-52336788D01*
X123993014Y-52330320D01*
X123991345Y-52323656D01*
X123990337Y-52316861D01*
X123990000Y-52310000D01*
X123990000Y-51450000D01*
X123990337Y-51443139D01*
X123991345Y-51436344D01*
X123993014Y-51429680D01*
X123995328Y-51423212D01*
X123998266Y-51417002D01*
X124001797Y-51411110D01*
X124005889Y-51405592D01*
X124010503Y-51400503D01*
X124015592Y-51395889D01*
X124021110Y-51391797D01*
X124027002Y-51388266D01*
X124033212Y-51385328D01*
X124039680Y-51383014D01*
X124046344Y-51381345D01*
X124053139Y-51380337D01*
X124060000Y-51380000D01*
X124620000Y-51380000D01*
X124626861Y-51380337D01*
X124626861Y-51380337D01*
G37*
D23*
X124340000Y-51880000D03*
D11*
G36*
X126326861Y-51380337D02*
G01*
X126333656Y-51381345D01*
X126340320Y-51383014D01*
X126346788Y-51385328D01*
X126352998Y-51388266D01*
X126358890Y-51391797D01*
X126364408Y-51395889D01*
X126369497Y-51400503D01*
X126374111Y-51405592D01*
X126378203Y-51411110D01*
X126381734Y-51417002D01*
X126384672Y-51423212D01*
X126386986Y-51429680D01*
X126388655Y-51436344D01*
X126389663Y-51443139D01*
X126390000Y-51450000D01*
X126390000Y-52310000D01*
X126389663Y-52316861D01*
X126388655Y-52323656D01*
X126386986Y-52330320D01*
X126384672Y-52336788D01*
X126381734Y-52342998D01*
X126378203Y-52348890D01*
X126374111Y-52354408D01*
X126369497Y-52359497D01*
X126364408Y-52364111D01*
X126358890Y-52368203D01*
X126352998Y-52371734D01*
X126346788Y-52374672D01*
X126340320Y-52376986D01*
X126333656Y-52378655D01*
X126326861Y-52379663D01*
X126320000Y-52380000D01*
X125760000Y-52380000D01*
X125753139Y-52379663D01*
X125746344Y-52378655D01*
X125739680Y-52376986D01*
X125733212Y-52374672D01*
X125727002Y-52371734D01*
X125721110Y-52368203D01*
X125715592Y-52364111D01*
X125710503Y-52359497D01*
X125705889Y-52354408D01*
X125701797Y-52348890D01*
X125698266Y-52342998D01*
X125695328Y-52336788D01*
X125693014Y-52330320D01*
X125691345Y-52323656D01*
X125690337Y-52316861D01*
X125690000Y-52310000D01*
X125690000Y-51450000D01*
X125690337Y-51443139D01*
X125691345Y-51436344D01*
X125693014Y-51429680D01*
X125695328Y-51423212D01*
X125698266Y-51417002D01*
X125701797Y-51411110D01*
X125705889Y-51405592D01*
X125710503Y-51400503D01*
X125715592Y-51395889D01*
X125721110Y-51391797D01*
X125727002Y-51388266D01*
X125733212Y-51385328D01*
X125739680Y-51383014D01*
X125746344Y-51381345D01*
X125753139Y-51380337D01*
X125760000Y-51380000D01*
X126320000Y-51380000D01*
X126326861Y-51380337D01*
X126326861Y-51380337D01*
G37*
D23*
X126040000Y-51880000D03*
D11*
G36*
X128452351Y-51210361D02*
G01*
X128459632Y-51211441D01*
X128466771Y-51213229D01*
X128473701Y-51215709D01*
X128480355Y-51218856D01*
X128486668Y-51222640D01*
X128492579Y-51227024D01*
X128498033Y-51231967D01*
X128502976Y-51237421D01*
X128507360Y-51243332D01*
X128511144Y-51249645D01*
X128514291Y-51256299D01*
X128516771Y-51263229D01*
X128518559Y-51270368D01*
X128519639Y-51277649D01*
X128520000Y-51285000D01*
X128520000Y-51635000D01*
X128519639Y-51642351D01*
X128518559Y-51649632D01*
X128516771Y-51656771D01*
X128514291Y-51663701D01*
X128511144Y-51670355D01*
X128507360Y-51676668D01*
X128502976Y-51682579D01*
X128498033Y-51688033D01*
X128492579Y-51692976D01*
X128486668Y-51697360D01*
X128480355Y-51701144D01*
X128473701Y-51704291D01*
X128466771Y-51706771D01*
X128459632Y-51708559D01*
X128452351Y-51709639D01*
X128445000Y-51710000D01*
X128295000Y-51710000D01*
X128287649Y-51709639D01*
X128280368Y-51708559D01*
X128273229Y-51706771D01*
X128266299Y-51704291D01*
X128259645Y-51701144D01*
X128253332Y-51697360D01*
X128247421Y-51692976D01*
X128241967Y-51688033D01*
X128237024Y-51682579D01*
X128232640Y-51676668D01*
X128228856Y-51670355D01*
X128225709Y-51663701D01*
X128223229Y-51656771D01*
X128221441Y-51649632D01*
X128220361Y-51642351D01*
X128220000Y-51635000D01*
X128220000Y-51285000D01*
X128220361Y-51277649D01*
X128221441Y-51270368D01*
X128223229Y-51263229D01*
X128225709Y-51256299D01*
X128228856Y-51249645D01*
X128232640Y-51243332D01*
X128237024Y-51237421D01*
X128241967Y-51231967D01*
X128247421Y-51227024D01*
X128253332Y-51222640D01*
X128259645Y-51218856D01*
X128266299Y-51215709D01*
X128273229Y-51213229D01*
X128280368Y-51211441D01*
X128287649Y-51210361D01*
X128295000Y-51210000D01*
X128445000Y-51210000D01*
X128452351Y-51210361D01*
X128452351Y-51210361D01*
G37*
D24*
X128370000Y-51460000D03*
D11*
G36*
X128452351Y-52210361D02*
G01*
X128459632Y-52211441D01*
X128466771Y-52213229D01*
X128473701Y-52215709D01*
X128480355Y-52218856D01*
X128486668Y-52222640D01*
X128492579Y-52227024D01*
X128498033Y-52231967D01*
X128502976Y-52237421D01*
X128507360Y-52243332D01*
X128511144Y-52249645D01*
X128514291Y-52256299D01*
X128516771Y-52263229D01*
X128518559Y-52270368D01*
X128519639Y-52277649D01*
X128520000Y-52285000D01*
X128520000Y-52635000D01*
X128519639Y-52642351D01*
X128518559Y-52649632D01*
X128516771Y-52656771D01*
X128514291Y-52663701D01*
X128511144Y-52670355D01*
X128507360Y-52676668D01*
X128502976Y-52682579D01*
X128498033Y-52688033D01*
X128492579Y-52692976D01*
X128486668Y-52697360D01*
X128480355Y-52701144D01*
X128473701Y-52704291D01*
X128466771Y-52706771D01*
X128459632Y-52708559D01*
X128452351Y-52709639D01*
X128445000Y-52710000D01*
X128295000Y-52710000D01*
X128287649Y-52709639D01*
X128280368Y-52708559D01*
X128273229Y-52706771D01*
X128266299Y-52704291D01*
X128259645Y-52701144D01*
X128253332Y-52697360D01*
X128247421Y-52692976D01*
X128241967Y-52688033D01*
X128237024Y-52682579D01*
X128232640Y-52676668D01*
X128228856Y-52670355D01*
X128225709Y-52663701D01*
X128223229Y-52656771D01*
X128221441Y-52649632D01*
X128220361Y-52642351D01*
X128220000Y-52635000D01*
X128220000Y-52285000D01*
X128220361Y-52277649D01*
X128221441Y-52270368D01*
X128223229Y-52263229D01*
X128225709Y-52256299D01*
X128228856Y-52249645D01*
X128232640Y-52243332D01*
X128237024Y-52237421D01*
X128241967Y-52231967D01*
X128247421Y-52227024D01*
X128253332Y-52222640D01*
X128259645Y-52218856D01*
X128266299Y-52215709D01*
X128273229Y-52213229D01*
X128280368Y-52211441D01*
X128287649Y-52210361D01*
X128295000Y-52210000D01*
X128445000Y-52210000D01*
X128452351Y-52210361D01*
X128452351Y-52210361D01*
G37*
D24*
X128370000Y-52460000D03*
D11*
G36*
X127952351Y-51210361D02*
G01*
X127959632Y-51211441D01*
X127966771Y-51213229D01*
X127973701Y-51215709D01*
X127980355Y-51218856D01*
X127986668Y-51222640D01*
X127992579Y-51227024D01*
X127998033Y-51231967D01*
X128002976Y-51237421D01*
X128007360Y-51243332D01*
X128011144Y-51249645D01*
X128014291Y-51256299D01*
X128016771Y-51263229D01*
X128018559Y-51270368D01*
X128019639Y-51277649D01*
X128020000Y-51285000D01*
X128020000Y-51635000D01*
X128019639Y-51642351D01*
X128018559Y-51649632D01*
X128016771Y-51656771D01*
X128014291Y-51663701D01*
X128011144Y-51670355D01*
X128007360Y-51676668D01*
X128002976Y-51682579D01*
X127998033Y-51688033D01*
X127992579Y-51692976D01*
X127986668Y-51697360D01*
X127980355Y-51701144D01*
X127973701Y-51704291D01*
X127966771Y-51706771D01*
X127959632Y-51708559D01*
X127952351Y-51709639D01*
X127945000Y-51710000D01*
X127795000Y-51710000D01*
X127787649Y-51709639D01*
X127780368Y-51708559D01*
X127773229Y-51706771D01*
X127766299Y-51704291D01*
X127759645Y-51701144D01*
X127753332Y-51697360D01*
X127747421Y-51692976D01*
X127741967Y-51688033D01*
X127737024Y-51682579D01*
X127732640Y-51676668D01*
X127728856Y-51670355D01*
X127725709Y-51663701D01*
X127723229Y-51656771D01*
X127721441Y-51649632D01*
X127720361Y-51642351D01*
X127720000Y-51635000D01*
X127720000Y-51285000D01*
X127720361Y-51277649D01*
X127721441Y-51270368D01*
X127723229Y-51263229D01*
X127725709Y-51256299D01*
X127728856Y-51249645D01*
X127732640Y-51243332D01*
X127737024Y-51237421D01*
X127741967Y-51231967D01*
X127747421Y-51227024D01*
X127753332Y-51222640D01*
X127759645Y-51218856D01*
X127766299Y-51215709D01*
X127773229Y-51213229D01*
X127780368Y-51211441D01*
X127787649Y-51210361D01*
X127795000Y-51210000D01*
X127945000Y-51210000D01*
X127952351Y-51210361D01*
X127952351Y-51210361D01*
G37*
D24*
X127870000Y-51460000D03*
D11*
G36*
X127952351Y-52210361D02*
G01*
X127959632Y-52211441D01*
X127966771Y-52213229D01*
X127973701Y-52215709D01*
X127980355Y-52218856D01*
X127986668Y-52222640D01*
X127992579Y-52227024D01*
X127998033Y-52231967D01*
X128002976Y-52237421D01*
X128007360Y-52243332D01*
X128011144Y-52249645D01*
X128014291Y-52256299D01*
X128016771Y-52263229D01*
X128018559Y-52270368D01*
X128019639Y-52277649D01*
X128020000Y-52285000D01*
X128020000Y-52635000D01*
X128019639Y-52642351D01*
X128018559Y-52649632D01*
X128016771Y-52656771D01*
X128014291Y-52663701D01*
X128011144Y-52670355D01*
X128007360Y-52676668D01*
X128002976Y-52682579D01*
X127998033Y-52688033D01*
X127992579Y-52692976D01*
X127986668Y-52697360D01*
X127980355Y-52701144D01*
X127973701Y-52704291D01*
X127966771Y-52706771D01*
X127959632Y-52708559D01*
X127952351Y-52709639D01*
X127945000Y-52710000D01*
X127795000Y-52710000D01*
X127787649Y-52709639D01*
X127780368Y-52708559D01*
X127773229Y-52706771D01*
X127766299Y-52704291D01*
X127759645Y-52701144D01*
X127753332Y-52697360D01*
X127747421Y-52692976D01*
X127741967Y-52688033D01*
X127737024Y-52682579D01*
X127732640Y-52676668D01*
X127728856Y-52670355D01*
X127725709Y-52663701D01*
X127723229Y-52656771D01*
X127721441Y-52649632D01*
X127720361Y-52642351D01*
X127720000Y-52635000D01*
X127720000Y-52285000D01*
X127720361Y-52277649D01*
X127721441Y-52270368D01*
X127723229Y-52263229D01*
X127725709Y-52256299D01*
X127728856Y-52249645D01*
X127732640Y-52243332D01*
X127737024Y-52237421D01*
X127741967Y-52231967D01*
X127747421Y-52227024D01*
X127753332Y-52222640D01*
X127759645Y-52218856D01*
X127766299Y-52215709D01*
X127773229Y-52213229D01*
X127780368Y-52211441D01*
X127787649Y-52210361D01*
X127795000Y-52210000D01*
X127945000Y-52210000D01*
X127952351Y-52210361D01*
X127952351Y-52210361D01*
G37*
D24*
X127870000Y-52460000D03*
D11*
G36*
X127452351Y-51210361D02*
G01*
X127459632Y-51211441D01*
X127466771Y-51213229D01*
X127473701Y-51215709D01*
X127480355Y-51218856D01*
X127486668Y-51222640D01*
X127492579Y-51227024D01*
X127498033Y-51231967D01*
X127502976Y-51237421D01*
X127507360Y-51243332D01*
X127511144Y-51249645D01*
X127514291Y-51256299D01*
X127516771Y-51263229D01*
X127518559Y-51270368D01*
X127519639Y-51277649D01*
X127520000Y-51285000D01*
X127520000Y-51635000D01*
X127519639Y-51642351D01*
X127518559Y-51649632D01*
X127516771Y-51656771D01*
X127514291Y-51663701D01*
X127511144Y-51670355D01*
X127507360Y-51676668D01*
X127502976Y-51682579D01*
X127498033Y-51688033D01*
X127492579Y-51692976D01*
X127486668Y-51697360D01*
X127480355Y-51701144D01*
X127473701Y-51704291D01*
X127466771Y-51706771D01*
X127459632Y-51708559D01*
X127452351Y-51709639D01*
X127445000Y-51710000D01*
X127295000Y-51710000D01*
X127287649Y-51709639D01*
X127280368Y-51708559D01*
X127273229Y-51706771D01*
X127266299Y-51704291D01*
X127259645Y-51701144D01*
X127253332Y-51697360D01*
X127247421Y-51692976D01*
X127241967Y-51688033D01*
X127237024Y-51682579D01*
X127232640Y-51676668D01*
X127228856Y-51670355D01*
X127225709Y-51663701D01*
X127223229Y-51656771D01*
X127221441Y-51649632D01*
X127220361Y-51642351D01*
X127220000Y-51635000D01*
X127220000Y-51285000D01*
X127220361Y-51277649D01*
X127221441Y-51270368D01*
X127223229Y-51263229D01*
X127225709Y-51256299D01*
X127228856Y-51249645D01*
X127232640Y-51243332D01*
X127237024Y-51237421D01*
X127241967Y-51231967D01*
X127247421Y-51227024D01*
X127253332Y-51222640D01*
X127259645Y-51218856D01*
X127266299Y-51215709D01*
X127273229Y-51213229D01*
X127280368Y-51211441D01*
X127287649Y-51210361D01*
X127295000Y-51210000D01*
X127445000Y-51210000D01*
X127452351Y-51210361D01*
X127452351Y-51210361D01*
G37*
D24*
X127370000Y-51460000D03*
D11*
G36*
X127452351Y-52210361D02*
G01*
X127459632Y-52211441D01*
X127466771Y-52213229D01*
X127473701Y-52215709D01*
X127480355Y-52218856D01*
X127486668Y-52222640D01*
X127492579Y-52227024D01*
X127498033Y-52231967D01*
X127502976Y-52237421D01*
X127507360Y-52243332D01*
X127511144Y-52249645D01*
X127514291Y-52256299D01*
X127516771Y-52263229D01*
X127518559Y-52270368D01*
X127519639Y-52277649D01*
X127520000Y-52285000D01*
X127520000Y-52635000D01*
X127519639Y-52642351D01*
X127518559Y-52649632D01*
X127516771Y-52656771D01*
X127514291Y-52663701D01*
X127511144Y-52670355D01*
X127507360Y-52676668D01*
X127502976Y-52682579D01*
X127498033Y-52688033D01*
X127492579Y-52692976D01*
X127486668Y-52697360D01*
X127480355Y-52701144D01*
X127473701Y-52704291D01*
X127466771Y-52706771D01*
X127459632Y-52708559D01*
X127452351Y-52709639D01*
X127445000Y-52710000D01*
X127295000Y-52710000D01*
X127287649Y-52709639D01*
X127280368Y-52708559D01*
X127273229Y-52706771D01*
X127266299Y-52704291D01*
X127259645Y-52701144D01*
X127253332Y-52697360D01*
X127247421Y-52692976D01*
X127241967Y-52688033D01*
X127237024Y-52682579D01*
X127232640Y-52676668D01*
X127228856Y-52670355D01*
X127225709Y-52663701D01*
X127223229Y-52656771D01*
X127221441Y-52649632D01*
X127220361Y-52642351D01*
X127220000Y-52635000D01*
X127220000Y-52285000D01*
X127220361Y-52277649D01*
X127221441Y-52270368D01*
X127223229Y-52263229D01*
X127225709Y-52256299D01*
X127228856Y-52249645D01*
X127232640Y-52243332D01*
X127237024Y-52237421D01*
X127241967Y-52231967D01*
X127247421Y-52227024D01*
X127253332Y-52222640D01*
X127259645Y-52218856D01*
X127266299Y-52215709D01*
X127273229Y-52213229D01*
X127280368Y-52211441D01*
X127287649Y-52210361D01*
X127295000Y-52210000D01*
X127445000Y-52210000D01*
X127452351Y-52210361D01*
X127452351Y-52210361D01*
G37*
D24*
X127370000Y-52460000D03*
D11*
G36*
X128952351Y-51210361D02*
G01*
X128959632Y-51211441D01*
X128966771Y-51213229D01*
X128973701Y-51215709D01*
X128980355Y-51218856D01*
X128986668Y-51222640D01*
X128992579Y-51227024D01*
X128998033Y-51231967D01*
X129002976Y-51237421D01*
X129007360Y-51243332D01*
X129011144Y-51249645D01*
X129014291Y-51256299D01*
X129016771Y-51263229D01*
X129018559Y-51270368D01*
X129019639Y-51277649D01*
X129020000Y-51285000D01*
X129020000Y-51635000D01*
X129019639Y-51642351D01*
X129018559Y-51649632D01*
X129016771Y-51656771D01*
X129014291Y-51663701D01*
X129011144Y-51670355D01*
X129007360Y-51676668D01*
X129002976Y-51682579D01*
X128998033Y-51688033D01*
X128992579Y-51692976D01*
X128986668Y-51697360D01*
X128980355Y-51701144D01*
X128973701Y-51704291D01*
X128966771Y-51706771D01*
X128959632Y-51708559D01*
X128952351Y-51709639D01*
X128945000Y-51710000D01*
X128795000Y-51710000D01*
X128787649Y-51709639D01*
X128780368Y-51708559D01*
X128773229Y-51706771D01*
X128766299Y-51704291D01*
X128759645Y-51701144D01*
X128753332Y-51697360D01*
X128747421Y-51692976D01*
X128741967Y-51688033D01*
X128737024Y-51682579D01*
X128732640Y-51676668D01*
X128728856Y-51670355D01*
X128725709Y-51663701D01*
X128723229Y-51656771D01*
X128721441Y-51649632D01*
X128720361Y-51642351D01*
X128720000Y-51635000D01*
X128720000Y-51285000D01*
X128720361Y-51277649D01*
X128721441Y-51270368D01*
X128723229Y-51263229D01*
X128725709Y-51256299D01*
X128728856Y-51249645D01*
X128732640Y-51243332D01*
X128737024Y-51237421D01*
X128741967Y-51231967D01*
X128747421Y-51227024D01*
X128753332Y-51222640D01*
X128759645Y-51218856D01*
X128766299Y-51215709D01*
X128773229Y-51213229D01*
X128780368Y-51211441D01*
X128787649Y-51210361D01*
X128795000Y-51210000D01*
X128945000Y-51210000D01*
X128952351Y-51210361D01*
X128952351Y-51210361D01*
G37*
D24*
X128870000Y-51460000D03*
D11*
G36*
X128952351Y-52210361D02*
G01*
X128959632Y-52211441D01*
X128966771Y-52213229D01*
X128973701Y-52215709D01*
X128980355Y-52218856D01*
X128986668Y-52222640D01*
X128992579Y-52227024D01*
X128998033Y-52231967D01*
X129002976Y-52237421D01*
X129007360Y-52243332D01*
X129011144Y-52249645D01*
X129014291Y-52256299D01*
X129016771Y-52263229D01*
X129018559Y-52270368D01*
X129019639Y-52277649D01*
X129020000Y-52285000D01*
X129020000Y-52635000D01*
X129019639Y-52642351D01*
X129018559Y-52649632D01*
X129016771Y-52656771D01*
X129014291Y-52663701D01*
X129011144Y-52670355D01*
X129007360Y-52676668D01*
X129002976Y-52682579D01*
X128998033Y-52688033D01*
X128992579Y-52692976D01*
X128986668Y-52697360D01*
X128980355Y-52701144D01*
X128973701Y-52704291D01*
X128966771Y-52706771D01*
X128959632Y-52708559D01*
X128952351Y-52709639D01*
X128945000Y-52710000D01*
X128795000Y-52710000D01*
X128787649Y-52709639D01*
X128780368Y-52708559D01*
X128773229Y-52706771D01*
X128766299Y-52704291D01*
X128759645Y-52701144D01*
X128753332Y-52697360D01*
X128747421Y-52692976D01*
X128741967Y-52688033D01*
X128737024Y-52682579D01*
X128732640Y-52676668D01*
X128728856Y-52670355D01*
X128725709Y-52663701D01*
X128723229Y-52656771D01*
X128721441Y-52649632D01*
X128720361Y-52642351D01*
X128720000Y-52635000D01*
X128720000Y-52285000D01*
X128720361Y-52277649D01*
X128721441Y-52270368D01*
X128723229Y-52263229D01*
X128725709Y-52256299D01*
X128728856Y-52249645D01*
X128732640Y-52243332D01*
X128737024Y-52237421D01*
X128741967Y-52231967D01*
X128747421Y-52227024D01*
X128753332Y-52222640D01*
X128759645Y-52218856D01*
X128766299Y-52215709D01*
X128773229Y-52213229D01*
X128780368Y-52211441D01*
X128787649Y-52210361D01*
X128795000Y-52210000D01*
X128945000Y-52210000D01*
X128952351Y-52210361D01*
X128952351Y-52210361D01*
G37*
D24*
X128870000Y-52460000D03*
M02*
