G04 #@! TF.GenerationSoftware,KiCad,Pcbnew,(5.1.4)-1*
G04 #@! TF.CreationDate,2021-03-14T16:47:26+01:00*
G04 #@! TF.ProjectId,zepto_receiver_elrs,7a657074-6f5f-4726-9563-65697665725f,rev?*
G04 #@! TF.SameCoordinates,Original*
G04 #@! TF.FileFunction,Soldermask,Top*
G04 #@! TF.FilePolarity,Negative*
%FSLAX46Y46*%
G04 Gerber Fmt 4.6, Leading zero omitted, Abs format (unit mm)*
G04 Created by KiCad (PCBNEW (5.1.4)-1) date 2021-03-14 16:47:26*
%MOMM*%
%LPD*%
G04 APERTURE LIST*
%ADD10C,0.400000*%
%ADD11C,0.250000*%
G04 APERTURE END LIST*
D10*
X129800000Y-58500000D02*
X126800000Y-58500000D01*
X129800000Y-51000000D02*
X129800000Y-58500000D01*
X129400000Y-51000000D02*
X129800000Y-51000000D01*
D11*
G36*
X129316676Y-57515372D02*
G01*
X129345926Y-57527488D01*
X129389468Y-57545523D01*
X129389471Y-57545525D01*
X129454985Y-57589300D01*
X129510700Y-57645015D01*
X129534486Y-57680614D01*
X129554477Y-57710532D01*
X129565076Y-57736122D01*
X129584628Y-57783324D01*
X129600000Y-57860603D01*
X129600000Y-57939397D01*
X129584628Y-58016676D01*
X129575221Y-58039386D01*
X129554477Y-58089468D01*
X129554475Y-58089471D01*
X129510700Y-58154985D01*
X129454985Y-58210700D01*
X129389471Y-58254475D01*
X129389468Y-58254477D01*
X129348424Y-58271478D01*
X129316676Y-58284628D01*
X129239397Y-58300000D01*
X129160603Y-58300000D01*
X129083324Y-58284628D01*
X129051576Y-58271478D01*
X129010532Y-58254477D01*
X129010529Y-58254475D01*
X128945015Y-58210700D01*
X128889300Y-58154985D01*
X128845525Y-58089471D01*
X128845523Y-58089468D01*
X128824779Y-58039386D01*
X128815372Y-58016676D01*
X128800000Y-57939397D01*
X128800000Y-57860603D01*
X128815372Y-57783324D01*
X128834924Y-57736122D01*
X128845523Y-57710532D01*
X128865514Y-57680614D01*
X128889300Y-57645015D01*
X128945015Y-57589300D01*
X129010529Y-57545525D01*
X129010532Y-57545523D01*
X129054074Y-57527488D01*
X129083324Y-57515372D01*
X129160603Y-57500000D01*
X129239397Y-57500000D01*
X129316676Y-57515372D01*
X129316676Y-57515372D01*
G37*
G36*
X126988460Y-57643158D02*
G01*
X127007173Y-57648835D01*
X127024424Y-57658055D01*
X127039539Y-57670461D01*
X127051945Y-57685576D01*
X127061185Y-57702864D01*
X127064905Y-57711845D01*
X127070350Y-57719995D01*
X127077281Y-57726925D01*
X127085430Y-57732371D01*
X127094486Y-57736122D01*
X127104099Y-57738034D01*
X127113900Y-57738034D01*
X127123513Y-57736122D01*
X127132569Y-57732371D01*
X127140719Y-57726926D01*
X127147649Y-57719995D01*
X127153095Y-57711846D01*
X127156815Y-57702864D01*
X127166055Y-57685576D01*
X127178461Y-57670461D01*
X127193576Y-57658055D01*
X127210827Y-57648835D01*
X127229540Y-57643158D01*
X127251453Y-57641000D01*
X127606547Y-57641000D01*
X127628460Y-57643158D01*
X127647173Y-57648835D01*
X127664424Y-57658055D01*
X127679539Y-57670461D01*
X127691945Y-57685576D01*
X127701165Y-57702827D01*
X127706842Y-57721540D01*
X127709000Y-57743453D01*
X127709000Y-58038547D01*
X127706842Y-58060460D01*
X127701165Y-58079173D01*
X127691945Y-58096424D01*
X127679539Y-58111539D01*
X127664424Y-58123945D01*
X127647173Y-58133165D01*
X127628460Y-58138842D01*
X127606547Y-58141000D01*
X127251453Y-58141000D01*
X127229540Y-58138842D01*
X127210827Y-58133165D01*
X127193576Y-58123945D01*
X127178461Y-58111539D01*
X127166055Y-58096424D01*
X127156815Y-58079136D01*
X127153095Y-58070155D01*
X127147650Y-58062005D01*
X127140719Y-58055075D01*
X127132570Y-58049629D01*
X127123514Y-58045878D01*
X127113901Y-58043966D01*
X127104100Y-58043966D01*
X127094487Y-58045878D01*
X127085431Y-58049629D01*
X127077281Y-58055074D01*
X127070351Y-58062005D01*
X127064905Y-58070154D01*
X127061185Y-58079136D01*
X127051945Y-58096424D01*
X127039539Y-58111539D01*
X127024424Y-58123945D01*
X127007173Y-58133165D01*
X126988460Y-58138842D01*
X126966547Y-58141000D01*
X126611453Y-58141000D01*
X126589540Y-58138842D01*
X126570827Y-58133165D01*
X126553576Y-58123945D01*
X126538461Y-58111539D01*
X126526055Y-58096424D01*
X126516835Y-58079173D01*
X126511158Y-58060460D01*
X126509000Y-58038547D01*
X126509000Y-57743453D01*
X126511158Y-57721540D01*
X126516835Y-57702827D01*
X126526055Y-57685576D01*
X126538461Y-57670461D01*
X126553576Y-57658055D01*
X126570827Y-57648835D01*
X126589540Y-57643158D01*
X126611453Y-57641000D01*
X126966547Y-57641000D01*
X126988460Y-57643158D01*
X126988460Y-57643158D01*
G37*
G36*
X128066228Y-56113071D02*
G01*
X128093855Y-56121452D01*
X128119311Y-56135058D01*
X128141627Y-56153373D01*
X128159942Y-56175689D01*
X128173548Y-56201145D01*
X128181929Y-56228772D01*
X128185000Y-56259954D01*
X128185000Y-56700046D01*
X128181929Y-56731228D01*
X128173548Y-56758855D01*
X128159942Y-56784311D01*
X128141627Y-56806627D01*
X128119311Y-56824942D01*
X128093855Y-56838548D01*
X128081965Y-56842155D01*
X128072909Y-56845906D01*
X128064760Y-56851351D01*
X128057829Y-56858282D01*
X128052384Y-56866432D01*
X128048633Y-56875487D01*
X128046721Y-56885101D01*
X128046721Y-56894902D01*
X128048633Y-56904515D01*
X128052384Y-56913571D01*
X128057829Y-56921720D01*
X128064760Y-56928651D01*
X128072910Y-56934096D01*
X128081965Y-56937847D01*
X128096479Y-56940000D01*
X128327547Y-56940000D01*
X128349460Y-56942158D01*
X128368173Y-56947835D01*
X128385424Y-56957055D01*
X128400539Y-56969461D01*
X128412945Y-56984576D01*
X128422165Y-57001827D01*
X128427842Y-57020540D01*
X128430000Y-57042453D01*
X128430000Y-57397547D01*
X128427842Y-57419460D01*
X128422165Y-57438173D01*
X128412945Y-57455424D01*
X128400539Y-57470539D01*
X128385424Y-57482945D01*
X128368136Y-57492185D01*
X128359155Y-57495905D01*
X128351005Y-57501350D01*
X128344075Y-57508281D01*
X128338629Y-57516430D01*
X128334878Y-57525486D01*
X128332966Y-57535099D01*
X128332966Y-57544900D01*
X128334878Y-57554513D01*
X128338629Y-57563569D01*
X128344074Y-57571719D01*
X128351005Y-57578649D01*
X128359154Y-57584095D01*
X128368136Y-57587815D01*
X128385424Y-57597055D01*
X128400539Y-57609461D01*
X128412945Y-57624576D01*
X128422165Y-57641827D01*
X128427842Y-57660540D01*
X128430000Y-57682453D01*
X128430000Y-58037547D01*
X128427842Y-58059460D01*
X128422165Y-58078173D01*
X128412945Y-58095424D01*
X128400539Y-58110539D01*
X128385424Y-58122945D01*
X128368173Y-58132165D01*
X128349460Y-58137842D01*
X128327547Y-58140000D01*
X128032453Y-58140000D01*
X128010540Y-58137842D01*
X127991827Y-58132165D01*
X127974576Y-58122945D01*
X127959461Y-58110539D01*
X127947055Y-58095424D01*
X127937835Y-58078173D01*
X127932158Y-58059460D01*
X127930000Y-58037547D01*
X127930000Y-57682453D01*
X127932158Y-57660540D01*
X127937835Y-57641827D01*
X127947055Y-57624576D01*
X127959461Y-57609461D01*
X127974576Y-57597055D01*
X127991864Y-57587815D01*
X128000845Y-57584095D01*
X128008995Y-57578650D01*
X128015925Y-57571719D01*
X128021371Y-57563570D01*
X128025122Y-57554514D01*
X128027034Y-57544901D01*
X128027034Y-57535100D01*
X128025122Y-57525487D01*
X128021371Y-57516431D01*
X128015926Y-57508281D01*
X128008995Y-57501351D01*
X128000846Y-57495905D01*
X127991864Y-57492185D01*
X127974576Y-57482945D01*
X127959461Y-57470539D01*
X127947055Y-57455424D01*
X127937835Y-57438173D01*
X127932158Y-57419460D01*
X127930000Y-57397547D01*
X127930000Y-57042453D01*
X127932158Y-57020540D01*
X127937835Y-57001827D01*
X127947055Y-56984576D01*
X127959461Y-56969461D01*
X127974576Y-56957055D01*
X127991858Y-56947818D01*
X128000849Y-56944094D01*
X128008998Y-56938649D01*
X128015929Y-56931718D01*
X128021374Y-56923568D01*
X128025125Y-56914513D01*
X128027037Y-56904899D01*
X128027037Y-56895098D01*
X128025125Y-56885485D01*
X128021374Y-56876429D01*
X128015929Y-56868280D01*
X128008998Y-56861349D01*
X128000848Y-56855904D01*
X127991793Y-56852153D01*
X127977279Y-56850000D01*
X127644954Y-56850000D01*
X127613772Y-56846929D01*
X127586145Y-56838548D01*
X127560689Y-56824942D01*
X127538373Y-56806627D01*
X127520058Y-56784311D01*
X127506452Y-56758855D01*
X127498071Y-56731228D01*
X127495000Y-56700046D01*
X127495000Y-56259954D01*
X127498071Y-56228772D01*
X127506452Y-56201145D01*
X127520058Y-56175689D01*
X127538373Y-56153373D01*
X127560689Y-56135058D01*
X127586145Y-56121452D01*
X127613772Y-56113071D01*
X127644954Y-56110000D01*
X128035046Y-56110000D01*
X128066228Y-56113071D01*
X128066228Y-56113071D01*
G37*
G36*
X121958338Y-57707685D02*
G01*
X121994736Y-57722762D01*
X122027488Y-57744646D01*
X122027490Y-57744648D01*
X122027493Y-57744650D01*
X122055350Y-57772507D01*
X122055352Y-57772510D01*
X122055354Y-57772512D01*
X122077238Y-57805264D01*
X122092315Y-57841662D01*
X122100000Y-57880300D01*
X122100000Y-57919700D01*
X122092315Y-57958338D01*
X122077238Y-57994736D01*
X122055354Y-58027488D01*
X122055352Y-58027490D01*
X122055350Y-58027493D01*
X122027493Y-58055350D01*
X122027490Y-58055352D01*
X122027488Y-58055354D01*
X121994736Y-58077238D01*
X121958338Y-58092315D01*
X121919700Y-58100000D01*
X121880300Y-58100000D01*
X121841662Y-58092315D01*
X121805264Y-58077238D01*
X121772512Y-58055354D01*
X121772510Y-58055352D01*
X121772507Y-58055350D01*
X121744650Y-58027493D01*
X121744648Y-58027490D01*
X121744646Y-58027488D01*
X121722762Y-57994736D01*
X121707685Y-57958338D01*
X121700000Y-57919700D01*
X121700000Y-57880300D01*
X121707685Y-57841662D01*
X121722762Y-57805264D01*
X121744646Y-57772512D01*
X121744648Y-57772510D01*
X121744650Y-57772507D01*
X121772507Y-57744650D01*
X121772510Y-57744648D01*
X121772512Y-57744646D01*
X121805264Y-57722762D01*
X121841662Y-57707685D01*
X121880300Y-57700000D01*
X121919700Y-57700000D01*
X121958338Y-57707685D01*
X121958338Y-57707685D01*
G37*
G36*
X122458338Y-57707685D02*
G01*
X122494736Y-57722762D01*
X122527488Y-57744646D01*
X122527490Y-57744648D01*
X122527493Y-57744650D01*
X122555350Y-57772507D01*
X122555352Y-57772510D01*
X122555354Y-57772512D01*
X122577238Y-57805264D01*
X122592315Y-57841662D01*
X122600000Y-57880300D01*
X122600000Y-57919700D01*
X122592315Y-57958338D01*
X122577238Y-57994736D01*
X122555354Y-58027488D01*
X122555352Y-58027490D01*
X122555350Y-58027493D01*
X122527493Y-58055350D01*
X122527490Y-58055352D01*
X122527488Y-58055354D01*
X122494736Y-58077238D01*
X122458338Y-58092315D01*
X122419700Y-58100000D01*
X122380300Y-58100000D01*
X122341662Y-58092315D01*
X122305264Y-58077238D01*
X122272512Y-58055354D01*
X122272510Y-58055352D01*
X122272507Y-58055350D01*
X122244650Y-58027493D01*
X122244648Y-58027490D01*
X122244646Y-58027488D01*
X122222762Y-57994736D01*
X122207685Y-57958338D01*
X122200000Y-57919700D01*
X122200000Y-57880300D01*
X122207685Y-57841662D01*
X122222762Y-57805264D01*
X122244646Y-57772512D01*
X122244648Y-57772510D01*
X122244650Y-57772507D01*
X122272507Y-57744650D01*
X122272510Y-57744648D01*
X122272512Y-57744646D01*
X122305264Y-57722762D01*
X122341662Y-57707685D01*
X122380300Y-57700000D01*
X122419700Y-57700000D01*
X122458338Y-57707685D01*
X122458338Y-57707685D01*
G37*
G36*
X122958338Y-57707685D02*
G01*
X122994736Y-57722762D01*
X123027488Y-57744646D01*
X123027490Y-57744648D01*
X123027493Y-57744650D01*
X123055350Y-57772507D01*
X123055352Y-57772510D01*
X123055354Y-57772512D01*
X123077238Y-57805264D01*
X123092315Y-57841662D01*
X123100000Y-57880300D01*
X123100000Y-57919700D01*
X123092315Y-57958338D01*
X123077238Y-57994736D01*
X123055354Y-58027488D01*
X123055352Y-58027490D01*
X123055350Y-58027493D01*
X123027493Y-58055350D01*
X123027490Y-58055352D01*
X123027488Y-58055354D01*
X122994736Y-58077238D01*
X122958338Y-58092315D01*
X122919700Y-58100000D01*
X122880300Y-58100000D01*
X122841662Y-58092315D01*
X122805264Y-58077238D01*
X122772512Y-58055354D01*
X122772510Y-58055352D01*
X122772507Y-58055350D01*
X122744650Y-58027493D01*
X122744648Y-58027490D01*
X122744646Y-58027488D01*
X122722762Y-57994736D01*
X122707685Y-57958338D01*
X122700000Y-57919700D01*
X122700000Y-57880300D01*
X122707685Y-57841662D01*
X122722762Y-57805264D01*
X122744646Y-57772512D01*
X122744648Y-57772510D01*
X122744650Y-57772507D01*
X122772507Y-57744650D01*
X122772510Y-57744648D01*
X122772512Y-57744646D01*
X122805264Y-57722762D01*
X122841662Y-57707685D01*
X122880300Y-57700000D01*
X122919700Y-57700000D01*
X122958338Y-57707685D01*
X122958338Y-57707685D01*
G37*
G36*
X123958338Y-57707685D02*
G01*
X123994736Y-57722762D01*
X124027488Y-57744646D01*
X124027490Y-57744648D01*
X124027493Y-57744650D01*
X124055350Y-57772507D01*
X124055352Y-57772510D01*
X124055354Y-57772512D01*
X124077238Y-57805264D01*
X124092315Y-57841662D01*
X124100000Y-57880300D01*
X124100000Y-57919700D01*
X124092315Y-57958338D01*
X124077238Y-57994736D01*
X124055354Y-58027488D01*
X124055352Y-58027490D01*
X124055350Y-58027493D01*
X124027493Y-58055350D01*
X124027490Y-58055352D01*
X124027488Y-58055354D01*
X123994736Y-58077238D01*
X123958338Y-58092315D01*
X123919700Y-58100000D01*
X123880300Y-58100000D01*
X123841662Y-58092315D01*
X123805264Y-58077238D01*
X123772512Y-58055354D01*
X123772510Y-58055352D01*
X123772507Y-58055350D01*
X123744650Y-58027493D01*
X123744648Y-58027490D01*
X123744646Y-58027488D01*
X123722762Y-57994736D01*
X123707685Y-57958338D01*
X123700000Y-57919700D01*
X123700000Y-57880300D01*
X123707685Y-57841662D01*
X123722762Y-57805264D01*
X123744646Y-57772512D01*
X123744648Y-57772510D01*
X123744650Y-57772507D01*
X123772507Y-57744650D01*
X123772510Y-57744648D01*
X123772512Y-57744646D01*
X123805264Y-57722762D01*
X123841662Y-57707685D01*
X123880300Y-57700000D01*
X123919700Y-57700000D01*
X123958338Y-57707685D01*
X123958338Y-57707685D01*
G37*
G36*
X124458338Y-57707685D02*
G01*
X124494736Y-57722762D01*
X124527488Y-57744646D01*
X124527490Y-57744648D01*
X124527493Y-57744650D01*
X124555350Y-57772507D01*
X124555352Y-57772510D01*
X124555354Y-57772512D01*
X124577238Y-57805264D01*
X124592315Y-57841662D01*
X124600000Y-57880300D01*
X124600000Y-57919700D01*
X124592315Y-57958338D01*
X124577238Y-57994736D01*
X124555354Y-58027488D01*
X124555352Y-58027490D01*
X124555350Y-58027493D01*
X124527493Y-58055350D01*
X124527490Y-58055352D01*
X124527488Y-58055354D01*
X124494736Y-58077238D01*
X124458338Y-58092315D01*
X124419700Y-58100000D01*
X124380300Y-58100000D01*
X124341662Y-58092315D01*
X124305264Y-58077238D01*
X124272512Y-58055354D01*
X124272510Y-58055352D01*
X124272507Y-58055350D01*
X124244650Y-58027493D01*
X124244648Y-58027490D01*
X124244646Y-58027488D01*
X124222762Y-57994736D01*
X124207685Y-57958338D01*
X124200000Y-57919700D01*
X124200000Y-57880300D01*
X124207685Y-57841662D01*
X124222762Y-57805264D01*
X124244646Y-57772512D01*
X124244648Y-57772510D01*
X124244650Y-57772507D01*
X124272507Y-57744650D01*
X124272510Y-57744648D01*
X124272512Y-57744646D01*
X124305264Y-57722762D01*
X124341662Y-57707685D01*
X124380300Y-57700000D01*
X124419700Y-57700000D01*
X124458338Y-57707685D01*
X124458338Y-57707685D01*
G37*
G36*
X125458338Y-57707685D02*
G01*
X125494736Y-57722762D01*
X125527488Y-57744646D01*
X125527490Y-57744648D01*
X125527493Y-57744650D01*
X125555350Y-57772507D01*
X125555352Y-57772510D01*
X125555354Y-57772512D01*
X125577238Y-57805264D01*
X125592315Y-57841662D01*
X125600000Y-57880300D01*
X125600000Y-57919700D01*
X125592315Y-57958338D01*
X125577238Y-57994736D01*
X125555354Y-58027488D01*
X125555352Y-58027490D01*
X125555350Y-58027493D01*
X125527493Y-58055350D01*
X125527490Y-58055352D01*
X125527488Y-58055354D01*
X125494736Y-58077238D01*
X125458338Y-58092315D01*
X125419700Y-58100000D01*
X125380300Y-58100000D01*
X125341662Y-58092315D01*
X125305264Y-58077238D01*
X125272512Y-58055354D01*
X125272510Y-58055352D01*
X125272507Y-58055350D01*
X125244650Y-58027493D01*
X125244648Y-58027490D01*
X125244646Y-58027488D01*
X125222762Y-57994736D01*
X125207685Y-57958338D01*
X125200000Y-57919700D01*
X125200000Y-57880300D01*
X125207685Y-57841662D01*
X125222762Y-57805264D01*
X125244646Y-57772512D01*
X125244648Y-57772510D01*
X125244650Y-57772507D01*
X125272507Y-57744650D01*
X125272510Y-57744648D01*
X125272512Y-57744646D01*
X125305264Y-57722762D01*
X125341662Y-57707685D01*
X125380300Y-57700000D01*
X125419700Y-57700000D01*
X125458338Y-57707685D01*
X125458338Y-57707685D01*
G37*
G36*
X125958338Y-57707685D02*
G01*
X125994736Y-57722762D01*
X126027488Y-57744646D01*
X126027490Y-57744648D01*
X126027493Y-57744650D01*
X126055350Y-57772507D01*
X126055352Y-57772510D01*
X126055354Y-57772512D01*
X126077238Y-57805264D01*
X126092315Y-57841662D01*
X126100000Y-57880300D01*
X126100000Y-57919700D01*
X126092315Y-57958338D01*
X126077238Y-57994736D01*
X126055354Y-58027488D01*
X126055352Y-58027490D01*
X126055350Y-58027493D01*
X126027493Y-58055350D01*
X126027490Y-58055352D01*
X126027488Y-58055354D01*
X125994736Y-58077238D01*
X125958338Y-58092315D01*
X125919700Y-58100000D01*
X125880300Y-58100000D01*
X125841662Y-58092315D01*
X125805264Y-58077238D01*
X125772512Y-58055354D01*
X125772510Y-58055352D01*
X125772507Y-58055350D01*
X125744650Y-58027493D01*
X125744648Y-58027490D01*
X125744646Y-58027488D01*
X125722762Y-57994736D01*
X125707685Y-57958338D01*
X125700000Y-57919700D01*
X125700000Y-57880300D01*
X125707685Y-57841662D01*
X125722762Y-57805264D01*
X125744646Y-57772512D01*
X125744648Y-57772510D01*
X125744650Y-57772507D01*
X125772507Y-57744650D01*
X125772510Y-57744648D01*
X125772512Y-57744646D01*
X125805264Y-57722762D01*
X125841662Y-57707685D01*
X125880300Y-57700000D01*
X125919700Y-57700000D01*
X125958338Y-57707685D01*
X125958338Y-57707685D01*
G37*
G36*
X124458338Y-57207685D02*
G01*
X124494736Y-57222762D01*
X124527488Y-57244646D01*
X124527490Y-57244648D01*
X124527493Y-57244650D01*
X124555350Y-57272507D01*
X124555352Y-57272510D01*
X124555354Y-57272512D01*
X124577238Y-57305264D01*
X124592315Y-57341662D01*
X124600000Y-57380300D01*
X124600000Y-57419700D01*
X124592315Y-57458338D01*
X124577238Y-57494736D01*
X124555354Y-57527488D01*
X124555352Y-57527490D01*
X124555350Y-57527493D01*
X124527493Y-57555350D01*
X124527490Y-57555352D01*
X124527488Y-57555354D01*
X124494736Y-57577238D01*
X124458338Y-57592315D01*
X124419700Y-57600000D01*
X124380300Y-57600000D01*
X124341662Y-57592315D01*
X124305264Y-57577238D01*
X124272512Y-57555354D01*
X124272510Y-57555352D01*
X124272507Y-57555350D01*
X124244650Y-57527493D01*
X124244648Y-57527490D01*
X124244646Y-57527488D01*
X124222762Y-57494736D01*
X124207685Y-57458338D01*
X124200000Y-57419700D01*
X124200000Y-57380300D01*
X124207685Y-57341662D01*
X124222762Y-57305264D01*
X124244646Y-57272512D01*
X124244648Y-57272510D01*
X124244650Y-57272507D01*
X124272507Y-57244650D01*
X124272510Y-57244648D01*
X124272512Y-57244646D01*
X124305264Y-57222762D01*
X124341662Y-57207685D01*
X124380300Y-57200000D01*
X124419700Y-57200000D01*
X124458338Y-57207685D01*
X124458338Y-57207685D01*
G37*
G36*
X125958338Y-57207685D02*
G01*
X125994736Y-57222762D01*
X126027488Y-57244646D01*
X126027490Y-57244648D01*
X126027493Y-57244650D01*
X126055350Y-57272507D01*
X126055352Y-57272510D01*
X126055354Y-57272512D01*
X126077238Y-57305264D01*
X126092315Y-57341662D01*
X126100000Y-57380300D01*
X126100000Y-57419700D01*
X126092315Y-57458338D01*
X126077238Y-57494736D01*
X126055354Y-57527488D01*
X126055352Y-57527490D01*
X126055350Y-57527493D01*
X126027493Y-57555350D01*
X126027490Y-57555352D01*
X126027488Y-57555354D01*
X125994736Y-57577238D01*
X125958338Y-57592315D01*
X125919700Y-57600000D01*
X125880300Y-57600000D01*
X125841662Y-57592315D01*
X125805264Y-57577238D01*
X125772512Y-57555354D01*
X125772510Y-57555352D01*
X125772507Y-57555350D01*
X125744650Y-57527493D01*
X125744648Y-57527490D01*
X125744646Y-57527488D01*
X125722762Y-57494736D01*
X125707685Y-57458338D01*
X125700000Y-57419700D01*
X125700000Y-57380300D01*
X125707685Y-57341662D01*
X125722762Y-57305264D01*
X125744646Y-57272512D01*
X125744648Y-57272510D01*
X125744650Y-57272507D01*
X125772507Y-57244650D01*
X125772510Y-57244648D01*
X125772512Y-57244646D01*
X125805264Y-57222762D01*
X125841662Y-57207685D01*
X125880300Y-57200000D01*
X125919700Y-57200000D01*
X125958338Y-57207685D01*
X125958338Y-57207685D01*
G37*
G36*
X121958338Y-57207685D02*
G01*
X121994736Y-57222762D01*
X122027488Y-57244646D01*
X122027490Y-57244648D01*
X122027493Y-57244650D01*
X122055350Y-57272507D01*
X122055352Y-57272510D01*
X122055354Y-57272512D01*
X122077238Y-57305264D01*
X122092315Y-57341662D01*
X122100000Y-57380300D01*
X122100000Y-57419700D01*
X122092315Y-57458338D01*
X122077238Y-57494736D01*
X122055354Y-57527488D01*
X122055352Y-57527490D01*
X122055350Y-57527493D01*
X122027493Y-57555350D01*
X122027490Y-57555352D01*
X122027488Y-57555354D01*
X121994736Y-57577238D01*
X121958338Y-57592315D01*
X121919700Y-57600000D01*
X121880300Y-57600000D01*
X121841662Y-57592315D01*
X121805264Y-57577238D01*
X121772512Y-57555354D01*
X121772510Y-57555352D01*
X121772507Y-57555350D01*
X121744650Y-57527493D01*
X121744648Y-57527490D01*
X121744646Y-57527488D01*
X121722762Y-57494736D01*
X121707685Y-57458338D01*
X121700000Y-57419700D01*
X121700000Y-57380300D01*
X121707685Y-57341662D01*
X121722762Y-57305264D01*
X121744646Y-57272512D01*
X121744648Y-57272510D01*
X121744650Y-57272507D01*
X121772507Y-57244650D01*
X121772510Y-57244648D01*
X121772512Y-57244646D01*
X121805264Y-57222762D01*
X121841662Y-57207685D01*
X121880300Y-57200000D01*
X121919700Y-57200000D01*
X121958338Y-57207685D01*
X121958338Y-57207685D01*
G37*
G36*
X122458338Y-57207685D02*
G01*
X122494736Y-57222762D01*
X122527488Y-57244646D01*
X122527490Y-57244648D01*
X122527493Y-57244650D01*
X122555350Y-57272507D01*
X122555352Y-57272510D01*
X122555354Y-57272512D01*
X122577238Y-57305264D01*
X122592315Y-57341662D01*
X122600000Y-57380300D01*
X122600000Y-57419700D01*
X122592315Y-57458338D01*
X122577238Y-57494736D01*
X122555354Y-57527488D01*
X122555352Y-57527490D01*
X122555350Y-57527493D01*
X122527493Y-57555350D01*
X122527490Y-57555352D01*
X122527488Y-57555354D01*
X122494736Y-57577238D01*
X122458338Y-57592315D01*
X122419700Y-57600000D01*
X122380300Y-57600000D01*
X122341662Y-57592315D01*
X122305264Y-57577238D01*
X122272512Y-57555354D01*
X122272510Y-57555352D01*
X122272507Y-57555350D01*
X122244650Y-57527493D01*
X122244648Y-57527490D01*
X122244646Y-57527488D01*
X122222762Y-57494736D01*
X122207685Y-57458338D01*
X122200000Y-57419700D01*
X122200000Y-57380300D01*
X122207685Y-57341662D01*
X122222762Y-57305264D01*
X122244646Y-57272512D01*
X122244648Y-57272510D01*
X122244650Y-57272507D01*
X122272507Y-57244650D01*
X122272510Y-57244648D01*
X122272512Y-57244646D01*
X122305264Y-57222762D01*
X122341662Y-57207685D01*
X122380300Y-57200000D01*
X122419700Y-57200000D01*
X122458338Y-57207685D01*
X122458338Y-57207685D01*
G37*
G36*
X122958338Y-57207685D02*
G01*
X122994736Y-57222762D01*
X123027488Y-57244646D01*
X123027490Y-57244648D01*
X123027493Y-57244650D01*
X123055350Y-57272507D01*
X123055352Y-57272510D01*
X123055354Y-57272512D01*
X123077238Y-57305264D01*
X123092315Y-57341662D01*
X123100000Y-57380300D01*
X123100000Y-57419700D01*
X123092315Y-57458338D01*
X123077238Y-57494736D01*
X123055354Y-57527488D01*
X123055352Y-57527490D01*
X123055350Y-57527493D01*
X123027493Y-57555350D01*
X123027490Y-57555352D01*
X123027488Y-57555354D01*
X122994736Y-57577238D01*
X122958338Y-57592315D01*
X122919700Y-57600000D01*
X122880300Y-57600000D01*
X122841662Y-57592315D01*
X122805264Y-57577238D01*
X122772512Y-57555354D01*
X122772510Y-57555352D01*
X122772507Y-57555350D01*
X122744650Y-57527493D01*
X122744648Y-57527490D01*
X122744646Y-57527488D01*
X122722762Y-57494736D01*
X122707685Y-57458338D01*
X122700000Y-57419700D01*
X122700000Y-57380300D01*
X122707685Y-57341662D01*
X122722762Y-57305264D01*
X122744646Y-57272512D01*
X122744648Y-57272510D01*
X122744650Y-57272507D01*
X122772507Y-57244650D01*
X122772510Y-57244648D01*
X122772512Y-57244646D01*
X122805264Y-57222762D01*
X122841662Y-57207685D01*
X122880300Y-57200000D01*
X122919700Y-57200000D01*
X122958338Y-57207685D01*
X122958338Y-57207685D01*
G37*
G36*
X125458338Y-57207685D02*
G01*
X125494736Y-57222762D01*
X125527488Y-57244646D01*
X125527490Y-57244648D01*
X125527493Y-57244650D01*
X125555350Y-57272507D01*
X125555352Y-57272510D01*
X125555354Y-57272512D01*
X125577238Y-57305264D01*
X125592315Y-57341662D01*
X125600000Y-57380300D01*
X125600000Y-57419700D01*
X125592315Y-57458338D01*
X125577238Y-57494736D01*
X125555354Y-57527488D01*
X125555352Y-57527490D01*
X125555350Y-57527493D01*
X125527493Y-57555350D01*
X125527490Y-57555352D01*
X125527488Y-57555354D01*
X125494736Y-57577238D01*
X125458338Y-57592315D01*
X125419700Y-57600000D01*
X125380300Y-57600000D01*
X125341662Y-57592315D01*
X125305264Y-57577238D01*
X125272512Y-57555354D01*
X125272510Y-57555352D01*
X125272507Y-57555350D01*
X125244650Y-57527493D01*
X125244648Y-57527490D01*
X125244646Y-57527488D01*
X125222762Y-57494736D01*
X125207685Y-57458338D01*
X125200000Y-57419700D01*
X125200000Y-57380300D01*
X125207685Y-57341662D01*
X125222762Y-57305264D01*
X125244646Y-57272512D01*
X125244648Y-57272510D01*
X125244650Y-57272507D01*
X125272507Y-57244650D01*
X125272510Y-57244648D01*
X125272512Y-57244646D01*
X125305264Y-57222762D01*
X125341662Y-57207685D01*
X125380300Y-57200000D01*
X125419700Y-57200000D01*
X125458338Y-57207685D01*
X125458338Y-57207685D01*
G37*
G36*
X124958338Y-57207685D02*
G01*
X124994736Y-57222762D01*
X125027488Y-57244646D01*
X125027490Y-57244648D01*
X125027493Y-57244650D01*
X125055350Y-57272507D01*
X125055352Y-57272510D01*
X125055354Y-57272512D01*
X125077238Y-57305264D01*
X125092315Y-57341662D01*
X125100000Y-57380300D01*
X125100000Y-57419700D01*
X125092315Y-57458338D01*
X125077238Y-57494736D01*
X125055354Y-57527488D01*
X125055352Y-57527490D01*
X125055350Y-57527493D01*
X125027493Y-57555350D01*
X125027490Y-57555352D01*
X125027488Y-57555354D01*
X124994736Y-57577238D01*
X124958338Y-57592315D01*
X124919700Y-57600000D01*
X124880300Y-57600000D01*
X124841662Y-57592315D01*
X124805264Y-57577238D01*
X124772512Y-57555354D01*
X124772510Y-57555352D01*
X124772507Y-57555350D01*
X124744650Y-57527493D01*
X124744648Y-57527490D01*
X124744646Y-57527488D01*
X124722762Y-57494736D01*
X124707685Y-57458338D01*
X124700000Y-57419700D01*
X124700000Y-57380300D01*
X124707685Y-57341662D01*
X124722762Y-57305264D01*
X124744646Y-57272512D01*
X124744648Y-57272510D01*
X124744650Y-57272507D01*
X124772507Y-57244650D01*
X124772510Y-57244648D01*
X124772512Y-57244646D01*
X124805264Y-57222762D01*
X124841662Y-57207685D01*
X124880300Y-57200000D01*
X124919700Y-57200000D01*
X124958338Y-57207685D01*
X124958338Y-57207685D01*
G37*
G36*
X123958338Y-57207685D02*
G01*
X123994736Y-57222762D01*
X124027488Y-57244646D01*
X124027490Y-57244648D01*
X124027493Y-57244650D01*
X124055350Y-57272507D01*
X124055352Y-57272510D01*
X124055354Y-57272512D01*
X124077238Y-57305264D01*
X124092315Y-57341662D01*
X124100000Y-57380300D01*
X124100000Y-57419700D01*
X124092315Y-57458338D01*
X124077238Y-57494736D01*
X124055354Y-57527488D01*
X124055352Y-57527490D01*
X124055350Y-57527493D01*
X124027493Y-57555350D01*
X124027490Y-57555352D01*
X124027488Y-57555354D01*
X123994736Y-57577238D01*
X123958338Y-57592315D01*
X123919700Y-57600000D01*
X123880300Y-57600000D01*
X123841662Y-57592315D01*
X123805264Y-57577238D01*
X123772512Y-57555354D01*
X123772510Y-57555352D01*
X123772507Y-57555350D01*
X123744650Y-57527493D01*
X123744648Y-57527490D01*
X123744646Y-57527488D01*
X123722762Y-57494736D01*
X123707685Y-57458338D01*
X123700000Y-57419700D01*
X123700000Y-57380300D01*
X123707685Y-57341662D01*
X123722762Y-57305264D01*
X123744646Y-57272512D01*
X123744648Y-57272510D01*
X123744650Y-57272507D01*
X123772507Y-57244650D01*
X123772510Y-57244648D01*
X123772512Y-57244646D01*
X123805264Y-57222762D01*
X123841662Y-57207685D01*
X123880300Y-57200000D01*
X123919700Y-57200000D01*
X123958338Y-57207685D01*
X123958338Y-57207685D01*
G37*
G36*
X123458338Y-57207685D02*
G01*
X123494736Y-57222762D01*
X123527488Y-57244646D01*
X123527490Y-57244648D01*
X123527493Y-57244650D01*
X123555350Y-57272507D01*
X123555352Y-57272510D01*
X123555354Y-57272512D01*
X123577238Y-57305264D01*
X123592315Y-57341662D01*
X123600000Y-57380300D01*
X123600000Y-57419700D01*
X123592315Y-57458338D01*
X123577238Y-57494736D01*
X123555354Y-57527488D01*
X123555352Y-57527490D01*
X123555350Y-57527493D01*
X123527493Y-57555350D01*
X123527490Y-57555352D01*
X123527488Y-57555354D01*
X123494736Y-57577238D01*
X123458338Y-57592315D01*
X123419700Y-57600000D01*
X123380300Y-57600000D01*
X123341662Y-57592315D01*
X123305264Y-57577238D01*
X123272512Y-57555354D01*
X123272510Y-57555352D01*
X123272507Y-57555350D01*
X123244650Y-57527493D01*
X123244648Y-57527490D01*
X123244646Y-57527488D01*
X123222762Y-57494736D01*
X123207685Y-57458338D01*
X123200000Y-57419700D01*
X123200000Y-57380300D01*
X123207685Y-57341662D01*
X123222762Y-57305264D01*
X123244646Y-57272512D01*
X123244648Y-57272510D01*
X123244650Y-57272507D01*
X123272507Y-57244650D01*
X123272510Y-57244648D01*
X123272512Y-57244646D01*
X123305264Y-57222762D01*
X123341662Y-57207685D01*
X123380300Y-57200000D01*
X123419700Y-57200000D01*
X123458338Y-57207685D01*
X123458338Y-57207685D01*
G37*
G36*
X125958338Y-56707685D02*
G01*
X125994736Y-56722762D01*
X126027488Y-56744646D01*
X126027490Y-56744648D01*
X126027493Y-56744650D01*
X126055350Y-56772507D01*
X126055352Y-56772510D01*
X126055354Y-56772512D01*
X126077238Y-56805264D01*
X126092315Y-56841662D01*
X126100000Y-56880300D01*
X126100000Y-56919700D01*
X126092315Y-56958338D01*
X126077238Y-56994736D01*
X126055354Y-57027488D01*
X126055352Y-57027490D01*
X126055350Y-57027493D01*
X126027493Y-57055350D01*
X126027490Y-57055352D01*
X126027488Y-57055354D01*
X125994736Y-57077238D01*
X125958338Y-57092315D01*
X125919700Y-57100000D01*
X125880300Y-57100000D01*
X125841662Y-57092315D01*
X125805264Y-57077238D01*
X125772512Y-57055354D01*
X125772510Y-57055352D01*
X125772507Y-57055350D01*
X125744650Y-57027493D01*
X125744648Y-57027490D01*
X125744646Y-57027488D01*
X125722762Y-56994736D01*
X125707685Y-56958338D01*
X125700000Y-56919700D01*
X125700000Y-56880300D01*
X125707685Y-56841662D01*
X125722762Y-56805264D01*
X125744646Y-56772512D01*
X125744648Y-56772510D01*
X125744650Y-56772507D01*
X125772507Y-56744650D01*
X125772510Y-56744648D01*
X125772512Y-56744646D01*
X125805264Y-56722762D01*
X125841662Y-56707685D01*
X125880300Y-56700000D01*
X125919700Y-56700000D01*
X125958338Y-56707685D01*
X125958338Y-56707685D01*
G37*
G36*
X124458338Y-56707685D02*
G01*
X124494736Y-56722762D01*
X124527488Y-56744646D01*
X124527490Y-56744648D01*
X124527493Y-56744650D01*
X124555350Y-56772507D01*
X124555352Y-56772510D01*
X124555354Y-56772512D01*
X124577238Y-56805264D01*
X124592315Y-56841662D01*
X124600000Y-56880300D01*
X124600000Y-56919700D01*
X124592315Y-56958338D01*
X124577238Y-56994736D01*
X124555354Y-57027488D01*
X124555352Y-57027490D01*
X124555350Y-57027493D01*
X124527493Y-57055350D01*
X124527490Y-57055352D01*
X124527488Y-57055354D01*
X124494736Y-57077238D01*
X124458338Y-57092315D01*
X124419700Y-57100000D01*
X124380300Y-57100000D01*
X124341662Y-57092315D01*
X124305264Y-57077238D01*
X124272512Y-57055354D01*
X124272510Y-57055352D01*
X124272507Y-57055350D01*
X124244650Y-57027493D01*
X124244648Y-57027490D01*
X124244646Y-57027488D01*
X124222762Y-56994736D01*
X124207685Y-56958338D01*
X124200000Y-56919700D01*
X124200000Y-56880300D01*
X124207685Y-56841662D01*
X124222762Y-56805264D01*
X124244646Y-56772512D01*
X124244648Y-56772510D01*
X124244650Y-56772507D01*
X124272507Y-56744650D01*
X124272510Y-56744648D01*
X124272512Y-56744646D01*
X124305264Y-56722762D01*
X124341662Y-56707685D01*
X124380300Y-56700000D01*
X124419700Y-56700000D01*
X124458338Y-56707685D01*
X124458338Y-56707685D01*
G37*
G36*
X124958338Y-56707685D02*
G01*
X124994736Y-56722762D01*
X125027488Y-56744646D01*
X125027490Y-56744648D01*
X125027493Y-56744650D01*
X125055350Y-56772507D01*
X125055352Y-56772510D01*
X125055354Y-56772512D01*
X125077238Y-56805264D01*
X125092315Y-56841662D01*
X125100000Y-56880300D01*
X125100000Y-56919700D01*
X125092315Y-56958338D01*
X125077238Y-56994736D01*
X125055354Y-57027488D01*
X125055352Y-57027490D01*
X125055350Y-57027493D01*
X125027493Y-57055350D01*
X125027490Y-57055352D01*
X125027488Y-57055354D01*
X124994736Y-57077238D01*
X124958338Y-57092315D01*
X124919700Y-57100000D01*
X124880300Y-57100000D01*
X124841662Y-57092315D01*
X124805264Y-57077238D01*
X124772512Y-57055354D01*
X124772510Y-57055352D01*
X124772507Y-57055350D01*
X124744650Y-57027493D01*
X124744648Y-57027490D01*
X124744646Y-57027488D01*
X124722762Y-56994736D01*
X124707685Y-56958338D01*
X124700000Y-56919700D01*
X124700000Y-56880300D01*
X124707685Y-56841662D01*
X124722762Y-56805264D01*
X124744646Y-56772512D01*
X124744648Y-56772510D01*
X124744650Y-56772507D01*
X124772507Y-56744650D01*
X124772510Y-56744648D01*
X124772512Y-56744646D01*
X124805264Y-56722762D01*
X124841662Y-56707685D01*
X124880300Y-56700000D01*
X124919700Y-56700000D01*
X124958338Y-56707685D01*
X124958338Y-56707685D01*
G37*
G36*
X125458338Y-56707685D02*
G01*
X125494736Y-56722762D01*
X125527488Y-56744646D01*
X125527490Y-56744648D01*
X125527493Y-56744650D01*
X125555350Y-56772507D01*
X125555352Y-56772510D01*
X125555354Y-56772512D01*
X125577238Y-56805264D01*
X125592315Y-56841662D01*
X125600000Y-56880300D01*
X125600000Y-56919700D01*
X125592315Y-56958338D01*
X125577238Y-56994736D01*
X125555354Y-57027488D01*
X125555352Y-57027490D01*
X125555350Y-57027493D01*
X125527493Y-57055350D01*
X125527490Y-57055352D01*
X125527488Y-57055354D01*
X125494736Y-57077238D01*
X125458338Y-57092315D01*
X125419700Y-57100000D01*
X125380300Y-57100000D01*
X125341662Y-57092315D01*
X125305264Y-57077238D01*
X125272512Y-57055354D01*
X125272510Y-57055352D01*
X125272507Y-57055350D01*
X125244650Y-57027493D01*
X125244648Y-57027490D01*
X125244646Y-57027488D01*
X125222762Y-56994736D01*
X125207685Y-56958338D01*
X125200000Y-56919700D01*
X125200000Y-56880300D01*
X125207685Y-56841662D01*
X125222762Y-56805264D01*
X125244646Y-56772512D01*
X125244648Y-56772510D01*
X125244650Y-56772507D01*
X125272507Y-56744650D01*
X125272510Y-56744648D01*
X125272512Y-56744646D01*
X125305264Y-56722762D01*
X125341662Y-56707685D01*
X125380300Y-56700000D01*
X125419700Y-56700000D01*
X125458338Y-56707685D01*
X125458338Y-56707685D01*
G37*
G36*
X123958338Y-56707685D02*
G01*
X123994736Y-56722762D01*
X124027488Y-56744646D01*
X124027490Y-56744648D01*
X124027493Y-56744650D01*
X124055350Y-56772507D01*
X124055352Y-56772510D01*
X124055354Y-56772512D01*
X124077238Y-56805264D01*
X124092315Y-56841662D01*
X124100000Y-56880300D01*
X124100000Y-56919700D01*
X124092315Y-56958338D01*
X124077238Y-56994736D01*
X124055354Y-57027488D01*
X124055352Y-57027490D01*
X124055350Y-57027493D01*
X124027493Y-57055350D01*
X124027490Y-57055352D01*
X124027488Y-57055354D01*
X123994736Y-57077238D01*
X123958338Y-57092315D01*
X123919700Y-57100000D01*
X123880300Y-57100000D01*
X123841662Y-57092315D01*
X123805264Y-57077238D01*
X123772512Y-57055354D01*
X123772510Y-57055352D01*
X123772507Y-57055350D01*
X123744650Y-57027493D01*
X123744648Y-57027490D01*
X123744646Y-57027488D01*
X123722762Y-56994736D01*
X123707685Y-56958338D01*
X123700000Y-56919700D01*
X123700000Y-56880300D01*
X123707685Y-56841662D01*
X123722762Y-56805264D01*
X123744646Y-56772512D01*
X123744648Y-56772510D01*
X123744650Y-56772507D01*
X123772507Y-56744650D01*
X123772510Y-56744648D01*
X123772512Y-56744646D01*
X123805264Y-56722762D01*
X123841662Y-56707685D01*
X123880300Y-56700000D01*
X123919700Y-56700000D01*
X123958338Y-56707685D01*
X123958338Y-56707685D01*
G37*
G36*
X123458338Y-56707685D02*
G01*
X123494736Y-56722762D01*
X123527488Y-56744646D01*
X123527490Y-56744648D01*
X123527493Y-56744650D01*
X123555350Y-56772507D01*
X123555352Y-56772510D01*
X123555354Y-56772512D01*
X123577238Y-56805264D01*
X123592315Y-56841662D01*
X123600000Y-56880300D01*
X123600000Y-56919700D01*
X123592315Y-56958338D01*
X123577238Y-56994736D01*
X123555354Y-57027488D01*
X123555352Y-57027490D01*
X123555350Y-57027493D01*
X123527493Y-57055350D01*
X123527490Y-57055352D01*
X123527488Y-57055354D01*
X123494736Y-57077238D01*
X123458338Y-57092315D01*
X123419700Y-57100000D01*
X123380300Y-57100000D01*
X123341662Y-57092315D01*
X123305264Y-57077238D01*
X123272512Y-57055354D01*
X123272510Y-57055352D01*
X123272507Y-57055350D01*
X123244650Y-57027493D01*
X123244648Y-57027490D01*
X123244646Y-57027488D01*
X123222762Y-56994736D01*
X123207685Y-56958338D01*
X123200000Y-56919700D01*
X123200000Y-56880300D01*
X123207685Y-56841662D01*
X123222762Y-56805264D01*
X123244646Y-56772512D01*
X123244648Y-56772510D01*
X123244650Y-56772507D01*
X123272507Y-56744650D01*
X123272510Y-56744648D01*
X123272512Y-56744646D01*
X123305264Y-56722762D01*
X123341662Y-56707685D01*
X123380300Y-56700000D01*
X123419700Y-56700000D01*
X123458338Y-56707685D01*
X123458338Y-56707685D01*
G37*
G36*
X122958338Y-56707685D02*
G01*
X122994736Y-56722762D01*
X123027488Y-56744646D01*
X123027490Y-56744648D01*
X123027493Y-56744650D01*
X123055350Y-56772507D01*
X123055352Y-56772510D01*
X123055354Y-56772512D01*
X123077238Y-56805264D01*
X123092315Y-56841662D01*
X123100000Y-56880300D01*
X123100000Y-56919700D01*
X123092315Y-56958338D01*
X123077238Y-56994736D01*
X123055354Y-57027488D01*
X123055352Y-57027490D01*
X123055350Y-57027493D01*
X123027493Y-57055350D01*
X123027490Y-57055352D01*
X123027488Y-57055354D01*
X122994736Y-57077238D01*
X122958338Y-57092315D01*
X122919700Y-57100000D01*
X122880300Y-57100000D01*
X122841662Y-57092315D01*
X122805264Y-57077238D01*
X122772512Y-57055354D01*
X122772510Y-57055352D01*
X122772507Y-57055350D01*
X122744650Y-57027493D01*
X122744648Y-57027490D01*
X122744646Y-57027488D01*
X122722762Y-56994736D01*
X122707685Y-56958338D01*
X122700000Y-56919700D01*
X122700000Y-56880300D01*
X122707685Y-56841662D01*
X122722762Y-56805264D01*
X122744646Y-56772512D01*
X122744648Y-56772510D01*
X122744650Y-56772507D01*
X122772507Y-56744650D01*
X122772510Y-56744648D01*
X122772512Y-56744646D01*
X122805264Y-56722762D01*
X122841662Y-56707685D01*
X122880300Y-56700000D01*
X122919700Y-56700000D01*
X122958338Y-56707685D01*
X122958338Y-56707685D01*
G37*
G36*
X122458338Y-56707685D02*
G01*
X122494736Y-56722762D01*
X122527488Y-56744646D01*
X122527490Y-56744648D01*
X122527493Y-56744650D01*
X122555350Y-56772507D01*
X122555352Y-56772510D01*
X122555354Y-56772512D01*
X122577238Y-56805264D01*
X122592315Y-56841662D01*
X122600000Y-56880300D01*
X122600000Y-56919700D01*
X122592315Y-56958338D01*
X122577238Y-56994736D01*
X122555354Y-57027488D01*
X122555352Y-57027490D01*
X122555350Y-57027493D01*
X122527493Y-57055350D01*
X122527490Y-57055352D01*
X122527488Y-57055354D01*
X122494736Y-57077238D01*
X122458338Y-57092315D01*
X122419700Y-57100000D01*
X122380300Y-57100000D01*
X122341662Y-57092315D01*
X122305264Y-57077238D01*
X122272512Y-57055354D01*
X122272510Y-57055352D01*
X122272507Y-57055350D01*
X122244650Y-57027493D01*
X122244648Y-57027490D01*
X122244646Y-57027488D01*
X122222762Y-56994736D01*
X122207685Y-56958338D01*
X122200000Y-56919700D01*
X122200000Y-56880300D01*
X122207685Y-56841662D01*
X122222762Y-56805264D01*
X122244646Y-56772512D01*
X122244648Y-56772510D01*
X122244650Y-56772507D01*
X122272507Y-56744650D01*
X122272510Y-56744648D01*
X122272512Y-56744646D01*
X122305264Y-56722762D01*
X122341662Y-56707685D01*
X122380300Y-56700000D01*
X122419700Y-56700000D01*
X122458338Y-56707685D01*
X122458338Y-56707685D01*
G37*
G36*
X120997012Y-56354483D02*
G01*
X121042091Y-56363450D01*
X121105787Y-56389834D01*
X121163112Y-56428137D01*
X121211863Y-56476888D01*
X121250166Y-56534213D01*
X121276550Y-56597909D01*
X121276550Y-56597911D01*
X121289980Y-56665424D01*
X121290000Y-56665528D01*
X121290000Y-56734472D01*
X121276550Y-56802091D01*
X121250166Y-56865787D01*
X121211863Y-56923112D01*
X121163112Y-56971863D01*
X121105787Y-57010166D01*
X121042091Y-57036550D01*
X120997012Y-57045517D01*
X120974473Y-57050000D01*
X120905527Y-57050000D01*
X120882988Y-57045517D01*
X120837909Y-57036550D01*
X120774213Y-57010166D01*
X120716888Y-56971863D01*
X120668137Y-56923112D01*
X120629834Y-56865787D01*
X120603450Y-56802091D01*
X120590000Y-56734472D01*
X120590000Y-56665528D01*
X120590021Y-56665424D01*
X120603450Y-56597911D01*
X120603450Y-56597909D01*
X120629834Y-56534213D01*
X120668137Y-56476888D01*
X120716888Y-56428137D01*
X120774213Y-56389834D01*
X120837909Y-56363450D01*
X120882988Y-56354483D01*
X120905527Y-56350000D01*
X120974473Y-56350000D01*
X120997012Y-56354483D01*
X120997012Y-56354483D01*
G37*
G36*
X127101388Y-56102777D02*
G01*
X127107606Y-56110354D01*
X127115183Y-56116572D01*
X127119613Y-56118940D01*
X127119511Y-56119130D01*
X127149311Y-56135058D01*
X127171627Y-56153373D01*
X127189942Y-56175689D01*
X127203548Y-56201145D01*
X127211929Y-56228772D01*
X127215000Y-56259954D01*
X127215000Y-56700046D01*
X127211929Y-56731228D01*
X127203548Y-56758855D01*
X127189942Y-56784311D01*
X127171627Y-56806627D01*
X127149311Y-56824942D01*
X127123855Y-56838548D01*
X127096228Y-56846929D01*
X127065046Y-56850000D01*
X126674954Y-56850000D01*
X126643772Y-56846929D01*
X126616145Y-56838548D01*
X126590689Y-56824942D01*
X126568373Y-56806627D01*
X126550058Y-56784311D01*
X126536452Y-56758855D01*
X126528071Y-56731228D01*
X126525000Y-56700046D01*
X126525000Y-56259954D01*
X126528071Y-56228772D01*
X126536452Y-56201145D01*
X126550058Y-56175689D01*
X126568373Y-56153373D01*
X126590689Y-56135058D01*
X126616145Y-56121452D01*
X126643772Y-56113071D01*
X126674954Y-56110000D01*
X127065043Y-56110000D01*
X127069234Y-56110413D01*
X127079035Y-56110413D01*
X127088649Y-56108502D01*
X127097704Y-56104751D01*
X127101196Y-56102418D01*
X127101388Y-56102777D01*
X127101388Y-56102777D01*
G37*
G36*
X129309460Y-55512158D02*
G01*
X129328173Y-55517835D01*
X129345424Y-55527055D01*
X129360539Y-55539461D01*
X129372945Y-55554576D01*
X129382165Y-55571827D01*
X129387842Y-55590540D01*
X129390000Y-55612453D01*
X129390000Y-55967547D01*
X129387842Y-55989460D01*
X129382165Y-56008173D01*
X129372945Y-56025424D01*
X129360539Y-56040539D01*
X129345424Y-56052945D01*
X129328136Y-56062185D01*
X129319155Y-56065905D01*
X129311005Y-56071350D01*
X129304075Y-56078281D01*
X129298629Y-56086430D01*
X129294878Y-56095486D01*
X129292966Y-56105099D01*
X129292966Y-56114900D01*
X129294878Y-56124513D01*
X129298629Y-56133569D01*
X129304074Y-56141719D01*
X129311005Y-56148649D01*
X129319154Y-56154095D01*
X129328136Y-56157815D01*
X129345424Y-56167055D01*
X129360539Y-56179461D01*
X129372945Y-56194576D01*
X129382165Y-56211827D01*
X129387842Y-56230540D01*
X129390000Y-56252453D01*
X129390000Y-56607547D01*
X129387842Y-56629460D01*
X129382165Y-56648173D01*
X129372945Y-56665424D01*
X129360539Y-56680539D01*
X129345424Y-56692945D01*
X129328173Y-56702165D01*
X129309460Y-56707842D01*
X129287547Y-56710000D01*
X128992453Y-56710000D01*
X128970540Y-56707842D01*
X128951827Y-56702165D01*
X128934576Y-56692945D01*
X128919461Y-56680539D01*
X128907055Y-56665424D01*
X128897835Y-56648173D01*
X128892158Y-56629460D01*
X128890000Y-56607547D01*
X128890000Y-56252453D01*
X128892158Y-56230540D01*
X128897835Y-56211827D01*
X128907055Y-56194576D01*
X128919461Y-56179461D01*
X128934576Y-56167055D01*
X128951864Y-56157815D01*
X128960845Y-56154095D01*
X128968995Y-56148650D01*
X128975925Y-56141719D01*
X128981371Y-56133570D01*
X128985122Y-56124514D01*
X128987034Y-56114901D01*
X128987034Y-56105100D01*
X128985122Y-56095487D01*
X128981371Y-56086431D01*
X128975926Y-56078281D01*
X128968995Y-56071351D01*
X128960846Y-56065905D01*
X128951864Y-56062185D01*
X128934576Y-56052945D01*
X128919461Y-56040539D01*
X128907055Y-56025424D01*
X128897835Y-56008173D01*
X128892158Y-55989460D01*
X128890000Y-55967547D01*
X128890000Y-55612453D01*
X128892158Y-55590540D01*
X128897835Y-55571827D01*
X128907055Y-55554576D01*
X128919461Y-55539461D01*
X128934576Y-55527055D01*
X128951827Y-55517835D01*
X128970540Y-55512158D01*
X128992453Y-55510000D01*
X129287547Y-55510000D01*
X129309460Y-55512158D01*
X129309460Y-55512158D01*
G37*
G36*
X128709460Y-55512158D02*
G01*
X128728173Y-55517835D01*
X128745424Y-55527055D01*
X128760539Y-55539461D01*
X128772945Y-55554576D01*
X128782165Y-55571827D01*
X128787842Y-55590540D01*
X128790000Y-55612453D01*
X128790000Y-55967547D01*
X128787842Y-55989460D01*
X128782165Y-56008173D01*
X128772945Y-56025424D01*
X128760539Y-56040539D01*
X128745424Y-56052945D01*
X128728136Y-56062185D01*
X128719155Y-56065905D01*
X128711005Y-56071350D01*
X128704075Y-56078281D01*
X128698629Y-56086430D01*
X128694878Y-56095486D01*
X128692966Y-56105099D01*
X128692966Y-56114900D01*
X128694878Y-56124513D01*
X128698629Y-56133569D01*
X128704074Y-56141719D01*
X128711005Y-56148649D01*
X128719154Y-56154095D01*
X128728136Y-56157815D01*
X128745424Y-56167055D01*
X128760539Y-56179461D01*
X128772945Y-56194576D01*
X128782165Y-56211827D01*
X128787842Y-56230540D01*
X128790000Y-56252453D01*
X128790000Y-56607547D01*
X128787842Y-56629460D01*
X128782165Y-56648173D01*
X128772945Y-56665424D01*
X128760539Y-56680539D01*
X128745424Y-56692945D01*
X128728173Y-56702165D01*
X128709460Y-56707842D01*
X128687547Y-56710000D01*
X128392453Y-56710000D01*
X128370540Y-56707842D01*
X128351827Y-56702165D01*
X128334576Y-56692945D01*
X128319461Y-56680539D01*
X128307055Y-56665424D01*
X128297835Y-56648173D01*
X128292158Y-56629460D01*
X128290000Y-56607547D01*
X128290000Y-56252453D01*
X128292158Y-56230540D01*
X128297835Y-56211827D01*
X128307055Y-56194576D01*
X128319461Y-56179461D01*
X128334576Y-56167055D01*
X128351864Y-56157815D01*
X128360845Y-56154095D01*
X128368995Y-56148650D01*
X128375925Y-56141719D01*
X128381371Y-56133570D01*
X128385122Y-56124514D01*
X128387034Y-56114901D01*
X128387034Y-56105100D01*
X128385122Y-56095487D01*
X128381371Y-56086431D01*
X128375926Y-56078281D01*
X128368995Y-56071351D01*
X128360846Y-56065905D01*
X128351864Y-56062185D01*
X128334576Y-56052945D01*
X128319461Y-56040539D01*
X128307055Y-56025424D01*
X128297835Y-56008173D01*
X128292158Y-55989460D01*
X128290000Y-55967547D01*
X128290000Y-55612453D01*
X128292158Y-55590540D01*
X128297835Y-55571827D01*
X128307055Y-55554576D01*
X128319461Y-55539461D01*
X128334576Y-55527055D01*
X128351827Y-55517835D01*
X128370540Y-55512158D01*
X128392453Y-55510000D01*
X128687547Y-55510000D01*
X128709460Y-55512158D01*
X128709460Y-55512158D01*
G37*
G36*
X123958338Y-56207685D02*
G01*
X123994736Y-56222762D01*
X124027488Y-56244646D01*
X124027490Y-56244648D01*
X124027493Y-56244650D01*
X124055350Y-56272507D01*
X124055352Y-56272510D01*
X124055354Y-56272512D01*
X124077238Y-56305264D01*
X124092315Y-56341662D01*
X124100000Y-56380300D01*
X124100000Y-56419700D01*
X124092315Y-56458338D01*
X124077238Y-56494736D01*
X124055354Y-56527488D01*
X124055352Y-56527490D01*
X124055350Y-56527493D01*
X124027493Y-56555350D01*
X124027490Y-56555352D01*
X124027488Y-56555354D01*
X123994736Y-56577238D01*
X123958338Y-56592315D01*
X123919700Y-56600000D01*
X123880300Y-56600000D01*
X123841662Y-56592315D01*
X123805264Y-56577238D01*
X123772512Y-56555354D01*
X123772510Y-56555352D01*
X123772507Y-56555350D01*
X123744650Y-56527493D01*
X123744648Y-56527490D01*
X123744646Y-56527488D01*
X123722762Y-56494736D01*
X123707685Y-56458338D01*
X123700000Y-56419700D01*
X123700000Y-56380300D01*
X123707685Y-56341662D01*
X123722762Y-56305264D01*
X123744646Y-56272512D01*
X123744648Y-56272510D01*
X123744650Y-56272507D01*
X123772507Y-56244650D01*
X123772510Y-56244648D01*
X123772512Y-56244646D01*
X123805264Y-56222762D01*
X123841662Y-56207685D01*
X123880300Y-56200000D01*
X123919700Y-56200000D01*
X123958338Y-56207685D01*
X123958338Y-56207685D01*
G37*
G36*
X125458338Y-56207685D02*
G01*
X125494736Y-56222762D01*
X125527488Y-56244646D01*
X125527490Y-56244648D01*
X125527493Y-56244650D01*
X125555350Y-56272507D01*
X125555352Y-56272510D01*
X125555354Y-56272512D01*
X125577238Y-56305264D01*
X125592315Y-56341662D01*
X125600000Y-56380300D01*
X125600000Y-56419700D01*
X125592315Y-56458338D01*
X125577238Y-56494736D01*
X125555354Y-56527488D01*
X125555352Y-56527490D01*
X125555350Y-56527493D01*
X125527493Y-56555350D01*
X125527490Y-56555352D01*
X125527488Y-56555354D01*
X125494736Y-56577238D01*
X125458338Y-56592315D01*
X125419700Y-56600000D01*
X125380300Y-56600000D01*
X125341662Y-56592315D01*
X125305264Y-56577238D01*
X125272512Y-56555354D01*
X125272510Y-56555352D01*
X125272507Y-56555350D01*
X125244650Y-56527493D01*
X125244648Y-56527490D01*
X125244646Y-56527488D01*
X125222762Y-56494736D01*
X125207685Y-56458338D01*
X125200000Y-56419700D01*
X125200000Y-56380300D01*
X125207685Y-56341662D01*
X125222762Y-56305264D01*
X125244646Y-56272512D01*
X125244648Y-56272510D01*
X125244650Y-56272507D01*
X125272507Y-56244650D01*
X125272510Y-56244648D01*
X125272512Y-56244646D01*
X125305264Y-56222762D01*
X125341662Y-56207685D01*
X125380300Y-56200000D01*
X125419700Y-56200000D01*
X125458338Y-56207685D01*
X125458338Y-56207685D01*
G37*
G36*
X124958338Y-56207685D02*
G01*
X124994736Y-56222762D01*
X125027488Y-56244646D01*
X125027490Y-56244648D01*
X125027493Y-56244650D01*
X125055350Y-56272507D01*
X125055352Y-56272510D01*
X125055354Y-56272512D01*
X125077238Y-56305264D01*
X125092315Y-56341662D01*
X125100000Y-56380300D01*
X125100000Y-56419700D01*
X125092315Y-56458338D01*
X125077238Y-56494736D01*
X125055354Y-56527488D01*
X125055352Y-56527490D01*
X125055350Y-56527493D01*
X125027493Y-56555350D01*
X125027490Y-56555352D01*
X125027488Y-56555354D01*
X124994736Y-56577238D01*
X124958338Y-56592315D01*
X124919700Y-56600000D01*
X124880300Y-56600000D01*
X124841662Y-56592315D01*
X124805264Y-56577238D01*
X124772512Y-56555354D01*
X124772510Y-56555352D01*
X124772507Y-56555350D01*
X124744650Y-56527493D01*
X124744648Y-56527490D01*
X124744646Y-56527488D01*
X124722762Y-56494736D01*
X124707685Y-56458338D01*
X124700000Y-56419700D01*
X124700000Y-56380300D01*
X124707685Y-56341662D01*
X124722762Y-56305264D01*
X124744646Y-56272512D01*
X124744648Y-56272510D01*
X124744650Y-56272507D01*
X124772507Y-56244650D01*
X124772510Y-56244648D01*
X124772512Y-56244646D01*
X124805264Y-56222762D01*
X124841662Y-56207685D01*
X124880300Y-56200000D01*
X124919700Y-56200000D01*
X124958338Y-56207685D01*
X124958338Y-56207685D01*
G37*
G36*
X123458338Y-56207685D02*
G01*
X123494736Y-56222762D01*
X123527488Y-56244646D01*
X123527490Y-56244648D01*
X123527493Y-56244650D01*
X123555350Y-56272507D01*
X123555352Y-56272510D01*
X123555354Y-56272512D01*
X123577238Y-56305264D01*
X123592315Y-56341662D01*
X123600000Y-56380300D01*
X123600000Y-56419700D01*
X123592315Y-56458338D01*
X123577238Y-56494736D01*
X123555354Y-56527488D01*
X123555352Y-56527490D01*
X123555350Y-56527493D01*
X123527493Y-56555350D01*
X123527490Y-56555352D01*
X123527488Y-56555354D01*
X123494736Y-56577238D01*
X123458338Y-56592315D01*
X123419700Y-56600000D01*
X123380300Y-56600000D01*
X123341662Y-56592315D01*
X123305264Y-56577238D01*
X123272512Y-56555354D01*
X123272510Y-56555352D01*
X123272507Y-56555350D01*
X123244650Y-56527493D01*
X123244648Y-56527490D01*
X123244646Y-56527488D01*
X123222762Y-56494736D01*
X123207685Y-56458338D01*
X123200000Y-56419700D01*
X123200000Y-56380300D01*
X123207685Y-56341662D01*
X123222762Y-56305264D01*
X123244646Y-56272512D01*
X123244648Y-56272510D01*
X123244650Y-56272507D01*
X123272507Y-56244650D01*
X123272510Y-56244648D01*
X123272512Y-56244646D01*
X123305264Y-56222762D01*
X123341662Y-56207685D01*
X123380300Y-56200000D01*
X123419700Y-56200000D01*
X123458338Y-56207685D01*
X123458338Y-56207685D01*
G37*
G36*
X124458338Y-56207685D02*
G01*
X124494736Y-56222762D01*
X124527488Y-56244646D01*
X124527490Y-56244648D01*
X124527493Y-56244650D01*
X124555350Y-56272507D01*
X124555352Y-56272510D01*
X124555354Y-56272512D01*
X124577238Y-56305264D01*
X124592315Y-56341662D01*
X124600000Y-56380300D01*
X124600000Y-56419700D01*
X124592315Y-56458338D01*
X124577238Y-56494736D01*
X124555354Y-56527488D01*
X124555352Y-56527490D01*
X124555350Y-56527493D01*
X124527493Y-56555350D01*
X124527490Y-56555352D01*
X124527488Y-56555354D01*
X124494736Y-56577238D01*
X124458338Y-56592315D01*
X124419700Y-56600000D01*
X124380300Y-56600000D01*
X124341662Y-56592315D01*
X124305264Y-56577238D01*
X124272512Y-56555354D01*
X124272510Y-56555352D01*
X124272507Y-56555350D01*
X124244650Y-56527493D01*
X124244648Y-56527490D01*
X124244646Y-56527488D01*
X124222762Y-56494736D01*
X124207685Y-56458338D01*
X124200000Y-56419700D01*
X124200000Y-56380300D01*
X124207685Y-56341662D01*
X124222762Y-56305264D01*
X124244646Y-56272512D01*
X124244648Y-56272510D01*
X124244650Y-56272507D01*
X124272507Y-56244650D01*
X124272510Y-56244648D01*
X124272512Y-56244646D01*
X124305264Y-56222762D01*
X124341662Y-56207685D01*
X124380300Y-56200000D01*
X124419700Y-56200000D01*
X124458338Y-56207685D01*
X124458338Y-56207685D01*
G37*
G36*
X122958338Y-56207685D02*
G01*
X122994736Y-56222762D01*
X123027488Y-56244646D01*
X123027490Y-56244648D01*
X123027493Y-56244650D01*
X123055350Y-56272507D01*
X123055352Y-56272510D01*
X123055354Y-56272512D01*
X123077238Y-56305264D01*
X123092315Y-56341662D01*
X123100000Y-56380300D01*
X123100000Y-56419700D01*
X123092315Y-56458338D01*
X123077238Y-56494736D01*
X123055354Y-56527488D01*
X123055352Y-56527490D01*
X123055350Y-56527493D01*
X123027493Y-56555350D01*
X123027490Y-56555352D01*
X123027488Y-56555354D01*
X122994736Y-56577238D01*
X122958338Y-56592315D01*
X122919700Y-56600000D01*
X122880300Y-56600000D01*
X122841662Y-56592315D01*
X122805264Y-56577238D01*
X122772512Y-56555354D01*
X122772510Y-56555352D01*
X122772507Y-56555350D01*
X122744650Y-56527493D01*
X122744648Y-56527490D01*
X122744646Y-56527488D01*
X122722762Y-56494736D01*
X122707685Y-56458338D01*
X122700000Y-56419700D01*
X122700000Y-56380300D01*
X122707685Y-56341662D01*
X122722762Y-56305264D01*
X122744646Y-56272512D01*
X122744648Y-56272510D01*
X122744650Y-56272507D01*
X122772507Y-56244650D01*
X122772510Y-56244648D01*
X122772512Y-56244646D01*
X122805264Y-56222762D01*
X122841662Y-56207685D01*
X122880300Y-56200000D01*
X122919700Y-56200000D01*
X122958338Y-56207685D01*
X122958338Y-56207685D01*
G37*
G36*
X122458338Y-56207685D02*
G01*
X122494736Y-56222762D01*
X122527488Y-56244646D01*
X122527490Y-56244648D01*
X122527493Y-56244650D01*
X122555350Y-56272507D01*
X122555352Y-56272510D01*
X122555354Y-56272512D01*
X122577238Y-56305264D01*
X122592315Y-56341662D01*
X122600000Y-56380300D01*
X122600000Y-56419700D01*
X122592315Y-56458338D01*
X122577238Y-56494736D01*
X122555354Y-56527488D01*
X122555352Y-56527490D01*
X122555350Y-56527493D01*
X122527493Y-56555350D01*
X122527490Y-56555352D01*
X122527488Y-56555354D01*
X122494736Y-56577238D01*
X122458338Y-56592315D01*
X122419700Y-56600000D01*
X122380300Y-56600000D01*
X122341662Y-56592315D01*
X122305264Y-56577238D01*
X122272512Y-56555354D01*
X122272510Y-56555352D01*
X122272507Y-56555350D01*
X122244650Y-56527493D01*
X122244648Y-56527490D01*
X122244646Y-56527488D01*
X122222762Y-56494736D01*
X122207685Y-56458338D01*
X122200000Y-56419700D01*
X122200000Y-56380300D01*
X122207685Y-56341662D01*
X122222762Y-56305264D01*
X122244646Y-56272512D01*
X122244648Y-56272510D01*
X122244650Y-56272507D01*
X122272507Y-56244650D01*
X122272510Y-56244648D01*
X122272512Y-56244646D01*
X122305264Y-56222762D01*
X122341662Y-56207685D01*
X122380300Y-56200000D01*
X122419700Y-56200000D01*
X122458338Y-56207685D01*
X122458338Y-56207685D01*
G37*
G36*
X121958338Y-56207685D02*
G01*
X121994736Y-56222762D01*
X122027488Y-56244646D01*
X122027490Y-56244648D01*
X122027493Y-56244650D01*
X122055350Y-56272507D01*
X122055352Y-56272510D01*
X122055354Y-56272512D01*
X122077238Y-56305264D01*
X122092315Y-56341662D01*
X122100000Y-56380300D01*
X122100000Y-56419700D01*
X122092315Y-56458338D01*
X122077238Y-56494736D01*
X122055354Y-56527488D01*
X122055352Y-56527490D01*
X122055350Y-56527493D01*
X122027493Y-56555350D01*
X122027490Y-56555352D01*
X122027488Y-56555354D01*
X121994736Y-56577238D01*
X121958338Y-56592315D01*
X121919700Y-56600000D01*
X121880300Y-56600000D01*
X121841662Y-56592315D01*
X121805264Y-56577238D01*
X121772512Y-56555354D01*
X121772510Y-56555352D01*
X121772507Y-56555350D01*
X121744650Y-56527493D01*
X121744648Y-56527490D01*
X121744646Y-56527488D01*
X121722762Y-56494736D01*
X121707685Y-56458338D01*
X121700000Y-56419700D01*
X121700000Y-56380300D01*
X121707685Y-56341662D01*
X121722762Y-56305264D01*
X121744646Y-56272512D01*
X121744648Y-56272510D01*
X121744650Y-56272507D01*
X121772507Y-56244650D01*
X121772510Y-56244648D01*
X121772512Y-56244646D01*
X121805264Y-56222762D01*
X121841662Y-56207685D01*
X121880300Y-56200000D01*
X121919700Y-56200000D01*
X121958338Y-56207685D01*
X121958338Y-56207685D01*
G37*
G36*
X123958338Y-55707685D02*
G01*
X123994736Y-55722762D01*
X124027488Y-55744646D01*
X124027490Y-55744648D01*
X124027493Y-55744650D01*
X124055350Y-55772507D01*
X124055352Y-55772510D01*
X124055354Y-55772512D01*
X124077238Y-55805264D01*
X124092315Y-55841662D01*
X124100000Y-55880300D01*
X124100000Y-55919700D01*
X124092315Y-55958338D01*
X124077238Y-55994736D01*
X124055354Y-56027488D01*
X124055352Y-56027490D01*
X124055350Y-56027493D01*
X124027493Y-56055350D01*
X124027490Y-56055352D01*
X124027488Y-56055354D01*
X123994736Y-56077238D01*
X123958338Y-56092315D01*
X123919700Y-56100000D01*
X123880300Y-56100000D01*
X123841662Y-56092315D01*
X123805264Y-56077238D01*
X123772512Y-56055354D01*
X123772510Y-56055352D01*
X123772507Y-56055350D01*
X123744650Y-56027493D01*
X123744648Y-56027490D01*
X123744646Y-56027488D01*
X123722762Y-55994736D01*
X123707685Y-55958338D01*
X123700000Y-55919700D01*
X123700000Y-55880300D01*
X123707685Y-55841662D01*
X123722762Y-55805264D01*
X123744646Y-55772512D01*
X123744648Y-55772510D01*
X123744650Y-55772507D01*
X123772507Y-55744650D01*
X123772510Y-55744648D01*
X123772512Y-55744646D01*
X123805264Y-55722762D01*
X123841662Y-55707685D01*
X123880300Y-55700000D01*
X123919700Y-55700000D01*
X123958338Y-55707685D01*
X123958338Y-55707685D01*
G37*
G36*
X121958338Y-55707685D02*
G01*
X121994736Y-55722762D01*
X122027488Y-55744646D01*
X122027490Y-55744648D01*
X122027493Y-55744650D01*
X122055350Y-55772507D01*
X122055352Y-55772510D01*
X122055354Y-55772512D01*
X122077238Y-55805264D01*
X122092315Y-55841662D01*
X122100000Y-55880300D01*
X122100000Y-55919700D01*
X122092315Y-55958338D01*
X122077238Y-55994736D01*
X122055354Y-56027488D01*
X122055352Y-56027490D01*
X122055350Y-56027493D01*
X122027493Y-56055350D01*
X122027490Y-56055352D01*
X122027488Y-56055354D01*
X121994736Y-56077238D01*
X121958338Y-56092315D01*
X121919700Y-56100000D01*
X121880300Y-56100000D01*
X121841662Y-56092315D01*
X121805264Y-56077238D01*
X121772512Y-56055354D01*
X121772510Y-56055352D01*
X121772507Y-56055350D01*
X121744650Y-56027493D01*
X121744648Y-56027490D01*
X121744646Y-56027488D01*
X121722762Y-55994736D01*
X121707685Y-55958338D01*
X121700000Y-55919700D01*
X121700000Y-55880300D01*
X121707685Y-55841662D01*
X121722762Y-55805264D01*
X121744646Y-55772512D01*
X121744648Y-55772510D01*
X121744650Y-55772507D01*
X121772507Y-55744650D01*
X121772510Y-55744648D01*
X121772512Y-55744646D01*
X121805264Y-55722762D01*
X121841662Y-55707685D01*
X121880300Y-55700000D01*
X121919700Y-55700000D01*
X121958338Y-55707685D01*
X121958338Y-55707685D01*
G37*
G36*
X124958338Y-55707685D02*
G01*
X124994736Y-55722762D01*
X125027488Y-55744646D01*
X125027490Y-55744648D01*
X125027493Y-55744650D01*
X125055350Y-55772507D01*
X125055352Y-55772510D01*
X125055354Y-55772512D01*
X125077238Y-55805264D01*
X125092315Y-55841662D01*
X125100000Y-55880300D01*
X125100000Y-55919700D01*
X125092315Y-55958338D01*
X125077238Y-55994736D01*
X125055354Y-56027488D01*
X125055352Y-56027490D01*
X125055350Y-56027493D01*
X125027493Y-56055350D01*
X125027490Y-56055352D01*
X125027488Y-56055354D01*
X124994736Y-56077238D01*
X124958338Y-56092315D01*
X124919700Y-56100000D01*
X124880300Y-56100000D01*
X124841662Y-56092315D01*
X124805264Y-56077238D01*
X124772512Y-56055354D01*
X124772510Y-56055352D01*
X124772507Y-56055350D01*
X124744650Y-56027493D01*
X124744648Y-56027490D01*
X124744646Y-56027488D01*
X124722762Y-55994736D01*
X124707685Y-55958338D01*
X124700000Y-55919700D01*
X124700000Y-55880300D01*
X124707685Y-55841662D01*
X124722762Y-55805264D01*
X124744646Y-55772512D01*
X124744648Y-55772510D01*
X124744650Y-55772507D01*
X124772507Y-55744650D01*
X124772510Y-55744648D01*
X124772512Y-55744646D01*
X124805264Y-55722762D01*
X124841662Y-55707685D01*
X124880300Y-55700000D01*
X124919700Y-55700000D01*
X124958338Y-55707685D01*
X124958338Y-55707685D01*
G37*
G36*
X125458338Y-55707685D02*
G01*
X125494736Y-55722762D01*
X125527488Y-55744646D01*
X125527490Y-55744648D01*
X125527493Y-55744650D01*
X125555350Y-55772507D01*
X125555352Y-55772510D01*
X125555354Y-55772512D01*
X125577238Y-55805264D01*
X125592315Y-55841662D01*
X125600000Y-55880300D01*
X125600000Y-55919700D01*
X125592315Y-55958338D01*
X125577238Y-55994736D01*
X125555354Y-56027488D01*
X125555352Y-56027490D01*
X125555350Y-56027493D01*
X125527493Y-56055350D01*
X125527490Y-56055352D01*
X125527488Y-56055354D01*
X125494736Y-56077238D01*
X125458338Y-56092315D01*
X125419700Y-56100000D01*
X125380300Y-56100000D01*
X125341662Y-56092315D01*
X125305264Y-56077238D01*
X125272512Y-56055354D01*
X125272510Y-56055352D01*
X125272507Y-56055350D01*
X125244650Y-56027493D01*
X125244648Y-56027490D01*
X125244646Y-56027488D01*
X125222762Y-55994736D01*
X125207685Y-55958338D01*
X125200000Y-55919700D01*
X125200000Y-55880300D01*
X125207685Y-55841662D01*
X125222762Y-55805264D01*
X125244646Y-55772512D01*
X125244648Y-55772510D01*
X125244650Y-55772507D01*
X125272507Y-55744650D01*
X125272510Y-55744648D01*
X125272512Y-55744646D01*
X125305264Y-55722762D01*
X125341662Y-55707685D01*
X125380300Y-55700000D01*
X125419700Y-55700000D01*
X125458338Y-55707685D01*
X125458338Y-55707685D01*
G37*
G36*
X122958338Y-55707685D02*
G01*
X122994736Y-55722762D01*
X123027488Y-55744646D01*
X123027490Y-55744648D01*
X123027493Y-55744650D01*
X123055350Y-55772507D01*
X123055352Y-55772510D01*
X123055354Y-55772512D01*
X123077238Y-55805264D01*
X123092315Y-55841662D01*
X123100000Y-55880300D01*
X123100000Y-55919700D01*
X123092315Y-55958338D01*
X123077238Y-55994736D01*
X123055354Y-56027488D01*
X123055352Y-56027490D01*
X123055350Y-56027493D01*
X123027493Y-56055350D01*
X123027490Y-56055352D01*
X123027488Y-56055354D01*
X122994736Y-56077238D01*
X122958338Y-56092315D01*
X122919700Y-56100000D01*
X122880300Y-56100000D01*
X122841662Y-56092315D01*
X122805264Y-56077238D01*
X122772512Y-56055354D01*
X122772510Y-56055352D01*
X122772507Y-56055350D01*
X122744650Y-56027493D01*
X122744648Y-56027490D01*
X122744646Y-56027488D01*
X122722762Y-55994736D01*
X122707685Y-55958338D01*
X122700000Y-55919700D01*
X122700000Y-55880300D01*
X122707685Y-55841662D01*
X122722762Y-55805264D01*
X122744646Y-55772512D01*
X122744648Y-55772510D01*
X122744650Y-55772507D01*
X122772507Y-55744650D01*
X122772510Y-55744648D01*
X122772512Y-55744646D01*
X122805264Y-55722762D01*
X122841662Y-55707685D01*
X122880300Y-55700000D01*
X122919700Y-55700000D01*
X122958338Y-55707685D01*
X122958338Y-55707685D01*
G37*
G36*
X125958338Y-55707685D02*
G01*
X125994736Y-55722762D01*
X126027488Y-55744646D01*
X126027490Y-55744648D01*
X126027493Y-55744650D01*
X126055350Y-55772507D01*
X126055352Y-55772510D01*
X126055354Y-55772512D01*
X126077238Y-55805264D01*
X126092315Y-55841662D01*
X126100000Y-55880300D01*
X126100000Y-55919700D01*
X126092315Y-55958338D01*
X126077238Y-55994736D01*
X126055354Y-56027488D01*
X126055352Y-56027490D01*
X126055350Y-56027493D01*
X126027493Y-56055350D01*
X126027490Y-56055352D01*
X126027488Y-56055354D01*
X125994736Y-56077238D01*
X125958338Y-56092315D01*
X125919700Y-56100000D01*
X125880300Y-56100000D01*
X125841662Y-56092315D01*
X125805264Y-56077238D01*
X125772512Y-56055354D01*
X125772510Y-56055352D01*
X125772507Y-56055350D01*
X125744650Y-56027493D01*
X125744648Y-56027490D01*
X125744646Y-56027488D01*
X125722762Y-55994736D01*
X125707685Y-55958338D01*
X125700000Y-55919700D01*
X125700000Y-55880300D01*
X125707685Y-55841662D01*
X125722762Y-55805264D01*
X125744646Y-55772512D01*
X125744648Y-55772510D01*
X125744650Y-55772507D01*
X125772507Y-55744650D01*
X125772510Y-55744648D01*
X125772512Y-55744646D01*
X125805264Y-55722762D01*
X125841662Y-55707685D01*
X125880300Y-55700000D01*
X125919700Y-55700000D01*
X125958338Y-55707685D01*
X125958338Y-55707685D01*
G37*
G36*
X123458338Y-55707685D02*
G01*
X123494736Y-55722762D01*
X123527488Y-55744646D01*
X123527490Y-55744648D01*
X123527493Y-55744650D01*
X123555350Y-55772507D01*
X123555352Y-55772510D01*
X123555354Y-55772512D01*
X123577238Y-55805264D01*
X123592315Y-55841662D01*
X123600000Y-55880300D01*
X123600000Y-55919700D01*
X123592315Y-55958338D01*
X123577238Y-55994736D01*
X123555354Y-56027488D01*
X123555352Y-56027490D01*
X123555350Y-56027493D01*
X123527493Y-56055350D01*
X123527490Y-56055352D01*
X123527488Y-56055354D01*
X123494736Y-56077238D01*
X123458338Y-56092315D01*
X123419700Y-56100000D01*
X123380300Y-56100000D01*
X123341662Y-56092315D01*
X123305264Y-56077238D01*
X123272512Y-56055354D01*
X123272510Y-56055352D01*
X123272507Y-56055350D01*
X123244650Y-56027493D01*
X123244648Y-56027490D01*
X123244646Y-56027488D01*
X123222762Y-55994736D01*
X123207685Y-55958338D01*
X123200000Y-55919700D01*
X123200000Y-55880300D01*
X123207685Y-55841662D01*
X123222762Y-55805264D01*
X123244646Y-55772512D01*
X123244648Y-55772510D01*
X123244650Y-55772507D01*
X123272507Y-55744650D01*
X123272510Y-55744648D01*
X123272512Y-55744646D01*
X123305264Y-55722762D01*
X123341662Y-55707685D01*
X123380300Y-55700000D01*
X123419700Y-55700000D01*
X123458338Y-55707685D01*
X123458338Y-55707685D01*
G37*
G36*
X124458338Y-55707685D02*
G01*
X124494736Y-55722762D01*
X124527488Y-55744646D01*
X124527490Y-55744648D01*
X124527493Y-55744650D01*
X124555350Y-55772507D01*
X124555352Y-55772510D01*
X124555354Y-55772512D01*
X124577238Y-55805264D01*
X124592315Y-55841662D01*
X124600000Y-55880300D01*
X124600000Y-55919700D01*
X124592315Y-55958338D01*
X124577238Y-55994736D01*
X124555354Y-56027488D01*
X124555352Y-56027490D01*
X124555350Y-56027493D01*
X124527493Y-56055350D01*
X124527490Y-56055352D01*
X124527488Y-56055354D01*
X124494736Y-56077238D01*
X124458338Y-56092315D01*
X124419700Y-56100000D01*
X124380300Y-56100000D01*
X124341662Y-56092315D01*
X124305264Y-56077238D01*
X124272512Y-56055354D01*
X124272510Y-56055352D01*
X124272507Y-56055350D01*
X124244650Y-56027493D01*
X124244648Y-56027490D01*
X124244646Y-56027488D01*
X124222762Y-55994736D01*
X124207685Y-55958338D01*
X124200000Y-55919700D01*
X124200000Y-55880300D01*
X124207685Y-55841662D01*
X124222762Y-55805264D01*
X124244646Y-55772512D01*
X124244648Y-55772510D01*
X124244650Y-55772507D01*
X124272507Y-55744650D01*
X124272510Y-55744648D01*
X124272512Y-55744646D01*
X124305264Y-55722762D01*
X124341662Y-55707685D01*
X124380300Y-55700000D01*
X124419700Y-55700000D01*
X124458338Y-55707685D01*
X124458338Y-55707685D01*
G37*
G36*
X122458338Y-55707685D02*
G01*
X122494736Y-55722762D01*
X122527488Y-55744646D01*
X122527490Y-55744648D01*
X122527493Y-55744650D01*
X122555350Y-55772507D01*
X122555352Y-55772510D01*
X122555354Y-55772512D01*
X122577238Y-55805264D01*
X122592315Y-55841662D01*
X122600000Y-55880300D01*
X122600000Y-55919700D01*
X122592315Y-55958338D01*
X122577238Y-55994736D01*
X122555354Y-56027488D01*
X122555352Y-56027490D01*
X122555350Y-56027493D01*
X122527493Y-56055350D01*
X122527490Y-56055352D01*
X122527488Y-56055354D01*
X122494736Y-56077238D01*
X122458338Y-56092315D01*
X122419700Y-56100000D01*
X122380300Y-56100000D01*
X122341662Y-56092315D01*
X122305264Y-56077238D01*
X122272512Y-56055354D01*
X122272510Y-56055352D01*
X122272507Y-56055350D01*
X122244650Y-56027493D01*
X122244648Y-56027490D01*
X122244646Y-56027488D01*
X122222762Y-55994736D01*
X122207685Y-55958338D01*
X122200000Y-55919700D01*
X122200000Y-55880300D01*
X122207685Y-55841662D01*
X122222762Y-55805264D01*
X122244646Y-55772512D01*
X122244648Y-55772510D01*
X122244650Y-55772507D01*
X122272507Y-55744650D01*
X122272510Y-55744648D01*
X122272512Y-55744646D01*
X122305264Y-55722762D01*
X122341662Y-55707685D01*
X122380300Y-55700000D01*
X122419700Y-55700000D01*
X122458338Y-55707685D01*
X122458338Y-55707685D01*
G37*
G36*
X127434705Y-55476197D02*
G01*
X127444041Y-55479030D01*
X127452646Y-55483629D01*
X127460185Y-55489815D01*
X127466371Y-55497354D01*
X127470970Y-55505959D01*
X127473803Y-55515295D01*
X127475000Y-55527452D01*
X127475000Y-55972548D01*
X127473803Y-55984705D01*
X127470970Y-55994041D01*
X127466371Y-56002646D01*
X127460185Y-56010185D01*
X127452646Y-56016371D01*
X127444041Y-56020970D01*
X127434705Y-56023803D01*
X127422548Y-56025000D01*
X127142961Y-56025000D01*
X127133207Y-56025961D01*
X127123827Y-56028806D01*
X127115628Y-56033188D01*
X127112788Y-56028938D01*
X127105858Y-56022007D01*
X127097710Y-56016562D01*
X127097356Y-56016373D01*
X127089815Y-56010185D01*
X127083629Y-56002646D01*
X127079030Y-55994041D01*
X127076197Y-55984705D01*
X127075000Y-55972548D01*
X127075000Y-55527452D01*
X127076197Y-55515295D01*
X127079030Y-55505959D01*
X127083629Y-55497354D01*
X127089815Y-55489815D01*
X127097354Y-55483629D01*
X127105959Y-55479030D01*
X127115295Y-55476197D01*
X127127452Y-55475000D01*
X127422548Y-55475000D01*
X127434705Y-55476197D01*
X127434705Y-55476197D01*
G37*
G36*
X128084705Y-55301197D02*
G01*
X128094041Y-55304030D01*
X128102646Y-55308629D01*
X128110185Y-55314815D01*
X128116371Y-55322354D01*
X128120970Y-55330959D01*
X128123803Y-55340295D01*
X128125000Y-55352452D01*
X128125000Y-55647548D01*
X128123803Y-55659705D01*
X128120970Y-55669041D01*
X128116371Y-55677646D01*
X128110185Y-55685185D01*
X128102646Y-55691371D01*
X128094041Y-55695970D01*
X128084705Y-55698803D01*
X128072548Y-55700000D01*
X127627452Y-55700000D01*
X127615295Y-55698803D01*
X127605959Y-55695970D01*
X127597354Y-55691371D01*
X127589815Y-55685185D01*
X127583629Y-55677646D01*
X127579030Y-55669041D01*
X127576197Y-55659705D01*
X127575000Y-55647548D01*
X127575000Y-55352452D01*
X127576197Y-55340295D01*
X127579030Y-55330959D01*
X127583629Y-55322354D01*
X127589815Y-55314815D01*
X127597354Y-55308629D01*
X127605959Y-55304030D01*
X127615295Y-55301197D01*
X127627452Y-55300000D01*
X128072548Y-55300000D01*
X128084705Y-55301197D01*
X128084705Y-55301197D01*
G37*
G36*
X126934705Y-55301197D02*
G01*
X126944041Y-55304030D01*
X126952646Y-55308629D01*
X126960185Y-55314815D01*
X126966371Y-55322354D01*
X126970970Y-55330959D01*
X126973803Y-55340295D01*
X126975000Y-55352452D01*
X126975000Y-55647548D01*
X126973803Y-55659705D01*
X126970970Y-55669041D01*
X126966371Y-55677646D01*
X126960185Y-55685185D01*
X126952646Y-55691371D01*
X126944041Y-55695970D01*
X126934705Y-55698803D01*
X126922548Y-55700000D01*
X126477452Y-55700000D01*
X126465295Y-55698803D01*
X126455959Y-55695970D01*
X126447354Y-55691371D01*
X126439815Y-55685185D01*
X126433629Y-55677646D01*
X126429030Y-55669041D01*
X126426197Y-55659705D01*
X126425000Y-55647548D01*
X126425000Y-55352452D01*
X126426197Y-55340295D01*
X126429030Y-55330959D01*
X126433629Y-55322354D01*
X126439815Y-55314815D01*
X126447354Y-55308629D01*
X126455959Y-55304030D01*
X126465295Y-55301197D01*
X126477452Y-55300000D01*
X126922548Y-55300000D01*
X126934705Y-55301197D01*
X126934705Y-55301197D01*
G37*
G36*
X122958338Y-55207685D02*
G01*
X122994736Y-55222762D01*
X123027488Y-55244646D01*
X123027490Y-55244648D01*
X123027493Y-55244650D01*
X123055350Y-55272507D01*
X123055352Y-55272510D01*
X123055354Y-55272512D01*
X123077238Y-55305264D01*
X123092315Y-55341662D01*
X123100000Y-55380300D01*
X123100000Y-55419700D01*
X123092315Y-55458338D01*
X123077238Y-55494736D01*
X123055354Y-55527488D01*
X123055352Y-55527490D01*
X123055350Y-55527493D01*
X123027493Y-55555350D01*
X123027490Y-55555352D01*
X123027488Y-55555354D01*
X122994736Y-55577238D01*
X122958338Y-55592315D01*
X122919700Y-55600000D01*
X122880300Y-55600000D01*
X122841662Y-55592315D01*
X122805264Y-55577238D01*
X122772512Y-55555354D01*
X122772510Y-55555352D01*
X122772507Y-55555350D01*
X122744650Y-55527493D01*
X122744648Y-55527490D01*
X122744646Y-55527488D01*
X122722762Y-55494736D01*
X122707685Y-55458338D01*
X122700000Y-55419700D01*
X122700000Y-55380300D01*
X122707685Y-55341662D01*
X122722762Y-55305264D01*
X122744646Y-55272512D01*
X122744648Y-55272510D01*
X122744650Y-55272507D01*
X122772507Y-55244650D01*
X122772510Y-55244648D01*
X122772512Y-55244646D01*
X122805264Y-55222762D01*
X122841662Y-55207685D01*
X122880300Y-55200000D01*
X122919700Y-55200000D01*
X122958338Y-55207685D01*
X122958338Y-55207685D01*
G37*
G36*
X123458338Y-55207685D02*
G01*
X123494736Y-55222762D01*
X123527488Y-55244646D01*
X123527490Y-55244648D01*
X123527493Y-55244650D01*
X123555350Y-55272507D01*
X123555352Y-55272510D01*
X123555354Y-55272512D01*
X123577238Y-55305264D01*
X123592315Y-55341662D01*
X123600000Y-55380300D01*
X123600000Y-55419700D01*
X123592315Y-55458338D01*
X123577238Y-55494736D01*
X123555354Y-55527488D01*
X123555352Y-55527490D01*
X123555350Y-55527493D01*
X123527493Y-55555350D01*
X123527490Y-55555352D01*
X123527488Y-55555354D01*
X123494736Y-55577238D01*
X123458338Y-55592315D01*
X123419700Y-55600000D01*
X123380300Y-55600000D01*
X123341662Y-55592315D01*
X123305264Y-55577238D01*
X123272512Y-55555354D01*
X123272510Y-55555352D01*
X123272507Y-55555350D01*
X123244650Y-55527493D01*
X123244648Y-55527490D01*
X123244646Y-55527488D01*
X123222762Y-55494736D01*
X123207685Y-55458338D01*
X123200000Y-55419700D01*
X123200000Y-55380300D01*
X123207685Y-55341662D01*
X123222762Y-55305264D01*
X123244646Y-55272512D01*
X123244648Y-55272510D01*
X123244650Y-55272507D01*
X123272507Y-55244650D01*
X123272510Y-55244648D01*
X123272512Y-55244646D01*
X123305264Y-55222762D01*
X123341662Y-55207685D01*
X123380300Y-55200000D01*
X123419700Y-55200000D01*
X123458338Y-55207685D01*
X123458338Y-55207685D01*
G37*
G36*
X122458338Y-55207685D02*
G01*
X122494736Y-55222762D01*
X122527488Y-55244646D01*
X122527490Y-55244648D01*
X122527493Y-55244650D01*
X122555350Y-55272507D01*
X122555352Y-55272510D01*
X122555354Y-55272512D01*
X122577238Y-55305264D01*
X122592315Y-55341662D01*
X122600000Y-55380300D01*
X122600000Y-55419700D01*
X122592315Y-55458338D01*
X122577238Y-55494736D01*
X122555354Y-55527488D01*
X122555352Y-55527490D01*
X122555350Y-55527493D01*
X122527493Y-55555350D01*
X122527490Y-55555352D01*
X122527488Y-55555354D01*
X122494736Y-55577238D01*
X122458338Y-55592315D01*
X122419700Y-55600000D01*
X122380300Y-55600000D01*
X122341662Y-55592315D01*
X122305264Y-55577238D01*
X122272512Y-55555354D01*
X122272510Y-55555352D01*
X122272507Y-55555350D01*
X122244650Y-55527493D01*
X122244648Y-55527490D01*
X122244646Y-55527488D01*
X122222762Y-55494736D01*
X122207685Y-55458338D01*
X122200000Y-55419700D01*
X122200000Y-55380300D01*
X122207685Y-55341662D01*
X122222762Y-55305264D01*
X122244646Y-55272512D01*
X122244648Y-55272510D01*
X122244650Y-55272507D01*
X122272507Y-55244650D01*
X122272510Y-55244648D01*
X122272512Y-55244646D01*
X122305264Y-55222762D01*
X122341662Y-55207685D01*
X122380300Y-55200000D01*
X122419700Y-55200000D01*
X122458338Y-55207685D01*
X122458338Y-55207685D01*
G37*
G36*
X125458338Y-55207685D02*
G01*
X125494736Y-55222762D01*
X125527488Y-55244646D01*
X125527490Y-55244648D01*
X125527493Y-55244650D01*
X125555350Y-55272507D01*
X125555352Y-55272510D01*
X125555354Y-55272512D01*
X125577238Y-55305264D01*
X125592315Y-55341662D01*
X125600000Y-55380300D01*
X125600000Y-55419700D01*
X125592315Y-55458338D01*
X125577238Y-55494736D01*
X125555354Y-55527488D01*
X125555352Y-55527490D01*
X125555350Y-55527493D01*
X125527493Y-55555350D01*
X125527490Y-55555352D01*
X125527488Y-55555354D01*
X125494736Y-55577238D01*
X125458338Y-55592315D01*
X125419700Y-55600000D01*
X125380300Y-55600000D01*
X125341662Y-55592315D01*
X125305264Y-55577238D01*
X125272512Y-55555354D01*
X125272510Y-55555352D01*
X125272507Y-55555350D01*
X125244650Y-55527493D01*
X125244648Y-55527490D01*
X125244646Y-55527488D01*
X125222762Y-55494736D01*
X125207685Y-55458338D01*
X125200000Y-55419700D01*
X125200000Y-55380300D01*
X125207685Y-55341662D01*
X125222762Y-55305264D01*
X125244646Y-55272512D01*
X125244648Y-55272510D01*
X125244650Y-55272507D01*
X125272507Y-55244650D01*
X125272510Y-55244648D01*
X125272512Y-55244646D01*
X125305264Y-55222762D01*
X125341662Y-55207685D01*
X125380300Y-55200000D01*
X125419700Y-55200000D01*
X125458338Y-55207685D01*
X125458338Y-55207685D01*
G37*
G36*
X124458338Y-55207685D02*
G01*
X124494736Y-55222762D01*
X124527488Y-55244646D01*
X124527490Y-55244648D01*
X124527493Y-55244650D01*
X124555350Y-55272507D01*
X124555352Y-55272510D01*
X124555354Y-55272512D01*
X124577238Y-55305264D01*
X124592315Y-55341662D01*
X124600000Y-55380300D01*
X124600000Y-55419700D01*
X124592315Y-55458338D01*
X124577238Y-55494736D01*
X124555354Y-55527488D01*
X124555352Y-55527490D01*
X124555350Y-55527493D01*
X124527493Y-55555350D01*
X124527490Y-55555352D01*
X124527488Y-55555354D01*
X124494736Y-55577238D01*
X124458338Y-55592315D01*
X124419700Y-55600000D01*
X124380300Y-55600000D01*
X124341662Y-55592315D01*
X124305264Y-55577238D01*
X124272512Y-55555354D01*
X124272510Y-55555352D01*
X124272507Y-55555350D01*
X124244650Y-55527493D01*
X124244648Y-55527490D01*
X124244646Y-55527488D01*
X124222762Y-55494736D01*
X124207685Y-55458338D01*
X124200000Y-55419700D01*
X124200000Y-55380300D01*
X124207685Y-55341662D01*
X124222762Y-55305264D01*
X124244646Y-55272512D01*
X124244648Y-55272510D01*
X124244650Y-55272507D01*
X124272507Y-55244650D01*
X124272510Y-55244648D01*
X124272512Y-55244646D01*
X124305264Y-55222762D01*
X124341662Y-55207685D01*
X124380300Y-55200000D01*
X124419700Y-55200000D01*
X124458338Y-55207685D01*
X124458338Y-55207685D01*
G37*
G36*
X124958338Y-55207685D02*
G01*
X124994736Y-55222762D01*
X125027488Y-55244646D01*
X125027490Y-55244648D01*
X125027493Y-55244650D01*
X125055350Y-55272507D01*
X125055352Y-55272510D01*
X125055354Y-55272512D01*
X125077238Y-55305264D01*
X125092315Y-55341662D01*
X125100000Y-55380300D01*
X125100000Y-55419700D01*
X125092315Y-55458338D01*
X125077238Y-55494736D01*
X125055354Y-55527488D01*
X125055352Y-55527490D01*
X125055350Y-55527493D01*
X125027493Y-55555350D01*
X125027490Y-55555352D01*
X125027488Y-55555354D01*
X124994736Y-55577238D01*
X124958338Y-55592315D01*
X124919700Y-55600000D01*
X124880300Y-55600000D01*
X124841662Y-55592315D01*
X124805264Y-55577238D01*
X124772512Y-55555354D01*
X124772510Y-55555352D01*
X124772507Y-55555350D01*
X124744650Y-55527493D01*
X124744648Y-55527490D01*
X124744646Y-55527488D01*
X124722762Y-55494736D01*
X124707685Y-55458338D01*
X124700000Y-55419700D01*
X124700000Y-55380300D01*
X124707685Y-55341662D01*
X124722762Y-55305264D01*
X124744646Y-55272512D01*
X124744648Y-55272510D01*
X124744650Y-55272507D01*
X124772507Y-55244650D01*
X124772510Y-55244648D01*
X124772512Y-55244646D01*
X124805264Y-55222762D01*
X124841662Y-55207685D01*
X124880300Y-55200000D01*
X124919700Y-55200000D01*
X124958338Y-55207685D01*
X124958338Y-55207685D01*
G37*
G36*
X125958338Y-55207685D02*
G01*
X125994736Y-55222762D01*
X126027488Y-55244646D01*
X126027490Y-55244648D01*
X126027493Y-55244650D01*
X126055350Y-55272507D01*
X126055352Y-55272510D01*
X126055354Y-55272512D01*
X126077238Y-55305264D01*
X126092315Y-55341662D01*
X126100000Y-55380300D01*
X126100000Y-55419700D01*
X126092315Y-55458338D01*
X126077238Y-55494736D01*
X126055354Y-55527488D01*
X126055352Y-55527490D01*
X126055350Y-55527493D01*
X126027493Y-55555350D01*
X126027490Y-55555352D01*
X126027488Y-55555354D01*
X125994736Y-55577238D01*
X125958338Y-55592315D01*
X125919700Y-55600000D01*
X125880300Y-55600000D01*
X125841662Y-55592315D01*
X125805264Y-55577238D01*
X125772512Y-55555354D01*
X125772510Y-55555352D01*
X125772507Y-55555350D01*
X125744650Y-55527493D01*
X125744648Y-55527490D01*
X125744646Y-55527488D01*
X125722762Y-55494736D01*
X125707685Y-55458338D01*
X125700000Y-55419700D01*
X125700000Y-55380300D01*
X125707685Y-55341662D01*
X125722762Y-55305264D01*
X125744646Y-55272512D01*
X125744648Y-55272510D01*
X125744650Y-55272507D01*
X125772507Y-55244650D01*
X125772510Y-55244648D01*
X125772512Y-55244646D01*
X125805264Y-55222762D01*
X125841662Y-55207685D01*
X125880300Y-55200000D01*
X125919700Y-55200000D01*
X125958338Y-55207685D01*
X125958338Y-55207685D01*
G37*
G36*
X123958338Y-55207685D02*
G01*
X123994736Y-55222762D01*
X124027488Y-55244646D01*
X124027490Y-55244648D01*
X124027493Y-55244650D01*
X124055350Y-55272507D01*
X124055352Y-55272510D01*
X124055354Y-55272512D01*
X124077238Y-55305264D01*
X124092315Y-55341662D01*
X124100000Y-55380300D01*
X124100000Y-55419700D01*
X124092315Y-55458338D01*
X124077238Y-55494736D01*
X124055354Y-55527488D01*
X124055352Y-55527490D01*
X124055350Y-55527493D01*
X124027493Y-55555350D01*
X124027490Y-55555352D01*
X124027488Y-55555354D01*
X123994736Y-55577238D01*
X123958338Y-55592315D01*
X123919700Y-55600000D01*
X123880300Y-55600000D01*
X123841662Y-55592315D01*
X123805264Y-55577238D01*
X123772512Y-55555354D01*
X123772510Y-55555352D01*
X123772507Y-55555350D01*
X123744650Y-55527493D01*
X123744648Y-55527490D01*
X123744646Y-55527488D01*
X123722762Y-55494736D01*
X123707685Y-55458338D01*
X123700000Y-55419700D01*
X123700000Y-55380300D01*
X123707685Y-55341662D01*
X123722762Y-55305264D01*
X123744646Y-55272512D01*
X123744648Y-55272510D01*
X123744650Y-55272507D01*
X123772507Y-55244650D01*
X123772510Y-55244648D01*
X123772512Y-55244646D01*
X123805264Y-55222762D01*
X123841662Y-55207685D01*
X123880300Y-55200000D01*
X123919700Y-55200000D01*
X123958338Y-55207685D01*
X123958338Y-55207685D01*
G37*
G36*
X121179460Y-54102158D02*
G01*
X121198173Y-54107835D01*
X121215424Y-54117055D01*
X121230539Y-54129461D01*
X121242945Y-54144576D01*
X121252165Y-54161827D01*
X121257842Y-54180540D01*
X121260000Y-54202453D01*
X121260000Y-54557547D01*
X121257842Y-54579460D01*
X121252165Y-54598173D01*
X121242945Y-54615424D01*
X121230539Y-54630539D01*
X121215424Y-54642945D01*
X121198136Y-54652185D01*
X121189155Y-54655905D01*
X121181005Y-54661350D01*
X121174075Y-54668281D01*
X121168629Y-54676430D01*
X121164878Y-54685486D01*
X121162966Y-54695099D01*
X121162966Y-54704900D01*
X121164878Y-54714513D01*
X121168629Y-54723569D01*
X121174074Y-54731719D01*
X121181005Y-54738649D01*
X121189154Y-54744095D01*
X121198136Y-54747815D01*
X121215424Y-54757055D01*
X121230539Y-54769461D01*
X121242945Y-54784576D01*
X121252165Y-54801827D01*
X121257842Y-54820540D01*
X121260000Y-54842453D01*
X121260000Y-55197547D01*
X121257842Y-55219460D01*
X121252165Y-55238173D01*
X121242945Y-55255424D01*
X121230539Y-55270539D01*
X121215424Y-55282945D01*
X121198173Y-55292165D01*
X121179460Y-55297842D01*
X121157547Y-55300000D01*
X120862453Y-55300000D01*
X120840540Y-55297842D01*
X120821827Y-55292165D01*
X120804576Y-55282945D01*
X120789461Y-55270539D01*
X120777055Y-55255424D01*
X120767835Y-55238173D01*
X120762158Y-55219460D01*
X120760000Y-55197547D01*
X120760000Y-54842453D01*
X120762158Y-54820540D01*
X120767835Y-54801827D01*
X120777055Y-54784576D01*
X120789461Y-54769461D01*
X120804576Y-54757055D01*
X120821864Y-54747815D01*
X120830845Y-54744095D01*
X120838995Y-54738650D01*
X120845925Y-54731719D01*
X120851371Y-54723570D01*
X120855122Y-54714514D01*
X120857034Y-54704901D01*
X120857034Y-54695100D01*
X120855122Y-54685487D01*
X120851371Y-54676431D01*
X120845926Y-54668281D01*
X120838995Y-54661351D01*
X120830846Y-54655905D01*
X120821864Y-54652185D01*
X120804576Y-54642945D01*
X120789461Y-54630539D01*
X120777055Y-54615424D01*
X120767835Y-54598173D01*
X120762158Y-54579460D01*
X120760000Y-54557547D01*
X120760000Y-54202453D01*
X120762158Y-54180540D01*
X120767835Y-54161827D01*
X120777055Y-54144576D01*
X120789461Y-54129461D01*
X120804576Y-54117055D01*
X120821827Y-54107835D01*
X120840540Y-54102158D01*
X120862453Y-54100000D01*
X121157547Y-54100000D01*
X121179460Y-54102158D01*
X121179460Y-54102158D01*
G37*
G36*
X128084705Y-54801197D02*
G01*
X128094041Y-54804030D01*
X128102646Y-54808629D01*
X128110185Y-54814815D01*
X128116371Y-54822354D01*
X128120970Y-54830959D01*
X128123803Y-54840295D01*
X128125000Y-54852452D01*
X128125000Y-55147548D01*
X128123803Y-55159705D01*
X128120970Y-55169041D01*
X128116371Y-55177646D01*
X128110185Y-55185185D01*
X128102646Y-55191371D01*
X128094041Y-55195970D01*
X128084705Y-55198803D01*
X128072548Y-55200000D01*
X127627452Y-55200000D01*
X127615295Y-55198803D01*
X127605959Y-55195970D01*
X127597354Y-55191371D01*
X127589815Y-55185185D01*
X127583629Y-55177646D01*
X127579030Y-55169041D01*
X127576197Y-55159705D01*
X127575000Y-55147548D01*
X127575000Y-54852452D01*
X127576197Y-54840295D01*
X127579030Y-54830959D01*
X127583629Y-54822354D01*
X127589815Y-54814815D01*
X127597354Y-54808629D01*
X127605959Y-54804030D01*
X127615295Y-54801197D01*
X127627452Y-54800000D01*
X128072548Y-54800000D01*
X128084705Y-54801197D01*
X128084705Y-54801197D01*
G37*
G36*
X126934705Y-54801197D02*
G01*
X126944041Y-54804030D01*
X126952646Y-54808629D01*
X126960185Y-54814815D01*
X126966371Y-54822354D01*
X126970970Y-54830959D01*
X126973803Y-54840295D01*
X126975000Y-54852452D01*
X126975000Y-55147548D01*
X126973803Y-55159705D01*
X126970970Y-55169041D01*
X126966371Y-55177646D01*
X126960185Y-55185185D01*
X126952646Y-55191371D01*
X126944041Y-55195970D01*
X126934705Y-55198803D01*
X126922548Y-55200000D01*
X126477452Y-55200000D01*
X126465295Y-55198803D01*
X126455959Y-55195970D01*
X126447354Y-55191371D01*
X126439815Y-55185185D01*
X126433629Y-55177646D01*
X126429030Y-55169041D01*
X126426197Y-55159705D01*
X126425000Y-55147548D01*
X126425000Y-54852452D01*
X126426197Y-54840295D01*
X126429030Y-54830959D01*
X126433629Y-54822354D01*
X126439815Y-54814815D01*
X126447354Y-54808629D01*
X126455959Y-54804030D01*
X126465295Y-54801197D01*
X126477452Y-54800000D01*
X126922548Y-54800000D01*
X126934705Y-54801197D01*
X126934705Y-54801197D01*
G37*
G36*
X124958338Y-54707685D02*
G01*
X124994736Y-54722762D01*
X125027488Y-54744646D01*
X125027490Y-54744648D01*
X125027493Y-54744650D01*
X125055350Y-54772507D01*
X125055352Y-54772510D01*
X125055354Y-54772512D01*
X125077238Y-54805264D01*
X125092315Y-54841662D01*
X125100000Y-54880300D01*
X125100000Y-54919700D01*
X125092315Y-54958338D01*
X125077238Y-54994736D01*
X125055354Y-55027488D01*
X125055352Y-55027490D01*
X125055350Y-55027493D01*
X125027493Y-55055350D01*
X125027490Y-55055352D01*
X125027488Y-55055354D01*
X124994736Y-55077238D01*
X124958338Y-55092315D01*
X124919700Y-55100000D01*
X124880300Y-55100000D01*
X124841662Y-55092315D01*
X124805264Y-55077238D01*
X124772512Y-55055354D01*
X124772510Y-55055352D01*
X124772507Y-55055350D01*
X124744650Y-55027493D01*
X124744648Y-55027490D01*
X124744646Y-55027488D01*
X124722762Y-54994736D01*
X124707685Y-54958338D01*
X124700000Y-54919700D01*
X124700000Y-54880300D01*
X124707685Y-54841662D01*
X124722762Y-54805264D01*
X124744646Y-54772512D01*
X124744648Y-54772510D01*
X124744650Y-54772507D01*
X124772507Y-54744650D01*
X124772510Y-54744648D01*
X124772512Y-54744646D01*
X124805264Y-54722762D01*
X124841662Y-54707685D01*
X124880300Y-54700000D01*
X124919700Y-54700000D01*
X124958338Y-54707685D01*
X124958338Y-54707685D01*
G37*
G36*
X121958338Y-54707685D02*
G01*
X121994736Y-54722762D01*
X122027488Y-54744646D01*
X122027490Y-54744648D01*
X122027493Y-54744650D01*
X122055350Y-54772507D01*
X122055352Y-54772510D01*
X122055354Y-54772512D01*
X122077238Y-54805264D01*
X122092315Y-54841662D01*
X122100000Y-54880300D01*
X122100000Y-54919700D01*
X122092315Y-54958338D01*
X122077238Y-54994736D01*
X122055354Y-55027488D01*
X122055352Y-55027490D01*
X122055350Y-55027493D01*
X122027493Y-55055350D01*
X122027490Y-55055352D01*
X122027488Y-55055354D01*
X121994736Y-55077238D01*
X121958338Y-55092315D01*
X121919700Y-55100000D01*
X121880300Y-55100000D01*
X121841662Y-55092315D01*
X121805264Y-55077238D01*
X121772512Y-55055354D01*
X121772510Y-55055352D01*
X121772507Y-55055350D01*
X121744650Y-55027493D01*
X121744648Y-55027490D01*
X121744646Y-55027488D01*
X121722762Y-54994736D01*
X121707685Y-54958338D01*
X121700000Y-54919700D01*
X121700000Y-54880300D01*
X121707685Y-54841662D01*
X121722762Y-54805264D01*
X121744646Y-54772512D01*
X121744648Y-54772510D01*
X121744650Y-54772507D01*
X121772507Y-54744650D01*
X121772510Y-54744648D01*
X121772512Y-54744646D01*
X121805264Y-54722762D01*
X121841662Y-54707685D01*
X121880300Y-54700000D01*
X121919700Y-54700000D01*
X121958338Y-54707685D01*
X121958338Y-54707685D01*
G37*
G36*
X122458338Y-54707685D02*
G01*
X122494736Y-54722762D01*
X122527488Y-54744646D01*
X122527490Y-54744648D01*
X122527493Y-54744650D01*
X122555350Y-54772507D01*
X122555352Y-54772510D01*
X122555354Y-54772512D01*
X122577238Y-54805264D01*
X122592315Y-54841662D01*
X122600000Y-54880300D01*
X122600000Y-54919700D01*
X122592315Y-54958338D01*
X122577238Y-54994736D01*
X122555354Y-55027488D01*
X122555352Y-55027490D01*
X122555350Y-55027493D01*
X122527493Y-55055350D01*
X122527490Y-55055352D01*
X122527488Y-55055354D01*
X122494736Y-55077238D01*
X122458338Y-55092315D01*
X122419700Y-55100000D01*
X122380300Y-55100000D01*
X122341662Y-55092315D01*
X122305264Y-55077238D01*
X122272512Y-55055354D01*
X122272510Y-55055352D01*
X122272507Y-55055350D01*
X122244650Y-55027493D01*
X122244648Y-55027490D01*
X122244646Y-55027488D01*
X122222762Y-54994736D01*
X122207685Y-54958338D01*
X122200000Y-54919700D01*
X122200000Y-54880300D01*
X122207685Y-54841662D01*
X122222762Y-54805264D01*
X122244646Y-54772512D01*
X122244648Y-54772510D01*
X122244650Y-54772507D01*
X122272507Y-54744650D01*
X122272510Y-54744648D01*
X122272512Y-54744646D01*
X122305264Y-54722762D01*
X122341662Y-54707685D01*
X122380300Y-54700000D01*
X122419700Y-54700000D01*
X122458338Y-54707685D01*
X122458338Y-54707685D01*
G37*
G36*
X122958338Y-54707685D02*
G01*
X122994736Y-54722762D01*
X123027488Y-54744646D01*
X123027490Y-54744648D01*
X123027493Y-54744650D01*
X123055350Y-54772507D01*
X123055352Y-54772510D01*
X123055354Y-54772512D01*
X123077238Y-54805264D01*
X123092315Y-54841662D01*
X123100000Y-54880300D01*
X123100000Y-54919700D01*
X123092315Y-54958338D01*
X123077238Y-54994736D01*
X123055354Y-55027488D01*
X123055352Y-55027490D01*
X123055350Y-55027493D01*
X123027493Y-55055350D01*
X123027490Y-55055352D01*
X123027488Y-55055354D01*
X122994736Y-55077238D01*
X122958338Y-55092315D01*
X122919700Y-55100000D01*
X122880300Y-55100000D01*
X122841662Y-55092315D01*
X122805264Y-55077238D01*
X122772512Y-55055354D01*
X122772510Y-55055352D01*
X122772507Y-55055350D01*
X122744650Y-55027493D01*
X122744648Y-55027490D01*
X122744646Y-55027488D01*
X122722762Y-54994736D01*
X122707685Y-54958338D01*
X122700000Y-54919700D01*
X122700000Y-54880300D01*
X122707685Y-54841662D01*
X122722762Y-54805264D01*
X122744646Y-54772512D01*
X122744648Y-54772510D01*
X122744650Y-54772507D01*
X122772507Y-54744650D01*
X122772510Y-54744648D01*
X122772512Y-54744646D01*
X122805264Y-54722762D01*
X122841662Y-54707685D01*
X122880300Y-54700000D01*
X122919700Y-54700000D01*
X122958338Y-54707685D01*
X122958338Y-54707685D01*
G37*
G36*
X123458338Y-54707685D02*
G01*
X123494736Y-54722762D01*
X123527488Y-54744646D01*
X123527490Y-54744648D01*
X123527493Y-54744650D01*
X123555350Y-54772507D01*
X123555352Y-54772510D01*
X123555354Y-54772512D01*
X123577238Y-54805264D01*
X123592315Y-54841662D01*
X123600000Y-54880300D01*
X123600000Y-54919700D01*
X123592315Y-54958338D01*
X123577238Y-54994736D01*
X123555354Y-55027488D01*
X123555352Y-55027490D01*
X123555350Y-55027493D01*
X123527493Y-55055350D01*
X123527490Y-55055352D01*
X123527488Y-55055354D01*
X123494736Y-55077238D01*
X123458338Y-55092315D01*
X123419700Y-55100000D01*
X123380300Y-55100000D01*
X123341662Y-55092315D01*
X123305264Y-55077238D01*
X123272512Y-55055354D01*
X123272510Y-55055352D01*
X123272507Y-55055350D01*
X123244650Y-55027493D01*
X123244648Y-55027490D01*
X123244646Y-55027488D01*
X123222762Y-54994736D01*
X123207685Y-54958338D01*
X123200000Y-54919700D01*
X123200000Y-54880300D01*
X123207685Y-54841662D01*
X123222762Y-54805264D01*
X123244646Y-54772512D01*
X123244648Y-54772510D01*
X123244650Y-54772507D01*
X123272507Y-54744650D01*
X123272510Y-54744648D01*
X123272512Y-54744646D01*
X123305264Y-54722762D01*
X123341662Y-54707685D01*
X123380300Y-54700000D01*
X123419700Y-54700000D01*
X123458338Y-54707685D01*
X123458338Y-54707685D01*
G37*
G36*
X123958338Y-54707685D02*
G01*
X123994736Y-54722762D01*
X124027488Y-54744646D01*
X124027490Y-54744648D01*
X124027493Y-54744650D01*
X124055350Y-54772507D01*
X124055352Y-54772510D01*
X124055354Y-54772512D01*
X124077238Y-54805264D01*
X124092315Y-54841662D01*
X124100000Y-54880300D01*
X124100000Y-54919700D01*
X124092315Y-54958338D01*
X124077238Y-54994736D01*
X124055354Y-55027488D01*
X124055352Y-55027490D01*
X124055350Y-55027493D01*
X124027493Y-55055350D01*
X124027490Y-55055352D01*
X124027488Y-55055354D01*
X123994736Y-55077238D01*
X123958338Y-55092315D01*
X123919700Y-55100000D01*
X123880300Y-55100000D01*
X123841662Y-55092315D01*
X123805264Y-55077238D01*
X123772512Y-55055354D01*
X123772510Y-55055352D01*
X123772507Y-55055350D01*
X123744650Y-55027493D01*
X123744648Y-55027490D01*
X123744646Y-55027488D01*
X123722762Y-54994736D01*
X123707685Y-54958338D01*
X123700000Y-54919700D01*
X123700000Y-54880300D01*
X123707685Y-54841662D01*
X123722762Y-54805264D01*
X123744646Y-54772512D01*
X123744648Y-54772510D01*
X123744650Y-54772507D01*
X123772507Y-54744650D01*
X123772510Y-54744648D01*
X123772512Y-54744646D01*
X123805264Y-54722762D01*
X123841662Y-54707685D01*
X123880300Y-54700000D01*
X123919700Y-54700000D01*
X123958338Y-54707685D01*
X123958338Y-54707685D01*
G37*
G36*
X124458338Y-54707685D02*
G01*
X124494736Y-54722762D01*
X124527488Y-54744646D01*
X124527490Y-54744648D01*
X124527493Y-54744650D01*
X124555350Y-54772507D01*
X124555352Y-54772510D01*
X124555354Y-54772512D01*
X124577238Y-54805264D01*
X124592315Y-54841662D01*
X124600000Y-54880300D01*
X124600000Y-54919700D01*
X124592315Y-54958338D01*
X124577238Y-54994736D01*
X124555354Y-55027488D01*
X124555352Y-55027490D01*
X124555350Y-55027493D01*
X124527493Y-55055350D01*
X124527490Y-55055352D01*
X124527488Y-55055354D01*
X124494736Y-55077238D01*
X124458338Y-55092315D01*
X124419700Y-55100000D01*
X124380300Y-55100000D01*
X124341662Y-55092315D01*
X124305264Y-55077238D01*
X124272512Y-55055354D01*
X124272510Y-55055352D01*
X124272507Y-55055350D01*
X124244650Y-55027493D01*
X124244648Y-55027490D01*
X124244646Y-55027488D01*
X124222762Y-54994736D01*
X124207685Y-54958338D01*
X124200000Y-54919700D01*
X124200000Y-54880300D01*
X124207685Y-54841662D01*
X124222762Y-54805264D01*
X124244646Y-54772512D01*
X124244648Y-54772510D01*
X124244650Y-54772507D01*
X124272507Y-54744650D01*
X124272510Y-54744648D01*
X124272512Y-54744646D01*
X124305264Y-54722762D01*
X124341662Y-54707685D01*
X124380300Y-54700000D01*
X124419700Y-54700000D01*
X124458338Y-54707685D01*
X124458338Y-54707685D01*
G37*
G36*
X125458338Y-54707685D02*
G01*
X125494736Y-54722762D01*
X125527488Y-54744646D01*
X125527490Y-54744648D01*
X125527493Y-54744650D01*
X125555350Y-54772507D01*
X125555352Y-54772510D01*
X125555354Y-54772512D01*
X125577238Y-54805264D01*
X125592315Y-54841662D01*
X125600000Y-54880300D01*
X125600000Y-54919700D01*
X125592315Y-54958338D01*
X125577238Y-54994736D01*
X125555354Y-55027488D01*
X125555352Y-55027490D01*
X125555350Y-55027493D01*
X125527493Y-55055350D01*
X125527490Y-55055352D01*
X125527488Y-55055354D01*
X125494736Y-55077238D01*
X125458338Y-55092315D01*
X125419700Y-55100000D01*
X125380300Y-55100000D01*
X125341662Y-55092315D01*
X125305264Y-55077238D01*
X125272512Y-55055354D01*
X125272510Y-55055352D01*
X125272507Y-55055350D01*
X125244650Y-55027493D01*
X125244648Y-55027490D01*
X125244646Y-55027488D01*
X125222762Y-54994736D01*
X125207685Y-54958338D01*
X125200000Y-54919700D01*
X125200000Y-54880300D01*
X125207685Y-54841662D01*
X125222762Y-54805264D01*
X125244646Y-54772512D01*
X125244648Y-54772510D01*
X125244650Y-54772507D01*
X125272507Y-54744650D01*
X125272510Y-54744648D01*
X125272512Y-54744646D01*
X125305264Y-54722762D01*
X125341662Y-54707685D01*
X125380300Y-54700000D01*
X125419700Y-54700000D01*
X125458338Y-54707685D01*
X125458338Y-54707685D01*
G37*
G36*
X129060200Y-54954299D02*
G01*
X128731600Y-54954299D01*
X128731600Y-53825701D01*
X129060200Y-53825701D01*
X129060200Y-54954299D01*
X129060200Y-54954299D01*
G37*
G36*
X128628400Y-54954299D02*
G01*
X128299800Y-54954299D01*
X128299800Y-53825701D01*
X128628400Y-53825701D01*
X128628400Y-54954299D01*
X128628400Y-54954299D01*
G37*
G36*
X128084705Y-54301197D02*
G01*
X128094041Y-54304030D01*
X128102646Y-54308629D01*
X128110185Y-54314815D01*
X128116371Y-54322354D01*
X128120970Y-54330959D01*
X128123803Y-54340295D01*
X128125000Y-54352452D01*
X128125000Y-54647548D01*
X128123803Y-54659705D01*
X128120970Y-54669041D01*
X128116371Y-54677646D01*
X128110185Y-54685185D01*
X128102646Y-54691371D01*
X128094041Y-54695970D01*
X128084705Y-54698803D01*
X128072548Y-54700000D01*
X127627452Y-54700000D01*
X127615295Y-54698803D01*
X127605959Y-54695970D01*
X127597354Y-54691371D01*
X127589815Y-54685185D01*
X127583629Y-54677646D01*
X127579030Y-54669041D01*
X127576197Y-54659705D01*
X127575000Y-54647548D01*
X127575000Y-54352452D01*
X127576197Y-54340295D01*
X127579030Y-54330959D01*
X127583629Y-54322354D01*
X127589815Y-54314815D01*
X127597354Y-54308629D01*
X127605959Y-54304030D01*
X127615295Y-54301197D01*
X127627452Y-54300000D01*
X128072548Y-54300000D01*
X128084705Y-54301197D01*
X128084705Y-54301197D01*
G37*
G36*
X126934705Y-54301197D02*
G01*
X126944041Y-54304030D01*
X126952646Y-54308629D01*
X126960185Y-54314815D01*
X126966371Y-54322354D01*
X126970970Y-54330959D01*
X126973803Y-54340295D01*
X126975000Y-54352452D01*
X126975000Y-54647548D01*
X126973803Y-54659705D01*
X126970970Y-54669041D01*
X126966371Y-54677646D01*
X126960185Y-54685185D01*
X126952646Y-54691371D01*
X126944041Y-54695970D01*
X126934705Y-54698803D01*
X126922548Y-54700000D01*
X126477452Y-54700000D01*
X126465295Y-54698803D01*
X126455959Y-54695970D01*
X126447354Y-54691371D01*
X126439815Y-54685185D01*
X126433629Y-54677646D01*
X126429030Y-54669041D01*
X126426197Y-54659705D01*
X126425000Y-54647548D01*
X126425000Y-54352452D01*
X126426197Y-54340295D01*
X126429030Y-54330959D01*
X126433629Y-54322354D01*
X126439815Y-54314815D01*
X126447354Y-54308629D01*
X126455959Y-54304030D01*
X126465295Y-54301197D01*
X126477452Y-54300000D01*
X126922548Y-54300000D01*
X126934705Y-54301197D01*
X126934705Y-54301197D01*
G37*
G36*
X123458338Y-54207685D02*
G01*
X123494736Y-54222762D01*
X123527488Y-54244646D01*
X123527490Y-54244648D01*
X123527493Y-54244650D01*
X123555350Y-54272507D01*
X123555352Y-54272510D01*
X123555354Y-54272512D01*
X123577238Y-54305264D01*
X123592315Y-54341662D01*
X123600000Y-54380300D01*
X123600000Y-54419700D01*
X123592315Y-54458338D01*
X123577238Y-54494736D01*
X123555354Y-54527488D01*
X123555352Y-54527490D01*
X123555350Y-54527493D01*
X123527493Y-54555350D01*
X123527490Y-54555352D01*
X123527488Y-54555354D01*
X123494736Y-54577238D01*
X123458338Y-54592315D01*
X123419700Y-54600000D01*
X123380300Y-54600000D01*
X123341662Y-54592315D01*
X123305264Y-54577238D01*
X123272512Y-54555354D01*
X123272510Y-54555352D01*
X123272507Y-54555350D01*
X123244650Y-54527493D01*
X123244648Y-54527490D01*
X123244646Y-54527488D01*
X123222762Y-54494736D01*
X123207685Y-54458338D01*
X123200000Y-54419700D01*
X123200000Y-54380300D01*
X123207685Y-54341662D01*
X123222762Y-54305264D01*
X123244646Y-54272512D01*
X123244648Y-54272510D01*
X123244650Y-54272507D01*
X123272507Y-54244650D01*
X123272510Y-54244648D01*
X123272512Y-54244646D01*
X123305264Y-54222762D01*
X123341662Y-54207685D01*
X123380300Y-54200000D01*
X123419700Y-54200000D01*
X123458338Y-54207685D01*
X123458338Y-54207685D01*
G37*
G36*
X122958338Y-54207685D02*
G01*
X122994736Y-54222762D01*
X123027488Y-54244646D01*
X123027490Y-54244648D01*
X123027493Y-54244650D01*
X123055350Y-54272507D01*
X123055352Y-54272510D01*
X123055354Y-54272512D01*
X123077238Y-54305264D01*
X123092315Y-54341662D01*
X123100000Y-54380300D01*
X123100000Y-54419700D01*
X123092315Y-54458338D01*
X123077238Y-54494736D01*
X123055354Y-54527488D01*
X123055352Y-54527490D01*
X123055350Y-54527493D01*
X123027493Y-54555350D01*
X123027490Y-54555352D01*
X123027488Y-54555354D01*
X122994736Y-54577238D01*
X122958338Y-54592315D01*
X122919700Y-54600000D01*
X122880300Y-54600000D01*
X122841662Y-54592315D01*
X122805264Y-54577238D01*
X122772512Y-54555354D01*
X122772510Y-54555352D01*
X122772507Y-54555350D01*
X122744650Y-54527493D01*
X122744648Y-54527490D01*
X122744646Y-54527488D01*
X122722762Y-54494736D01*
X122707685Y-54458338D01*
X122700000Y-54419700D01*
X122700000Y-54380300D01*
X122707685Y-54341662D01*
X122722762Y-54305264D01*
X122744646Y-54272512D01*
X122744648Y-54272510D01*
X122744650Y-54272507D01*
X122772507Y-54244650D01*
X122772510Y-54244648D01*
X122772512Y-54244646D01*
X122805264Y-54222762D01*
X122841662Y-54207685D01*
X122880300Y-54200000D01*
X122919700Y-54200000D01*
X122958338Y-54207685D01*
X122958338Y-54207685D01*
G37*
G36*
X121958338Y-54207685D02*
G01*
X121994736Y-54222762D01*
X122027488Y-54244646D01*
X122027490Y-54244648D01*
X122027493Y-54244650D01*
X122055350Y-54272507D01*
X122055352Y-54272510D01*
X122055354Y-54272512D01*
X122077238Y-54305264D01*
X122092315Y-54341662D01*
X122100000Y-54380300D01*
X122100000Y-54419700D01*
X122092315Y-54458338D01*
X122077238Y-54494736D01*
X122055354Y-54527488D01*
X122055352Y-54527490D01*
X122055350Y-54527493D01*
X122027493Y-54555350D01*
X122027490Y-54555352D01*
X122027488Y-54555354D01*
X121994736Y-54577238D01*
X121958338Y-54592315D01*
X121919700Y-54600000D01*
X121880300Y-54600000D01*
X121841662Y-54592315D01*
X121805264Y-54577238D01*
X121772512Y-54555354D01*
X121772510Y-54555352D01*
X121772507Y-54555350D01*
X121744650Y-54527493D01*
X121744648Y-54527490D01*
X121744646Y-54527488D01*
X121722762Y-54494736D01*
X121707685Y-54458338D01*
X121700000Y-54419700D01*
X121700000Y-54380300D01*
X121707685Y-54341662D01*
X121722762Y-54305264D01*
X121744646Y-54272512D01*
X121744648Y-54272510D01*
X121744650Y-54272507D01*
X121772507Y-54244650D01*
X121772510Y-54244648D01*
X121772512Y-54244646D01*
X121805264Y-54222762D01*
X121841662Y-54207685D01*
X121880300Y-54200000D01*
X121919700Y-54200000D01*
X121958338Y-54207685D01*
X121958338Y-54207685D01*
G37*
G36*
X122458338Y-54207685D02*
G01*
X122494736Y-54222762D01*
X122527488Y-54244646D01*
X122527490Y-54244648D01*
X122527493Y-54244650D01*
X122555350Y-54272507D01*
X122555352Y-54272510D01*
X122555354Y-54272512D01*
X122577238Y-54305264D01*
X122592315Y-54341662D01*
X122600000Y-54380300D01*
X122600000Y-54419700D01*
X122592315Y-54458338D01*
X122577238Y-54494736D01*
X122555354Y-54527488D01*
X122555352Y-54527490D01*
X122555350Y-54527493D01*
X122527493Y-54555350D01*
X122527490Y-54555352D01*
X122527488Y-54555354D01*
X122494736Y-54577238D01*
X122458338Y-54592315D01*
X122419700Y-54600000D01*
X122380300Y-54600000D01*
X122341662Y-54592315D01*
X122305264Y-54577238D01*
X122272512Y-54555354D01*
X122272510Y-54555352D01*
X122272507Y-54555350D01*
X122244650Y-54527493D01*
X122244648Y-54527490D01*
X122244646Y-54527488D01*
X122222762Y-54494736D01*
X122207685Y-54458338D01*
X122200000Y-54419700D01*
X122200000Y-54380300D01*
X122207685Y-54341662D01*
X122222762Y-54305264D01*
X122244646Y-54272512D01*
X122244648Y-54272510D01*
X122244650Y-54272507D01*
X122272507Y-54244650D01*
X122272510Y-54244648D01*
X122272512Y-54244646D01*
X122305264Y-54222762D01*
X122341662Y-54207685D01*
X122380300Y-54200000D01*
X122419700Y-54200000D01*
X122458338Y-54207685D01*
X122458338Y-54207685D01*
G37*
G36*
X123958338Y-54207685D02*
G01*
X123994736Y-54222762D01*
X124027488Y-54244646D01*
X124027490Y-54244648D01*
X124027493Y-54244650D01*
X124055350Y-54272507D01*
X124055352Y-54272510D01*
X124055354Y-54272512D01*
X124077238Y-54305264D01*
X124092315Y-54341662D01*
X124100000Y-54380300D01*
X124100000Y-54419700D01*
X124092315Y-54458338D01*
X124077238Y-54494736D01*
X124055354Y-54527488D01*
X124055352Y-54527490D01*
X124055350Y-54527493D01*
X124027493Y-54555350D01*
X124027490Y-54555352D01*
X124027488Y-54555354D01*
X123994736Y-54577238D01*
X123958338Y-54592315D01*
X123919700Y-54600000D01*
X123880300Y-54600000D01*
X123841662Y-54592315D01*
X123805264Y-54577238D01*
X123772512Y-54555354D01*
X123772510Y-54555352D01*
X123772507Y-54555350D01*
X123744650Y-54527493D01*
X123744648Y-54527490D01*
X123744646Y-54527488D01*
X123722762Y-54494736D01*
X123707685Y-54458338D01*
X123700000Y-54419700D01*
X123700000Y-54380300D01*
X123707685Y-54341662D01*
X123722762Y-54305264D01*
X123744646Y-54272512D01*
X123744648Y-54272510D01*
X123744650Y-54272507D01*
X123772507Y-54244650D01*
X123772510Y-54244648D01*
X123772512Y-54244646D01*
X123805264Y-54222762D01*
X123841662Y-54207685D01*
X123880300Y-54200000D01*
X123919700Y-54200000D01*
X123958338Y-54207685D01*
X123958338Y-54207685D01*
G37*
G36*
X124458338Y-54207685D02*
G01*
X124494736Y-54222762D01*
X124527488Y-54244646D01*
X124527490Y-54244648D01*
X124527493Y-54244650D01*
X124555350Y-54272507D01*
X124555352Y-54272510D01*
X124555354Y-54272512D01*
X124577238Y-54305264D01*
X124592315Y-54341662D01*
X124600000Y-54380300D01*
X124600000Y-54419700D01*
X124592315Y-54458338D01*
X124577238Y-54494736D01*
X124555354Y-54527488D01*
X124555352Y-54527490D01*
X124555350Y-54527493D01*
X124527493Y-54555350D01*
X124527490Y-54555352D01*
X124527488Y-54555354D01*
X124494736Y-54577238D01*
X124458338Y-54592315D01*
X124419700Y-54600000D01*
X124380300Y-54600000D01*
X124341662Y-54592315D01*
X124305264Y-54577238D01*
X124272512Y-54555354D01*
X124272510Y-54555352D01*
X124272507Y-54555350D01*
X124244650Y-54527493D01*
X124244648Y-54527490D01*
X124244646Y-54527488D01*
X124222762Y-54494736D01*
X124207685Y-54458338D01*
X124200000Y-54419700D01*
X124200000Y-54380300D01*
X124207685Y-54341662D01*
X124222762Y-54305264D01*
X124244646Y-54272512D01*
X124244648Y-54272510D01*
X124244650Y-54272507D01*
X124272507Y-54244650D01*
X124272510Y-54244648D01*
X124272512Y-54244646D01*
X124305264Y-54222762D01*
X124341662Y-54207685D01*
X124380300Y-54200000D01*
X124419700Y-54200000D01*
X124458338Y-54207685D01*
X124458338Y-54207685D01*
G37*
G36*
X124958338Y-54207685D02*
G01*
X124994736Y-54222762D01*
X125027488Y-54244646D01*
X125027490Y-54244648D01*
X125027493Y-54244650D01*
X125055350Y-54272507D01*
X125055352Y-54272510D01*
X125055354Y-54272512D01*
X125077238Y-54305264D01*
X125092315Y-54341662D01*
X125100000Y-54380300D01*
X125100000Y-54419700D01*
X125092315Y-54458338D01*
X125077238Y-54494736D01*
X125055354Y-54527488D01*
X125055352Y-54527490D01*
X125055350Y-54527493D01*
X125027493Y-54555350D01*
X125027490Y-54555352D01*
X125027488Y-54555354D01*
X124994736Y-54577238D01*
X124958338Y-54592315D01*
X124919700Y-54600000D01*
X124880300Y-54600000D01*
X124841662Y-54592315D01*
X124805264Y-54577238D01*
X124772512Y-54555354D01*
X124772510Y-54555352D01*
X124772507Y-54555350D01*
X124744650Y-54527493D01*
X124744648Y-54527490D01*
X124744646Y-54527488D01*
X124722762Y-54494736D01*
X124707685Y-54458338D01*
X124700000Y-54419700D01*
X124700000Y-54380300D01*
X124707685Y-54341662D01*
X124722762Y-54305264D01*
X124744646Y-54272512D01*
X124744648Y-54272510D01*
X124744650Y-54272507D01*
X124772507Y-54244650D01*
X124772510Y-54244648D01*
X124772512Y-54244646D01*
X124805264Y-54222762D01*
X124841662Y-54207685D01*
X124880300Y-54200000D01*
X124919700Y-54200000D01*
X124958338Y-54207685D01*
X124958338Y-54207685D01*
G37*
G36*
X125458338Y-54207685D02*
G01*
X125494736Y-54222762D01*
X125527488Y-54244646D01*
X125527490Y-54244648D01*
X125527493Y-54244650D01*
X125555350Y-54272507D01*
X125555352Y-54272510D01*
X125555354Y-54272512D01*
X125577238Y-54305264D01*
X125592315Y-54341662D01*
X125600000Y-54380300D01*
X125600000Y-54419700D01*
X125592315Y-54458338D01*
X125577238Y-54494736D01*
X125555354Y-54527488D01*
X125555352Y-54527490D01*
X125555350Y-54527493D01*
X125527493Y-54555350D01*
X125527490Y-54555352D01*
X125527488Y-54555354D01*
X125494736Y-54577238D01*
X125458338Y-54592315D01*
X125419700Y-54600000D01*
X125380300Y-54600000D01*
X125341662Y-54592315D01*
X125305264Y-54577238D01*
X125272512Y-54555354D01*
X125272510Y-54555352D01*
X125272507Y-54555350D01*
X125244650Y-54527493D01*
X125244648Y-54527490D01*
X125244646Y-54527488D01*
X125222762Y-54494736D01*
X125207685Y-54458338D01*
X125200000Y-54419700D01*
X125200000Y-54380300D01*
X125207685Y-54341662D01*
X125222762Y-54305264D01*
X125244646Y-54272512D01*
X125244648Y-54272510D01*
X125244650Y-54272507D01*
X125272507Y-54244650D01*
X125272510Y-54244648D01*
X125272512Y-54244646D01*
X125305264Y-54222762D01*
X125341662Y-54207685D01*
X125380300Y-54200000D01*
X125419700Y-54200000D01*
X125458338Y-54207685D01*
X125458338Y-54207685D01*
G37*
G36*
X125958338Y-54207685D02*
G01*
X125994736Y-54222762D01*
X126027488Y-54244646D01*
X126027490Y-54244648D01*
X126027493Y-54244650D01*
X126055350Y-54272507D01*
X126055352Y-54272510D01*
X126055354Y-54272512D01*
X126077238Y-54305264D01*
X126092315Y-54341662D01*
X126100000Y-54380300D01*
X126100000Y-54419700D01*
X126092315Y-54458338D01*
X126077238Y-54494736D01*
X126055354Y-54527488D01*
X126055352Y-54527490D01*
X126055350Y-54527493D01*
X126027493Y-54555350D01*
X126027490Y-54555352D01*
X126027488Y-54555354D01*
X125994736Y-54577238D01*
X125958338Y-54592315D01*
X125919700Y-54600000D01*
X125880300Y-54600000D01*
X125841662Y-54592315D01*
X125805264Y-54577238D01*
X125772512Y-54555354D01*
X125772510Y-54555352D01*
X125772507Y-54555350D01*
X125744650Y-54527493D01*
X125744648Y-54527490D01*
X125744646Y-54527488D01*
X125722762Y-54494736D01*
X125707685Y-54458338D01*
X125700000Y-54419700D01*
X125700000Y-54380300D01*
X125707685Y-54341662D01*
X125722762Y-54305264D01*
X125744646Y-54272512D01*
X125744648Y-54272510D01*
X125744650Y-54272507D01*
X125772507Y-54244650D01*
X125772510Y-54244648D01*
X125772512Y-54244646D01*
X125805264Y-54222762D01*
X125841662Y-54207685D01*
X125880300Y-54200000D01*
X125919700Y-54200000D01*
X125958338Y-54207685D01*
X125958338Y-54207685D01*
G37*
G36*
X126934705Y-53801197D02*
G01*
X126944041Y-53804030D01*
X126952646Y-53808629D01*
X126960185Y-53814815D01*
X126966371Y-53822354D01*
X126970970Y-53830959D01*
X126973803Y-53840295D01*
X126975000Y-53852452D01*
X126975000Y-54147548D01*
X126973803Y-54159705D01*
X126970970Y-54169041D01*
X126966371Y-54177646D01*
X126960185Y-54185185D01*
X126952646Y-54191371D01*
X126944041Y-54195970D01*
X126934705Y-54198803D01*
X126922548Y-54200000D01*
X126477452Y-54200000D01*
X126465295Y-54198803D01*
X126455959Y-54195970D01*
X126447354Y-54191371D01*
X126439815Y-54185185D01*
X126433629Y-54177646D01*
X126429030Y-54169041D01*
X126426197Y-54159705D01*
X126425000Y-54147548D01*
X126425000Y-53852452D01*
X126426197Y-53840295D01*
X126429030Y-53830959D01*
X126433629Y-53822354D01*
X126439815Y-53814815D01*
X126447354Y-53808629D01*
X126455959Y-53804030D01*
X126465295Y-53801197D01*
X126477452Y-53800000D01*
X126922548Y-53800000D01*
X126934705Y-53801197D01*
X126934705Y-53801197D01*
G37*
G36*
X128084705Y-53801197D02*
G01*
X128094041Y-53804030D01*
X128102646Y-53808629D01*
X128110185Y-53814815D01*
X128116371Y-53822354D01*
X128120970Y-53830959D01*
X128123803Y-53840295D01*
X128125000Y-53852452D01*
X128125000Y-54147548D01*
X128123803Y-54159705D01*
X128120970Y-54169041D01*
X128116371Y-54177646D01*
X128110185Y-54185185D01*
X128102646Y-54191371D01*
X128094041Y-54195970D01*
X128084705Y-54198803D01*
X128072548Y-54200000D01*
X127627452Y-54200000D01*
X127615295Y-54198803D01*
X127605959Y-54195970D01*
X127597354Y-54191371D01*
X127589815Y-54185185D01*
X127583629Y-54177646D01*
X127579030Y-54169041D01*
X127576197Y-54159705D01*
X127575000Y-54147548D01*
X127575000Y-53852452D01*
X127576197Y-53840295D01*
X127579030Y-53830959D01*
X127583629Y-53822354D01*
X127589815Y-53814815D01*
X127597354Y-53808629D01*
X127605959Y-53804030D01*
X127615295Y-53801197D01*
X127627452Y-53800000D01*
X128072548Y-53800000D01*
X128084705Y-53801197D01*
X128084705Y-53801197D01*
G37*
G36*
X125958338Y-53707685D02*
G01*
X125994736Y-53722762D01*
X126027488Y-53744646D01*
X126027490Y-53744648D01*
X126027493Y-53744650D01*
X126055350Y-53772507D01*
X126055352Y-53772510D01*
X126055354Y-53772512D01*
X126077238Y-53805264D01*
X126092315Y-53841662D01*
X126100000Y-53880300D01*
X126100000Y-53919700D01*
X126092315Y-53958338D01*
X126077238Y-53994736D01*
X126055354Y-54027488D01*
X126055352Y-54027490D01*
X126055350Y-54027493D01*
X126027493Y-54055350D01*
X126027490Y-54055352D01*
X126027488Y-54055354D01*
X125994736Y-54077238D01*
X125958338Y-54092315D01*
X125919700Y-54100000D01*
X125880300Y-54100000D01*
X125841662Y-54092315D01*
X125805264Y-54077238D01*
X125772512Y-54055354D01*
X125772510Y-54055352D01*
X125772507Y-54055350D01*
X125744650Y-54027493D01*
X125744648Y-54027490D01*
X125744646Y-54027488D01*
X125722762Y-53994736D01*
X125707685Y-53958338D01*
X125700000Y-53919700D01*
X125700000Y-53880300D01*
X125707685Y-53841662D01*
X125722762Y-53805264D01*
X125744646Y-53772512D01*
X125744648Y-53772510D01*
X125744650Y-53772507D01*
X125772507Y-53744650D01*
X125772510Y-53744648D01*
X125772512Y-53744646D01*
X125805264Y-53722762D01*
X125841662Y-53707685D01*
X125880300Y-53700000D01*
X125919700Y-53700000D01*
X125958338Y-53707685D01*
X125958338Y-53707685D01*
G37*
G36*
X123958338Y-53707685D02*
G01*
X123994736Y-53722762D01*
X124027488Y-53744646D01*
X124027490Y-53744648D01*
X124027493Y-53744650D01*
X124055350Y-53772507D01*
X124055352Y-53772510D01*
X124055354Y-53772512D01*
X124077238Y-53805264D01*
X124092315Y-53841662D01*
X124100000Y-53880300D01*
X124100000Y-53919700D01*
X124092315Y-53958338D01*
X124077238Y-53994736D01*
X124055354Y-54027488D01*
X124055352Y-54027490D01*
X124055350Y-54027493D01*
X124027493Y-54055350D01*
X124027490Y-54055352D01*
X124027488Y-54055354D01*
X123994736Y-54077238D01*
X123958338Y-54092315D01*
X123919700Y-54100000D01*
X123880300Y-54100000D01*
X123841662Y-54092315D01*
X123805264Y-54077238D01*
X123772512Y-54055354D01*
X123772510Y-54055352D01*
X123772507Y-54055350D01*
X123744650Y-54027493D01*
X123744648Y-54027490D01*
X123744646Y-54027488D01*
X123722762Y-53994736D01*
X123707685Y-53958338D01*
X123700000Y-53919700D01*
X123700000Y-53880300D01*
X123707685Y-53841662D01*
X123722762Y-53805264D01*
X123744646Y-53772512D01*
X123744648Y-53772510D01*
X123744650Y-53772507D01*
X123772507Y-53744650D01*
X123772510Y-53744648D01*
X123772512Y-53744646D01*
X123805264Y-53722762D01*
X123841662Y-53707685D01*
X123880300Y-53700000D01*
X123919700Y-53700000D01*
X123958338Y-53707685D01*
X123958338Y-53707685D01*
G37*
G36*
X121958338Y-53707685D02*
G01*
X121994736Y-53722762D01*
X122027488Y-53744646D01*
X122027490Y-53744648D01*
X122027493Y-53744650D01*
X122055350Y-53772507D01*
X122055352Y-53772510D01*
X122055354Y-53772512D01*
X122077238Y-53805264D01*
X122092315Y-53841662D01*
X122100000Y-53880300D01*
X122100000Y-53919700D01*
X122092315Y-53958338D01*
X122077238Y-53994736D01*
X122055354Y-54027488D01*
X122055352Y-54027490D01*
X122055350Y-54027493D01*
X122027493Y-54055350D01*
X122027490Y-54055352D01*
X122027488Y-54055354D01*
X121994736Y-54077238D01*
X121958338Y-54092315D01*
X121919700Y-54100000D01*
X121880300Y-54100000D01*
X121841662Y-54092315D01*
X121805264Y-54077238D01*
X121772512Y-54055354D01*
X121772510Y-54055352D01*
X121772507Y-54055350D01*
X121744650Y-54027493D01*
X121744648Y-54027490D01*
X121744646Y-54027488D01*
X121722762Y-53994736D01*
X121707685Y-53958338D01*
X121700000Y-53919700D01*
X121700000Y-53880300D01*
X121707685Y-53841662D01*
X121722762Y-53805264D01*
X121744646Y-53772512D01*
X121744648Y-53772510D01*
X121744650Y-53772507D01*
X121772507Y-53744650D01*
X121772510Y-53744648D01*
X121772512Y-53744646D01*
X121805264Y-53722762D01*
X121841662Y-53707685D01*
X121880300Y-53700000D01*
X121919700Y-53700000D01*
X121958338Y-53707685D01*
X121958338Y-53707685D01*
G37*
G36*
X122458338Y-53707685D02*
G01*
X122494736Y-53722762D01*
X122527488Y-53744646D01*
X122527490Y-53744648D01*
X122527493Y-53744650D01*
X122555350Y-53772507D01*
X122555352Y-53772510D01*
X122555354Y-53772512D01*
X122577238Y-53805264D01*
X122592315Y-53841662D01*
X122600000Y-53880300D01*
X122600000Y-53919700D01*
X122592315Y-53958338D01*
X122577238Y-53994736D01*
X122555354Y-54027488D01*
X122555352Y-54027490D01*
X122555350Y-54027493D01*
X122527493Y-54055350D01*
X122527490Y-54055352D01*
X122527488Y-54055354D01*
X122494736Y-54077238D01*
X122458338Y-54092315D01*
X122419700Y-54100000D01*
X122380300Y-54100000D01*
X122341662Y-54092315D01*
X122305264Y-54077238D01*
X122272512Y-54055354D01*
X122272510Y-54055352D01*
X122272507Y-54055350D01*
X122244650Y-54027493D01*
X122244648Y-54027490D01*
X122244646Y-54027488D01*
X122222762Y-53994736D01*
X122207685Y-53958338D01*
X122200000Y-53919700D01*
X122200000Y-53880300D01*
X122207685Y-53841662D01*
X122222762Y-53805264D01*
X122244646Y-53772512D01*
X122244648Y-53772510D01*
X122244650Y-53772507D01*
X122272507Y-53744650D01*
X122272510Y-53744648D01*
X122272512Y-53744646D01*
X122305264Y-53722762D01*
X122341662Y-53707685D01*
X122380300Y-53700000D01*
X122419700Y-53700000D01*
X122458338Y-53707685D01*
X122458338Y-53707685D01*
G37*
G36*
X123458338Y-53707685D02*
G01*
X123494736Y-53722762D01*
X123527488Y-53744646D01*
X123527490Y-53744648D01*
X123527493Y-53744650D01*
X123555350Y-53772507D01*
X123555352Y-53772510D01*
X123555354Y-53772512D01*
X123577238Y-53805264D01*
X123592315Y-53841662D01*
X123600000Y-53880300D01*
X123600000Y-53919700D01*
X123592315Y-53958338D01*
X123577238Y-53994736D01*
X123555354Y-54027488D01*
X123555352Y-54027490D01*
X123555350Y-54027493D01*
X123527493Y-54055350D01*
X123527490Y-54055352D01*
X123527488Y-54055354D01*
X123494736Y-54077238D01*
X123458338Y-54092315D01*
X123419700Y-54100000D01*
X123380300Y-54100000D01*
X123341662Y-54092315D01*
X123305264Y-54077238D01*
X123272512Y-54055354D01*
X123272510Y-54055352D01*
X123272507Y-54055350D01*
X123244650Y-54027493D01*
X123244648Y-54027490D01*
X123244646Y-54027488D01*
X123222762Y-53994736D01*
X123207685Y-53958338D01*
X123200000Y-53919700D01*
X123200000Y-53880300D01*
X123207685Y-53841662D01*
X123222762Y-53805264D01*
X123244646Y-53772512D01*
X123244648Y-53772510D01*
X123244650Y-53772507D01*
X123272507Y-53744650D01*
X123272510Y-53744648D01*
X123272512Y-53744646D01*
X123305264Y-53722762D01*
X123341662Y-53707685D01*
X123380300Y-53700000D01*
X123419700Y-53700000D01*
X123458338Y-53707685D01*
X123458338Y-53707685D01*
G37*
G36*
X124958338Y-53707685D02*
G01*
X124994736Y-53722762D01*
X125027488Y-53744646D01*
X125027490Y-53744648D01*
X125027493Y-53744650D01*
X125055350Y-53772507D01*
X125055352Y-53772510D01*
X125055354Y-53772512D01*
X125077238Y-53805264D01*
X125092315Y-53841662D01*
X125100000Y-53880300D01*
X125100000Y-53919700D01*
X125092315Y-53958338D01*
X125077238Y-53994736D01*
X125055354Y-54027488D01*
X125055352Y-54027490D01*
X125055350Y-54027493D01*
X125027493Y-54055350D01*
X125027490Y-54055352D01*
X125027488Y-54055354D01*
X124994736Y-54077238D01*
X124958338Y-54092315D01*
X124919700Y-54100000D01*
X124880300Y-54100000D01*
X124841662Y-54092315D01*
X124805264Y-54077238D01*
X124772512Y-54055354D01*
X124772510Y-54055352D01*
X124772507Y-54055350D01*
X124744650Y-54027493D01*
X124744648Y-54027490D01*
X124744646Y-54027488D01*
X124722762Y-53994736D01*
X124707685Y-53958338D01*
X124700000Y-53919700D01*
X124700000Y-53880300D01*
X124707685Y-53841662D01*
X124722762Y-53805264D01*
X124744646Y-53772512D01*
X124744648Y-53772510D01*
X124744650Y-53772507D01*
X124772507Y-53744650D01*
X124772510Y-53744648D01*
X124772512Y-53744646D01*
X124805264Y-53722762D01*
X124841662Y-53707685D01*
X124880300Y-53700000D01*
X124919700Y-53700000D01*
X124958338Y-53707685D01*
X124958338Y-53707685D01*
G37*
G36*
X125458338Y-53707685D02*
G01*
X125494736Y-53722762D01*
X125527488Y-53744646D01*
X125527490Y-53744648D01*
X125527493Y-53744650D01*
X125555350Y-53772507D01*
X125555352Y-53772510D01*
X125555354Y-53772512D01*
X125577238Y-53805264D01*
X125592315Y-53841662D01*
X125600000Y-53880300D01*
X125600000Y-53919700D01*
X125592315Y-53958338D01*
X125577238Y-53994736D01*
X125555354Y-54027488D01*
X125555352Y-54027490D01*
X125555350Y-54027493D01*
X125527493Y-54055350D01*
X125527490Y-54055352D01*
X125527488Y-54055354D01*
X125494736Y-54077238D01*
X125458338Y-54092315D01*
X125419700Y-54100000D01*
X125380300Y-54100000D01*
X125341662Y-54092315D01*
X125305264Y-54077238D01*
X125272512Y-54055354D01*
X125272510Y-54055352D01*
X125272507Y-54055350D01*
X125244650Y-54027493D01*
X125244648Y-54027490D01*
X125244646Y-54027488D01*
X125222762Y-53994736D01*
X125207685Y-53958338D01*
X125200000Y-53919700D01*
X125200000Y-53880300D01*
X125207685Y-53841662D01*
X125222762Y-53805264D01*
X125244646Y-53772512D01*
X125244648Y-53772510D01*
X125244650Y-53772507D01*
X125272507Y-53744650D01*
X125272510Y-53744648D01*
X125272512Y-53744646D01*
X125305264Y-53722762D01*
X125341662Y-53707685D01*
X125380300Y-53700000D01*
X125419700Y-53700000D01*
X125458338Y-53707685D01*
X125458338Y-53707685D01*
G37*
G36*
X127434705Y-53476197D02*
G01*
X127444041Y-53479030D01*
X127452646Y-53483629D01*
X127460185Y-53489815D01*
X127466371Y-53497354D01*
X127470970Y-53505959D01*
X127473803Y-53515295D01*
X127475000Y-53527452D01*
X127475000Y-53972548D01*
X127473803Y-53984705D01*
X127470970Y-53994041D01*
X127466371Y-54002646D01*
X127460185Y-54010185D01*
X127452646Y-54016371D01*
X127444041Y-54020970D01*
X127434705Y-54023803D01*
X127422548Y-54025000D01*
X127127452Y-54025000D01*
X127115295Y-54023803D01*
X127105959Y-54020970D01*
X127097354Y-54016371D01*
X127089815Y-54010185D01*
X127083629Y-54002646D01*
X127079030Y-53994041D01*
X127076197Y-53984705D01*
X127075000Y-53972548D01*
X127075000Y-53527452D01*
X127076197Y-53515295D01*
X127079030Y-53505959D01*
X127083629Y-53497354D01*
X127089815Y-53489815D01*
X127097354Y-53483629D01*
X127105959Y-53479030D01*
X127115295Y-53476197D01*
X127127452Y-53475000D01*
X127422548Y-53475000D01*
X127434705Y-53476197D01*
X127434705Y-53476197D01*
G37*
G36*
X121169460Y-52802158D02*
G01*
X121188173Y-52807835D01*
X121205424Y-52817055D01*
X121220539Y-52829461D01*
X121232945Y-52844576D01*
X121242165Y-52861827D01*
X121247842Y-52880540D01*
X121250000Y-52902453D01*
X121250000Y-53257547D01*
X121247842Y-53279460D01*
X121242165Y-53298173D01*
X121232945Y-53315424D01*
X121220539Y-53330539D01*
X121205424Y-53342945D01*
X121188136Y-53352185D01*
X121179155Y-53355905D01*
X121171005Y-53361350D01*
X121164075Y-53368281D01*
X121158629Y-53376430D01*
X121154878Y-53385486D01*
X121152966Y-53395099D01*
X121152966Y-53404900D01*
X121154878Y-53414513D01*
X121158629Y-53423569D01*
X121164074Y-53431719D01*
X121171005Y-53438649D01*
X121179154Y-53444095D01*
X121188136Y-53447815D01*
X121205424Y-53457055D01*
X121220539Y-53469461D01*
X121232945Y-53484576D01*
X121242165Y-53501827D01*
X121247842Y-53520540D01*
X121250000Y-53542453D01*
X121250000Y-53897547D01*
X121247842Y-53919460D01*
X121242165Y-53938173D01*
X121232945Y-53955424D01*
X121220539Y-53970539D01*
X121205424Y-53982945D01*
X121188173Y-53992165D01*
X121169460Y-53997842D01*
X121147547Y-54000000D01*
X120852453Y-54000000D01*
X120830540Y-53997842D01*
X120811827Y-53992165D01*
X120794576Y-53982945D01*
X120779461Y-53970539D01*
X120767055Y-53955424D01*
X120757835Y-53938173D01*
X120752158Y-53919460D01*
X120750000Y-53897547D01*
X120750000Y-53542453D01*
X120752158Y-53520540D01*
X120757835Y-53501827D01*
X120767055Y-53484576D01*
X120779461Y-53469461D01*
X120794576Y-53457055D01*
X120811864Y-53447815D01*
X120820845Y-53444095D01*
X120828995Y-53438650D01*
X120835925Y-53431719D01*
X120841371Y-53423570D01*
X120845122Y-53414514D01*
X120847034Y-53404901D01*
X120847034Y-53395100D01*
X120845122Y-53385487D01*
X120841371Y-53376431D01*
X120835926Y-53368281D01*
X120828995Y-53361351D01*
X120820846Y-53355905D01*
X120811864Y-53352185D01*
X120794576Y-53342945D01*
X120779461Y-53330539D01*
X120767055Y-53315424D01*
X120757835Y-53298173D01*
X120752158Y-53279460D01*
X120750000Y-53257547D01*
X120750000Y-52902453D01*
X120752158Y-52880540D01*
X120757835Y-52861827D01*
X120767055Y-52844576D01*
X120779461Y-52829461D01*
X120794576Y-52817055D01*
X120811827Y-52807835D01*
X120830540Y-52802158D01*
X120852453Y-52800000D01*
X121147547Y-52800000D01*
X121169460Y-52802158D01*
X121169460Y-52802158D01*
G37*
G36*
X128329460Y-52877158D02*
G01*
X128348173Y-52882835D01*
X128365424Y-52892055D01*
X128380539Y-52904461D01*
X128392945Y-52919576D01*
X128402185Y-52936864D01*
X128405905Y-52945845D01*
X128411350Y-52953995D01*
X128418281Y-52960925D01*
X128426430Y-52966371D01*
X128435486Y-52970122D01*
X128445099Y-52972034D01*
X128454900Y-52972034D01*
X128464513Y-52970122D01*
X128473569Y-52966371D01*
X128481719Y-52960926D01*
X128488649Y-52953995D01*
X128494095Y-52945846D01*
X128497815Y-52936864D01*
X128507055Y-52919576D01*
X128519461Y-52904461D01*
X128534576Y-52892055D01*
X128551827Y-52882835D01*
X128570540Y-52877158D01*
X128592453Y-52875000D01*
X128947547Y-52875000D01*
X128969460Y-52877158D01*
X128988173Y-52882835D01*
X129005424Y-52892055D01*
X129020539Y-52904461D01*
X129032945Y-52919576D01*
X129042165Y-52936827D01*
X129047842Y-52955540D01*
X129050000Y-52977453D01*
X129050000Y-53272547D01*
X129047842Y-53294460D01*
X129042165Y-53313173D01*
X129032945Y-53330424D01*
X129020539Y-53345539D01*
X129005424Y-53357945D01*
X128988173Y-53367165D01*
X128969460Y-53372842D01*
X128947547Y-53375000D01*
X128592453Y-53375000D01*
X128570540Y-53372842D01*
X128551827Y-53367165D01*
X128534576Y-53357945D01*
X128519461Y-53345539D01*
X128507055Y-53330424D01*
X128497815Y-53313136D01*
X128494095Y-53304155D01*
X128488650Y-53296005D01*
X128481719Y-53289075D01*
X128473570Y-53283629D01*
X128464514Y-53279878D01*
X128454901Y-53277966D01*
X128445100Y-53277966D01*
X128435487Y-53279878D01*
X128426431Y-53283629D01*
X128418281Y-53289074D01*
X128411351Y-53296005D01*
X128405905Y-53304154D01*
X128402185Y-53313136D01*
X128392945Y-53330424D01*
X128380539Y-53345539D01*
X128365424Y-53357945D01*
X128348173Y-53367165D01*
X128329460Y-53372842D01*
X128307547Y-53375000D01*
X127952453Y-53375000D01*
X127930540Y-53372842D01*
X127911827Y-53367165D01*
X127894576Y-53357945D01*
X127879461Y-53345539D01*
X127867055Y-53330424D01*
X127857835Y-53313173D01*
X127852158Y-53294460D01*
X127850000Y-53272547D01*
X127850000Y-52977453D01*
X127852158Y-52955540D01*
X127857835Y-52936827D01*
X127867055Y-52919576D01*
X127879461Y-52904461D01*
X127894576Y-52892055D01*
X127911827Y-52882835D01*
X127930540Y-52877158D01*
X127952453Y-52875000D01*
X128307547Y-52875000D01*
X128329460Y-52877158D01*
X128329460Y-52877158D01*
G37*
G36*
X127029460Y-52877158D02*
G01*
X127048173Y-52882835D01*
X127065424Y-52892055D01*
X127080539Y-52904461D01*
X127092945Y-52919576D01*
X127102185Y-52936864D01*
X127105905Y-52945845D01*
X127111350Y-52953995D01*
X127118281Y-52960925D01*
X127126430Y-52966371D01*
X127135486Y-52970122D01*
X127145099Y-52972034D01*
X127154900Y-52972034D01*
X127164513Y-52970122D01*
X127173569Y-52966371D01*
X127181719Y-52960926D01*
X127188649Y-52953995D01*
X127194095Y-52945846D01*
X127197815Y-52936864D01*
X127207055Y-52919576D01*
X127219461Y-52904461D01*
X127234576Y-52892055D01*
X127251827Y-52882835D01*
X127270540Y-52877158D01*
X127292453Y-52875000D01*
X127647547Y-52875000D01*
X127669460Y-52877158D01*
X127688173Y-52882835D01*
X127705424Y-52892055D01*
X127720539Y-52904461D01*
X127732945Y-52919576D01*
X127742165Y-52936827D01*
X127747842Y-52955540D01*
X127750000Y-52977453D01*
X127750000Y-53272547D01*
X127747842Y-53294460D01*
X127742165Y-53313173D01*
X127732945Y-53330424D01*
X127720539Y-53345539D01*
X127705424Y-53357945D01*
X127688173Y-53367165D01*
X127669460Y-53372842D01*
X127647547Y-53375000D01*
X127292453Y-53375000D01*
X127270540Y-53372842D01*
X127251827Y-53367165D01*
X127234576Y-53357945D01*
X127219461Y-53345539D01*
X127207055Y-53330424D01*
X127197815Y-53313136D01*
X127194095Y-53304155D01*
X127188650Y-53296005D01*
X127181719Y-53289075D01*
X127173570Y-53283629D01*
X127164514Y-53279878D01*
X127154901Y-53277966D01*
X127145100Y-53277966D01*
X127135487Y-53279878D01*
X127126431Y-53283629D01*
X127118281Y-53289074D01*
X127111351Y-53296005D01*
X127105905Y-53304154D01*
X127102185Y-53313136D01*
X127092945Y-53330424D01*
X127080539Y-53345539D01*
X127065424Y-53357945D01*
X127048173Y-53367165D01*
X127029460Y-53372842D01*
X127007547Y-53375000D01*
X126652453Y-53375000D01*
X126630540Y-53372842D01*
X126611827Y-53367165D01*
X126594576Y-53357945D01*
X126579461Y-53345539D01*
X126567055Y-53330424D01*
X126557835Y-53313173D01*
X126552158Y-53294460D01*
X126550000Y-53272547D01*
X126550000Y-52977453D01*
X126552158Y-52955540D01*
X126557835Y-52936827D01*
X126567055Y-52919576D01*
X126579461Y-52904461D01*
X126594576Y-52892055D01*
X126611827Y-52882835D01*
X126630540Y-52877158D01*
X126652453Y-52875000D01*
X127007547Y-52875000D01*
X127029460Y-52877158D01*
X127029460Y-52877158D01*
G37*
G36*
X124919460Y-52067158D02*
G01*
X124938173Y-52072835D01*
X124955424Y-52082055D01*
X124970539Y-52094461D01*
X124982945Y-52109576D01*
X124992165Y-52126827D01*
X124997842Y-52145540D01*
X125000000Y-52167453D01*
X125000000Y-52522547D01*
X124997842Y-52544460D01*
X124992165Y-52563173D01*
X124982945Y-52580424D01*
X124970539Y-52595539D01*
X124955424Y-52607945D01*
X124938136Y-52617185D01*
X124929155Y-52620905D01*
X124921005Y-52626350D01*
X124914075Y-52633281D01*
X124908629Y-52641430D01*
X124904878Y-52650486D01*
X124902966Y-52660099D01*
X124902966Y-52669900D01*
X124904878Y-52679513D01*
X124908629Y-52688569D01*
X124914074Y-52696719D01*
X124921005Y-52703649D01*
X124929154Y-52709095D01*
X124938136Y-52712815D01*
X124955424Y-52722055D01*
X124970539Y-52734461D01*
X124982945Y-52749576D01*
X124992165Y-52766827D01*
X124997842Y-52785540D01*
X125000000Y-52807453D01*
X125000000Y-53162547D01*
X124997842Y-53184460D01*
X124992165Y-53203173D01*
X124982945Y-53220424D01*
X124970539Y-53235539D01*
X124955424Y-53247945D01*
X124938173Y-53257165D01*
X124919460Y-53262842D01*
X124897547Y-53265000D01*
X124602453Y-53265000D01*
X124580540Y-53262842D01*
X124561827Y-53257165D01*
X124544576Y-53247945D01*
X124529461Y-53235539D01*
X124517055Y-53220424D01*
X124507835Y-53203173D01*
X124502158Y-53184460D01*
X124500000Y-53162547D01*
X124500000Y-52807453D01*
X124502158Y-52785540D01*
X124507835Y-52766827D01*
X124517055Y-52749576D01*
X124529461Y-52734461D01*
X124544576Y-52722055D01*
X124561864Y-52712815D01*
X124570845Y-52709095D01*
X124578995Y-52703650D01*
X124585925Y-52696719D01*
X124591371Y-52688570D01*
X124595122Y-52679514D01*
X124597034Y-52669901D01*
X124597034Y-52660100D01*
X124595122Y-52650487D01*
X124591371Y-52641431D01*
X124585926Y-52633281D01*
X124578995Y-52626351D01*
X124570846Y-52620905D01*
X124561864Y-52617185D01*
X124544576Y-52607945D01*
X124529461Y-52595539D01*
X124517055Y-52580424D01*
X124507835Y-52563173D01*
X124502158Y-52544460D01*
X124500000Y-52522547D01*
X124500000Y-52167453D01*
X124502158Y-52145540D01*
X124507835Y-52126827D01*
X124517055Y-52109576D01*
X124529461Y-52094461D01*
X124544576Y-52082055D01*
X124561827Y-52072835D01*
X124580540Y-52067158D01*
X124602453Y-52065000D01*
X124897547Y-52065000D01*
X124919460Y-52067158D01*
X124919460Y-52067158D01*
G37*
G36*
X126309460Y-52057158D02*
G01*
X126328173Y-52062835D01*
X126345424Y-52072055D01*
X126360539Y-52084461D01*
X126372945Y-52099576D01*
X126382165Y-52116827D01*
X126387842Y-52135540D01*
X126390000Y-52157453D01*
X126390000Y-52512547D01*
X126387842Y-52534460D01*
X126382165Y-52553173D01*
X126372945Y-52570424D01*
X126360539Y-52585539D01*
X126345424Y-52597945D01*
X126328136Y-52607185D01*
X126319155Y-52610905D01*
X126311005Y-52616350D01*
X126304075Y-52623281D01*
X126298629Y-52631430D01*
X126294878Y-52640486D01*
X126292966Y-52650099D01*
X126292966Y-52659900D01*
X126294878Y-52669513D01*
X126298629Y-52678569D01*
X126304074Y-52686719D01*
X126311005Y-52693649D01*
X126319154Y-52699095D01*
X126328136Y-52702815D01*
X126345424Y-52712055D01*
X126360539Y-52724461D01*
X126372945Y-52739576D01*
X126382165Y-52756827D01*
X126387842Y-52775540D01*
X126390000Y-52797453D01*
X126390000Y-53152547D01*
X126387842Y-53174460D01*
X126382165Y-53193173D01*
X126372945Y-53210424D01*
X126360539Y-53225539D01*
X126345424Y-53237945D01*
X126328173Y-53247165D01*
X126309460Y-53252842D01*
X126287547Y-53255000D01*
X125992453Y-53255000D01*
X125970540Y-53252842D01*
X125951827Y-53247165D01*
X125934576Y-53237945D01*
X125919461Y-53225539D01*
X125907055Y-53210424D01*
X125897835Y-53193173D01*
X125892158Y-53174460D01*
X125890000Y-53152547D01*
X125890000Y-52797453D01*
X125892158Y-52775540D01*
X125897835Y-52756827D01*
X125907055Y-52739576D01*
X125919461Y-52724461D01*
X125934576Y-52712055D01*
X125951864Y-52702815D01*
X125960845Y-52699095D01*
X125968995Y-52693650D01*
X125975925Y-52686719D01*
X125981371Y-52678570D01*
X125985122Y-52669514D01*
X125987034Y-52659901D01*
X125987034Y-52650100D01*
X125985122Y-52640487D01*
X125981371Y-52631431D01*
X125975926Y-52623281D01*
X125968995Y-52616351D01*
X125960846Y-52610905D01*
X125951864Y-52607185D01*
X125934576Y-52597945D01*
X125919461Y-52585539D01*
X125907055Y-52570424D01*
X125897835Y-52553173D01*
X125892158Y-52534460D01*
X125890000Y-52512547D01*
X125890000Y-52157453D01*
X125892158Y-52135540D01*
X125897835Y-52116827D01*
X125907055Y-52099576D01*
X125919461Y-52084461D01*
X125934576Y-52072055D01*
X125951827Y-52062835D01*
X125970540Y-52057158D01*
X125992453Y-52055000D01*
X126287547Y-52055000D01*
X126309460Y-52057158D01*
X126309460Y-52057158D01*
G37*
G36*
X125699460Y-52052158D02*
G01*
X125718173Y-52057835D01*
X125735424Y-52067055D01*
X125750539Y-52079461D01*
X125762945Y-52094576D01*
X125772165Y-52111827D01*
X125777842Y-52130540D01*
X125780000Y-52152453D01*
X125780000Y-52507547D01*
X125777842Y-52529460D01*
X125772165Y-52548173D01*
X125762945Y-52565424D01*
X125750539Y-52580539D01*
X125735424Y-52592945D01*
X125718136Y-52602185D01*
X125709155Y-52605905D01*
X125701005Y-52611350D01*
X125694075Y-52618281D01*
X125688629Y-52626430D01*
X125684878Y-52635486D01*
X125682966Y-52645099D01*
X125682966Y-52654900D01*
X125684878Y-52664513D01*
X125688629Y-52673569D01*
X125694074Y-52681719D01*
X125701005Y-52688649D01*
X125709154Y-52694095D01*
X125718136Y-52697815D01*
X125735424Y-52707055D01*
X125750539Y-52719461D01*
X125762945Y-52734576D01*
X125772165Y-52751827D01*
X125777842Y-52770540D01*
X125780000Y-52792453D01*
X125780000Y-53147547D01*
X125777842Y-53169460D01*
X125772165Y-53188173D01*
X125762945Y-53205424D01*
X125750539Y-53220539D01*
X125735424Y-53232945D01*
X125718173Y-53242165D01*
X125699460Y-53247842D01*
X125677547Y-53250000D01*
X125382453Y-53250000D01*
X125360540Y-53247842D01*
X125341827Y-53242165D01*
X125324576Y-53232945D01*
X125309461Y-53220539D01*
X125297055Y-53205424D01*
X125287835Y-53188173D01*
X125282158Y-53169460D01*
X125280000Y-53147547D01*
X125280000Y-52792453D01*
X125282158Y-52770540D01*
X125287835Y-52751827D01*
X125297055Y-52734576D01*
X125309461Y-52719461D01*
X125324576Y-52707055D01*
X125341864Y-52697815D01*
X125350845Y-52694095D01*
X125358995Y-52688650D01*
X125365925Y-52681719D01*
X125371371Y-52673570D01*
X125375122Y-52664514D01*
X125377034Y-52654901D01*
X125377034Y-52645100D01*
X125375122Y-52635487D01*
X125371371Y-52626431D01*
X125365926Y-52618281D01*
X125358995Y-52611351D01*
X125350846Y-52605905D01*
X125341864Y-52602185D01*
X125324576Y-52592945D01*
X125309461Y-52580539D01*
X125297055Y-52565424D01*
X125287835Y-52548173D01*
X125282158Y-52529460D01*
X125280000Y-52507547D01*
X125280000Y-52152453D01*
X125282158Y-52130540D01*
X125287835Y-52111827D01*
X125297055Y-52094576D01*
X125309461Y-52079461D01*
X125324576Y-52067055D01*
X125341827Y-52057835D01*
X125360540Y-52052158D01*
X125382453Y-52050000D01*
X125677547Y-52050000D01*
X125699460Y-52052158D01*
X125699460Y-52052158D01*
G37*
G36*
X122527753Y-52421005D02*
G01*
X122535217Y-52423269D01*
X122542090Y-52426943D01*
X122548114Y-52431886D01*
X122553057Y-52437910D01*
X122556731Y-52444783D01*
X122558995Y-52452247D01*
X122560000Y-52462453D01*
X122560000Y-53177547D01*
X122558995Y-53187753D01*
X122556731Y-53195217D01*
X122553057Y-53202090D01*
X122548114Y-53208114D01*
X122542090Y-53213057D01*
X122535217Y-53216731D01*
X122527753Y-53218995D01*
X122517547Y-53220000D01*
X121602453Y-53220000D01*
X121592247Y-53218995D01*
X121584783Y-53216731D01*
X121577910Y-53213057D01*
X121571886Y-53208114D01*
X121566943Y-53202090D01*
X121563269Y-53195217D01*
X121561005Y-53187753D01*
X121560000Y-53177547D01*
X121560000Y-52462453D01*
X121561005Y-52452247D01*
X121563269Y-52444783D01*
X121566943Y-52437910D01*
X121571886Y-52431886D01*
X121577910Y-52426943D01*
X121584783Y-52423269D01*
X121592247Y-52421005D01*
X121602453Y-52420000D01*
X122517547Y-52420000D01*
X122527753Y-52421005D01*
X122527753Y-52421005D01*
G37*
G36*
X124327753Y-52421005D02*
G01*
X124335217Y-52423269D01*
X124342090Y-52426943D01*
X124348114Y-52431886D01*
X124353057Y-52437910D01*
X124356731Y-52444783D01*
X124358995Y-52452247D01*
X124360000Y-52462453D01*
X124360000Y-53177547D01*
X124358995Y-53187753D01*
X124356731Y-53195217D01*
X124353057Y-53202090D01*
X124348114Y-53208114D01*
X124342090Y-53213057D01*
X124335217Y-53216731D01*
X124327753Y-53218995D01*
X124317547Y-53220000D01*
X123402453Y-53220000D01*
X123392247Y-53218995D01*
X123384783Y-53216731D01*
X123377910Y-53213057D01*
X123371886Y-53208114D01*
X123366943Y-53202090D01*
X123363269Y-53195217D01*
X123361005Y-53187753D01*
X123360000Y-53177547D01*
X123360000Y-52462453D01*
X123361005Y-52452247D01*
X123363269Y-52444783D01*
X123366943Y-52437910D01*
X123371886Y-52431886D01*
X123377910Y-52426943D01*
X123384783Y-52423269D01*
X123392247Y-52421005D01*
X123402453Y-52420000D01*
X124317547Y-52420000D01*
X124327753Y-52421005D01*
X124327753Y-52421005D01*
G37*
G36*
X127509584Y-52161678D02*
G01*
X127523611Y-52165933D01*
X127536532Y-52172840D01*
X127547862Y-52182138D01*
X127557160Y-52193468D01*
X127564067Y-52206389D01*
X127568322Y-52220416D01*
X127570000Y-52237454D01*
X127570000Y-52682546D01*
X127568322Y-52699584D01*
X127564067Y-52713611D01*
X127557160Y-52726532D01*
X127547862Y-52737862D01*
X127536532Y-52747160D01*
X127523611Y-52754067D01*
X127509584Y-52758322D01*
X127492546Y-52760000D01*
X127247454Y-52760000D01*
X127230416Y-52758322D01*
X127216389Y-52754067D01*
X127203468Y-52747160D01*
X127192138Y-52737862D01*
X127182840Y-52726532D01*
X127175933Y-52713611D01*
X127171678Y-52699584D01*
X127170000Y-52682546D01*
X127170000Y-52237454D01*
X127171678Y-52220416D01*
X127175933Y-52206389D01*
X127182840Y-52193468D01*
X127192138Y-52182138D01*
X127203468Y-52172840D01*
X127216389Y-52165933D01*
X127230416Y-52161678D01*
X127247454Y-52160000D01*
X127492546Y-52160000D01*
X127509584Y-52161678D01*
X127509584Y-52161678D01*
G37*
G36*
X128009584Y-52161678D02*
G01*
X128023611Y-52165933D01*
X128036532Y-52172840D01*
X128047862Y-52182138D01*
X128057160Y-52193468D01*
X128064067Y-52206389D01*
X128068322Y-52220416D01*
X128070000Y-52237454D01*
X128070000Y-52682546D01*
X128068322Y-52699584D01*
X128064067Y-52713611D01*
X128057160Y-52726532D01*
X128047862Y-52737862D01*
X128036532Y-52747160D01*
X128023611Y-52754067D01*
X128009584Y-52758322D01*
X127992546Y-52760000D01*
X127747454Y-52760000D01*
X127730416Y-52758322D01*
X127716389Y-52754067D01*
X127703468Y-52747160D01*
X127692138Y-52737862D01*
X127682840Y-52726532D01*
X127675933Y-52713611D01*
X127671678Y-52699584D01*
X127670000Y-52682546D01*
X127670000Y-52237454D01*
X127671678Y-52220416D01*
X127675933Y-52206389D01*
X127682840Y-52193468D01*
X127692138Y-52182138D01*
X127703468Y-52172840D01*
X127716389Y-52165933D01*
X127730416Y-52161678D01*
X127747454Y-52160000D01*
X127992546Y-52160000D01*
X128009584Y-52161678D01*
X128009584Y-52161678D01*
G37*
G36*
X129009584Y-52161678D02*
G01*
X129023611Y-52165933D01*
X129036532Y-52172840D01*
X129047862Y-52182138D01*
X129057160Y-52193468D01*
X129064067Y-52206389D01*
X129068322Y-52220416D01*
X129070000Y-52237454D01*
X129070000Y-52682546D01*
X129068322Y-52699584D01*
X129064067Y-52713611D01*
X129057160Y-52726532D01*
X129047862Y-52737862D01*
X129036532Y-52747160D01*
X129023611Y-52754067D01*
X129009584Y-52758322D01*
X128992546Y-52760000D01*
X128747454Y-52760000D01*
X128730416Y-52758322D01*
X128716389Y-52754067D01*
X128703468Y-52747160D01*
X128692138Y-52737862D01*
X128682840Y-52726532D01*
X128675933Y-52713611D01*
X128671678Y-52699584D01*
X128670000Y-52682546D01*
X128670000Y-52237454D01*
X128671678Y-52220416D01*
X128675933Y-52206389D01*
X128682840Y-52193468D01*
X128692138Y-52182138D01*
X128703468Y-52172840D01*
X128716389Y-52165933D01*
X128730416Y-52161678D01*
X128747454Y-52160000D01*
X128992546Y-52160000D01*
X129009584Y-52161678D01*
X129009584Y-52161678D01*
G37*
G36*
X128509584Y-52161678D02*
G01*
X128523611Y-52165933D01*
X128536532Y-52172840D01*
X128547862Y-52182138D01*
X128557160Y-52193468D01*
X128564067Y-52206389D01*
X128568322Y-52220416D01*
X128570000Y-52237454D01*
X128570000Y-52682546D01*
X128568322Y-52699584D01*
X128564067Y-52713611D01*
X128557160Y-52726532D01*
X128547862Y-52737862D01*
X128536532Y-52747160D01*
X128523611Y-52754067D01*
X128509584Y-52758322D01*
X128492546Y-52760000D01*
X128247454Y-52760000D01*
X128230416Y-52758322D01*
X128216389Y-52754067D01*
X128203468Y-52747160D01*
X128192138Y-52737862D01*
X128182840Y-52726532D01*
X128175933Y-52713611D01*
X128171678Y-52699584D01*
X128170000Y-52682546D01*
X128170000Y-52237454D01*
X128171678Y-52220416D01*
X128175933Y-52206389D01*
X128182840Y-52193468D01*
X128192138Y-52182138D01*
X128203468Y-52172840D01*
X128216389Y-52165933D01*
X128230416Y-52161678D01*
X128247454Y-52160000D01*
X128492546Y-52160000D01*
X128509584Y-52161678D01*
X128509584Y-52161678D01*
G37*
G36*
X126909460Y-51427158D02*
G01*
X126928173Y-51432835D01*
X126945424Y-51442055D01*
X126960539Y-51454461D01*
X126972945Y-51469576D01*
X126982165Y-51486827D01*
X126987842Y-51505540D01*
X126990000Y-51527453D01*
X126990000Y-51882547D01*
X126987842Y-51904460D01*
X126982165Y-51923173D01*
X126972945Y-51940424D01*
X126960539Y-51955539D01*
X126945424Y-51967945D01*
X126928136Y-51977185D01*
X126919155Y-51980905D01*
X126911005Y-51986350D01*
X126904075Y-51993281D01*
X126898629Y-52001430D01*
X126894878Y-52010486D01*
X126892966Y-52020099D01*
X126892966Y-52029900D01*
X126894878Y-52039513D01*
X126898629Y-52048569D01*
X126904074Y-52056719D01*
X126911005Y-52063649D01*
X126919154Y-52069095D01*
X126928136Y-52072815D01*
X126945424Y-52082055D01*
X126960539Y-52094461D01*
X126972945Y-52109576D01*
X126982165Y-52126827D01*
X126987842Y-52145540D01*
X126990000Y-52167453D01*
X126990000Y-52522547D01*
X126987842Y-52544460D01*
X126982165Y-52563173D01*
X126972945Y-52580424D01*
X126960539Y-52595539D01*
X126945424Y-52607945D01*
X126928173Y-52617165D01*
X126909460Y-52622842D01*
X126887547Y-52625000D01*
X126592453Y-52625000D01*
X126570540Y-52622842D01*
X126551827Y-52617165D01*
X126534576Y-52607945D01*
X126519461Y-52595539D01*
X126507055Y-52580424D01*
X126497835Y-52563173D01*
X126492158Y-52544460D01*
X126490000Y-52522547D01*
X126490000Y-52167453D01*
X126492158Y-52145540D01*
X126497835Y-52126827D01*
X126507055Y-52109576D01*
X126519461Y-52094461D01*
X126534576Y-52082055D01*
X126551864Y-52072815D01*
X126560845Y-52069095D01*
X126568995Y-52063650D01*
X126575925Y-52056719D01*
X126581371Y-52048570D01*
X126585122Y-52039514D01*
X126587034Y-52029901D01*
X126587034Y-52020100D01*
X126585122Y-52010487D01*
X126581371Y-52001431D01*
X126575926Y-51993281D01*
X126568995Y-51986351D01*
X126560846Y-51980905D01*
X126551864Y-51977185D01*
X126534576Y-51967945D01*
X126519461Y-51955539D01*
X126507055Y-51940424D01*
X126497835Y-51923173D01*
X126492158Y-51904460D01*
X126490000Y-51882547D01*
X126490000Y-51527453D01*
X126492158Y-51505540D01*
X126497835Y-51486827D01*
X126507055Y-51469576D01*
X126519461Y-51454461D01*
X126534576Y-51442055D01*
X126551827Y-51432835D01*
X126570540Y-51427158D01*
X126592453Y-51425000D01*
X126887547Y-51425000D01*
X126909460Y-51427158D01*
X126909460Y-51427158D01*
G37*
G36*
X121016676Y-51215372D02*
G01*
X121032030Y-51221732D01*
X121089468Y-51245523D01*
X121089471Y-51245525D01*
X121154985Y-51289300D01*
X121210700Y-51345015D01*
X121230452Y-51374576D01*
X121254477Y-51410532D01*
X121267534Y-51442055D01*
X121284628Y-51483324D01*
X121300000Y-51560603D01*
X121300000Y-51639397D01*
X121284628Y-51716676D01*
X121273663Y-51743147D01*
X121254477Y-51789468D01*
X121254475Y-51789471D01*
X121210700Y-51854985D01*
X121154985Y-51910700D01*
X121110500Y-51940424D01*
X121089468Y-51954477D01*
X121056952Y-51967945D01*
X121016676Y-51984628D01*
X120939397Y-52000000D01*
X120860603Y-52000000D01*
X120783324Y-51984628D01*
X120743048Y-51967945D01*
X120710532Y-51954477D01*
X120689500Y-51940424D01*
X120645015Y-51910700D01*
X120589300Y-51854985D01*
X120545525Y-51789471D01*
X120545523Y-51789468D01*
X120526337Y-51743147D01*
X120515372Y-51716676D01*
X120500000Y-51639397D01*
X120500000Y-51560603D01*
X120515372Y-51483324D01*
X120532466Y-51442055D01*
X120545523Y-51410532D01*
X120569548Y-51374576D01*
X120589300Y-51345015D01*
X120645015Y-51289300D01*
X120710529Y-51245525D01*
X120710532Y-51245523D01*
X120767970Y-51221732D01*
X120783324Y-51215372D01*
X120860603Y-51200000D01*
X120939397Y-51200000D01*
X121016676Y-51215372D01*
X121016676Y-51215372D01*
G37*
G36*
X124327753Y-51121005D02*
G01*
X124335217Y-51123269D01*
X124342090Y-51126943D01*
X124348114Y-51131886D01*
X124353057Y-51137910D01*
X124356731Y-51144783D01*
X124358995Y-51152247D01*
X124360000Y-51162453D01*
X124360000Y-51877547D01*
X124358995Y-51887753D01*
X124356731Y-51895217D01*
X124353057Y-51902090D01*
X124348114Y-51908114D01*
X124342090Y-51913057D01*
X124335217Y-51916731D01*
X124327753Y-51918995D01*
X124317547Y-51920000D01*
X123402453Y-51920000D01*
X123392247Y-51918995D01*
X123384783Y-51916731D01*
X123377910Y-51913057D01*
X123371886Y-51908114D01*
X123366943Y-51902090D01*
X123363269Y-51895217D01*
X123361005Y-51887753D01*
X123360000Y-51877547D01*
X123360000Y-51162453D01*
X123361005Y-51152247D01*
X123363269Y-51144783D01*
X123366943Y-51137910D01*
X123371886Y-51131886D01*
X123377910Y-51126943D01*
X123384783Y-51123269D01*
X123392247Y-51121005D01*
X123402453Y-51120000D01*
X124317547Y-51120000D01*
X124327753Y-51121005D01*
X124327753Y-51121005D01*
G37*
G36*
X122527753Y-51121005D02*
G01*
X122535217Y-51123269D01*
X122542090Y-51126943D01*
X122548114Y-51131886D01*
X122553057Y-51137910D01*
X122556731Y-51144783D01*
X122558995Y-51152247D01*
X122560000Y-51162453D01*
X122560000Y-51877547D01*
X122558995Y-51887753D01*
X122556731Y-51895217D01*
X122553057Y-51902090D01*
X122548114Y-51908114D01*
X122542090Y-51913057D01*
X122535217Y-51916731D01*
X122527753Y-51918995D01*
X122517547Y-51920000D01*
X121602453Y-51920000D01*
X121592247Y-51918995D01*
X121584783Y-51916731D01*
X121577910Y-51913057D01*
X121571886Y-51908114D01*
X121566943Y-51902090D01*
X121563269Y-51895217D01*
X121561005Y-51887753D01*
X121560000Y-51877547D01*
X121560000Y-51162453D01*
X121561005Y-51152247D01*
X121563269Y-51144783D01*
X121566943Y-51137910D01*
X121571886Y-51131886D01*
X121577910Y-51126943D01*
X121584783Y-51123269D01*
X121592247Y-51121005D01*
X121602453Y-51120000D01*
X122517547Y-51120000D01*
X122527753Y-51121005D01*
X122527753Y-51121005D01*
G37*
G36*
X124954460Y-51332158D02*
G01*
X124973173Y-51337835D01*
X124990424Y-51347055D01*
X125005539Y-51359461D01*
X125017945Y-51374576D01*
X125027185Y-51391864D01*
X125030905Y-51400845D01*
X125036350Y-51408995D01*
X125043281Y-51415925D01*
X125051430Y-51421371D01*
X125060486Y-51425122D01*
X125070099Y-51427034D01*
X125079900Y-51427034D01*
X125089513Y-51425122D01*
X125098569Y-51421371D01*
X125106719Y-51415926D01*
X125113649Y-51408995D01*
X125119095Y-51400846D01*
X125122815Y-51391864D01*
X125132055Y-51374576D01*
X125144461Y-51359461D01*
X125159576Y-51347055D01*
X125176827Y-51337835D01*
X125195540Y-51332158D01*
X125217453Y-51330000D01*
X125572547Y-51330000D01*
X125594460Y-51332158D01*
X125613173Y-51337835D01*
X125630424Y-51347055D01*
X125645539Y-51359461D01*
X125657945Y-51374576D01*
X125667165Y-51391827D01*
X125672842Y-51410540D01*
X125675000Y-51432453D01*
X125675000Y-51727547D01*
X125672842Y-51749460D01*
X125667165Y-51768173D01*
X125657945Y-51785424D01*
X125645539Y-51800539D01*
X125630424Y-51812945D01*
X125613173Y-51822165D01*
X125594460Y-51827842D01*
X125572547Y-51830000D01*
X125217453Y-51830000D01*
X125195540Y-51827842D01*
X125176827Y-51822165D01*
X125159576Y-51812945D01*
X125144461Y-51800539D01*
X125132055Y-51785424D01*
X125122815Y-51768136D01*
X125119095Y-51759155D01*
X125113650Y-51751005D01*
X125106719Y-51744075D01*
X125098570Y-51738629D01*
X125089514Y-51734878D01*
X125079901Y-51732966D01*
X125070100Y-51732966D01*
X125060487Y-51734878D01*
X125051431Y-51738629D01*
X125043281Y-51744074D01*
X125036351Y-51751005D01*
X125030905Y-51759154D01*
X125027185Y-51768136D01*
X125017945Y-51785424D01*
X125005539Y-51800539D01*
X124990424Y-51812945D01*
X124973173Y-51822165D01*
X124954460Y-51827842D01*
X124932547Y-51830000D01*
X124577453Y-51830000D01*
X124555540Y-51827842D01*
X124536827Y-51822165D01*
X124519576Y-51812945D01*
X124504461Y-51800539D01*
X124492055Y-51785424D01*
X124482835Y-51768173D01*
X124477158Y-51749460D01*
X124475000Y-51727547D01*
X124475000Y-51432453D01*
X124477158Y-51410540D01*
X124482835Y-51391827D01*
X124492055Y-51374576D01*
X124504461Y-51359461D01*
X124519576Y-51347055D01*
X124536827Y-51337835D01*
X124555540Y-51332158D01*
X124577453Y-51330000D01*
X124932547Y-51330000D01*
X124954460Y-51332158D01*
X124954460Y-51332158D01*
G37*
G36*
X127509584Y-51161678D02*
G01*
X127523611Y-51165933D01*
X127536532Y-51172840D01*
X127547862Y-51182138D01*
X127557160Y-51193468D01*
X127564067Y-51206389D01*
X127568322Y-51220416D01*
X127570000Y-51237454D01*
X127570000Y-51682546D01*
X127568322Y-51699584D01*
X127564067Y-51713611D01*
X127557160Y-51726532D01*
X127547862Y-51737862D01*
X127536532Y-51747160D01*
X127523611Y-51754067D01*
X127509584Y-51758322D01*
X127492546Y-51760000D01*
X127247454Y-51760000D01*
X127230416Y-51758322D01*
X127216389Y-51754067D01*
X127203468Y-51747160D01*
X127192138Y-51737862D01*
X127182840Y-51726532D01*
X127175933Y-51713611D01*
X127171678Y-51699584D01*
X127170000Y-51682546D01*
X127170000Y-51237454D01*
X127171678Y-51220416D01*
X127175933Y-51206389D01*
X127182840Y-51193468D01*
X127192138Y-51182138D01*
X127203468Y-51172840D01*
X127216389Y-51165933D01*
X127230416Y-51161678D01*
X127247454Y-51160000D01*
X127492546Y-51160000D01*
X127509584Y-51161678D01*
X127509584Y-51161678D01*
G37*
G36*
X129009584Y-51161678D02*
G01*
X129023611Y-51165933D01*
X129036532Y-51172840D01*
X129047862Y-51182138D01*
X129057160Y-51193468D01*
X129064067Y-51206389D01*
X129068322Y-51220416D01*
X129070000Y-51237454D01*
X129070000Y-51682546D01*
X129068322Y-51699584D01*
X129064067Y-51713611D01*
X129057160Y-51726532D01*
X129047862Y-51737862D01*
X129036532Y-51747160D01*
X129023611Y-51754067D01*
X129009584Y-51758322D01*
X128992546Y-51760000D01*
X128747454Y-51760000D01*
X128730416Y-51758322D01*
X128716389Y-51754067D01*
X128703468Y-51747160D01*
X128692138Y-51737862D01*
X128682840Y-51726532D01*
X128675933Y-51713611D01*
X128671678Y-51699584D01*
X128670000Y-51682546D01*
X128670000Y-51237454D01*
X128671678Y-51220416D01*
X128675933Y-51206389D01*
X128682840Y-51193468D01*
X128692138Y-51182138D01*
X128703468Y-51172840D01*
X128716389Y-51165933D01*
X128730416Y-51161678D01*
X128747454Y-51160000D01*
X128992546Y-51160000D01*
X129009584Y-51161678D01*
X129009584Y-51161678D01*
G37*
G36*
X128009584Y-51161678D02*
G01*
X128023611Y-51165933D01*
X128036532Y-51172840D01*
X128047862Y-51182138D01*
X128057160Y-51193468D01*
X128064067Y-51206389D01*
X128068322Y-51220416D01*
X128070000Y-51237454D01*
X128070000Y-51682546D01*
X128068322Y-51699584D01*
X128064067Y-51713611D01*
X128057160Y-51726532D01*
X128047862Y-51737862D01*
X128036532Y-51747160D01*
X128023611Y-51754067D01*
X128009584Y-51758322D01*
X127992546Y-51760000D01*
X127747454Y-51760000D01*
X127730416Y-51758322D01*
X127716389Y-51754067D01*
X127703468Y-51747160D01*
X127692138Y-51737862D01*
X127682840Y-51726532D01*
X127675933Y-51713611D01*
X127671678Y-51699584D01*
X127670000Y-51682546D01*
X127670000Y-51237454D01*
X127671678Y-51220416D01*
X127675933Y-51206389D01*
X127682840Y-51193468D01*
X127692138Y-51182138D01*
X127703468Y-51172840D01*
X127716389Y-51165933D01*
X127730416Y-51161678D01*
X127747454Y-51160000D01*
X127992546Y-51160000D01*
X128009584Y-51161678D01*
X128009584Y-51161678D01*
G37*
G36*
X128509584Y-51161678D02*
G01*
X128523611Y-51165933D01*
X128536532Y-51172840D01*
X128547862Y-51182138D01*
X128557160Y-51193468D01*
X128564067Y-51206389D01*
X128568322Y-51220416D01*
X128570000Y-51237454D01*
X128570000Y-51682546D01*
X128568322Y-51699584D01*
X128564067Y-51713611D01*
X128557160Y-51726532D01*
X128547862Y-51737862D01*
X128536532Y-51747160D01*
X128523611Y-51754067D01*
X128509584Y-51758322D01*
X128492546Y-51760000D01*
X128247454Y-51760000D01*
X128230416Y-51758322D01*
X128216389Y-51754067D01*
X128203468Y-51747160D01*
X128192138Y-51737862D01*
X128182840Y-51726532D01*
X128175933Y-51713611D01*
X128171678Y-51699584D01*
X128170000Y-51682546D01*
X128170000Y-51237454D01*
X128171678Y-51220416D01*
X128175933Y-51206389D01*
X128182840Y-51193468D01*
X128192138Y-51182138D01*
X128203468Y-51172840D01*
X128216389Y-51165933D01*
X128230416Y-51161678D01*
X128247454Y-51160000D01*
X128492546Y-51160000D01*
X128509584Y-51161678D01*
X128509584Y-51161678D01*
G37*
M02*
