M48
; DRILL file {KiCad (5.1.4)-1} date 14.03.2021 16:47:34
; FORMAT={2:4/ absolute / inch / suppress trailing zeros}
; #@! TF.CreationDate,2021-03-14T16:47:34+01:00
; #@! TF.GenerationSoftware,Kicad,Pcbnew,(5.1.4)-1
; #@! TF.FileFunction,Plated,1,4,PTH
FMAT,2
INCH,LZ
T1C0.0079
T2C0.0315
%
G90
G05
T1
X047598Y-020315
X047638Y-02065
X047825Y-021535
X047988Y-022831
X047993Y-022617
X048011Y-021831
X048022Y-021486
X048082Y-022028
X04813Y-020335
X048187Y-022581
X048189Y-021614
X048189Y-022795
X048209Y-021398
X048465Y-020669
X048573Y-021142
X048583Y-021417
X048593Y-021801
X048681Y-020787
X048772Y-022606
X048789Y-021329
X048798Y-022409
X048878Y-020315
X048878Y-020315
X048957Y-022028
X048957Y-021634
X049173Y-021457
X049181Y-022807
X049183Y-02187
X049362Y-02202
X04937Y-021417
X04937Y-021811
X049421Y-020854
X049646Y-020344
X049705Y-022165
X049717Y-022697
X049764Y-021063
X049862Y-021457
X049941Y-020837
X04999Y-022569
X050069Y-021959
X050069Y-022293
X050138Y-021122
X050148Y-021407
X050303Y-022618
X050453Y-021427
X050577Y-021748
X050591Y-022591
X05064Y-021998
X050699Y-020925
X050866Y-02247
X050866Y-022795
X05091Y-021259
X050146Y-020358
X050146Y-020555
X050343Y-020358
X050343Y-020555
X050539Y-020358
X050539Y-020555
X050736Y-020358
X050736Y-020555
T2
X047303Y-020719
X047303Y-021346
X047303Y-022646
X047307Y-021996
T0
M30
