G04 #@! TF.GenerationSoftware,KiCad,Pcbnew,(5.1.4)-1*
G04 #@! TF.CreationDate,2021-03-14T16:47:26+01:00*
G04 #@! TF.ProjectId,zepto_receiver_elrs,7a657074-6f5f-4726-9563-65697665725f,rev?*
G04 #@! TF.SameCoordinates,Original*
G04 #@! TF.FileFunction,Copper,L2,Inr*
G04 #@! TF.FilePolarity,Positive*
%FSLAX46Y46*%
G04 Gerber Fmt 4.6, Leading zero omitted, Abs format (unit mm)*
G04 Created by KiCad (PCBNEW (5.1.4)-1) date 2021-03-14 16:47:26*
%MOMM*%
%LPD*%
G04 APERTURE LIST*
%ADD10C,0.400000*%
%ADD11C,1.000000*%
%ADD12C,0.800000*%
%ADD13C,0.100000*%
G04 APERTURE END LIST*
D10*
X128370000Y-51710000D03*
X127870000Y-51710000D03*
X127370000Y-51710000D03*
X127870000Y-52210000D03*
X128870000Y-51710000D03*
X127370000Y-52210000D03*
X128370000Y-52210000D03*
X128870000Y-52210000D03*
X124150000Y-51600000D03*
X124150000Y-51600000D03*
X122250000Y-51650000D03*
X124920000Y-57930000D03*
X125400000Y-55400000D03*
X125530000Y-52970000D03*
D11*
X120150000Y-57520000D03*
D10*
X122399986Y-54900000D03*
X123375000Y-53700000D03*
X124900000Y-54500000D03*
X128150000Y-54425000D03*
X123947607Y-56920000D03*
X121890000Y-57990000D03*
X127350000Y-53650000D03*
X126250000Y-56300000D03*
X126400000Y-53500000D03*
X126650000Y-54500000D03*
X127175000Y-55775000D03*
X128625000Y-55875000D03*
X129200000Y-57075000D03*
X123100000Y-52500000D03*
X124925000Y-55550000D03*
X126975000Y-57325000D03*
X128775000Y-53150000D03*
X129311249Y-53998146D03*
X127375000Y-54375000D03*
X127770000Y-57450000D03*
X128500000Y-57380000D03*
X122400000Y-57900000D03*
X124350000Y-54950000D03*
D11*
X120160000Y-55870000D03*
D10*
X126100000Y-51675000D03*
X125400000Y-54400000D03*
X125380000Y-55930000D03*
X128464986Y-55240000D03*
X121975000Y-54575000D03*
X123925000Y-54175000D03*
X123650000Y-52800000D03*
X122127847Y-55950010D03*
X123880000Y-57420000D03*
X121902000Y-57447000D03*
X127175000Y-56625000D03*
X122394000Y-57355000D03*
X126280000Y-57650000D03*
X123400000Y-54400000D03*
X126850000Y-52925000D03*
D11*
X120150000Y-52625000D03*
D10*
X121000000Y-52450000D03*
D11*
X120150000Y-54220000D03*
D10*
X121947901Y-55450010D03*
X121475000Y-54700000D03*
X123425000Y-55375000D03*
X129200000Y-57900000D03*
X124349595Y-55950408D03*
X122450000Y-54350000D03*
X120900000Y-51600000D03*
D12*
X130000000Y-51150000D02*
X129600000Y-51150000D01*
X130000000Y-50750000D02*
X129600000Y-50750000D01*
X130000000Y-50750000D02*
X130000000Y-58500000D01*
X127000000Y-58600001D02*
X130000000Y-58600001D01*
D13*
G36*
X124502962Y-51322059D02*
G01*
X124513408Y-51327167D01*
X124522929Y-51329497D01*
X124662929Y-51349497D01*
X124670000Y-51350000D01*
X125970025Y-51350000D01*
X125934213Y-51364834D01*
X125876888Y-51403137D01*
X125828137Y-51451888D01*
X125789834Y-51509213D01*
X125763450Y-51572909D01*
X125750000Y-51640528D01*
X125750000Y-51709472D01*
X125763450Y-51777091D01*
X125789834Y-51840787D01*
X125828137Y-51898112D01*
X125876888Y-51946863D01*
X125934213Y-51985166D01*
X125997909Y-52011550D01*
X126065528Y-52025000D01*
X126134472Y-52025000D01*
X126202091Y-52011550D01*
X126265787Y-51985166D01*
X126323112Y-51946863D01*
X126371863Y-51898112D01*
X126410166Y-51840787D01*
X126436550Y-51777091D01*
X126450000Y-51709472D01*
X126450000Y-51675528D01*
X127020000Y-51675528D01*
X127020000Y-51744472D01*
X127033450Y-51812091D01*
X127059834Y-51875787D01*
X127098137Y-51933112D01*
X127146888Y-51981863D01*
X127204213Y-52020166D01*
X127267909Y-52046550D01*
X127335528Y-52060000D01*
X127404472Y-52060000D01*
X127472091Y-52046550D01*
X127535787Y-52020166D01*
X127593112Y-51981863D01*
X127641863Y-51933112D01*
X127680166Y-51875787D01*
X127706550Y-51812091D01*
X127720000Y-51744472D01*
X127720000Y-51675528D01*
X128020000Y-51675528D01*
X128020000Y-51744472D01*
X128033450Y-51812091D01*
X128059834Y-51875787D01*
X128098137Y-51933112D01*
X128146888Y-51981863D01*
X128204213Y-52020166D01*
X128267909Y-52046550D01*
X128335528Y-52060000D01*
X128404472Y-52060000D01*
X128472091Y-52046550D01*
X128535787Y-52020166D01*
X128593112Y-51981863D01*
X128641863Y-51933112D01*
X128680166Y-51875787D01*
X128706550Y-51812091D01*
X128720000Y-51744472D01*
X128720000Y-51675528D01*
X128706550Y-51607909D01*
X128680166Y-51544213D01*
X128641863Y-51486888D01*
X128593112Y-51438137D01*
X128535787Y-51399834D01*
X128472091Y-51373450D01*
X128404472Y-51360000D01*
X128335528Y-51360000D01*
X128267909Y-51373450D01*
X128204213Y-51399834D01*
X128146888Y-51438137D01*
X128098137Y-51486888D01*
X128059834Y-51544213D01*
X128033450Y-51607909D01*
X128020000Y-51675528D01*
X127720000Y-51675528D01*
X127706550Y-51607909D01*
X127680166Y-51544213D01*
X127641863Y-51486888D01*
X127593112Y-51438137D01*
X127535787Y-51399834D01*
X127472091Y-51373450D01*
X127404472Y-51360000D01*
X127335528Y-51360000D01*
X127267909Y-51373450D01*
X127204213Y-51399834D01*
X127146888Y-51438137D01*
X127098137Y-51486888D01*
X127059834Y-51544213D01*
X127033450Y-51607909D01*
X127020000Y-51675528D01*
X126450000Y-51675528D01*
X126450000Y-51640528D01*
X126436550Y-51572909D01*
X126410166Y-51509213D01*
X126371863Y-51451888D01*
X126323112Y-51403137D01*
X126265787Y-51364834D01*
X126229975Y-51350000D01*
X126990000Y-51350000D01*
X127001452Y-51348671D01*
X127171452Y-51308671D01*
X127184508Y-51303582D01*
X127192540Y-51297963D01*
X127248497Y-51250000D01*
X129550000Y-51250000D01*
X129550001Y-58250000D01*
X129234472Y-58250000D01*
X129302091Y-58236550D01*
X129365787Y-58210166D01*
X129423112Y-58171863D01*
X129471863Y-58123112D01*
X129510166Y-58065787D01*
X129536550Y-58002091D01*
X129550000Y-57934472D01*
X129550000Y-57865528D01*
X129536550Y-57797909D01*
X129510166Y-57734213D01*
X129471863Y-57676888D01*
X129423112Y-57628137D01*
X129365787Y-57589834D01*
X129302091Y-57563450D01*
X129234472Y-57550000D01*
X129165528Y-57550000D01*
X129097909Y-57563450D01*
X129034213Y-57589834D01*
X128976888Y-57628137D01*
X128928137Y-57676888D01*
X128889834Y-57734213D01*
X128863450Y-57797909D01*
X128850000Y-57865528D01*
X128850000Y-57934472D01*
X128863450Y-58002091D01*
X128889834Y-58065787D01*
X128928137Y-58123112D01*
X128976888Y-58171863D01*
X129034213Y-58210166D01*
X129097909Y-58236550D01*
X129165528Y-58250000D01*
X126509129Y-58250000D01*
X126397038Y-58177942D01*
X126386592Y-58172834D01*
X126377072Y-58170504D01*
X126237072Y-58150502D01*
X126230000Y-58149999D01*
X123910000Y-58150000D01*
X123898548Y-58151329D01*
X123728548Y-58191329D01*
X123715492Y-58196418D01*
X123707460Y-58202037D01*
X123651503Y-58250000D01*
X122434472Y-58250000D01*
X122502091Y-58236550D01*
X122565787Y-58210166D01*
X122623112Y-58171863D01*
X122671863Y-58123112D01*
X122710166Y-58065787D01*
X122736550Y-58002091D01*
X122750000Y-57934472D01*
X122750000Y-57865528D01*
X122736550Y-57797909D01*
X122710166Y-57734213D01*
X122671863Y-57676888D01*
X122623112Y-57628137D01*
X122618752Y-57625223D01*
X122665863Y-57578112D01*
X122704166Y-57520787D01*
X122730550Y-57457091D01*
X122744000Y-57389472D01*
X122744000Y-57385528D01*
X123530000Y-57385528D01*
X123530000Y-57454472D01*
X123543450Y-57522091D01*
X123569834Y-57585787D01*
X123608137Y-57643112D01*
X123656888Y-57691863D01*
X123714213Y-57730166D01*
X123777909Y-57756550D01*
X123845528Y-57770000D01*
X123914472Y-57770000D01*
X123982091Y-57756550D01*
X124045787Y-57730166D01*
X124103112Y-57691863D01*
X124151863Y-57643112D01*
X124170293Y-57615528D01*
X125930000Y-57615528D01*
X125930000Y-57684472D01*
X125943450Y-57752091D01*
X125969834Y-57815787D01*
X126008137Y-57873112D01*
X126056888Y-57921863D01*
X126114213Y-57960166D01*
X126177909Y-57986550D01*
X126245528Y-58000000D01*
X126314472Y-58000000D01*
X126382091Y-57986550D01*
X126445787Y-57960166D01*
X126503112Y-57921863D01*
X126551863Y-57873112D01*
X126590166Y-57815787D01*
X126616550Y-57752091D01*
X126630000Y-57684472D01*
X126630000Y-57615528D01*
X126616550Y-57547909D01*
X126590166Y-57484213D01*
X126551863Y-57426888D01*
X126503112Y-57378137D01*
X126445787Y-57339834D01*
X126382091Y-57313450D01*
X126314472Y-57300000D01*
X126245528Y-57300000D01*
X126177909Y-57313450D01*
X126114213Y-57339834D01*
X126056888Y-57378137D01*
X126008137Y-57426888D01*
X125969834Y-57484213D01*
X125943450Y-57547909D01*
X125930000Y-57615528D01*
X124170293Y-57615528D01*
X124190166Y-57585787D01*
X124216550Y-57522091D01*
X124230000Y-57454472D01*
X124230000Y-57385528D01*
X124216550Y-57317909D01*
X124190166Y-57254213D01*
X124151863Y-57196888D01*
X124103112Y-57148137D01*
X124045787Y-57109834D01*
X123982091Y-57083450D01*
X123914472Y-57070000D01*
X123845528Y-57070000D01*
X123777909Y-57083450D01*
X123714213Y-57109834D01*
X123656888Y-57148137D01*
X123608137Y-57196888D01*
X123569834Y-57254213D01*
X123543450Y-57317909D01*
X123530000Y-57385528D01*
X122744000Y-57385528D01*
X122744000Y-57320528D01*
X122730550Y-57252909D01*
X122704166Y-57189213D01*
X122665863Y-57131888D01*
X122617112Y-57083137D01*
X122559787Y-57044834D01*
X122496091Y-57018450D01*
X122428472Y-57005000D01*
X122359528Y-57005000D01*
X122291909Y-57018450D01*
X122228213Y-57044834D01*
X122170888Y-57083137D01*
X122122137Y-57131888D01*
X122103077Y-57160414D01*
X122067787Y-57136834D01*
X122004091Y-57110450D01*
X121936472Y-57097000D01*
X121867528Y-57097000D01*
X121799909Y-57110450D01*
X121736213Y-57136834D01*
X121678888Y-57175137D01*
X121630137Y-57223888D01*
X121591834Y-57281213D01*
X121565450Y-57344909D01*
X121552000Y-57412528D01*
X121552000Y-57481472D01*
X121565450Y-57549091D01*
X121591834Y-57612787D01*
X121630137Y-57670112D01*
X121678888Y-57718863D01*
X121736213Y-57757166D01*
X121799909Y-57783550D01*
X121867528Y-57797000D01*
X121936472Y-57797000D01*
X122004091Y-57783550D01*
X122067787Y-57757166D01*
X122085125Y-57745581D01*
X122063450Y-57797909D01*
X122050000Y-57865528D01*
X122050000Y-57934472D01*
X122063450Y-58002091D01*
X122089834Y-58065787D01*
X122128137Y-58123112D01*
X122176888Y-58171863D01*
X122234213Y-58210166D01*
X122297909Y-58236550D01*
X122365528Y-58250000D01*
X120550000Y-58250000D01*
X120550000Y-56590528D01*
X126825000Y-56590528D01*
X126825000Y-56659472D01*
X126838450Y-56727091D01*
X126864834Y-56790787D01*
X126903137Y-56848112D01*
X126951888Y-56896863D01*
X127009213Y-56935166D01*
X127072909Y-56961550D01*
X127140528Y-56975000D01*
X127209472Y-56975000D01*
X127277091Y-56961550D01*
X127340787Y-56935166D01*
X127398112Y-56896863D01*
X127446863Y-56848112D01*
X127485166Y-56790787D01*
X127511550Y-56727091D01*
X127525000Y-56659472D01*
X127525000Y-56590528D01*
X127511550Y-56522909D01*
X127485166Y-56459213D01*
X127446863Y-56401888D01*
X127398112Y-56353137D01*
X127340787Y-56314834D01*
X127277091Y-56288450D01*
X127209472Y-56275000D01*
X127140528Y-56275000D01*
X127072909Y-56288450D01*
X127009213Y-56314834D01*
X126951888Y-56353137D01*
X126903137Y-56401888D01*
X126864834Y-56459213D01*
X126838450Y-56522909D01*
X126825000Y-56590528D01*
X120550000Y-56590528D01*
X120550000Y-56391159D01*
X120574351Y-56374888D01*
X120664888Y-56284351D01*
X120736022Y-56177890D01*
X120785021Y-56059598D01*
X120810000Y-55934019D01*
X120810000Y-55805981D01*
X120785021Y-55680402D01*
X120736022Y-55562110D01*
X120664888Y-55455649D01*
X120624777Y-55415538D01*
X121597901Y-55415538D01*
X121597901Y-55484482D01*
X121611351Y-55552101D01*
X121637735Y-55615797D01*
X121676038Y-55673122D01*
X121724789Y-55721873D01*
X121782114Y-55760176D01*
X121822556Y-55776928D01*
X121817681Y-55784223D01*
X121791297Y-55847919D01*
X121777847Y-55915538D01*
X121777847Y-55984482D01*
X121791297Y-56052101D01*
X121817681Y-56115797D01*
X121855984Y-56173122D01*
X121904735Y-56221873D01*
X121962060Y-56260176D01*
X122025756Y-56286560D01*
X122093375Y-56300010D01*
X122162319Y-56300010D01*
X122229938Y-56286560D01*
X122293634Y-56260176D01*
X122350959Y-56221873D01*
X122399710Y-56173122D01*
X122438013Y-56115797D01*
X122464397Y-56052101D01*
X122477847Y-55984482D01*
X122477847Y-55915936D01*
X123999595Y-55915936D01*
X123999595Y-55984880D01*
X124013045Y-56052499D01*
X124039429Y-56116195D01*
X124077732Y-56173520D01*
X124126483Y-56222271D01*
X124183808Y-56260574D01*
X124247504Y-56286958D01*
X124315123Y-56300408D01*
X124384067Y-56300408D01*
X124451686Y-56286958D01*
X124515382Y-56260574D01*
X124572707Y-56222271D01*
X124621458Y-56173520D01*
X124659761Y-56116195D01*
X124686145Y-56052499D01*
X124699595Y-55984880D01*
X124699595Y-55915936D01*
X124695536Y-55895528D01*
X125030000Y-55895528D01*
X125030000Y-55964472D01*
X125043450Y-56032091D01*
X125069834Y-56095787D01*
X125108137Y-56153112D01*
X125156888Y-56201863D01*
X125214213Y-56240166D01*
X125277909Y-56266550D01*
X125345528Y-56280000D01*
X125414472Y-56280000D01*
X125482091Y-56266550D01*
X125545787Y-56240166D01*
X125603112Y-56201863D01*
X125651863Y-56153112D01*
X125690166Y-56095787D01*
X125716550Y-56032091D01*
X125730000Y-55964472D01*
X125730000Y-55895528D01*
X125716550Y-55827909D01*
X125690166Y-55764213D01*
X125651863Y-55706888D01*
X125603112Y-55658137D01*
X125545787Y-55619834D01*
X125482091Y-55593450D01*
X125414472Y-55580000D01*
X125345528Y-55580000D01*
X125277909Y-55593450D01*
X125214213Y-55619834D01*
X125156888Y-55658137D01*
X125108137Y-55706888D01*
X125069834Y-55764213D01*
X125043450Y-55827909D01*
X125030000Y-55895528D01*
X124695536Y-55895528D01*
X124686145Y-55848317D01*
X124659761Y-55784621D01*
X124621458Y-55727296D01*
X124572707Y-55678545D01*
X124515382Y-55640242D01*
X124451686Y-55613858D01*
X124384067Y-55600408D01*
X124315123Y-55600408D01*
X124247504Y-55613858D01*
X124183808Y-55640242D01*
X124126483Y-55678545D01*
X124077732Y-55727296D01*
X124039429Y-55784621D01*
X124013045Y-55848317D01*
X123999595Y-55915936D01*
X122477847Y-55915936D01*
X122477847Y-55915538D01*
X122464397Y-55847919D01*
X122438013Y-55784223D01*
X122399710Y-55726898D01*
X122350959Y-55678147D01*
X122293634Y-55639844D01*
X122253192Y-55623092D01*
X122258067Y-55615797D01*
X122284451Y-55552101D01*
X122297901Y-55484482D01*
X122297901Y-55415538D01*
X122284451Y-55347919D01*
X122281390Y-55340528D01*
X123075000Y-55340528D01*
X123075000Y-55409472D01*
X123088450Y-55477091D01*
X123114834Y-55540787D01*
X123153137Y-55598112D01*
X123201888Y-55646863D01*
X123259213Y-55685166D01*
X123322909Y-55711550D01*
X123390528Y-55725000D01*
X123459472Y-55725000D01*
X123527091Y-55711550D01*
X123590787Y-55685166D01*
X123648112Y-55646863D01*
X123696863Y-55598112D01*
X123735166Y-55540787D01*
X123761550Y-55477091D01*
X123775000Y-55409472D01*
X123775000Y-55340528D01*
X123761550Y-55272909D01*
X123735166Y-55209213D01*
X123696863Y-55151888D01*
X123648112Y-55103137D01*
X123590787Y-55064834D01*
X123527091Y-55038450D01*
X123459472Y-55025000D01*
X123390528Y-55025000D01*
X123322909Y-55038450D01*
X123259213Y-55064834D01*
X123201888Y-55103137D01*
X123153137Y-55151888D01*
X123114834Y-55209213D01*
X123088450Y-55272909D01*
X123075000Y-55340528D01*
X122281390Y-55340528D01*
X122258067Y-55284223D01*
X122219764Y-55226898D01*
X122171013Y-55178147D01*
X122113688Y-55139844D01*
X122049992Y-55113460D01*
X121982373Y-55100010D01*
X121913429Y-55100010D01*
X121845810Y-55113460D01*
X121782114Y-55139844D01*
X121724789Y-55178147D01*
X121676038Y-55226898D01*
X121637735Y-55284223D01*
X121611351Y-55347919D01*
X121597901Y-55415538D01*
X120624777Y-55415538D01*
X120574351Y-55365112D01*
X120550000Y-55348841D01*
X120550000Y-54734477D01*
X120564351Y-54724888D01*
X120623711Y-54665528D01*
X121125000Y-54665528D01*
X121125000Y-54734472D01*
X121138450Y-54802091D01*
X121164834Y-54865787D01*
X121203137Y-54923112D01*
X121251888Y-54971863D01*
X121309213Y-55010166D01*
X121372909Y-55036550D01*
X121440528Y-55050000D01*
X121509472Y-55050000D01*
X121577091Y-55036550D01*
X121640787Y-55010166D01*
X121698112Y-54971863D01*
X121746863Y-54923112D01*
X121783636Y-54868076D01*
X121809213Y-54885166D01*
X121872909Y-54911550D01*
X121940528Y-54925000D01*
X122009472Y-54925000D01*
X122057091Y-54915528D01*
X124000000Y-54915528D01*
X124000000Y-54984472D01*
X124013450Y-55052091D01*
X124039834Y-55115787D01*
X124078137Y-55173112D01*
X124126888Y-55221863D01*
X124184213Y-55260166D01*
X124247909Y-55286550D01*
X124315528Y-55300000D01*
X124384472Y-55300000D01*
X124452091Y-55286550D01*
X124515787Y-55260166D01*
X124573112Y-55221863D01*
X124589447Y-55205528D01*
X128114986Y-55205528D01*
X128114986Y-55274472D01*
X128128436Y-55342091D01*
X128154820Y-55405787D01*
X128193123Y-55463112D01*
X128241874Y-55511863D01*
X128299199Y-55550166D01*
X128362895Y-55576550D01*
X128430514Y-55590000D01*
X128499458Y-55590000D01*
X128567077Y-55576550D01*
X128630773Y-55550166D01*
X128688098Y-55511863D01*
X128736849Y-55463112D01*
X128775152Y-55405787D01*
X128801536Y-55342091D01*
X128814986Y-55274472D01*
X128814986Y-55205528D01*
X128801536Y-55137909D01*
X128775152Y-55074213D01*
X128736849Y-55016888D01*
X128688098Y-54968137D01*
X128630773Y-54929834D01*
X128567077Y-54903450D01*
X128499458Y-54890000D01*
X128430514Y-54890000D01*
X128362895Y-54903450D01*
X128299199Y-54929834D01*
X128241874Y-54968137D01*
X128193123Y-55016888D01*
X128154820Y-55074213D01*
X128128436Y-55137909D01*
X128114986Y-55205528D01*
X124589447Y-55205528D01*
X124621863Y-55173112D01*
X124660166Y-55115787D01*
X124686550Y-55052091D01*
X124700000Y-54984472D01*
X124700000Y-54915528D01*
X124686550Y-54847909D01*
X124660166Y-54784213D01*
X124621863Y-54726888D01*
X124573112Y-54678137D01*
X124515787Y-54639834D01*
X124452091Y-54613450D01*
X124384472Y-54600000D01*
X124315528Y-54600000D01*
X124247909Y-54613450D01*
X124184213Y-54639834D01*
X124126888Y-54678137D01*
X124078137Y-54726888D01*
X124039834Y-54784213D01*
X124013450Y-54847909D01*
X124000000Y-54915528D01*
X122057091Y-54915528D01*
X122077091Y-54911550D01*
X122140787Y-54885166D01*
X122198112Y-54846863D01*
X122246863Y-54798112D01*
X122285166Y-54740787D01*
X122311550Y-54677091D01*
X122312579Y-54671916D01*
X122347909Y-54686550D01*
X122415528Y-54700000D01*
X122484472Y-54700000D01*
X122552091Y-54686550D01*
X122615787Y-54660166D01*
X122673112Y-54621863D01*
X122721863Y-54573112D01*
X122760166Y-54515787D01*
X122786550Y-54452091D01*
X122800000Y-54384472D01*
X122800000Y-54365528D01*
X123050000Y-54365528D01*
X123050000Y-54434472D01*
X123063450Y-54502091D01*
X123089834Y-54565787D01*
X123128137Y-54623112D01*
X123176888Y-54671863D01*
X123234213Y-54710166D01*
X123297909Y-54736550D01*
X123365528Y-54750000D01*
X123434472Y-54750000D01*
X123502091Y-54736550D01*
X123565787Y-54710166D01*
X123623112Y-54671863D01*
X123671863Y-54623112D01*
X123710166Y-54565787D01*
X123736550Y-54502091D01*
X123742180Y-54473785D01*
X123759213Y-54485166D01*
X123822909Y-54511550D01*
X123890528Y-54525000D01*
X123959472Y-54525000D01*
X124027091Y-54511550D01*
X124090787Y-54485166D01*
X124148112Y-54446863D01*
X124196863Y-54398112D01*
X124218634Y-54365528D01*
X125050000Y-54365528D01*
X125050000Y-54434472D01*
X125063450Y-54502091D01*
X125089834Y-54565787D01*
X125128137Y-54623112D01*
X125176888Y-54671863D01*
X125234213Y-54710166D01*
X125297909Y-54736550D01*
X125365528Y-54750000D01*
X125434472Y-54750000D01*
X125502091Y-54736550D01*
X125565787Y-54710166D01*
X125623112Y-54671863D01*
X125671863Y-54623112D01*
X125710166Y-54565787D01*
X125736550Y-54502091D01*
X125750000Y-54434472D01*
X125750000Y-54365528D01*
X125736550Y-54297909D01*
X125710166Y-54234213D01*
X125671863Y-54176888D01*
X125623112Y-54128137D01*
X125565787Y-54089834D01*
X125502091Y-54063450D01*
X125434472Y-54050000D01*
X125365528Y-54050000D01*
X125297909Y-54063450D01*
X125234213Y-54089834D01*
X125176888Y-54128137D01*
X125128137Y-54176888D01*
X125089834Y-54234213D01*
X125063450Y-54297909D01*
X125050000Y-54365528D01*
X124218634Y-54365528D01*
X124235166Y-54340787D01*
X124261550Y-54277091D01*
X124275000Y-54209472D01*
X124275000Y-54140528D01*
X124261550Y-54072909D01*
X124235166Y-54009213D01*
X124196863Y-53951888D01*
X124148112Y-53903137D01*
X124090787Y-53864834D01*
X124027091Y-53838450D01*
X123959472Y-53825000D01*
X123890528Y-53825000D01*
X123822909Y-53838450D01*
X123759213Y-53864834D01*
X123701888Y-53903137D01*
X123653137Y-53951888D01*
X123614834Y-54009213D01*
X123588450Y-54072909D01*
X123582820Y-54101215D01*
X123565787Y-54089834D01*
X123502091Y-54063450D01*
X123434472Y-54050000D01*
X123365528Y-54050000D01*
X123297909Y-54063450D01*
X123234213Y-54089834D01*
X123176888Y-54128137D01*
X123128137Y-54176888D01*
X123089834Y-54234213D01*
X123063450Y-54297909D01*
X123050000Y-54365528D01*
X122800000Y-54365528D01*
X122800000Y-54315528D01*
X122786550Y-54247909D01*
X122760166Y-54184213D01*
X122721863Y-54126888D01*
X122673112Y-54078137D01*
X122615787Y-54039834D01*
X122552091Y-54013450D01*
X122484472Y-54000000D01*
X122415528Y-54000000D01*
X122347909Y-54013450D01*
X122284213Y-54039834D01*
X122226888Y-54078137D01*
X122178137Y-54126888D01*
X122139834Y-54184213D01*
X122113450Y-54247909D01*
X122112421Y-54253084D01*
X122077091Y-54238450D01*
X122009472Y-54225000D01*
X121940528Y-54225000D01*
X121872909Y-54238450D01*
X121809213Y-54264834D01*
X121751888Y-54303137D01*
X121703137Y-54351888D01*
X121666364Y-54406924D01*
X121640787Y-54389834D01*
X121577091Y-54363450D01*
X121509472Y-54350000D01*
X121440528Y-54350000D01*
X121372909Y-54363450D01*
X121309213Y-54389834D01*
X121251888Y-54428137D01*
X121203137Y-54476888D01*
X121164834Y-54534213D01*
X121138450Y-54597909D01*
X121125000Y-54665528D01*
X120623711Y-54665528D01*
X120654888Y-54634351D01*
X120726022Y-54527890D01*
X120775021Y-54409598D01*
X120800000Y-54284019D01*
X120800000Y-54155981D01*
X120775021Y-54030402D01*
X120726022Y-53912110D01*
X120654888Y-53805649D01*
X120564351Y-53715112D01*
X120550000Y-53705523D01*
X120550000Y-53139477D01*
X120564351Y-53129888D01*
X120654888Y-53039351D01*
X120726022Y-52932890D01*
X120775021Y-52814598D01*
X120791522Y-52731641D01*
X120834213Y-52760166D01*
X120897909Y-52786550D01*
X120965528Y-52800000D01*
X121034472Y-52800000D01*
X121102091Y-52786550D01*
X121152842Y-52765528D01*
X123300000Y-52765528D01*
X123300000Y-52834472D01*
X123313450Y-52902091D01*
X123339834Y-52965787D01*
X123378137Y-53023112D01*
X123426888Y-53071863D01*
X123484213Y-53110166D01*
X123547909Y-53136550D01*
X123615528Y-53150000D01*
X123684472Y-53150000D01*
X123752091Y-53136550D01*
X123815787Y-53110166D01*
X123873112Y-53071863D01*
X123921863Y-53023112D01*
X123960166Y-52965787D01*
X123986550Y-52902091D01*
X123988849Y-52890528D01*
X126500000Y-52890528D01*
X126500000Y-52959472D01*
X126513450Y-53027091D01*
X126539834Y-53090787D01*
X126578137Y-53148112D01*
X126626888Y-53196863D01*
X126684213Y-53235166D01*
X126747909Y-53261550D01*
X126815528Y-53275000D01*
X126884472Y-53275000D01*
X126952091Y-53261550D01*
X127015787Y-53235166D01*
X127073112Y-53196863D01*
X127121863Y-53148112D01*
X127160166Y-53090787D01*
X127186550Y-53027091D01*
X127200000Y-52959472D01*
X127200000Y-52890528D01*
X127186550Y-52822909D01*
X127160166Y-52759213D01*
X127121863Y-52701888D01*
X127073112Y-52653137D01*
X127015787Y-52614834D01*
X126952091Y-52588450D01*
X126884472Y-52575000D01*
X126815528Y-52575000D01*
X126747909Y-52588450D01*
X126684213Y-52614834D01*
X126626888Y-52653137D01*
X126578137Y-52701888D01*
X126539834Y-52759213D01*
X126513450Y-52822909D01*
X126500000Y-52890528D01*
X123988849Y-52890528D01*
X124000000Y-52834472D01*
X124000000Y-52765528D01*
X123986550Y-52697909D01*
X123960166Y-52634213D01*
X123921863Y-52576888D01*
X123873112Y-52528137D01*
X123815787Y-52489834D01*
X123752091Y-52463450D01*
X123684472Y-52450000D01*
X123615528Y-52450000D01*
X123547909Y-52463450D01*
X123484213Y-52489834D01*
X123426888Y-52528137D01*
X123378137Y-52576888D01*
X123339834Y-52634213D01*
X123313450Y-52697909D01*
X123300000Y-52765528D01*
X121152842Y-52765528D01*
X121165787Y-52760166D01*
X121223112Y-52721863D01*
X121271863Y-52673112D01*
X121310166Y-52615787D01*
X121336550Y-52552091D01*
X121350000Y-52484472D01*
X121350000Y-52415528D01*
X121336550Y-52347909D01*
X121310166Y-52284213D01*
X121271863Y-52226888D01*
X121223112Y-52178137D01*
X121219208Y-52175528D01*
X127520000Y-52175528D01*
X127520000Y-52244472D01*
X127533450Y-52312091D01*
X127559834Y-52375787D01*
X127598137Y-52433112D01*
X127646888Y-52481863D01*
X127704213Y-52520166D01*
X127767909Y-52546550D01*
X127835528Y-52560000D01*
X127904472Y-52560000D01*
X127972091Y-52546550D01*
X128035787Y-52520166D01*
X128093112Y-52481863D01*
X128141863Y-52433112D01*
X128180166Y-52375787D01*
X128206550Y-52312091D01*
X128220000Y-52244472D01*
X128220000Y-52175528D01*
X128520000Y-52175528D01*
X128520000Y-52244472D01*
X128533450Y-52312091D01*
X128559834Y-52375787D01*
X128598137Y-52433112D01*
X128646888Y-52481863D01*
X128704213Y-52520166D01*
X128767909Y-52546550D01*
X128835528Y-52560000D01*
X128904472Y-52560000D01*
X128972091Y-52546550D01*
X129035787Y-52520166D01*
X129093112Y-52481863D01*
X129141863Y-52433112D01*
X129180166Y-52375787D01*
X129206550Y-52312091D01*
X129220000Y-52244472D01*
X129220000Y-52175528D01*
X129206550Y-52107909D01*
X129180166Y-52044213D01*
X129141863Y-51986888D01*
X129093112Y-51938137D01*
X129035787Y-51899834D01*
X128972091Y-51873450D01*
X128904472Y-51860000D01*
X128835528Y-51860000D01*
X128767909Y-51873450D01*
X128704213Y-51899834D01*
X128646888Y-51938137D01*
X128598137Y-51986888D01*
X128559834Y-52044213D01*
X128533450Y-52107909D01*
X128520000Y-52175528D01*
X128220000Y-52175528D01*
X128206550Y-52107909D01*
X128180166Y-52044213D01*
X128141863Y-51986888D01*
X128093112Y-51938137D01*
X128035787Y-51899834D01*
X127972091Y-51873450D01*
X127904472Y-51860000D01*
X127835528Y-51860000D01*
X127767909Y-51873450D01*
X127704213Y-51899834D01*
X127646888Y-51938137D01*
X127598137Y-51986888D01*
X127559834Y-52044213D01*
X127533450Y-52107909D01*
X127520000Y-52175528D01*
X121219208Y-52175528D01*
X121165787Y-52139834D01*
X121102091Y-52113450D01*
X121034472Y-52100000D01*
X120965528Y-52100000D01*
X120897909Y-52113450D01*
X120834213Y-52139834D01*
X120776888Y-52178137D01*
X120728137Y-52226888D01*
X120696938Y-52273582D01*
X120654888Y-52210649D01*
X120564351Y-52120112D01*
X120550000Y-52110523D01*
X120550000Y-51634472D01*
X120563450Y-51702091D01*
X120589834Y-51765787D01*
X120628137Y-51823112D01*
X120676888Y-51871863D01*
X120734213Y-51910166D01*
X120797909Y-51936550D01*
X120865528Y-51950000D01*
X120934472Y-51950000D01*
X121002091Y-51936550D01*
X121065787Y-51910166D01*
X121123112Y-51871863D01*
X121171863Y-51823112D01*
X121210166Y-51765787D01*
X121236550Y-51702091D01*
X121250000Y-51634472D01*
X121250000Y-51565528D01*
X121236550Y-51497909D01*
X121210166Y-51434213D01*
X121171863Y-51376888D01*
X121123112Y-51328137D01*
X121065787Y-51289834D01*
X121002091Y-51263450D01*
X120934472Y-51250000D01*
X124390870Y-51250000D01*
X124502962Y-51322059D01*
X124502962Y-51322059D01*
G37*
X124502962Y-51322059D02*
X124513408Y-51327167D01*
X124522929Y-51329497D01*
X124662929Y-51349497D01*
X124670000Y-51350000D01*
X125970025Y-51350000D01*
X125934213Y-51364834D01*
X125876888Y-51403137D01*
X125828137Y-51451888D01*
X125789834Y-51509213D01*
X125763450Y-51572909D01*
X125750000Y-51640528D01*
X125750000Y-51709472D01*
X125763450Y-51777091D01*
X125789834Y-51840787D01*
X125828137Y-51898112D01*
X125876888Y-51946863D01*
X125934213Y-51985166D01*
X125997909Y-52011550D01*
X126065528Y-52025000D01*
X126134472Y-52025000D01*
X126202091Y-52011550D01*
X126265787Y-51985166D01*
X126323112Y-51946863D01*
X126371863Y-51898112D01*
X126410166Y-51840787D01*
X126436550Y-51777091D01*
X126450000Y-51709472D01*
X126450000Y-51675528D01*
X127020000Y-51675528D01*
X127020000Y-51744472D01*
X127033450Y-51812091D01*
X127059834Y-51875787D01*
X127098137Y-51933112D01*
X127146888Y-51981863D01*
X127204213Y-52020166D01*
X127267909Y-52046550D01*
X127335528Y-52060000D01*
X127404472Y-52060000D01*
X127472091Y-52046550D01*
X127535787Y-52020166D01*
X127593112Y-51981863D01*
X127641863Y-51933112D01*
X127680166Y-51875787D01*
X127706550Y-51812091D01*
X127720000Y-51744472D01*
X127720000Y-51675528D01*
X128020000Y-51675528D01*
X128020000Y-51744472D01*
X128033450Y-51812091D01*
X128059834Y-51875787D01*
X128098137Y-51933112D01*
X128146888Y-51981863D01*
X128204213Y-52020166D01*
X128267909Y-52046550D01*
X128335528Y-52060000D01*
X128404472Y-52060000D01*
X128472091Y-52046550D01*
X128535787Y-52020166D01*
X128593112Y-51981863D01*
X128641863Y-51933112D01*
X128680166Y-51875787D01*
X128706550Y-51812091D01*
X128720000Y-51744472D01*
X128720000Y-51675528D01*
X128706550Y-51607909D01*
X128680166Y-51544213D01*
X128641863Y-51486888D01*
X128593112Y-51438137D01*
X128535787Y-51399834D01*
X128472091Y-51373450D01*
X128404472Y-51360000D01*
X128335528Y-51360000D01*
X128267909Y-51373450D01*
X128204213Y-51399834D01*
X128146888Y-51438137D01*
X128098137Y-51486888D01*
X128059834Y-51544213D01*
X128033450Y-51607909D01*
X128020000Y-51675528D01*
X127720000Y-51675528D01*
X127706550Y-51607909D01*
X127680166Y-51544213D01*
X127641863Y-51486888D01*
X127593112Y-51438137D01*
X127535787Y-51399834D01*
X127472091Y-51373450D01*
X127404472Y-51360000D01*
X127335528Y-51360000D01*
X127267909Y-51373450D01*
X127204213Y-51399834D01*
X127146888Y-51438137D01*
X127098137Y-51486888D01*
X127059834Y-51544213D01*
X127033450Y-51607909D01*
X127020000Y-51675528D01*
X126450000Y-51675528D01*
X126450000Y-51640528D01*
X126436550Y-51572909D01*
X126410166Y-51509213D01*
X126371863Y-51451888D01*
X126323112Y-51403137D01*
X126265787Y-51364834D01*
X126229975Y-51350000D01*
X126990000Y-51350000D01*
X127001452Y-51348671D01*
X127171452Y-51308671D01*
X127184508Y-51303582D01*
X127192540Y-51297963D01*
X127248497Y-51250000D01*
X129550000Y-51250000D01*
X129550001Y-58250000D01*
X129234472Y-58250000D01*
X129302091Y-58236550D01*
X129365787Y-58210166D01*
X129423112Y-58171863D01*
X129471863Y-58123112D01*
X129510166Y-58065787D01*
X129536550Y-58002091D01*
X129550000Y-57934472D01*
X129550000Y-57865528D01*
X129536550Y-57797909D01*
X129510166Y-57734213D01*
X129471863Y-57676888D01*
X129423112Y-57628137D01*
X129365787Y-57589834D01*
X129302091Y-57563450D01*
X129234472Y-57550000D01*
X129165528Y-57550000D01*
X129097909Y-57563450D01*
X129034213Y-57589834D01*
X128976888Y-57628137D01*
X128928137Y-57676888D01*
X128889834Y-57734213D01*
X128863450Y-57797909D01*
X128850000Y-57865528D01*
X128850000Y-57934472D01*
X128863450Y-58002091D01*
X128889834Y-58065787D01*
X128928137Y-58123112D01*
X128976888Y-58171863D01*
X129034213Y-58210166D01*
X129097909Y-58236550D01*
X129165528Y-58250000D01*
X126509129Y-58250000D01*
X126397038Y-58177942D01*
X126386592Y-58172834D01*
X126377072Y-58170504D01*
X126237072Y-58150502D01*
X126230000Y-58149999D01*
X123910000Y-58150000D01*
X123898548Y-58151329D01*
X123728548Y-58191329D01*
X123715492Y-58196418D01*
X123707460Y-58202037D01*
X123651503Y-58250000D01*
X122434472Y-58250000D01*
X122502091Y-58236550D01*
X122565787Y-58210166D01*
X122623112Y-58171863D01*
X122671863Y-58123112D01*
X122710166Y-58065787D01*
X122736550Y-58002091D01*
X122750000Y-57934472D01*
X122750000Y-57865528D01*
X122736550Y-57797909D01*
X122710166Y-57734213D01*
X122671863Y-57676888D01*
X122623112Y-57628137D01*
X122618752Y-57625223D01*
X122665863Y-57578112D01*
X122704166Y-57520787D01*
X122730550Y-57457091D01*
X122744000Y-57389472D01*
X122744000Y-57385528D01*
X123530000Y-57385528D01*
X123530000Y-57454472D01*
X123543450Y-57522091D01*
X123569834Y-57585787D01*
X123608137Y-57643112D01*
X123656888Y-57691863D01*
X123714213Y-57730166D01*
X123777909Y-57756550D01*
X123845528Y-57770000D01*
X123914472Y-57770000D01*
X123982091Y-57756550D01*
X124045787Y-57730166D01*
X124103112Y-57691863D01*
X124151863Y-57643112D01*
X124170293Y-57615528D01*
X125930000Y-57615528D01*
X125930000Y-57684472D01*
X125943450Y-57752091D01*
X125969834Y-57815787D01*
X126008137Y-57873112D01*
X126056888Y-57921863D01*
X126114213Y-57960166D01*
X126177909Y-57986550D01*
X126245528Y-58000000D01*
X126314472Y-58000000D01*
X126382091Y-57986550D01*
X126445787Y-57960166D01*
X126503112Y-57921863D01*
X126551863Y-57873112D01*
X126590166Y-57815787D01*
X126616550Y-57752091D01*
X126630000Y-57684472D01*
X126630000Y-57615528D01*
X126616550Y-57547909D01*
X126590166Y-57484213D01*
X126551863Y-57426888D01*
X126503112Y-57378137D01*
X126445787Y-57339834D01*
X126382091Y-57313450D01*
X126314472Y-57300000D01*
X126245528Y-57300000D01*
X126177909Y-57313450D01*
X126114213Y-57339834D01*
X126056888Y-57378137D01*
X126008137Y-57426888D01*
X125969834Y-57484213D01*
X125943450Y-57547909D01*
X125930000Y-57615528D01*
X124170293Y-57615528D01*
X124190166Y-57585787D01*
X124216550Y-57522091D01*
X124230000Y-57454472D01*
X124230000Y-57385528D01*
X124216550Y-57317909D01*
X124190166Y-57254213D01*
X124151863Y-57196888D01*
X124103112Y-57148137D01*
X124045787Y-57109834D01*
X123982091Y-57083450D01*
X123914472Y-57070000D01*
X123845528Y-57070000D01*
X123777909Y-57083450D01*
X123714213Y-57109834D01*
X123656888Y-57148137D01*
X123608137Y-57196888D01*
X123569834Y-57254213D01*
X123543450Y-57317909D01*
X123530000Y-57385528D01*
X122744000Y-57385528D01*
X122744000Y-57320528D01*
X122730550Y-57252909D01*
X122704166Y-57189213D01*
X122665863Y-57131888D01*
X122617112Y-57083137D01*
X122559787Y-57044834D01*
X122496091Y-57018450D01*
X122428472Y-57005000D01*
X122359528Y-57005000D01*
X122291909Y-57018450D01*
X122228213Y-57044834D01*
X122170888Y-57083137D01*
X122122137Y-57131888D01*
X122103077Y-57160414D01*
X122067787Y-57136834D01*
X122004091Y-57110450D01*
X121936472Y-57097000D01*
X121867528Y-57097000D01*
X121799909Y-57110450D01*
X121736213Y-57136834D01*
X121678888Y-57175137D01*
X121630137Y-57223888D01*
X121591834Y-57281213D01*
X121565450Y-57344909D01*
X121552000Y-57412528D01*
X121552000Y-57481472D01*
X121565450Y-57549091D01*
X121591834Y-57612787D01*
X121630137Y-57670112D01*
X121678888Y-57718863D01*
X121736213Y-57757166D01*
X121799909Y-57783550D01*
X121867528Y-57797000D01*
X121936472Y-57797000D01*
X122004091Y-57783550D01*
X122067787Y-57757166D01*
X122085125Y-57745581D01*
X122063450Y-57797909D01*
X122050000Y-57865528D01*
X122050000Y-57934472D01*
X122063450Y-58002091D01*
X122089834Y-58065787D01*
X122128137Y-58123112D01*
X122176888Y-58171863D01*
X122234213Y-58210166D01*
X122297909Y-58236550D01*
X122365528Y-58250000D01*
X120550000Y-58250000D01*
X120550000Y-56590528D01*
X126825000Y-56590528D01*
X126825000Y-56659472D01*
X126838450Y-56727091D01*
X126864834Y-56790787D01*
X126903137Y-56848112D01*
X126951888Y-56896863D01*
X127009213Y-56935166D01*
X127072909Y-56961550D01*
X127140528Y-56975000D01*
X127209472Y-56975000D01*
X127277091Y-56961550D01*
X127340787Y-56935166D01*
X127398112Y-56896863D01*
X127446863Y-56848112D01*
X127485166Y-56790787D01*
X127511550Y-56727091D01*
X127525000Y-56659472D01*
X127525000Y-56590528D01*
X127511550Y-56522909D01*
X127485166Y-56459213D01*
X127446863Y-56401888D01*
X127398112Y-56353137D01*
X127340787Y-56314834D01*
X127277091Y-56288450D01*
X127209472Y-56275000D01*
X127140528Y-56275000D01*
X127072909Y-56288450D01*
X127009213Y-56314834D01*
X126951888Y-56353137D01*
X126903137Y-56401888D01*
X126864834Y-56459213D01*
X126838450Y-56522909D01*
X126825000Y-56590528D01*
X120550000Y-56590528D01*
X120550000Y-56391159D01*
X120574351Y-56374888D01*
X120664888Y-56284351D01*
X120736022Y-56177890D01*
X120785021Y-56059598D01*
X120810000Y-55934019D01*
X120810000Y-55805981D01*
X120785021Y-55680402D01*
X120736022Y-55562110D01*
X120664888Y-55455649D01*
X120624777Y-55415538D01*
X121597901Y-55415538D01*
X121597901Y-55484482D01*
X121611351Y-55552101D01*
X121637735Y-55615797D01*
X121676038Y-55673122D01*
X121724789Y-55721873D01*
X121782114Y-55760176D01*
X121822556Y-55776928D01*
X121817681Y-55784223D01*
X121791297Y-55847919D01*
X121777847Y-55915538D01*
X121777847Y-55984482D01*
X121791297Y-56052101D01*
X121817681Y-56115797D01*
X121855984Y-56173122D01*
X121904735Y-56221873D01*
X121962060Y-56260176D01*
X122025756Y-56286560D01*
X122093375Y-56300010D01*
X122162319Y-56300010D01*
X122229938Y-56286560D01*
X122293634Y-56260176D01*
X122350959Y-56221873D01*
X122399710Y-56173122D01*
X122438013Y-56115797D01*
X122464397Y-56052101D01*
X122477847Y-55984482D01*
X122477847Y-55915936D01*
X123999595Y-55915936D01*
X123999595Y-55984880D01*
X124013045Y-56052499D01*
X124039429Y-56116195D01*
X124077732Y-56173520D01*
X124126483Y-56222271D01*
X124183808Y-56260574D01*
X124247504Y-56286958D01*
X124315123Y-56300408D01*
X124384067Y-56300408D01*
X124451686Y-56286958D01*
X124515382Y-56260574D01*
X124572707Y-56222271D01*
X124621458Y-56173520D01*
X124659761Y-56116195D01*
X124686145Y-56052499D01*
X124699595Y-55984880D01*
X124699595Y-55915936D01*
X124695536Y-55895528D01*
X125030000Y-55895528D01*
X125030000Y-55964472D01*
X125043450Y-56032091D01*
X125069834Y-56095787D01*
X125108137Y-56153112D01*
X125156888Y-56201863D01*
X125214213Y-56240166D01*
X125277909Y-56266550D01*
X125345528Y-56280000D01*
X125414472Y-56280000D01*
X125482091Y-56266550D01*
X125545787Y-56240166D01*
X125603112Y-56201863D01*
X125651863Y-56153112D01*
X125690166Y-56095787D01*
X125716550Y-56032091D01*
X125730000Y-55964472D01*
X125730000Y-55895528D01*
X125716550Y-55827909D01*
X125690166Y-55764213D01*
X125651863Y-55706888D01*
X125603112Y-55658137D01*
X125545787Y-55619834D01*
X125482091Y-55593450D01*
X125414472Y-55580000D01*
X125345528Y-55580000D01*
X125277909Y-55593450D01*
X125214213Y-55619834D01*
X125156888Y-55658137D01*
X125108137Y-55706888D01*
X125069834Y-55764213D01*
X125043450Y-55827909D01*
X125030000Y-55895528D01*
X124695536Y-55895528D01*
X124686145Y-55848317D01*
X124659761Y-55784621D01*
X124621458Y-55727296D01*
X124572707Y-55678545D01*
X124515382Y-55640242D01*
X124451686Y-55613858D01*
X124384067Y-55600408D01*
X124315123Y-55600408D01*
X124247504Y-55613858D01*
X124183808Y-55640242D01*
X124126483Y-55678545D01*
X124077732Y-55727296D01*
X124039429Y-55784621D01*
X124013045Y-55848317D01*
X123999595Y-55915936D01*
X122477847Y-55915936D01*
X122477847Y-55915538D01*
X122464397Y-55847919D01*
X122438013Y-55784223D01*
X122399710Y-55726898D01*
X122350959Y-55678147D01*
X122293634Y-55639844D01*
X122253192Y-55623092D01*
X122258067Y-55615797D01*
X122284451Y-55552101D01*
X122297901Y-55484482D01*
X122297901Y-55415538D01*
X122284451Y-55347919D01*
X122281390Y-55340528D01*
X123075000Y-55340528D01*
X123075000Y-55409472D01*
X123088450Y-55477091D01*
X123114834Y-55540787D01*
X123153137Y-55598112D01*
X123201888Y-55646863D01*
X123259213Y-55685166D01*
X123322909Y-55711550D01*
X123390528Y-55725000D01*
X123459472Y-55725000D01*
X123527091Y-55711550D01*
X123590787Y-55685166D01*
X123648112Y-55646863D01*
X123696863Y-55598112D01*
X123735166Y-55540787D01*
X123761550Y-55477091D01*
X123775000Y-55409472D01*
X123775000Y-55340528D01*
X123761550Y-55272909D01*
X123735166Y-55209213D01*
X123696863Y-55151888D01*
X123648112Y-55103137D01*
X123590787Y-55064834D01*
X123527091Y-55038450D01*
X123459472Y-55025000D01*
X123390528Y-55025000D01*
X123322909Y-55038450D01*
X123259213Y-55064834D01*
X123201888Y-55103137D01*
X123153137Y-55151888D01*
X123114834Y-55209213D01*
X123088450Y-55272909D01*
X123075000Y-55340528D01*
X122281390Y-55340528D01*
X122258067Y-55284223D01*
X122219764Y-55226898D01*
X122171013Y-55178147D01*
X122113688Y-55139844D01*
X122049992Y-55113460D01*
X121982373Y-55100010D01*
X121913429Y-55100010D01*
X121845810Y-55113460D01*
X121782114Y-55139844D01*
X121724789Y-55178147D01*
X121676038Y-55226898D01*
X121637735Y-55284223D01*
X121611351Y-55347919D01*
X121597901Y-55415538D01*
X120624777Y-55415538D01*
X120574351Y-55365112D01*
X120550000Y-55348841D01*
X120550000Y-54734477D01*
X120564351Y-54724888D01*
X120623711Y-54665528D01*
X121125000Y-54665528D01*
X121125000Y-54734472D01*
X121138450Y-54802091D01*
X121164834Y-54865787D01*
X121203137Y-54923112D01*
X121251888Y-54971863D01*
X121309213Y-55010166D01*
X121372909Y-55036550D01*
X121440528Y-55050000D01*
X121509472Y-55050000D01*
X121577091Y-55036550D01*
X121640787Y-55010166D01*
X121698112Y-54971863D01*
X121746863Y-54923112D01*
X121783636Y-54868076D01*
X121809213Y-54885166D01*
X121872909Y-54911550D01*
X121940528Y-54925000D01*
X122009472Y-54925000D01*
X122057091Y-54915528D01*
X124000000Y-54915528D01*
X124000000Y-54984472D01*
X124013450Y-55052091D01*
X124039834Y-55115787D01*
X124078137Y-55173112D01*
X124126888Y-55221863D01*
X124184213Y-55260166D01*
X124247909Y-55286550D01*
X124315528Y-55300000D01*
X124384472Y-55300000D01*
X124452091Y-55286550D01*
X124515787Y-55260166D01*
X124573112Y-55221863D01*
X124589447Y-55205528D01*
X128114986Y-55205528D01*
X128114986Y-55274472D01*
X128128436Y-55342091D01*
X128154820Y-55405787D01*
X128193123Y-55463112D01*
X128241874Y-55511863D01*
X128299199Y-55550166D01*
X128362895Y-55576550D01*
X128430514Y-55590000D01*
X128499458Y-55590000D01*
X128567077Y-55576550D01*
X128630773Y-55550166D01*
X128688098Y-55511863D01*
X128736849Y-55463112D01*
X128775152Y-55405787D01*
X128801536Y-55342091D01*
X128814986Y-55274472D01*
X128814986Y-55205528D01*
X128801536Y-55137909D01*
X128775152Y-55074213D01*
X128736849Y-55016888D01*
X128688098Y-54968137D01*
X128630773Y-54929834D01*
X128567077Y-54903450D01*
X128499458Y-54890000D01*
X128430514Y-54890000D01*
X128362895Y-54903450D01*
X128299199Y-54929834D01*
X128241874Y-54968137D01*
X128193123Y-55016888D01*
X128154820Y-55074213D01*
X128128436Y-55137909D01*
X128114986Y-55205528D01*
X124589447Y-55205528D01*
X124621863Y-55173112D01*
X124660166Y-55115787D01*
X124686550Y-55052091D01*
X124700000Y-54984472D01*
X124700000Y-54915528D01*
X124686550Y-54847909D01*
X124660166Y-54784213D01*
X124621863Y-54726888D01*
X124573112Y-54678137D01*
X124515787Y-54639834D01*
X124452091Y-54613450D01*
X124384472Y-54600000D01*
X124315528Y-54600000D01*
X124247909Y-54613450D01*
X124184213Y-54639834D01*
X124126888Y-54678137D01*
X124078137Y-54726888D01*
X124039834Y-54784213D01*
X124013450Y-54847909D01*
X124000000Y-54915528D01*
X122057091Y-54915528D01*
X122077091Y-54911550D01*
X122140787Y-54885166D01*
X122198112Y-54846863D01*
X122246863Y-54798112D01*
X122285166Y-54740787D01*
X122311550Y-54677091D01*
X122312579Y-54671916D01*
X122347909Y-54686550D01*
X122415528Y-54700000D01*
X122484472Y-54700000D01*
X122552091Y-54686550D01*
X122615787Y-54660166D01*
X122673112Y-54621863D01*
X122721863Y-54573112D01*
X122760166Y-54515787D01*
X122786550Y-54452091D01*
X122800000Y-54384472D01*
X122800000Y-54365528D01*
X123050000Y-54365528D01*
X123050000Y-54434472D01*
X123063450Y-54502091D01*
X123089834Y-54565787D01*
X123128137Y-54623112D01*
X123176888Y-54671863D01*
X123234213Y-54710166D01*
X123297909Y-54736550D01*
X123365528Y-54750000D01*
X123434472Y-54750000D01*
X123502091Y-54736550D01*
X123565787Y-54710166D01*
X123623112Y-54671863D01*
X123671863Y-54623112D01*
X123710166Y-54565787D01*
X123736550Y-54502091D01*
X123742180Y-54473785D01*
X123759213Y-54485166D01*
X123822909Y-54511550D01*
X123890528Y-54525000D01*
X123959472Y-54525000D01*
X124027091Y-54511550D01*
X124090787Y-54485166D01*
X124148112Y-54446863D01*
X124196863Y-54398112D01*
X124218634Y-54365528D01*
X125050000Y-54365528D01*
X125050000Y-54434472D01*
X125063450Y-54502091D01*
X125089834Y-54565787D01*
X125128137Y-54623112D01*
X125176888Y-54671863D01*
X125234213Y-54710166D01*
X125297909Y-54736550D01*
X125365528Y-54750000D01*
X125434472Y-54750000D01*
X125502091Y-54736550D01*
X125565787Y-54710166D01*
X125623112Y-54671863D01*
X125671863Y-54623112D01*
X125710166Y-54565787D01*
X125736550Y-54502091D01*
X125750000Y-54434472D01*
X125750000Y-54365528D01*
X125736550Y-54297909D01*
X125710166Y-54234213D01*
X125671863Y-54176888D01*
X125623112Y-54128137D01*
X125565787Y-54089834D01*
X125502091Y-54063450D01*
X125434472Y-54050000D01*
X125365528Y-54050000D01*
X125297909Y-54063450D01*
X125234213Y-54089834D01*
X125176888Y-54128137D01*
X125128137Y-54176888D01*
X125089834Y-54234213D01*
X125063450Y-54297909D01*
X125050000Y-54365528D01*
X124218634Y-54365528D01*
X124235166Y-54340787D01*
X124261550Y-54277091D01*
X124275000Y-54209472D01*
X124275000Y-54140528D01*
X124261550Y-54072909D01*
X124235166Y-54009213D01*
X124196863Y-53951888D01*
X124148112Y-53903137D01*
X124090787Y-53864834D01*
X124027091Y-53838450D01*
X123959472Y-53825000D01*
X123890528Y-53825000D01*
X123822909Y-53838450D01*
X123759213Y-53864834D01*
X123701888Y-53903137D01*
X123653137Y-53951888D01*
X123614834Y-54009213D01*
X123588450Y-54072909D01*
X123582820Y-54101215D01*
X123565787Y-54089834D01*
X123502091Y-54063450D01*
X123434472Y-54050000D01*
X123365528Y-54050000D01*
X123297909Y-54063450D01*
X123234213Y-54089834D01*
X123176888Y-54128137D01*
X123128137Y-54176888D01*
X123089834Y-54234213D01*
X123063450Y-54297909D01*
X123050000Y-54365528D01*
X122800000Y-54365528D01*
X122800000Y-54315528D01*
X122786550Y-54247909D01*
X122760166Y-54184213D01*
X122721863Y-54126888D01*
X122673112Y-54078137D01*
X122615787Y-54039834D01*
X122552091Y-54013450D01*
X122484472Y-54000000D01*
X122415528Y-54000000D01*
X122347909Y-54013450D01*
X122284213Y-54039834D01*
X122226888Y-54078137D01*
X122178137Y-54126888D01*
X122139834Y-54184213D01*
X122113450Y-54247909D01*
X122112421Y-54253084D01*
X122077091Y-54238450D01*
X122009472Y-54225000D01*
X121940528Y-54225000D01*
X121872909Y-54238450D01*
X121809213Y-54264834D01*
X121751888Y-54303137D01*
X121703137Y-54351888D01*
X121666364Y-54406924D01*
X121640787Y-54389834D01*
X121577091Y-54363450D01*
X121509472Y-54350000D01*
X121440528Y-54350000D01*
X121372909Y-54363450D01*
X121309213Y-54389834D01*
X121251888Y-54428137D01*
X121203137Y-54476888D01*
X121164834Y-54534213D01*
X121138450Y-54597909D01*
X121125000Y-54665528D01*
X120623711Y-54665528D01*
X120654888Y-54634351D01*
X120726022Y-54527890D01*
X120775021Y-54409598D01*
X120800000Y-54284019D01*
X120800000Y-54155981D01*
X120775021Y-54030402D01*
X120726022Y-53912110D01*
X120654888Y-53805649D01*
X120564351Y-53715112D01*
X120550000Y-53705523D01*
X120550000Y-53139477D01*
X120564351Y-53129888D01*
X120654888Y-53039351D01*
X120726022Y-52932890D01*
X120775021Y-52814598D01*
X120791522Y-52731641D01*
X120834213Y-52760166D01*
X120897909Y-52786550D01*
X120965528Y-52800000D01*
X121034472Y-52800000D01*
X121102091Y-52786550D01*
X121152842Y-52765528D01*
X123300000Y-52765528D01*
X123300000Y-52834472D01*
X123313450Y-52902091D01*
X123339834Y-52965787D01*
X123378137Y-53023112D01*
X123426888Y-53071863D01*
X123484213Y-53110166D01*
X123547909Y-53136550D01*
X123615528Y-53150000D01*
X123684472Y-53150000D01*
X123752091Y-53136550D01*
X123815787Y-53110166D01*
X123873112Y-53071863D01*
X123921863Y-53023112D01*
X123960166Y-52965787D01*
X123986550Y-52902091D01*
X123988849Y-52890528D01*
X126500000Y-52890528D01*
X126500000Y-52959472D01*
X126513450Y-53027091D01*
X126539834Y-53090787D01*
X126578137Y-53148112D01*
X126626888Y-53196863D01*
X126684213Y-53235166D01*
X126747909Y-53261550D01*
X126815528Y-53275000D01*
X126884472Y-53275000D01*
X126952091Y-53261550D01*
X127015787Y-53235166D01*
X127073112Y-53196863D01*
X127121863Y-53148112D01*
X127160166Y-53090787D01*
X127186550Y-53027091D01*
X127200000Y-52959472D01*
X127200000Y-52890528D01*
X127186550Y-52822909D01*
X127160166Y-52759213D01*
X127121863Y-52701888D01*
X127073112Y-52653137D01*
X127015787Y-52614834D01*
X126952091Y-52588450D01*
X126884472Y-52575000D01*
X126815528Y-52575000D01*
X126747909Y-52588450D01*
X126684213Y-52614834D01*
X126626888Y-52653137D01*
X126578137Y-52701888D01*
X126539834Y-52759213D01*
X126513450Y-52822909D01*
X126500000Y-52890528D01*
X123988849Y-52890528D01*
X124000000Y-52834472D01*
X124000000Y-52765528D01*
X123986550Y-52697909D01*
X123960166Y-52634213D01*
X123921863Y-52576888D01*
X123873112Y-52528137D01*
X123815787Y-52489834D01*
X123752091Y-52463450D01*
X123684472Y-52450000D01*
X123615528Y-52450000D01*
X123547909Y-52463450D01*
X123484213Y-52489834D01*
X123426888Y-52528137D01*
X123378137Y-52576888D01*
X123339834Y-52634213D01*
X123313450Y-52697909D01*
X123300000Y-52765528D01*
X121152842Y-52765528D01*
X121165787Y-52760166D01*
X121223112Y-52721863D01*
X121271863Y-52673112D01*
X121310166Y-52615787D01*
X121336550Y-52552091D01*
X121350000Y-52484472D01*
X121350000Y-52415528D01*
X121336550Y-52347909D01*
X121310166Y-52284213D01*
X121271863Y-52226888D01*
X121223112Y-52178137D01*
X121219208Y-52175528D01*
X127520000Y-52175528D01*
X127520000Y-52244472D01*
X127533450Y-52312091D01*
X127559834Y-52375787D01*
X127598137Y-52433112D01*
X127646888Y-52481863D01*
X127704213Y-52520166D01*
X127767909Y-52546550D01*
X127835528Y-52560000D01*
X127904472Y-52560000D01*
X127972091Y-52546550D01*
X128035787Y-52520166D01*
X128093112Y-52481863D01*
X128141863Y-52433112D01*
X128180166Y-52375787D01*
X128206550Y-52312091D01*
X128220000Y-52244472D01*
X128220000Y-52175528D01*
X128520000Y-52175528D01*
X128520000Y-52244472D01*
X128533450Y-52312091D01*
X128559834Y-52375787D01*
X128598137Y-52433112D01*
X128646888Y-52481863D01*
X128704213Y-52520166D01*
X128767909Y-52546550D01*
X128835528Y-52560000D01*
X128904472Y-52560000D01*
X128972091Y-52546550D01*
X129035787Y-52520166D01*
X129093112Y-52481863D01*
X129141863Y-52433112D01*
X129180166Y-52375787D01*
X129206550Y-52312091D01*
X129220000Y-52244472D01*
X129220000Y-52175528D01*
X129206550Y-52107909D01*
X129180166Y-52044213D01*
X129141863Y-51986888D01*
X129093112Y-51938137D01*
X129035787Y-51899834D01*
X128972091Y-51873450D01*
X128904472Y-51860000D01*
X128835528Y-51860000D01*
X128767909Y-51873450D01*
X128704213Y-51899834D01*
X128646888Y-51938137D01*
X128598137Y-51986888D01*
X128559834Y-52044213D01*
X128533450Y-52107909D01*
X128520000Y-52175528D01*
X128220000Y-52175528D01*
X128206550Y-52107909D01*
X128180166Y-52044213D01*
X128141863Y-51986888D01*
X128093112Y-51938137D01*
X128035787Y-51899834D01*
X127972091Y-51873450D01*
X127904472Y-51860000D01*
X127835528Y-51860000D01*
X127767909Y-51873450D01*
X127704213Y-51899834D01*
X127646888Y-51938137D01*
X127598137Y-51986888D01*
X127559834Y-52044213D01*
X127533450Y-52107909D01*
X127520000Y-52175528D01*
X121219208Y-52175528D01*
X121165787Y-52139834D01*
X121102091Y-52113450D01*
X121034472Y-52100000D01*
X120965528Y-52100000D01*
X120897909Y-52113450D01*
X120834213Y-52139834D01*
X120776888Y-52178137D01*
X120728137Y-52226888D01*
X120696938Y-52273582D01*
X120654888Y-52210649D01*
X120564351Y-52120112D01*
X120550000Y-52110523D01*
X120550000Y-51634472D01*
X120563450Y-51702091D01*
X120589834Y-51765787D01*
X120628137Y-51823112D01*
X120676888Y-51871863D01*
X120734213Y-51910166D01*
X120797909Y-51936550D01*
X120865528Y-51950000D01*
X120934472Y-51950000D01*
X121002091Y-51936550D01*
X121065787Y-51910166D01*
X121123112Y-51871863D01*
X121171863Y-51823112D01*
X121210166Y-51765787D01*
X121236550Y-51702091D01*
X121250000Y-51634472D01*
X121250000Y-51565528D01*
X121236550Y-51497909D01*
X121210166Y-51434213D01*
X121171863Y-51376888D01*
X121123112Y-51328137D01*
X121065787Y-51289834D01*
X121002091Y-51263450D01*
X120934472Y-51250000D01*
X124390870Y-51250000D01*
X124502962Y-51322059D01*
M02*
