G04 #@! TF.GenerationSoftware,KiCad,Pcbnew,(5.1.4)-1*
G04 #@! TF.CreationDate,2021-03-14T16:47:26+01:00*
G04 #@! TF.ProjectId,zepto_receiver_elrs,7a657074-6f5f-4726-9563-65697665725f,rev?*
G04 #@! TF.SameCoordinates,Original*
G04 #@! TF.FileFunction,Other,Comment*
%FSLAX46Y46*%
G04 Gerber Fmt 4.6, Leading zero omitted, Abs format (unit mm)*
G04 Created by KiCad (PCBNEW (5.1.4)-1) date 2021-03-14 16:47:26*
%MOMM*%
%LPD*%
G04 APERTURE LIST*
%ADD10C,0.150000*%
G04 APERTURE END LIST*
D10*
X117850000Y-49750000D02*
X119600000Y-57600000D01*
X117850000Y-49750000D02*
X119950000Y-55900000D01*
X117850000Y-49750000D02*
X119900000Y-54250000D01*
X117850000Y-49750000D02*
X120100000Y-52650000D01*
X106602380Y-49057142D02*
X106554761Y-49104761D01*
X106411904Y-49152380D01*
X106316666Y-49152380D01*
X106173809Y-49104761D01*
X106078571Y-49009523D01*
X106030952Y-48914285D01*
X105983333Y-48723809D01*
X105983333Y-48580952D01*
X106030952Y-48390476D01*
X106078571Y-48295238D01*
X106173809Y-48200000D01*
X106316666Y-48152380D01*
X106411904Y-48152380D01*
X106554761Y-48200000D01*
X106602380Y-48247619D01*
X107459523Y-49152380D02*
X107459523Y-48628571D01*
X107411904Y-48533333D01*
X107316666Y-48485714D01*
X107126190Y-48485714D01*
X107030952Y-48533333D01*
X107459523Y-49104761D02*
X107364285Y-49152380D01*
X107126190Y-49152380D01*
X107030952Y-49104761D01*
X106983333Y-49009523D01*
X106983333Y-48914285D01*
X107030952Y-48819047D01*
X107126190Y-48771428D01*
X107364285Y-48771428D01*
X107459523Y-48723809D01*
X107888095Y-49104761D02*
X107983333Y-49152380D01*
X108173809Y-49152380D01*
X108269047Y-49104761D01*
X108316666Y-49009523D01*
X108316666Y-48961904D01*
X108269047Y-48866666D01*
X108173809Y-48819047D01*
X108030952Y-48819047D01*
X107935714Y-48771428D01*
X107888095Y-48676190D01*
X107888095Y-48628571D01*
X107935714Y-48533333D01*
X108030952Y-48485714D01*
X108173809Y-48485714D01*
X108269047Y-48533333D01*
X108602380Y-48485714D02*
X108983333Y-48485714D01*
X108745238Y-48152380D02*
X108745238Y-49009523D01*
X108792857Y-49104761D01*
X108888095Y-49152380D01*
X108983333Y-49152380D01*
X109697619Y-49104761D02*
X109602380Y-49152380D01*
X109411904Y-49152380D01*
X109316666Y-49104761D01*
X109269047Y-49009523D01*
X109269047Y-48628571D01*
X109316666Y-48533333D01*
X109411904Y-48485714D01*
X109602380Y-48485714D01*
X109697619Y-48533333D01*
X109745238Y-48628571D01*
X109745238Y-48723809D01*
X109269047Y-48819047D01*
X110316666Y-49152380D02*
X110221428Y-49104761D01*
X110173809Y-49009523D01*
X110173809Y-48152380D01*
X110840476Y-49152380D02*
X110745238Y-49104761D01*
X110697619Y-49009523D01*
X110697619Y-48152380D01*
X111650000Y-49152380D02*
X111650000Y-48628571D01*
X111602380Y-48533333D01*
X111507142Y-48485714D01*
X111316666Y-48485714D01*
X111221428Y-48533333D01*
X111650000Y-49104761D02*
X111554761Y-49152380D01*
X111316666Y-49152380D01*
X111221428Y-49104761D01*
X111173809Y-49009523D01*
X111173809Y-48914285D01*
X111221428Y-48819047D01*
X111316666Y-48771428D01*
X111554761Y-48771428D01*
X111650000Y-48723809D01*
X111983333Y-48485714D02*
X112364285Y-48485714D01*
X112126190Y-48152380D02*
X112126190Y-49009523D01*
X112173809Y-49104761D01*
X112269047Y-49152380D01*
X112364285Y-49152380D01*
X113078571Y-49104761D02*
X112983333Y-49152380D01*
X112792857Y-49152380D01*
X112697619Y-49104761D01*
X112650000Y-49009523D01*
X112650000Y-48628571D01*
X112697619Y-48533333D01*
X112792857Y-48485714D01*
X112983333Y-48485714D01*
X113078571Y-48533333D01*
X113126190Y-48628571D01*
X113126190Y-48723809D01*
X112650000Y-48819047D01*
X113983333Y-49152380D02*
X113983333Y-48152380D01*
X113983333Y-49104761D02*
X113888095Y-49152380D01*
X113697619Y-49152380D01*
X113602380Y-49104761D01*
X113554761Y-49057142D01*
X113507142Y-48961904D01*
X113507142Y-48676190D01*
X113554761Y-48580952D01*
X113602380Y-48533333D01*
X113697619Y-48485714D01*
X113888095Y-48485714D01*
X113983333Y-48533333D01*
X115221428Y-48485714D02*
X115221428Y-49485714D01*
X115221428Y-48533333D02*
X115316666Y-48485714D01*
X115507142Y-48485714D01*
X115602380Y-48533333D01*
X115650000Y-48580952D01*
X115697619Y-48676190D01*
X115697619Y-48961904D01*
X115650000Y-49057142D01*
X115602380Y-49104761D01*
X115507142Y-49152380D01*
X115316666Y-49152380D01*
X115221428Y-49104761D01*
X116554761Y-49152380D02*
X116554761Y-48628571D01*
X116507142Y-48533333D01*
X116411904Y-48485714D01*
X116221428Y-48485714D01*
X116126190Y-48533333D01*
X116554761Y-49104761D02*
X116459523Y-49152380D01*
X116221428Y-49152380D01*
X116126190Y-49104761D01*
X116078571Y-49009523D01*
X116078571Y-48914285D01*
X116126190Y-48819047D01*
X116221428Y-48771428D01*
X116459523Y-48771428D01*
X116554761Y-48723809D01*
X117459523Y-49152380D02*
X117459523Y-48152380D01*
X117459523Y-49104761D02*
X117364285Y-49152380D01*
X117173809Y-49152380D01*
X117078571Y-49104761D01*
X117030952Y-49057142D01*
X116983333Y-48961904D01*
X116983333Y-48676190D01*
X117030952Y-48580952D01*
X117078571Y-48533333D01*
X117173809Y-48485714D01*
X117364285Y-48485714D01*
X117459523Y-48533333D01*
X117888095Y-49104761D02*
X117983333Y-49152380D01*
X118173809Y-49152380D01*
X118269047Y-49104761D01*
X118316666Y-49009523D01*
X118316666Y-48961904D01*
X118269047Y-48866666D01*
X118173809Y-48819047D01*
X118030952Y-48819047D01*
X117935714Y-48771428D01*
X117888095Y-48676190D01*
X117888095Y-48628571D01*
X117935714Y-48533333D01*
X118030952Y-48485714D01*
X118173809Y-48485714D01*
X118269047Y-48533333D01*
X128350000Y-58550000D02*
X132400000Y-56100000D01*
X132550000Y-55450000D02*
X129850000Y-55350000D01*
X132600000Y-54900000D02*
X129650000Y-50850000D01*
X132800000Y-55954761D02*
X132942857Y-56002380D01*
X133180952Y-56002380D01*
X133276190Y-55954761D01*
X133323809Y-55907142D01*
X133371428Y-55811904D01*
X133371428Y-55716666D01*
X133323809Y-55621428D01*
X133276190Y-55573809D01*
X133180952Y-55526190D01*
X132990476Y-55478571D01*
X132895238Y-55430952D01*
X132847619Y-55383333D01*
X132800000Y-55288095D01*
X132800000Y-55192857D01*
X132847619Y-55097619D01*
X132895238Y-55050000D01*
X132990476Y-55002380D01*
X133228571Y-55002380D01*
X133371428Y-55050000D01*
X133800000Y-56002380D02*
X133800000Y-55335714D01*
X133800000Y-55002380D02*
X133752380Y-55050000D01*
X133800000Y-55097619D01*
X133847619Y-55050000D01*
X133800000Y-55002380D01*
X133800000Y-55097619D01*
X134704761Y-56002380D02*
X134704761Y-55002380D01*
X134704761Y-55954761D02*
X134609523Y-56002380D01*
X134419047Y-56002380D01*
X134323809Y-55954761D01*
X134276190Y-55907142D01*
X134228571Y-55811904D01*
X134228571Y-55526190D01*
X134276190Y-55430952D01*
X134323809Y-55383333D01*
X134419047Y-55335714D01*
X134609523Y-55335714D01*
X134704761Y-55383333D01*
X135561904Y-55954761D02*
X135466666Y-56002380D01*
X135276190Y-56002380D01*
X135180952Y-55954761D01*
X135133333Y-55859523D01*
X135133333Y-55478571D01*
X135180952Y-55383333D01*
X135276190Y-55335714D01*
X135466666Y-55335714D01*
X135561904Y-55383333D01*
X135609523Y-55478571D01*
X135609523Y-55573809D01*
X135133333Y-55669047D01*
X136038095Y-55335714D02*
X136038095Y-56335714D01*
X136038095Y-55383333D02*
X136133333Y-55335714D01*
X136323809Y-55335714D01*
X136419047Y-55383333D01*
X136466666Y-55430952D01*
X136514285Y-55526190D01*
X136514285Y-55811904D01*
X136466666Y-55907142D01*
X136419047Y-55954761D01*
X136323809Y-56002380D01*
X136133333Y-56002380D01*
X136038095Y-55954761D01*
X137085714Y-56002380D02*
X136990476Y-55954761D01*
X136942857Y-55859523D01*
X136942857Y-55002380D01*
X137895238Y-56002380D02*
X137895238Y-55478571D01*
X137847619Y-55383333D01*
X137752380Y-55335714D01*
X137561904Y-55335714D01*
X137466666Y-55383333D01*
X137895238Y-55954761D02*
X137800000Y-56002380D01*
X137561904Y-56002380D01*
X137466666Y-55954761D01*
X137419047Y-55859523D01*
X137419047Y-55764285D01*
X137466666Y-55669047D01*
X137561904Y-55621428D01*
X137800000Y-55621428D01*
X137895238Y-55573809D01*
X138228571Y-55335714D02*
X138609523Y-55335714D01*
X138371428Y-55002380D02*
X138371428Y-55859523D01*
X138419047Y-55954761D01*
X138514285Y-56002380D01*
X138609523Y-56002380D01*
X138942857Y-56002380D02*
X138942857Y-55335714D01*
X138942857Y-55002380D02*
X138895238Y-55050000D01*
X138942857Y-55097619D01*
X138990476Y-55050000D01*
X138942857Y-55002380D01*
X138942857Y-55097619D01*
X139419047Y-55335714D02*
X139419047Y-56002380D01*
X139419047Y-55430952D02*
X139466666Y-55383333D01*
X139561904Y-55335714D01*
X139704761Y-55335714D01*
X139800000Y-55383333D01*
X139847619Y-55478571D01*
X139847619Y-56002380D01*
X140752380Y-55335714D02*
X140752380Y-56145238D01*
X140704761Y-56240476D01*
X140657142Y-56288095D01*
X140561904Y-56335714D01*
X140419047Y-56335714D01*
X140323809Y-56288095D01*
X140752380Y-55954761D02*
X140657142Y-56002380D01*
X140466666Y-56002380D01*
X140371428Y-55954761D01*
X140323809Y-55907142D01*
X140276190Y-55811904D01*
X140276190Y-55526190D01*
X140323809Y-55430952D01*
X140371428Y-55383333D01*
X140466666Y-55335714D01*
X140657142Y-55335714D01*
X140752380Y-55383333D01*
X114397619Y-51035714D02*
X114397619Y-51702380D01*
X113397619Y-51273809D01*
X113445238Y-52130952D02*
X113397619Y-52130952D01*
X113302380Y-52083333D01*
X113254761Y-52035714D01*
X114397619Y-53035714D02*
X114397619Y-52559523D01*
X113921428Y-52511904D01*
X113969047Y-52559523D01*
X114016666Y-52654761D01*
X114016666Y-52892857D01*
X113969047Y-52988095D01*
X113921428Y-53035714D01*
X113826190Y-53083333D01*
X113588095Y-53083333D01*
X113492857Y-53035714D01*
X113445238Y-52988095D01*
X113397619Y-52892857D01*
X113397619Y-52654761D01*
X113445238Y-52559523D01*
X113492857Y-52511904D01*
X114397619Y-53702380D02*
X114397619Y-53797619D01*
X114350000Y-53892857D01*
X114302380Y-53940476D01*
X114207142Y-53988095D01*
X114016666Y-54035714D01*
X113778571Y-54035714D01*
X113588095Y-53988095D01*
X113492857Y-53940476D01*
X113445238Y-53892857D01*
X113397619Y-53797619D01*
X113397619Y-53702380D01*
X113445238Y-53607142D01*
X113492857Y-53559523D01*
X113588095Y-53511904D01*
X113778571Y-53464285D01*
X114016666Y-53464285D01*
X114207142Y-53511904D01*
X114302380Y-53559523D01*
X114350000Y-53607142D01*
X114397619Y-53702380D01*
X114397619Y-54654761D02*
X114397619Y-54750000D01*
X114350000Y-54845238D01*
X114302380Y-54892857D01*
X114207142Y-54940476D01*
X114016666Y-54988095D01*
X113778571Y-54988095D01*
X113588095Y-54940476D01*
X113492857Y-54892857D01*
X113445238Y-54845238D01*
X113397619Y-54750000D01*
X113397619Y-54654761D01*
X113445238Y-54559523D01*
X113492857Y-54511904D01*
X113588095Y-54464285D01*
X113778571Y-54416666D01*
X114016666Y-54416666D01*
X114207142Y-54464285D01*
X114302380Y-54511904D01*
X114350000Y-54559523D01*
X114397619Y-54654761D01*
X113397619Y-56178571D02*
X114064285Y-56178571D01*
X113969047Y-56178571D02*
X114016666Y-56226190D01*
X114064285Y-56321428D01*
X114064285Y-56464285D01*
X114016666Y-56559523D01*
X113921428Y-56607142D01*
X113397619Y-56607142D01*
X113921428Y-56607142D02*
X114016666Y-56654761D01*
X114064285Y-56750000D01*
X114064285Y-56892857D01*
X114016666Y-56988095D01*
X113921428Y-57035714D01*
X113397619Y-57035714D01*
X113397619Y-57511904D02*
X114064285Y-57511904D01*
X113969047Y-57511904D02*
X114016666Y-57559523D01*
X114064285Y-57654761D01*
X114064285Y-57797619D01*
X114016666Y-57892857D01*
X113921428Y-57940476D01*
X113397619Y-57940476D01*
X113921428Y-57940476D02*
X114016666Y-57988095D01*
X114064285Y-58083333D01*
X114064285Y-58226190D01*
X114016666Y-58321428D01*
X113921428Y-58369047D01*
X113397619Y-58369047D01*
X115150000Y-51000000D02*
X115150000Y-58500000D01*
X120300000Y-51000000D02*
X114563579Y-51000000D01*
X120300000Y-58500000D02*
X114563579Y-58500000D01*
X115150000Y-58500000D02*
X114563579Y-57373496D01*
X115150000Y-58500000D02*
X115736421Y-57373496D01*
X115150000Y-51000000D02*
X114563579Y-52126504D01*
X115150000Y-51000000D02*
X115736421Y-52126504D01*
X121478571Y-62402380D02*
X121669047Y-62402380D01*
X121764285Y-62354761D01*
X121811904Y-62307142D01*
X121907142Y-62164285D01*
X121954761Y-61973809D01*
X121954761Y-61592857D01*
X121907142Y-61497619D01*
X121859523Y-61450000D01*
X121764285Y-61402380D01*
X121573809Y-61402380D01*
X121478571Y-61450000D01*
X121430952Y-61497619D01*
X121383333Y-61592857D01*
X121383333Y-61830952D01*
X121430952Y-61926190D01*
X121478571Y-61973809D01*
X121573809Y-62021428D01*
X121764285Y-62021428D01*
X121859523Y-61973809D01*
X121907142Y-61926190D01*
X121954761Y-61830952D01*
X122430952Y-62354761D02*
X122430952Y-62402380D01*
X122383333Y-62497619D01*
X122335714Y-62545238D01*
X123335714Y-61402380D02*
X122859523Y-61402380D01*
X122811904Y-61878571D01*
X122859523Y-61830952D01*
X122954761Y-61783333D01*
X123192857Y-61783333D01*
X123288095Y-61830952D01*
X123335714Y-61878571D01*
X123383333Y-61973809D01*
X123383333Y-62211904D01*
X123335714Y-62307142D01*
X123288095Y-62354761D01*
X123192857Y-62402380D01*
X122954761Y-62402380D01*
X122859523Y-62354761D01*
X122811904Y-62307142D01*
X124002380Y-61402380D02*
X124097619Y-61402380D01*
X124192857Y-61450000D01*
X124240476Y-61497619D01*
X124288095Y-61592857D01*
X124335714Y-61783333D01*
X124335714Y-62021428D01*
X124288095Y-62211904D01*
X124240476Y-62307142D01*
X124192857Y-62354761D01*
X124097619Y-62402380D01*
X124002380Y-62402380D01*
X123907142Y-62354761D01*
X123859523Y-62307142D01*
X123811904Y-62211904D01*
X123764285Y-62021428D01*
X123764285Y-61783333D01*
X123811904Y-61592857D01*
X123859523Y-61497619D01*
X123907142Y-61450000D01*
X124002380Y-61402380D01*
X124954761Y-61402380D02*
X125050000Y-61402380D01*
X125145238Y-61450000D01*
X125192857Y-61497619D01*
X125240476Y-61592857D01*
X125288095Y-61783333D01*
X125288095Y-62021428D01*
X125240476Y-62211904D01*
X125192857Y-62307142D01*
X125145238Y-62354761D01*
X125050000Y-62402380D01*
X124954761Y-62402380D01*
X124859523Y-62354761D01*
X124811904Y-62307142D01*
X124764285Y-62211904D01*
X124716666Y-62021428D01*
X124716666Y-61783333D01*
X124764285Y-61592857D01*
X124811904Y-61497619D01*
X124859523Y-61450000D01*
X124954761Y-61402380D01*
X126478571Y-62402380D02*
X126478571Y-61735714D01*
X126478571Y-61830952D02*
X126526190Y-61783333D01*
X126621428Y-61735714D01*
X126764285Y-61735714D01*
X126859523Y-61783333D01*
X126907142Y-61878571D01*
X126907142Y-62402380D01*
X126907142Y-61878571D02*
X126954761Y-61783333D01*
X127050000Y-61735714D01*
X127192857Y-61735714D01*
X127288095Y-61783333D01*
X127335714Y-61878571D01*
X127335714Y-62402380D01*
X127811904Y-62402380D02*
X127811904Y-61735714D01*
X127811904Y-61830952D02*
X127859523Y-61783333D01*
X127954761Y-61735714D01*
X128097619Y-61735714D01*
X128192857Y-61783333D01*
X128240476Y-61878571D01*
X128240476Y-62402380D01*
X128240476Y-61878571D02*
X128288095Y-61783333D01*
X128383333Y-61735714D01*
X128526190Y-61735714D01*
X128621428Y-61783333D01*
X128669047Y-61878571D01*
X128669047Y-62402380D01*
X129800000Y-60650000D02*
X120300000Y-60650000D01*
X129800000Y-58500000D02*
X129800000Y-61236421D01*
X120300000Y-58500000D02*
X120300000Y-61236421D01*
X120300000Y-60650000D02*
X121426504Y-60063579D01*
X120300000Y-60650000D02*
X121426504Y-61236421D01*
X129800000Y-60650000D02*
X128673496Y-60063579D01*
X129800000Y-60650000D02*
X128673496Y-61236421D01*
M02*
