M48
; DRILL file {KiCad (5.1.4)-1} date 14.03.2021 16:57:58
; FORMAT={2:4/ absolute / inch / suppress trailing zeros}
; #@! TF.CreationDate,2021-03-14T16:57:58+01:00
; #@! TF.GenerationSoftware,Kicad,Pcbnew,(5.1.4)-1
; #@! TF.FileFunction,NonPlated,1,4,NPTH
FMAT,2
INCH,LZ
T1C0.0118
T2C0.0236
T3C0.1260
%
G90
G05
T1
X052764Y-025783
X063787Y-025783
X063299Y-028744
X052866Y-033272
X052764Y-030311
X058276Y-021256
X068709Y-030311
X068417Y-028744
X058472Y-025783
X063394Y-021256
X058276Y-030311
X053157Y-030311
X047551Y-028744
X069102Y-030311
X047354Y-033272
X052866Y-028744
X058276Y-025783
X052472Y-028744
X068906Y-021256
X068709Y-021256
X063591Y-030311
X068811Y-028744
X068614Y-028744
X063102Y-028744
X047551Y-033272
X047449Y-025783
X047646Y-030311
X058472Y-021256
X047157Y-028744
X063496Y-028744
X063394Y-025783
X068417Y-024217
X053157Y-021256
X063394Y-030311
X052961Y-030311
X052472Y-033272
X052764Y-021256
X068906Y-030311
X047449Y-021256
X057787Y-024217
X069102Y-025783
X058079Y-025783
X058472Y-030311
X047157Y-033272
X068709Y-025783
X052472Y-024217
X052669Y-024217
X047843Y-021256
X057984Y-033272
X063787Y-021256
X057984Y-024217
X068417Y-033272
X058181Y-028744
X063299Y-024217
X068906Y-025783
X068614Y-024217
X058181Y-033272
X052669Y-033272
X047157Y-024217
X058079Y-021256
X047843Y-025783
X057787Y-033272
X063496Y-033272
X047449Y-030311
X047354Y-024217
X063102Y-033272
X058181Y-024217
X047646Y-025783
X069102Y-021256
X063591Y-025783
X047551Y-024217
X063102Y-024217
X047843Y-030311
X058079Y-030311
X047646Y-021256
X063787Y-030311
X057984Y-028744
X052866Y-024217
X053157Y-025783
X063591Y-021256
X068614Y-033272
X063496Y-024217
X068811Y-024217
X047354Y-028744
X052961Y-025783
X057787Y-028744
X068811Y-033272
X063299Y-033272
X052669Y-028744
X052961Y-021256
T2
X052508Y-021217
X047807Y-028783
X048098Y-021217
X068453Y-021217
X057823Y-025744
X064043Y-025744
X053122Y-024256
X063138Y-030272
X046902Y-028783
X057823Y-030272
X048098Y-025744
X069358Y-030272
X047807Y-033311
X052217Y-033311
X047193Y-030272
X068161Y-024256
X064043Y-021217
X048098Y-030272
X047193Y-021217
X046902Y-033311
X069358Y-021217
X063752Y-028783
X057823Y-021217
X053122Y-028783
X047193Y-025744
X063138Y-025744
X053413Y-021217
X069067Y-028783
X057531Y-028783
X053413Y-030272
X058437Y-033311
X052217Y-024256
X069067Y-033311
X052217Y-028783
X057531Y-033311
X053122Y-033311
X062846Y-033311
X053413Y-025744
X069067Y-024256
X063138Y-021217
X058437Y-028783
X052508Y-025744
X068453Y-025744
X062846Y-024256
X058728Y-021217
X058437Y-024256
X068161Y-028783
X068453Y-030272
X064043Y-030272
X063752Y-033311
X052508Y-030272
X058728Y-030272
X046902Y-024256
X057531Y-024256
X047807Y-024256
X058728Y-025744
X062846Y-028783
X069358Y-025744
X068161Y-033311
X063752Y-024256
T3
X049724Y-034528
X049724Y-02
X06622Y-02
X06622Y-034528
T0
M30
