G04 #@! TF.GenerationSoftware,KiCad,Pcbnew,(5.1.4)-1*
G04 #@! TF.CreationDate,2021-03-14T16:57:56+01:00*
G04 #@! TF.ProjectId,panel_5x3,70616e65-6c5f-4357-9833-2e6b69636164,rev?*
G04 #@! TF.SameCoordinates,Original*
G04 #@! TF.FileFunction,Profile,NP*
%FSLAX46Y46*%
G04 Gerber Fmt 4.6, Leading zero omitted, Abs format (unit mm)*
G04 Created by KiCad (PCBNEW (5.1.4)-1) date 2021-03-14 16:57:56*
%MOMM*%
%LPD*%
G04 APERTURE LIST*
%ADD10C,0.100000*%
%ADD11C,0.150000*%
G04 APERTURE END LIST*
D10*
X115500000Y-54000000D02*
X119675000Y-54000000D01*
D11*
X110000000Y-90000000D02*
X110000000Y-48500000D01*
X184500000Y-90000000D02*
X110000000Y-90000000D01*
X184500000Y-48500000D02*
X184500000Y-90000000D01*
X110000000Y-48500000D02*
X184500000Y-48500000D01*
D10*
X179999999Y-84999999D02*
X179999999Y-76499999D01*
X166499999Y-84999999D02*
X166499999Y-76499999D01*
X152999999Y-84999999D02*
X152999999Y-76499999D01*
X139499999Y-84999999D02*
X139499999Y-76499999D01*
X125999999Y-84999999D02*
X125999999Y-76499999D01*
X179999999Y-73499999D02*
X179999999Y-64999999D01*
X166499999Y-73499999D02*
X166499999Y-64999999D01*
X152999999Y-73499999D02*
X152999999Y-64999999D01*
X139499999Y-73499999D02*
X139499999Y-64999999D01*
X125999999Y-73499999D02*
X125999999Y-64999999D01*
X179999999Y-61999999D02*
X179999999Y-53499999D01*
X166499999Y-61999999D02*
X166499999Y-53499999D01*
X152999999Y-61999999D02*
X152999999Y-53499999D01*
X139499999Y-61999999D02*
X139499999Y-53499999D01*
X173425000Y-85000000D02*
G75*
G02X172925002Y-85500000I-499999J-1D01*
G01*
X159925000Y-85000000D02*
G75*
G02X159425002Y-85500000I-499999J-1D01*
G01*
X146425000Y-85000000D02*
G75*
G02X145925002Y-85500000I-499999J-1D01*
G01*
X132925000Y-85000000D02*
G75*
G02X132425002Y-85500000I-499999J-1D01*
G01*
X119425000Y-85000000D02*
G75*
G02X118925002Y-85500000I-499999J-1D01*
G01*
X173425000Y-73500000D02*
G75*
G02X172925002Y-74000000I-499999J-1D01*
G01*
X159925000Y-73500000D02*
G75*
G02X159425002Y-74000000I-499999J-1D01*
G01*
X146425000Y-73500000D02*
G75*
G02X145925002Y-74000000I-499999J-1D01*
G01*
X132925000Y-73500000D02*
G75*
G02X132425002Y-74000000I-499999J-1D01*
G01*
X119425000Y-73500000D02*
G75*
G02X118925002Y-74000000I-499999J-1D01*
G01*
X173425000Y-62000000D02*
G75*
G02X172925002Y-62500000I-499999J-1D01*
G01*
X159925000Y-62000000D02*
G75*
G02X159425002Y-62500000I-499999J-1D01*
G01*
X146425000Y-62000000D02*
G75*
G02X145925002Y-62500000I-499999J-1D01*
G01*
X132925000Y-62000000D02*
G75*
G02X132425002Y-62500000I-499999J-1D01*
G01*
X179999999Y-84999999D02*
G75*
G02X179500001Y-85499999I-499999J-1D01*
G01*
X166499999Y-84999999D02*
G75*
G02X166000001Y-85499999I-499999J-1D01*
G01*
X152999999Y-84999999D02*
G75*
G02X152500001Y-85499999I-499999J-1D01*
G01*
X139499999Y-84999999D02*
G75*
G02X139000001Y-85499999I-499999J-1D01*
G01*
X125999999Y-84999999D02*
G75*
G02X125500001Y-85499999I-499999J-1D01*
G01*
X179999999Y-73499999D02*
G75*
G02X179500001Y-73999999I-499999J-1D01*
G01*
X166499999Y-73499999D02*
G75*
G02X166000001Y-73999999I-499999J-1D01*
G01*
X152999999Y-73499999D02*
G75*
G02X152500001Y-73999999I-499999J-1D01*
G01*
X139499999Y-73499999D02*
G75*
G02X139000001Y-73999999I-499999J-1D01*
G01*
X125999999Y-73499999D02*
G75*
G02X125500001Y-73999999I-499999J-1D01*
G01*
X179999999Y-61999999D02*
G75*
G02X179500001Y-62499999I-499999J-1D01*
G01*
X166499999Y-61999999D02*
G75*
G02X166000001Y-62499999I-499999J-1D01*
G01*
X152999999Y-61999999D02*
G75*
G02X152500001Y-62499999I-499999J-1D01*
G01*
X139499999Y-61999999D02*
G75*
G02X139000001Y-62499999I-499999J-1D01*
G01*
X179499999Y-76000001D02*
G75*
G02X179999999Y-76499999I1J-499999D01*
G01*
X165999999Y-76000001D02*
G75*
G02X166499999Y-76499999I1J-499999D01*
G01*
X152499999Y-76000001D02*
G75*
G02X152999999Y-76499999I1J-499999D01*
G01*
X138999999Y-76000001D02*
G75*
G02X139499999Y-76499999I1J-499999D01*
G01*
X125499999Y-76000001D02*
G75*
G02X125999999Y-76499999I1J-499999D01*
G01*
X179499999Y-64500001D02*
G75*
G02X179999999Y-64999999I1J-499999D01*
G01*
X165999999Y-64500001D02*
G75*
G02X166499999Y-64999999I1J-499999D01*
G01*
X152499999Y-64500001D02*
G75*
G02X152999999Y-64999999I1J-499999D01*
G01*
X138999999Y-64500001D02*
G75*
G02X139499999Y-64999999I1J-499999D01*
G01*
X125499999Y-64500001D02*
G75*
G02X125999999Y-64999999I1J-499999D01*
G01*
X179499999Y-53000001D02*
G75*
G02X179999999Y-53499999I1J-499999D01*
G01*
X165999999Y-53000001D02*
G75*
G02X166499999Y-53499999I1J-499999D01*
G01*
X152499999Y-53000001D02*
G75*
G02X152999999Y-53499999I1J-499999D01*
G01*
X138999999Y-53000001D02*
G75*
G02X139499999Y-53499999I1J-499999D01*
G01*
X169500000Y-84500003D02*
X172924999Y-84500003D01*
X156000000Y-84500003D02*
X159424999Y-84500003D01*
X142500000Y-84500003D02*
X145924999Y-84500003D01*
X129000000Y-84500003D02*
X132424999Y-84500003D01*
X115500000Y-84500003D02*
X118924999Y-84500003D01*
X169500000Y-73000003D02*
X172924999Y-73000003D01*
X156000000Y-73000003D02*
X159424999Y-73000003D01*
X142500000Y-73000003D02*
X145924999Y-73000003D01*
X129000000Y-73000003D02*
X132424999Y-73000003D01*
X115500000Y-73000003D02*
X118924999Y-73000003D01*
X169500000Y-61500003D02*
X172924999Y-61500003D01*
X156000000Y-61500003D02*
X159424999Y-61500003D01*
X142500000Y-61500003D02*
X145924999Y-61500003D01*
X129000000Y-61500003D02*
X132424999Y-61500003D01*
X173675000Y-76000000D02*
G75*
G02X174175000Y-76499998I1J-499999D01*
G01*
X160175000Y-76000000D02*
G75*
G02X160675000Y-76499998I1J-499999D01*
G01*
X146675000Y-76000000D02*
G75*
G02X147175000Y-76499998I1J-499999D01*
G01*
X133175000Y-76000000D02*
G75*
G02X133675000Y-76499998I1J-499999D01*
G01*
X119675000Y-76000000D02*
G75*
G02X120175000Y-76499998I1J-499999D01*
G01*
X173675000Y-64500000D02*
G75*
G02X174175000Y-64999998I1J-499999D01*
G01*
X160175000Y-64500000D02*
G75*
G02X160675000Y-64999998I1J-499999D01*
G01*
X146675000Y-64500000D02*
G75*
G02X147175000Y-64999998I1J-499999D01*
G01*
X133175000Y-64500000D02*
G75*
G02X133675000Y-64999998I1J-499999D01*
G01*
X119675000Y-64500000D02*
G75*
G02X120175000Y-64999998I1J-499999D01*
G01*
X173675000Y-53000000D02*
G75*
G02X174175000Y-53499998I1J-499999D01*
G01*
X160175000Y-53000000D02*
G75*
G02X160675000Y-53499998I1J-499999D01*
G01*
X146675000Y-53000000D02*
G75*
G02X147175000Y-53499998I1J-499999D01*
G01*
X133175000Y-53000000D02*
G75*
G02X133675000Y-53499998I1J-499999D01*
G01*
X179499999Y-76000001D02*
X176375000Y-76000000D01*
X165999999Y-76000001D02*
X162875000Y-76000000D01*
X152499999Y-76000001D02*
X149375000Y-76000000D01*
X138999999Y-76000001D02*
X135875000Y-76000000D01*
X125499999Y-76000001D02*
X122375000Y-76000000D01*
X179499999Y-64500001D02*
X176375000Y-64500000D01*
X165999999Y-64500001D02*
X162875000Y-64500000D01*
X152499999Y-64500001D02*
X149375000Y-64500000D01*
X138999999Y-64500001D02*
X135875000Y-64500000D01*
X125499999Y-64500001D02*
X122375000Y-64500000D01*
X179499999Y-53000001D02*
X176375000Y-53000000D01*
X165999999Y-53000001D02*
X162875000Y-53000000D01*
X152499999Y-53000001D02*
X149375000Y-53000000D01*
X138999999Y-53000001D02*
X135875000Y-53000000D01*
X173675000Y-76000000D02*
X168999999Y-76000001D01*
X160175000Y-76000000D02*
X155499999Y-76000001D01*
X146675000Y-76000000D02*
X141999999Y-76000001D01*
X133175000Y-76000000D02*
X128499999Y-76000001D01*
X119675000Y-76000000D02*
X114999999Y-76000001D01*
X173675000Y-64500000D02*
X168999999Y-64500001D01*
X160175000Y-64500000D02*
X155499999Y-64500001D01*
X146675000Y-64500000D02*
X141999999Y-64500001D01*
X133175000Y-64500000D02*
X128499999Y-64500001D01*
X119675000Y-64500000D02*
X114999999Y-64500001D01*
X173675000Y-53000000D02*
X168999999Y-53000001D01*
X160175000Y-53000000D02*
X155499999Y-53000001D01*
X146675000Y-53000000D02*
X141999999Y-53000001D01*
X133175000Y-53000000D02*
X128499999Y-53000001D01*
X179000000Y-76999998D02*
X176375001Y-76999998D01*
X165500000Y-76999998D02*
X162875001Y-76999998D01*
X152000000Y-76999998D02*
X149375001Y-76999998D01*
X138500000Y-76999998D02*
X135875001Y-76999998D01*
X125000000Y-76999998D02*
X122375001Y-76999998D01*
X179000000Y-65499998D02*
X176375001Y-65499998D01*
X165500000Y-65499998D02*
X162875001Y-65499998D01*
X152000000Y-65499998D02*
X149375001Y-65499998D01*
X138500000Y-65499998D02*
X135875001Y-65499998D01*
X125000000Y-65499998D02*
X122375001Y-65499998D01*
X179000000Y-53999998D02*
X176375001Y-53999998D01*
X165500000Y-53999998D02*
X162875001Y-53999998D01*
X152000000Y-53999998D02*
X149375001Y-53999998D01*
X138500000Y-53999998D02*
X135875001Y-53999998D01*
X168500001Y-76500001D02*
X168500001Y-85000001D01*
X155000001Y-76500001D02*
X155000001Y-85000001D01*
X141500001Y-76500001D02*
X141500001Y-85000001D01*
X128000001Y-76500001D02*
X128000001Y-85000001D01*
X114500001Y-76500001D02*
X114500001Y-85000001D01*
X168500001Y-65000001D02*
X168500001Y-73500001D01*
X155000001Y-65000001D02*
X155000001Y-73500001D01*
X141500001Y-65000001D02*
X141500001Y-73500001D01*
X128000001Y-65000001D02*
X128000001Y-73500001D01*
X114500001Y-65000001D02*
X114500001Y-73500001D01*
X168500001Y-53500001D02*
X168500001Y-62000001D01*
X155000001Y-53500001D02*
X155000001Y-62000001D01*
X141500001Y-53500001D02*
X141500001Y-62000001D01*
X128000001Y-53500001D02*
X128000001Y-62000001D01*
X169000001Y-85499999D02*
X172925000Y-85500000D01*
X155500001Y-85499999D02*
X159425000Y-85500000D01*
X142000001Y-85499999D02*
X145925000Y-85500000D01*
X128500001Y-85499999D02*
X132425000Y-85500000D01*
X115000001Y-85499999D02*
X118925000Y-85500000D01*
X169000001Y-73999999D02*
X172925000Y-74000000D01*
X155500001Y-73999999D02*
X159425000Y-74000000D01*
X142000001Y-73999999D02*
X145925000Y-74000000D01*
X128500001Y-73999999D02*
X132425000Y-74000000D01*
X115000001Y-73999999D02*
X118925000Y-74000000D01*
X169000001Y-62499999D02*
X172925000Y-62500000D01*
X155500001Y-62499999D02*
X159425000Y-62500000D01*
X142000001Y-62499999D02*
X145925000Y-62500000D01*
X128500001Y-62499999D02*
X132425000Y-62500000D01*
X175625000Y-85500000D02*
G75*
G02X175125000Y-85000002I-1J499999D01*
G01*
X162125000Y-85500000D02*
G75*
G02X161625000Y-85000002I-1J499999D01*
G01*
X148625000Y-85500000D02*
G75*
G02X148125000Y-85000002I-1J499999D01*
G01*
X135125000Y-85500000D02*
G75*
G02X134625000Y-85000002I-1J499999D01*
G01*
X121625000Y-85500000D02*
G75*
G02X121125000Y-85000002I-1J499999D01*
G01*
X175625000Y-74000000D02*
G75*
G02X175125000Y-73500002I-1J499999D01*
G01*
X162125000Y-74000000D02*
G75*
G02X161625000Y-73500002I-1J499999D01*
G01*
X148625000Y-74000000D02*
G75*
G02X148125000Y-73500002I-1J499999D01*
G01*
X135125000Y-74000000D02*
G75*
G02X134625000Y-73500002I-1J499999D01*
G01*
X121625000Y-74000000D02*
G75*
G02X121125000Y-73500002I-1J499999D01*
G01*
X175625000Y-62500000D02*
G75*
G02X175125000Y-62000002I-1J499999D01*
G01*
X162125000Y-62500000D02*
G75*
G02X161625000Y-62000002I-1J499999D01*
G01*
X148625000Y-62500000D02*
G75*
G02X148125000Y-62000002I-1J499999D01*
G01*
X135125000Y-62500000D02*
G75*
G02X134625000Y-62000002I-1J499999D01*
G01*
X172925000Y-84500003D02*
G75*
G02X173424999Y-85000000I1J-499998D01*
G01*
X159425000Y-84500003D02*
G75*
G02X159924999Y-85000000I1J-499998D01*
G01*
X145925000Y-84500003D02*
G75*
G02X146424999Y-85000000I1J-499998D01*
G01*
X132425000Y-84500003D02*
G75*
G02X132924999Y-85000000I1J-499998D01*
G01*
X118925000Y-84500003D02*
G75*
G02X119424999Y-85000000I1J-499998D01*
G01*
X172925000Y-73000003D02*
G75*
G02X173424999Y-73500000I1J-499998D01*
G01*
X159425000Y-73000003D02*
G75*
G02X159924999Y-73500000I1J-499998D01*
G01*
X145925000Y-73000003D02*
G75*
G02X146424999Y-73500000I1J-499998D01*
G01*
X132425000Y-73000003D02*
G75*
G02X132924999Y-73500000I1J-499998D01*
G01*
X118925000Y-73000003D02*
G75*
G02X119424999Y-73500000I1J-499998D01*
G01*
X172925000Y-61500003D02*
G75*
G02X173424999Y-62000000I1J-499998D01*
G01*
X159425000Y-61500003D02*
G75*
G02X159924999Y-62000000I1J-499998D01*
G01*
X145925000Y-61500003D02*
G75*
G02X146424999Y-62000000I1J-499998D01*
G01*
X132425000Y-61500003D02*
G75*
G02X132924999Y-62000000I1J-499998D01*
G01*
X179000000Y-84500000D02*
X175625000Y-84500000D01*
X165500000Y-84500000D02*
X162125000Y-84500000D01*
X152000000Y-84500000D02*
X148625000Y-84500000D01*
X138500000Y-84500000D02*
X135125000Y-84500000D01*
X125000000Y-84500000D02*
X121625000Y-84500000D01*
X179000000Y-73000000D02*
X175625000Y-73000000D01*
X165500000Y-73000000D02*
X162125000Y-73000000D01*
X152000000Y-73000000D02*
X148625000Y-73000000D01*
X138500000Y-73000000D02*
X135125000Y-73000000D01*
X125000000Y-73000000D02*
X121625000Y-73000000D01*
X179000000Y-61500000D02*
X175625000Y-61500000D01*
X165500000Y-61500000D02*
X162125000Y-61500000D01*
X152000000Y-61500000D02*
X148625000Y-61500000D01*
X138500000Y-61500000D02*
X135125000Y-61500000D01*
X175124998Y-85000000D02*
G75*
G02X175624999Y-84500000I500001J-1D01*
G01*
X161624998Y-85000000D02*
G75*
G02X162124999Y-84500000I500001J-1D01*
G01*
X148124998Y-85000000D02*
G75*
G02X148624999Y-84500000I500001J-1D01*
G01*
X134624998Y-85000000D02*
G75*
G02X135124999Y-84500000I500001J-1D01*
G01*
X121124998Y-85000000D02*
G75*
G02X121624999Y-84500000I500001J-1D01*
G01*
X175124998Y-73500000D02*
G75*
G02X175624999Y-73000000I500001J-1D01*
G01*
X161624998Y-73500000D02*
G75*
G02X162124999Y-73000000I500001J-1D01*
G01*
X148124998Y-73500000D02*
G75*
G02X148624999Y-73000000I500001J-1D01*
G01*
X134624998Y-73500000D02*
G75*
G02X135124999Y-73000000I500001J-1D01*
G01*
X121124998Y-73500000D02*
G75*
G02X121624999Y-73000000I500001J-1D01*
G01*
X175124998Y-62000000D02*
G75*
G02X175624999Y-61500000I500001J-1D01*
G01*
X161624998Y-62000000D02*
G75*
G02X162124999Y-61500000I500001J-1D01*
G01*
X148124998Y-62000000D02*
G75*
G02X148624999Y-61500000I500001J-1D01*
G01*
X134624998Y-62000000D02*
G75*
G02X135124999Y-61500000I500001J-1D01*
G01*
X179000000Y-84500000D02*
X179000000Y-76999998D01*
X165500000Y-84500000D02*
X165500000Y-76999998D01*
X152000000Y-84500000D02*
X152000000Y-76999998D01*
X138500000Y-84500000D02*
X138500000Y-76999998D01*
X125000000Y-84500000D02*
X125000000Y-76999998D01*
X179000000Y-73000000D02*
X179000000Y-65499998D01*
X165500000Y-73000000D02*
X165500000Y-65499998D01*
X152000000Y-73000000D02*
X152000000Y-65499998D01*
X138500000Y-73000000D02*
X138500000Y-65499998D01*
X125000000Y-73000000D02*
X125000000Y-65499998D01*
X179000000Y-61500000D02*
X179000000Y-53999998D01*
X165500000Y-61500000D02*
X165500000Y-53999998D01*
X152000000Y-61500000D02*
X152000000Y-53999998D01*
X138500000Y-61500000D02*
X138500000Y-53999998D01*
X175625000Y-85500000D02*
X179500000Y-85500000D01*
X162125000Y-85500000D02*
X166000000Y-85500000D01*
X148625000Y-85500000D02*
X152500000Y-85500000D01*
X135125000Y-85500000D02*
X139000000Y-85500000D01*
X121625000Y-85500000D02*
X125500000Y-85500000D01*
X175625000Y-74000000D02*
X179500000Y-74000000D01*
X162125000Y-74000000D02*
X166000000Y-74000000D01*
X148625000Y-74000000D02*
X152500000Y-74000000D01*
X135125000Y-74000000D02*
X139000000Y-74000000D01*
X121625000Y-74000000D02*
X125500000Y-74000000D01*
X175625000Y-62500000D02*
X179500000Y-62500000D01*
X162125000Y-62500000D02*
X166000000Y-62500000D01*
X148625000Y-62500000D02*
X152500000Y-62500000D01*
X135125000Y-62500000D02*
X139000000Y-62500000D01*
X169000001Y-85499999D02*
G75*
G02X168500001Y-85000001I-1J499999D01*
G01*
X155500001Y-85499999D02*
G75*
G02X155000001Y-85000001I-1J499999D01*
G01*
X142000001Y-85499999D02*
G75*
G02X141500001Y-85000001I-1J499999D01*
G01*
X128500001Y-85499999D02*
G75*
G02X128000001Y-85000001I-1J499999D01*
G01*
X115000001Y-85499999D02*
G75*
G02X114500001Y-85000001I-1J499999D01*
G01*
X169000001Y-73999999D02*
G75*
G02X168500001Y-73500001I-1J499999D01*
G01*
X155500001Y-73999999D02*
G75*
G02X155000001Y-73500001I-1J499999D01*
G01*
X142000001Y-73999999D02*
G75*
G02X141500001Y-73500001I-1J499999D01*
G01*
X128500001Y-73999999D02*
G75*
G02X128000001Y-73500001I-1J499999D01*
G01*
X115000001Y-73999999D02*
G75*
G02X114500001Y-73500001I-1J499999D01*
G01*
X169000001Y-62499999D02*
G75*
G02X168500001Y-62000001I-1J499999D01*
G01*
X155500001Y-62499999D02*
G75*
G02X155000001Y-62000001I-1J499999D01*
G01*
X142000001Y-62499999D02*
G75*
G02X141500001Y-62000001I-1J499999D01*
G01*
X128500001Y-62499999D02*
G75*
G02X128000001Y-62000001I-1J499999D01*
G01*
X168500001Y-76500001D02*
G75*
G02X168999999Y-76000001I499999J1D01*
G01*
X155000001Y-76500001D02*
G75*
G02X155499999Y-76000001I499999J1D01*
G01*
X141500001Y-76500001D02*
G75*
G02X141999999Y-76000001I499999J1D01*
G01*
X128000001Y-76500001D02*
G75*
G02X128499999Y-76000001I499999J1D01*
G01*
X114500001Y-76500001D02*
G75*
G02X114999999Y-76000001I499999J1D01*
G01*
X168500001Y-65000001D02*
G75*
G02X168999999Y-64500001I499999J1D01*
G01*
X155000001Y-65000001D02*
G75*
G02X155499999Y-64500001I499999J1D01*
G01*
X141500001Y-65000001D02*
G75*
G02X141999999Y-64500001I499999J1D01*
G01*
X128000001Y-65000001D02*
G75*
G02X128499999Y-64500001I499999J1D01*
G01*
X114500001Y-65000001D02*
G75*
G02X114999999Y-64500001I499999J1D01*
G01*
X168500001Y-53500001D02*
G75*
G02X168999999Y-53000001I499999J1D01*
G01*
X155000001Y-53500001D02*
G75*
G02X155499999Y-53000001I499999J1D01*
G01*
X141500001Y-53500001D02*
G75*
G02X141999999Y-53000001I499999J1D01*
G01*
X128000001Y-53500001D02*
G75*
G02X128499999Y-53000001I499999J1D01*
G01*
X175875001Y-76500000D02*
G75*
G02X176374999Y-76000000I499999J1D01*
G01*
X162375001Y-76500000D02*
G75*
G02X162874999Y-76000000I499999J1D01*
G01*
X148875001Y-76500000D02*
G75*
G02X149374999Y-76000000I499999J1D01*
G01*
X135375001Y-76500000D02*
G75*
G02X135874999Y-76000000I499999J1D01*
G01*
X121875001Y-76500000D02*
G75*
G02X122374999Y-76000000I499999J1D01*
G01*
X175875001Y-65000000D02*
G75*
G02X176374999Y-64500000I499999J1D01*
G01*
X162375001Y-65000000D02*
G75*
G02X162874999Y-64500000I499999J1D01*
G01*
X148875001Y-65000000D02*
G75*
G02X149374999Y-64500000I499999J1D01*
G01*
X135375001Y-65000000D02*
G75*
G02X135874999Y-64500000I499999J1D01*
G01*
X121875001Y-65000000D02*
G75*
G02X122374999Y-64500000I499999J1D01*
G01*
X175875001Y-53500000D02*
G75*
G02X176374999Y-53000000I499999J1D01*
G01*
X162375001Y-53500000D02*
G75*
G02X162874999Y-53000000I499999J1D01*
G01*
X148875001Y-53500000D02*
G75*
G02X149374999Y-53000000I499999J1D01*
G01*
X135375001Y-53500000D02*
G75*
G02X135874999Y-53000000I499999J1D01*
G01*
X169500000Y-84500000D02*
X169500000Y-77000000D01*
X156000000Y-84500000D02*
X156000000Y-77000000D01*
X142500000Y-84500000D02*
X142500000Y-77000000D01*
X129000000Y-84500000D02*
X129000000Y-77000000D01*
X115500000Y-84500000D02*
X115500000Y-77000000D01*
X169500000Y-73000000D02*
X169500000Y-65500000D01*
X156000000Y-73000000D02*
X156000000Y-65500000D01*
X142500000Y-73000000D02*
X142500000Y-65500000D01*
X129000000Y-73000000D02*
X129000000Y-65500000D01*
X115500000Y-73000000D02*
X115500000Y-65500000D01*
X169500000Y-61500000D02*
X169500000Y-54000000D01*
X156000000Y-61500000D02*
X156000000Y-54000000D01*
X142500000Y-61500000D02*
X142500000Y-54000000D01*
X129000000Y-61500000D02*
X129000000Y-54000000D01*
X169500000Y-77000000D02*
X173675000Y-77000000D01*
X156000000Y-77000000D02*
X160175000Y-77000000D01*
X142500000Y-77000000D02*
X146675000Y-77000000D01*
X129000000Y-77000000D02*
X133175000Y-77000000D01*
X115500000Y-77000000D02*
X119675000Y-77000000D01*
X169500000Y-65500000D02*
X173675000Y-65500000D01*
X156000000Y-65500000D02*
X160175000Y-65500000D01*
X142500000Y-65500000D02*
X146675000Y-65500000D01*
X129000000Y-65500000D02*
X133175000Y-65500000D01*
X115500000Y-65500000D02*
X119675000Y-65500000D01*
X169500000Y-54000000D02*
X173675000Y-54000000D01*
X156000000Y-54000000D02*
X160175000Y-54000000D01*
X142500000Y-54000000D02*
X146675000Y-54000000D01*
X129000000Y-54000000D02*
X133175000Y-54000000D01*
X176375001Y-76999998D02*
G75*
G02X175875001Y-76500000I-1J499999D01*
G01*
X162875001Y-76999998D02*
G75*
G02X162375001Y-76500000I-1J499999D01*
G01*
X149375001Y-76999998D02*
G75*
G02X148875001Y-76500000I-1J499999D01*
G01*
X135875001Y-76999998D02*
G75*
G02X135375001Y-76500000I-1J499999D01*
G01*
X122375001Y-76999998D02*
G75*
G02X121875001Y-76500000I-1J499999D01*
G01*
X176375001Y-65499998D02*
G75*
G02X175875001Y-65000000I-1J499999D01*
G01*
X162875001Y-65499998D02*
G75*
G02X162375001Y-65000000I-1J499999D01*
G01*
X149375001Y-65499998D02*
G75*
G02X148875001Y-65000000I-1J499999D01*
G01*
X135875001Y-65499998D02*
G75*
G02X135375001Y-65000000I-1J499999D01*
G01*
X122375001Y-65499998D02*
G75*
G02X121875001Y-65000000I-1J499999D01*
G01*
X176375001Y-53999998D02*
G75*
G02X175875001Y-53500000I-1J499999D01*
G01*
X162875001Y-53999998D02*
G75*
G02X162375001Y-53500000I-1J499999D01*
G01*
X149375001Y-53999998D02*
G75*
G02X148875001Y-53500000I-1J499999D01*
G01*
X135875001Y-53999998D02*
G75*
G02X135375001Y-53500000I-1J499999D01*
G01*
X174175002Y-76500000D02*
G75*
G02X173675001Y-77000000I-500001J1D01*
G01*
X160675002Y-76500000D02*
G75*
G02X160175001Y-77000000I-500001J1D01*
G01*
X147175002Y-76500000D02*
G75*
G02X146675001Y-77000000I-500001J1D01*
G01*
X133675002Y-76500000D02*
G75*
G02X133175001Y-77000000I-500001J1D01*
G01*
X120175002Y-76500000D02*
G75*
G02X119675001Y-77000000I-500001J1D01*
G01*
X174175002Y-65000000D02*
G75*
G02X173675001Y-65500000I-500001J1D01*
G01*
X160675002Y-65000000D02*
G75*
G02X160175001Y-65500000I-500001J1D01*
G01*
X147175002Y-65000000D02*
G75*
G02X146675001Y-65500000I-500001J1D01*
G01*
X133675002Y-65000000D02*
G75*
G02X133175001Y-65500000I-500001J1D01*
G01*
X120175002Y-65000000D02*
G75*
G02X119675001Y-65500000I-500001J1D01*
G01*
X174175002Y-53500000D02*
G75*
G02X173675001Y-54000000I-500001J1D01*
G01*
X160675002Y-53500000D02*
G75*
G02X160175001Y-54000000I-500001J1D01*
G01*
X147175002Y-53500000D02*
G75*
G02X146675001Y-54000000I-500001J1D01*
G01*
X133675002Y-53500000D02*
G75*
G02X133175001Y-54000000I-500001J1D01*
G01*
X125499999Y-53000001D02*
X122375000Y-53000000D01*
X119675000Y-53000000D02*
X114999999Y-53000001D01*
X114500001Y-53500001D02*
X114500001Y-62000001D01*
X115000001Y-62499999D02*
X118925000Y-62500000D01*
X121625000Y-62500000D02*
X125500000Y-62500000D01*
X125999999Y-61999999D02*
X125999999Y-53499999D01*
X125499999Y-53000001D02*
G75*
G02X125999999Y-53499999I1J-499999D01*
G01*
X125999999Y-61999999D02*
G75*
G02X125500001Y-62499999I-499999J-1D01*
G01*
X115000001Y-62499999D02*
G75*
G02X114500001Y-62000001I-1J499999D01*
G01*
X121625000Y-62500000D02*
G75*
G02X121125000Y-62000002I-1J499999D01*
G01*
X119425000Y-62000000D02*
G75*
G02X118925002Y-62500000I-499999J-1D01*
G01*
X114500001Y-53500001D02*
G75*
G02X114999999Y-53000001I499999J1D01*
G01*
X119675000Y-53000000D02*
G75*
G02X120175000Y-53499998I1J-499999D01*
G01*
X121875001Y-53500000D02*
G75*
G02X122374999Y-53000000I499999J1D01*
G01*
X115500000Y-61500003D02*
X118924999Y-61500003D01*
X118925000Y-61500003D02*
G75*
G02X119424999Y-62000000I1J-499998D01*
G01*
X121124998Y-62000000D02*
G75*
G02X121624999Y-61500000I500001J-1D01*
G01*
X125000000Y-61500000D02*
X121625000Y-61500000D01*
X115500000Y-61500000D02*
X115500000Y-54000000D01*
X125000000Y-61500000D02*
X125000000Y-53999998D01*
X125000000Y-53999998D02*
X122375001Y-53999998D01*
X122375001Y-53999998D02*
G75*
G02X121875001Y-53500000I-1J499999D01*
G01*
X120175002Y-53500000D02*
G75*
G02X119675001Y-54000000I-500001J1D01*
G01*
M02*
