M48
; DRILL file {KiCad (5.1.4)-1} date 14.03.2021 16:57:58
; FORMAT={2:4/ absolute / inch / suppress trailing zeros}
; #@! TF.CreationDate,2021-03-14T16:57:58+01:00
; #@! TF.GenerationSoftware,Kicad,Pcbnew,(5.1.4)-1
; #@! TF.FileFunction,Plated,1,4,PTH
FMAT,2
INCH,LZ
T1C0.0079
T2C0.0315
%
G90
G05
T1
X045709Y-021496
X045709Y-026024
X045709Y-030551
X045748Y-021831
X045748Y-026358
X045748Y-030886
X045935Y-022717
X045935Y-027244
X045935Y-031772
X046098Y-024012
X046098Y-028539
X046098Y-033067
X046103Y-023798
X046103Y-028326
X046103Y-032853
X046121Y-023012
X046121Y-027539
X046121Y-032067
X046132Y-022667
X046132Y-027195
X046132Y-031722
X046192Y-023209
X046192Y-027736
X046192Y-032264
X04624Y-021516
X04624Y-026043
X04624Y-030571
X046297Y-023762
X046297Y-028289
X046297Y-032817
X046299Y-022795
X046299Y-027323
X046299Y-03185
X046299Y-023976
X046299Y-028504
X046299Y-033031
X046319Y-022579
X046319Y-027106
X046319Y-031634
X046575Y-02185
X046575Y-026378
X046575Y-030906
X046683Y-022323
X046683Y-02685
X046683Y-031378
X046693Y-022598
X046693Y-027126
X046693Y-031654
X046703Y-022982
X046703Y-02751
X046703Y-032037
X046791Y-021969
X046791Y-026496
X046791Y-031024
X046882Y-023787
X046882Y-028315
X046882Y-032843
X0469Y-02251
X0469Y-027037
X0469Y-031565
X046909Y-023591
X046909Y-028118
X046909Y-032646
X046988Y-021496
X046988Y-021496
X046988Y-026024
X046988Y-026024
X046988Y-030551
X046988Y-030551
X047067Y-023209
X047067Y-027736
X047067Y-032264
X047067Y-022815
X047067Y-027343
X047067Y-03187
X047283Y-022638
X047283Y-027165
X047283Y-031693
X047291Y-023988
X047291Y-028516
X047291Y-033043
X047293Y-023051
X047293Y-027579
X047293Y-032106
X047472Y-023201
X047472Y-027728
X047472Y-032256
X04748Y-022598
X04748Y-022992
X04748Y-027126
X04748Y-02752
X04748Y-031654
X04748Y-032047
X047531Y-022035
X047531Y-026563
X047531Y-031091
X047756Y-021526
X047756Y-026053
X047756Y-030581
X047815Y-023346
X047815Y-027874
X047815Y-032402
X047827Y-023878
X047827Y-028406
X047827Y-032933
X047874Y-022244
X047874Y-026772
X047874Y-031299
X047972Y-022638
X047972Y-027165
X047972Y-031693
X048051Y-022018
X048051Y-026545
X048051Y-031073
X0481Y-02375
X0481Y-028278
X0481Y-032805
X048179Y-02314
X048179Y-023474
X048179Y-027667
X048179Y-028002
X048179Y-032195
X048179Y-03253
X048248Y-022303
X048248Y-026831
X048248Y-031358
X048258Y-022589
X048258Y-027116
X048258Y-031644
X048413Y-023799
X048413Y-028327
X048413Y-032854
X048563Y-022608
X048563Y-027136
X048563Y-031663
X048687Y-022929
X048687Y-027457
X048687Y-031984
X048701Y-023772
X048701Y-028299
X048701Y-032827
X04875Y-023179
X04875Y-027707
X04875Y-032234
X048809Y-022106
X048809Y-026634
X048809Y-031161
X048976Y-023652
X048976Y-023976
X048976Y-028179
X048976Y-028504
X048976Y-032707
X048976Y-033031
X04902Y-02244
X04902Y-026968
X04902Y-031495
X051024Y-021496
X051024Y-026024
X051024Y-030551
X051063Y-021831
X051063Y-026358
X051063Y-030886
X05125Y-022717
X05125Y-027244
X05125Y-031772
X051413Y-024012
X051413Y-028539
X051413Y-033067
X051418Y-023798
X051418Y-028326
X051418Y-032853
X051436Y-023012
X051436Y-027539
X051436Y-032067
X051447Y-022667
X051447Y-027195
X051447Y-031722
X051507Y-023209
X051507Y-027736
X051507Y-032264
X051555Y-021516
X051555Y-026043
X051555Y-030571
X051612Y-023762
X051612Y-028289
X051612Y-032817
X051614Y-022795
X051614Y-027323
X051614Y-03185
X051614Y-023976
X051614Y-028504
X051614Y-033031
X051634Y-022579
X051634Y-027106
X051634Y-031634
X05189Y-02185
X05189Y-026378
X05189Y-030906
X051998Y-022323
X051998Y-02685
X051998Y-031378
X052008Y-022598
X052008Y-027126
X052008Y-031654
X052018Y-022982
X052018Y-02751
X052018Y-032037
X052106Y-021969
X052106Y-026496
X052106Y-031024
X052197Y-023787
X052197Y-028315
X052197Y-032843
X052215Y-02251
X052215Y-027037
X052215Y-031565
X052223Y-023591
X052223Y-028118
X052223Y-032646
X052303Y-021496
X052303Y-021496
X052303Y-026024
X052303Y-026024
X052303Y-030551
X052303Y-030551
X052382Y-023209
X052382Y-027736
X052382Y-032264
X052382Y-022815
X052382Y-027343
X052382Y-03187
X052598Y-022638
X052598Y-027165
X052598Y-031693
X052606Y-023988
X052606Y-028516
X052606Y-033043
X052608Y-023051
X052608Y-027579
X052608Y-032106
X052787Y-023201
X052787Y-027728
X052787Y-032256
X052795Y-022598
X052795Y-022992
X052795Y-027126
X052795Y-02752
X052795Y-031654
X052795Y-032047
X052846Y-022035
X052846Y-026563
X052846Y-031091
X053071Y-021526
X053071Y-026053
X053071Y-030581
X05313Y-023346
X05313Y-027874
X05313Y-032402
X053142Y-023878
X053142Y-028406
X053142Y-032933
X053189Y-022244
X053189Y-026772
X053189Y-031299
X053287Y-022638
X053287Y-027165
X053287Y-031693
X053366Y-022018
X053366Y-026545
X053366Y-031073
X053415Y-02375
X053415Y-028278
X053415Y-032805
X053494Y-02314
X053494Y-023474
X053494Y-027667
X053494Y-028002
X053494Y-032195
X053494Y-03253
X053563Y-022303
X053563Y-026831
X053563Y-031358
X053573Y-022589
X053573Y-027116
X053573Y-031644
X053728Y-023799
X053728Y-028327
X053728Y-032854
X053878Y-022608
X053878Y-027136
X053878Y-031663
X054002Y-022929
X054002Y-027457
X054002Y-031984
X054016Y-023772
X054016Y-028299
X054016Y-032827
X054065Y-023179
X054065Y-027707
X054065Y-032234
X054124Y-022106
X054124Y-026634
X054124Y-031161
X054291Y-023652
X054291Y-023976
X054291Y-028179
X054291Y-028504
X054291Y-032707
X054291Y-033031
X054335Y-02244
X054335Y-026968
X054335Y-031495
X056339Y-021496
X056339Y-026024
X056339Y-030551
X056378Y-021831
X056378Y-026358
X056378Y-030886
X056565Y-022717
X056565Y-027244
X056565Y-031772
X056728Y-024012
X056728Y-028539
X056728Y-033067
X056733Y-023798
X056733Y-028326
X056733Y-032853
X056751Y-023012
X056751Y-027539
X056751Y-032067
X056762Y-022667
X056762Y-027195
X056762Y-031722
X056822Y-023209
X056822Y-027736
X056822Y-032264
X05687Y-021516
X05687Y-026043
X05687Y-030571
X056927Y-023762
X056927Y-028289
X056927Y-032817
X056929Y-022795
X056929Y-027323
X056929Y-03185
X056929Y-023976
X056929Y-028504
X056929Y-033031
X056949Y-022579
X056949Y-027106
X056949Y-031634
X057205Y-02185
X057205Y-026378
X057205Y-030906
X057313Y-022323
X057313Y-02685
X057313Y-031378
X057323Y-022598
X057323Y-027126
X057323Y-031654
X057333Y-022982
X057333Y-02751
X057333Y-032037
X057421Y-021969
X057421Y-026496
X057421Y-031024
X057512Y-023787
X057512Y-028315
X057512Y-032843
X05753Y-02251
X05753Y-027037
X05753Y-031565
X057538Y-023591
X057538Y-028118
X057538Y-032646
X057618Y-021496
X057618Y-021496
X057618Y-026024
X057618Y-026024
X057618Y-030551
X057618Y-030551
X057697Y-023209
X057697Y-027736
X057697Y-032264
X057697Y-022815
X057697Y-027343
X057697Y-03187
X057913Y-022638
X057913Y-027165
X057913Y-031693
X057921Y-023988
X057921Y-028516
X057921Y-033043
X057923Y-023051
X057923Y-027579
X057923Y-032106
X058102Y-023201
X058102Y-027728
X058102Y-032256
X05811Y-022598
X05811Y-022992
X05811Y-027126
X05811Y-02752
X05811Y-031654
X05811Y-032047
X058161Y-022035
X058161Y-026563
X058161Y-031091
X058386Y-021526
X058386Y-026053
X058386Y-030581
X058445Y-023346
X058445Y-027874
X058445Y-032402
X058457Y-023878
X058457Y-028406
X058457Y-032933
X058504Y-022244
X058504Y-026772
X058504Y-031299
X058602Y-022638
X058602Y-027165
X058602Y-031693
X058681Y-022018
X058681Y-026545
X058681Y-031073
X05873Y-02375
X05873Y-028278
X05873Y-032805
X058809Y-02314
X058809Y-023474
X058809Y-027667
X058809Y-028002
X058809Y-032195
X058809Y-03253
X058878Y-022303
X058878Y-026831
X058878Y-031358
X058888Y-022589
X058888Y-027116
X058888Y-031644
X059043Y-023799
X059043Y-028327
X059043Y-032854
X059193Y-022608
X059193Y-027136
X059193Y-031663
X059317Y-022929
X059317Y-027457
X059317Y-031984
X059331Y-023772
X059331Y-028299
X059331Y-032827
X05938Y-023179
X05938Y-027707
X05938Y-032234
X059439Y-022106
X059439Y-026634
X059439Y-031161
X059606Y-023652
X059606Y-023976
X059606Y-028179
X059606Y-028504
X059606Y-032707
X059606Y-033031
X05965Y-02244
X05965Y-026968
X05965Y-031495
X061654Y-021496
X061654Y-026024
X061654Y-030551
X061693Y-021831
X061693Y-026358
X061693Y-030886
X06188Y-022717
X06188Y-027244
X06188Y-031772
X062043Y-024012
X062043Y-028539
X062043Y-033067
X062048Y-023798
X062048Y-028326
X062048Y-032853
X062066Y-023012
X062066Y-027539
X062066Y-032067
X062077Y-022667
X062077Y-027195
X062077Y-031722
X062137Y-023209
X062137Y-027736
X062137Y-032264
X062185Y-021516
X062185Y-026043
X062185Y-030571
X062242Y-023762
X062242Y-028289
X062242Y-032817
X062244Y-022795
X062244Y-027323
X062244Y-03185
X062244Y-023976
X062244Y-028504
X062244Y-033031
X062264Y-022579
X062264Y-027106
X062264Y-031634
X06252Y-02185
X06252Y-026378
X06252Y-030906
X062628Y-022323
X062628Y-02685
X062628Y-031378
X062638Y-022598
X062638Y-027126
X062638Y-031654
X062648Y-022982
X062648Y-02751
X062648Y-032037
X062736Y-021969
X062736Y-026496
X062736Y-031024
X062827Y-023787
X062827Y-028315
X062827Y-032843
X062844Y-02251
X062844Y-027037
X062844Y-031565
X062853Y-023591
X062853Y-028118
X062853Y-032646
X062933Y-021496
X062933Y-021496
X062933Y-026024
X062933Y-026024
X062933Y-030551
X062933Y-030551
X063012Y-023209
X063012Y-027736
X063012Y-032264
X063012Y-022815
X063012Y-027343
X063012Y-03187
X063228Y-022638
X063228Y-027165
X063228Y-031693
X063236Y-023988
X063236Y-028516
X063236Y-033043
X063238Y-023051
X063238Y-027579
X063238Y-032106
X063417Y-023201
X063417Y-027728
X063417Y-032256
X063425Y-022598
X063425Y-022992
X063425Y-027126
X063425Y-02752
X063425Y-031654
X063425Y-032047
X063476Y-022035
X063476Y-026563
X063476Y-031091
X063701Y-021526
X063701Y-026053
X063701Y-030581
X06376Y-023346
X06376Y-027874
X06376Y-032402
X063772Y-023878
X063772Y-028406
X063772Y-032933
X063819Y-022244
X063819Y-026772
X063819Y-031299
X063917Y-022638
X063917Y-027165
X063917Y-031693
X063996Y-022018
X063996Y-026545
X063996Y-031073
X064045Y-02375
X064045Y-028278
X064045Y-032805
X064124Y-02314
X064124Y-023474
X064124Y-027667
X064124Y-028002
X064124Y-032195
X064124Y-03253
X064193Y-022303
X064193Y-026831
X064193Y-031358
X064203Y-022589
X064203Y-027116
X064203Y-031644
X064358Y-023799
X064358Y-028327
X064358Y-032854
X064508Y-022608
X064508Y-027136
X064508Y-031663
X064632Y-022929
X064632Y-027457
X064632Y-031984
X064646Y-023772
X064646Y-028299
X064646Y-032827
X064695Y-023179
X064695Y-027707
X064695Y-032234
X064754Y-022106
X064754Y-026634
X064754Y-031161
X064921Y-023652
X064921Y-023976
X064921Y-028179
X064921Y-028504
X064921Y-032707
X064921Y-033031
X064965Y-02244
X064965Y-026968
X064965Y-031495
X066969Y-021496
X066969Y-026024
X066969Y-030551
X067008Y-021831
X067008Y-026358
X067008Y-030886
X067195Y-022717
X067195Y-027244
X067195Y-031772
X067358Y-024012
X067358Y-028539
X067358Y-033067
X067363Y-023798
X067363Y-028326
X067363Y-032853
X067381Y-023012
X067381Y-027539
X067381Y-032067
X067392Y-022667
X067392Y-027195
X067392Y-031722
X067452Y-023209
X067452Y-027736
X067452Y-032264
X0675Y-021516
X0675Y-026043
X0675Y-030571
X067557Y-023762
X067557Y-028289
X067557Y-032817
X067559Y-022795
X067559Y-027323
X067559Y-03185
X067559Y-023976
X067559Y-028504
X067559Y-033031
X067579Y-022579
X067579Y-027106
X067579Y-031634
X067835Y-02185
X067835Y-026378
X067835Y-030906
X067943Y-022323
X067943Y-02685
X067943Y-031378
X067953Y-022598
X067953Y-027126
X067953Y-031654
X067963Y-022982
X067963Y-02751
X067963Y-032037
X068051Y-021969
X068051Y-026496
X068051Y-031024
X068142Y-023787
X068142Y-028315
X068142Y-032843
X068159Y-02251
X068159Y-027037
X068159Y-031565
X068168Y-023591
X068168Y-028118
X068168Y-032646
X068248Y-021496
X068248Y-021496
X068248Y-026024
X068248Y-026024
X068248Y-030551
X068248Y-030551
X068327Y-023209
X068327Y-027736
X068327Y-032264
X068327Y-022815
X068327Y-027343
X068327Y-03187
X068543Y-022638
X068543Y-027165
X068543Y-031693
X068551Y-023988
X068551Y-028516
X068551Y-033043
X068553Y-023051
X068553Y-027579
X068553Y-032106
X068732Y-023201
X068732Y-027728
X068732Y-032256
X06874Y-022598
X06874Y-022992
X06874Y-027126
X06874Y-02752
X06874Y-031654
X06874Y-032047
X068791Y-022035
X068791Y-026563
X068791Y-031091
X069016Y-021526
X069016Y-026053
X069016Y-030581
X069075Y-023346
X069075Y-027874
X069075Y-032402
X069087Y-023878
X069087Y-028406
X069087Y-032933
X069134Y-022244
X069134Y-026772
X069134Y-031299
X069232Y-022638
X069232Y-027165
X069232Y-031693
X069311Y-022018
X069311Y-026545
X069311Y-031073
X06936Y-02375
X06936Y-028278
X06936Y-032805
X069439Y-02314
X069439Y-023474
X069439Y-027667
X069439Y-028002
X069439Y-032195
X069439Y-03253
X069508Y-022303
X069508Y-026831
X069508Y-031358
X069518Y-022589
X069518Y-027116
X069518Y-031644
X069673Y-023799
X069673Y-028327
X069673Y-032854
X069823Y-022608
X069823Y-027136
X069823Y-031663
X069947Y-022929
X069947Y-027457
X069947Y-031984
X069961Y-023772
X069961Y-028299
X069961Y-032827
X07001Y-023179
X07001Y-027707
X07001Y-032234
X070069Y-022106
X070069Y-026634
X070069Y-031161
X070236Y-023652
X070236Y-023976
X070236Y-028179
X070236Y-028504
X070236Y-032707
X070236Y-033031
X07028Y-02244
X07028Y-026968
X07028Y-031495
X069516Y-021539
X069516Y-021736
X069713Y-021539
X069713Y-021736
X069909Y-021539
X069909Y-021736
X070106Y-021539
X070106Y-021736
X053571Y-030594
X053571Y-030791
X053768Y-030594
X053768Y-030791
X053965Y-030594
X053965Y-030791
X054161Y-030594
X054161Y-030791
X069516Y-030594
X069516Y-030791
X069713Y-030594
X069713Y-030791
X069909Y-030594
X069909Y-030791
X070106Y-030594
X070106Y-030791
X064201Y-026067
X064201Y-026264
X064398Y-026067
X064398Y-026264
X064594Y-026067
X064594Y-026264
X064791Y-026067
X064791Y-026264
X058886Y-021539
X058886Y-021736
X059083Y-021539
X059083Y-021736
X05928Y-021539
X05928Y-021736
X059476Y-021539
X059476Y-021736
X048256Y-026067
X048256Y-026264
X048453Y-026067
X048453Y-026264
X04865Y-026067
X04865Y-026264
X048846Y-026067
X048846Y-026264
X058886Y-026067
X058886Y-026264
X059083Y-026067
X059083Y-026264
X05928Y-026067
X05928Y-026264
X059476Y-026067
X059476Y-026264
X058886Y-030594
X058886Y-030791
X059083Y-030594
X059083Y-030791
X05928Y-030594
X05928Y-030791
X059476Y-030594
X059476Y-030791
X048256Y-021539
X048256Y-021736
X048453Y-021539
X048453Y-021736
X04865Y-021539
X04865Y-021736
X048846Y-021539
X048846Y-021736
X053571Y-021539
X053571Y-021736
X053768Y-021539
X053768Y-021736
X053965Y-021539
X053965Y-021736
X054161Y-021539
X054161Y-021736
X064201Y-030594
X064201Y-030791
X064398Y-030594
X064398Y-030791
X064594Y-030594
X064594Y-030791
X064791Y-030594
X064791Y-030791
X064201Y-021539
X064201Y-021736
X064398Y-021539
X064398Y-021736
X064594Y-021539
X064594Y-021736
X064791Y-021539
X064791Y-021736
X053571Y-026067
X053571Y-026264
X053768Y-026067
X053768Y-026264
X053965Y-026067
X053965Y-026264
X054161Y-026067
X054161Y-026264
X048256Y-030594
X048256Y-030791
X048453Y-030594
X048453Y-030791
X04865Y-030594
X04865Y-030791
X048846Y-030594
X048846Y-030791
X069516Y-026067
X069516Y-026264
X069713Y-026067
X069713Y-026264
X069909Y-026067
X069909Y-026264
X070106Y-026067
X070106Y-026264
T2
X045413Y-0219
X045413Y-022528
X045413Y-023827
X045413Y-026427
X045413Y-027055
X045413Y-028354
X045413Y-030955
X045413Y-031583
X045413Y-032882
X045417Y-023177
X045417Y-027705
X045417Y-032232
X050728Y-0219
X050728Y-022528
X050728Y-023827
X050728Y-026427
X050728Y-027055
X050728Y-028354
X050728Y-030955
X050728Y-031583
X050728Y-032882
X050732Y-023177
X050732Y-027705
X050732Y-032232
X056043Y-0219
X056043Y-022528
X056043Y-023827
X056043Y-026427
X056043Y-027055
X056043Y-028354
X056043Y-030955
X056043Y-031583
X056043Y-032882
X056047Y-023177
X056047Y-027705
X056047Y-032232
X061358Y-0219
X061358Y-022528
X061358Y-023827
X061358Y-026427
X061358Y-027055
X061358Y-028354
X061358Y-030955
X061358Y-031583
X061358Y-032882
X061362Y-023177
X061362Y-027705
X061362Y-032232
X066673Y-0219
X066673Y-022528
X066673Y-023827
X066673Y-026427
X066673Y-027055
X066673Y-028354
X066673Y-030955
X066673Y-031583
X066673Y-032882
X066677Y-023177
X066677Y-027705
X066677Y-032232
T0
M30
